<?xml version="1.0" standalone="no"?>
<!DOCTYPE svg PUBLIC "-//W3C//DTD SVG 20010904//EN"
 "http://www.w3.org/TR/2001/REC-SVG-20010904/DTD/svg10.dtd">
<svg version="1.0" xmlns="http://www.w3.org/2000/svg"
 width="1876.000000pt" height="933.000000pt" viewBox="0 0 1876.000000 933.000000"
 preserveAspectRatio="xMidYMid meet">
<metadata>
Created by potrace 1.16, written by Peter Selinger 2001-2019
</metadata>
<g transform="translate(0.000000,933.000000) scale(0.100000,-0.100000)"
fill="#000000" stroke="none">
<path d="M6770 9320 c-454 -35 -995 -232 -1429 -519 -160 -106 -314 -259 -363
-361 -76 -159 -77 -327 -2 -439 33 -50 109 -99 165 -107 95 -13 152 41 189
181 29 107 59 155 154 250 106 105 285 223 498 330 167 84 214 98 224 72 3 -8
-40 -106 -94 -218 -133 -273 -224 -481 -302 -689 -71 -191 -135 -364 -169
-465 -63 -180 -72 -195 -143 -235 -402 -221 -564 -565 -406 -863 86 -160 258
-264 492 -298 33 -4 66 -14 73 -22 13 -12 7 -21 -41 -63 -65 -55 -239 -247
-319 -350 -77 -98 -234 -340 -295 -454 -223 -418 -346 -927 -312 -1300 21
-239 36 -306 87 -388 61 -100 90 -136 156 -199 131 -124 259 -173 477 -180
119 -4 148 -2 246 20 61 14 146 40 188 57 202 84 495 319 682 546 47 57 97
113 111 124 31 24 44 16 73 -41 27 -52 101 -114 157 -130 63 -18 201 -16 283
5 87 22 157 66 249 156 93 90 167 188 222 293 22 43 42 77 44 75 2 -2 8 -66
13 -143 11 -150 28 -215 78 -287 33 -47 107 -103 164 -123 126 -45 304 12 441
141 37 35 73 64 78 64 6 0 26 -25 46 -56 48 -75 77 -101 160 -140 80 -39 115
-42 200 -15 130 41 190 77 299 180 42 40 71 61 73 53 3 -6 24 -38 47 -70 50
-67 141 -125 224 -143 87 -18 275 -7 344 20 82 32 170 93 265 184 l82 79 41
-66 c72 -114 182 -194 299 -216 68 -13 183 -13 251 0 77 15 210 72 287 124 61
41 90 64 174 143 l26 24 23 -63 c32 -91 66 -146 126 -204 82 -80 130 -99 244
-99 130 0 190 29 324 154 53 50 100 91 105 91 5 0 21 -18 36 -40 33 -47 79
-84 143 -113 67 -30 208 -30 272 0 61 30 130 79 199 145 l58 55 18 -32 c81
-151 297 -233 462 -175 31 11 84 38 117 60 65 42 220 193 305 297 28 34 56 65
62 69 21 13 39 -28 39 -88 0 -106 60 -217 140 -258 128 -65 232 -8 331 183 23
45 51 95 62 111 18 25 21 27 30 11 5 -10 18 -52 28 -93 52 -207 179 -312 364
-300 132 9 244 77 416 255 196 202 382 489 409 632 12 64 -2 112 -47 162 -67
75 -166 74 -275 -3 -24 -18 -29 -7 -17 37 29 103 -11 231 -90 292 -122 95
-270 81 -451 -42 -81 -54 -97 -62 -105 -48 -30 46 -51 64 -100 89 -46 22 -65
26 -117 22 -93 -6 -153 -49 -252 -182 -120 -163 -163 -189 -179 -111 -22 101
-33 132 -69 185 -49 74 -133 138 -217 167 -59 19 -68 26 -82 60 -16 38 -16 38
12 71 35 40 36 73 6 127 -49 87 -194 159 -385 192 -54 9 -108 24 -122 33 -69
47 -162 50 -242 9 -40 -20 -51 -21 -175 -15 -73 3 -139 9 -146 12 -12 4 -12
11 -2 42 51 147 42 239 -31 320 -63 71 -120 96 -219 96 -70 1 -86 -3 -127 -26
-71 -42 -127 -115 -213 -276 -113 -211 -100 -197 -197 -211 -248 -36 -331 -58
-379 -98 -120 -101 -51 -241 140 -285 27 -6 59 -19 71 -28 l24 -18 -19 -48
c-21 -57 -71 -159 -143 -296 l-51 -97 6 77 c10 132 -33 239 -126 315 -70 57
-139 79 -257 85 -92 4 -106 2 -170 -23 -38 -16 -94 -44 -124 -63 -67 -43 -311
-280 -348 -339 -30 -48 -53 -60 -26 -13 16 26 16 37 6 107 -24 154 -95 234
-246 278 -71 21 -234 16 -311 -9 -27 -8 -102 -45 -165 -81 -63 -36 -118 -65
-122 -65 -19 0 -4 36 49 112 197 286 280 448 324 633 38 161 13 274 -82 359
-57 51 -125 76 -206 76 -133 0 -244 -74 -393 -262 l-78 -97 -4 92 c-3 69 -10
103 -26 134 -51 98 -137 160 -238 170 -44 5 -62 1 -116 -24 -277 -131 -533
-503 -813 -1183 -69 -167 -93 -210 -116 -210 -5 0 -16 27 -25 61 -34 122 -135
238 -243 280 -45 18 -77 23 -171 23 -136 1 -194 -16 -303 -90 -101 -69 -183
-166 -334 -394 -300 -453 -567 -768 -803 -947 -110 -82 -258 -164 -345 -189
-79 -22 -180 -23 -223 -1 -79 42 -116 160 -116 367 1 445 210 1015 543 1475
122 168 174 230 325 381 236 235 497 421 618 439 94 14 117 -19 94 -131 -22
-105 -50 -172 -122 -290 -93 -153 -187 -266 -332 -400 -187 -172 -212 -201
-233 -271 -33 -112 85 -226 236 -227 60 -1 80 4 138 32 101 50 220 142 342
266 287 289 447 603 446 871 -1 180 -79 317 -251 441 -28 20 -50 42 -50 49 0
8 33 41 73 74 40 33 119 111 176 173 57 62 111 113 120 113 14 0 17 -21 23
-134 9 -155 19 -199 54 -241 55 -64 38 -62 629 -78 604 -16 681 -13 739 31 37
29 58 77 77 182 6 33 16 63 22 67 14 9 172 10 203 2 16 -4 22 -19 32 -75 17
-98 53 -166 100 -187 56 -25 362 -30 430 -8 57 19 87 48 97 94 3 17 10 32 14
32 4 0 32 -18 62 -41 194 -145 449 -166 643 -52 79 46 140 97 191 160 l43 52
6 -31 c3 -17 6 -54 6 -82 0 -61 25 -107 72 -133 28 -15 58 -18 203 -18 151 0
175 2 215 21 57 26 94 90 109 188 18 122 42 116 101 -24 24 -56 57 -114 73
-130 44 -43 96 -52 299 -53 166 0 187 1 231 21 39 18 51 29 68 68 15 33 19 58
15 85 -12 73 -99 254 -311 649 -113 210 -111 202 -81 253 14 23 48 69 76 102
77 90 218 280 257 343 53 89 59 124 31 180 -19 40 -31 50 -73 66 -43 17 -77
20 -250 20 -194 1 -201 0 -250 -24 -48 -25 -67 -46 -135 -160 -21 -35 -26 -39
-36 -25 -6 8 -14 32 -18 53 -17 106 -82 143 -258 150 -146 6 -218 -3 -260 -32
-44 -29 -59 -63 -65 -152 l-6 -74 -32 47 c-101 150 -269 240 -465 250 -352 17
-584 -180 -665 -567 -33 -152 -34 -156 -44 -144 -10 12 -81 191 -166 422 -37
100 -76 193 -86 206 -11 13 -40 35 -67 48 -43 21 -59 23 -207 23 -181 0 -214
-9 -258 -66 -27 -37 -97 -237 -177 -509 -28 -96 -58 -197 -67 -225 -15 -49
-100 -368 -110 -412 -5 -22 -6 -22 -212 -21 -113 1 -216 -1 -228 -6 -37 -12
-42 16 -33 167 10 158 -8 124 166 312 437 473 654 867 654 1189 0 113 -19 180
-68 236 -85 100 -240 123 -362 53 -104 -60 -290 -274 -425 -488 -68 -107 -193
-361 -264 -535 -28 -69 -67 -158 -86 -198 l-36 -74 -17 24 c-10 12 -33 46 -51
75 -18 29 -74 91 -124 139 -74 70 -89 89 -80 103 5 9 54 52 109 96 132 107
311 285 363 362 69 103 103 202 109 313 17 368 -266 625 -737 670 -115 11
-147 11 -291 0z m336 -130 c221 -28 377 -106 477 -240 51 -68 87 -165 87 -236
0 -61 -16 -55 -23 9 -16 162 -154 323 -328 384 -365 127 -857 50 -1472 -227
-341 -155 -659 -383 -757 -544 -24 -41 -41 -35 -19 6 78 150 357 367 672 522
514 253 1007 371 1363 326z m13 -261 c79 -12 157 -45 176 -73 23 -31 18 -84
-11 -135 -92 -159 -321 -371 -557 -514 -102 -62 -112 -67 -120 -49 -10 22 13
75 101 234 89 160 98 197 63 274 -23 50 -73 90 -173 140 -115 57 -109 64 75
102 166 33 325 41 446 21z m336 -234 c-52 -179 -294 -427 -602 -619 -167 -103
-267 -152 -406 -197 -123 -40 -147 -45 -147 -30 0 10 5 13 133 57 55 19 127
46 160 60 59 25 83 38 257 142 181 109 427 332 522 471 43 65 86 161 89 199 1
11 3 9 6 -6 2 -12 -3 -47 -12 -77z m-954 41 c78 -28 179 -91 179 -111 0 -4 -6
-3 -12 3 -7 5 -40 15 -73 22 -33 7 -73 19 -90 27 -20 11 -30 12 -33 4 -2 -6
-14 -8 -26 -5 -20 5 -30 -4 -68 -63 -184 -279 -432 -838 -618 -1393 -21 -63
-39 -107 -39 -97 -1 18 124 400 164 502 13 33 44 113 69 178 84 216 248 561
388 817 74 135 77 140 86 140 4 0 37 -11 73 -24z m2065 -20 c38 -38 44 -49 44
-86 0 -49 -8 -50 -12 -3 -1 18 -5 30 -8 28 -4 -2 -19 7 -33 21 -15 14 -43 32
-63 40 -33 14 -38 13 -81 -8 -57 -28 -200 -167 -275 -268 -178 -239 -298 -465
-463 -872 -32 -81 -50 -111 -36 -62 57 198 225 561 352 764 99 159 207 296
299 383 90 85 128 106 189 107 38 0 49 -5 87 -44z m-56 -274 c-46 -168 -187
-437 -365 -697 -86 -125 -220 -298 -236 -303 -15 -6 -10 24 5 38 24 19 197
247 243 319 171 268 276 467 319 602 39 124 36 116 41 101 3 -8 -1 -35 -7 -60z
m1841 -448 c102 -30 215 -114 268 -198 48 -77 89 -244 71 -291 -8 -22 -10 -18
-51 146 -12 47 -31 106 -43 130 -27 53 -129 137 -168 138 -15 1 -29 5 -33 11
-3 5 -12 7 -19 4 -8 -3 -17 -1 -20 4 -3 6 -23 8 -45 5 -21 -3 -47 0 -59 6 -24
13 -181 3 -160 -10 9 -6 6 -9 -9 -9 -13 0 -23 5 -23 10 0 6 -10 2 -22 -10 -27
-25 -58 -26 -59 -2 0 10 -3 12 -6 5 -2 -7 -8 -13 -13 -13 -5 0 -21 -12 -37
-27 -16 -16 -47 -44 -70 -64 -27 -24 -57 -70 -92 -138 -53 -107 -65 -114 -32
-20 32 94 67 152 127 213 69 68 152 113 232 126 74 11 195 4 263 -16z m-1209
-17 c23 -36 0 -57 -30 -30 -8 8 -20 10 -30 5 -9 -4 -50 -7 -89 -7 -40 0 -73
-3 -73 -7 0 -4 -16 -4 -35 -1 -27 4 -35 2 -35 -9 0 -9 -29 -102 -64 -209 -67
-202 -124 -383 -174 -554 -118 -399 -139 -462 -147 -453 -2 2 7 40 21 83 14
44 50 166 81 270 83 284 116 395 168 560 42 137 65 218 95 332 l11 43 147 -6
c95 -4 149 -10 154 -17z m87 -140 c63 -183 164 -512 226 -737 32 -113 84 -299
116 -414 33 -115 57 -211 55 -214 -14 -13 -64 127 -126 359 -96 354 -145 521
-233 789 -41 124 -80 250 -87 280 -7 30 -17 64 -22 75 l-10 20 20 -20 c11 -11
39 -73 61 -138z m2771 144 c0 -25 -32 -31 -167 -31 -60 0 -93 -4 -93 -11 0 -6
-10 -10 -22 -9 -41 4 -59 0 -53 -10 3 -5 2 -10 -4 -10 -5 0 -13 5 -16 10 -3 6
-18 7 -32 4 -15 -4 -37 -7 -51 -8 -19 -1 -28 -12 -49 -61 -14 -33 -29 -62 -34
-63 -5 -2 -7 -8 -3 -13 3 -5 1 -9 -5 -9 -5 0 -13 -10 -17 -22 -17 -54 -195
-303 -248 -347 -29 -24 -19 23 10 50 46 41 131 163 209 296 41 70 79 133 85
140 5 7 10 17 10 23 0 5 5 10 11 10 5 0 8 4 5 9 -4 5 -3 16 0 24 5 13 36 16
196 17 105 0 198 5 207 10 21 12 61 13 61 1z m-818 -20 c11 -1 15 -7 11 -21
-4 -17 -8 -18 -20 -8 -21 17 -55 21 -64 6 -4 -7 -29 -12 -58 -12 -28 0 -51 -3
-51 -8 0 -13 -68 -9 -73 5 -4 9 -8 8 -16 -3 -8 -11 -11 -12 -11 -2 0 8 -7 12
-16 10 -15 -3 -17 -16 -15 -93 3 -122 -5 -105 -12 27 -5 92 -4 107 10 110 12
2 230 -5 315 -11z m-4182 -144 c104 -39 180 -86 245 -152 55 -55 115 -154 115
-189 0 -7 7 -30 16 -51 15 -37 16 -37 56 -31 23 4 72 20 109 36 79 35 89 36
82 12 -6 -25 -131 -73 -191 -75 l-45 -2 -31 76 c-17 41 -43 96 -58 121 -58 97
-187 185 -343 232 -50 16 -71 27 -73 40 -5 23 24 19 118 -17z m4189 -135 c-2
-50 -1 -88 3 -86 4 2 3 -10 -3 -28 -5 -18 -10 -51 -10 -73 -3 -68 -17 67 -18
170 0 66 2 86 10 75 8 -11 9 -7 6 18 -2 20 0 29 6 23 5 -5 7 -50 6 -99z
m-4357 -121 c101 -33 159 -76 181 -136 13 -35 17 -64 13 -99 -3 -27 -7 -50 -9
-52 -1 -2 -45 18 -97 44 -152 76 -246 95 -492 100 -205 4 -208 4 -208 26 0 30
18 89 32 109 20 26 113 36 323 33 163 -2 199 -6 257 -25z m3179 -275 c-12
-205 11 -391 59 -485 21 -43 88 -101 111 -97 53 10 102 30 119 49 36 38 69
120 82 200 6 42 16 77 20 77 5 0 6 5 3 10 -4 6 13 10 44 10 32 0 51 -4 51 -11
0 -9 28 -10 100 -6 105 5 140 2 140 -16 0 -6 -3 -7 -7 -4 -3 4 -14 0 -23 -8
-14 -13 -120 -20 -300 -20 -1 0 -7 -34 -14 -75 -18 -95 -36 -138 -78 -179 -51
-50 -84 -64 -141 -58 -39 3 -56 11 -83 39 -39 39 -76 133 -95 243 -15 90 -15
410 0 449 6 16 13 27 16 25 2 -2 0 -67 -4 -143z m216 89 c14 -49 44 -171 50
-205 3 -18 -10 -47 -47 -104 -29 -44 -55 -89 -60 -100 -13 -36 -22 201 -12
321 6 61 13 117 17 123 14 22 40 4 52 -35z m-713 -105 c14 -41 37 -127 51
-190 15 -63 42 -173 61 -245 44 -172 47 -187 29 -141 -13 35 -122 443 -146
551 -5 22 -16 57 -24 78 -8 20 -15 41 -15 45 1 18 22 -29 44 -98z m2027 79 c5
-8 28 -54 51 -104 66 -137 337 -664 369 -718 34 -56 35 -61 8 -47 -11 6 -35
35 -53 63 -48 74 -406 791 -406 811 0 20 20 17 31 -5z m-4837 -68 c79 -21 160
-60 224 -108 55 -41 30 -37 -64 10 -106 53 -182 74 -324 88 -148 16 -357 1
-502 -36 -22 -6 -28 -4 -28 8 0 19 10 22 130 41 52 9 106 18 120 20 14 3 102
3 195 1 131 -3 188 -8 249 -24z m446 -74 c-38 -192 -285 -488 -591 -707 -191
-136 -456 -274 -599 -311 -111 -29 -350 -32 -448 -5 -65 17 -151 66 -189 107
-31 34 -63 108 -63 148 0 40 11 35 16 -8 5 -46 8 -52 29 -76 11 -12 27 -33 36
-47 18 -25 107 -73 178 -95 24 -7 91 -16 150 -19 253 -14 480 66 805 284 170
114 261 189 387 318 153 159 242 298 275 430 21 82 31 68 14 -19z m-1440 -154
c0 -17 -18 -30 -93 -66 -43 -21 -111 -59 -150 -85 -91 -60 -277 -242 -277
-271 0 -6 -4 -13 -10 -16 -10 -6 -9 -4 23 67 43 94 212 236 402 335 78 42 105
51 105 36z m887 -18 c118 -19 203 -50 203 -74 0 -10 -30 -48 -67 -84 -272
-262 -595 -472 -832 -539 -59 -17 -104 -22 -201 -23 -146 0 -201 16 -250 71
-25 29 -30 43 -30 85 0 31 8 65 21 92 26 50 122 146 169 169 33 16 33 16 64
-17 66 -69 165 -94 227 -58 40 24 66 82 83 190 8 51 20 101 25 111 39 73 358
114 588 77z m2576 -45 l6 -25 -159 0 c-88 0 -160 2 -160 5 1 27 23 32 146 31
71 -1 136 3 144 8 17 12 16 13 23 -19z m-786 -248 c38 -22 -32 -28 -227 -21
-107 4 -234 8 -282 8 -75 1 -88 3 -88 18 0 15 25 16 289 10 166 -3 297 -10
308 -15z m-1562 -421 c221 -57 315 -173 315 -388 0 -119 -17 -111 -22 10 -3
89 -7 110 -33 160 -34 69 -88 120 -160 153 -56 26 -183 54 -241 54 -32 0 -42
8 -27 23 12 13 98 7 168 -12z m-705 -235 c0 -2 -15 -13 -33 -23 -55 -33 -267
-215 -366 -314 -107 -108 -304 -340 -390 -462 -85 -118 -212 -329 -283 -468
-33 -66 -63 -117 -66 -114 -7 6 145 307 194 383 20 31 57 89 82 127 180 279
477 615 677 765 102 76 185 124 185 106z m2810 -164 c27 -27 40 -47 40 -66 0
-32 -10 -28 -53 20 -65 74 -132 51 -277 -95 -219 -220 -421 -549 -604 -982
-36 -86 -66 -163 -67 -170 0 -10 -2 -10 -5 -2 -6 15 82 242 148 383 28 58 54
115 59 127 20 52 157 286 227 388 99 145 168 229 254 310 143 136 206 155 278
87z m730 -7 c39 -20 70 -62 70 -96 0 -38 -11 -37 -34 5 -20 38 -68 66 -110 66
-124 0 -402 -327 -627 -736 -43 -78 -90 -171 -105 -206 -37 -89 -74 -161 -80
-155 -12 12 106 258 241 502 91 164 260 391 381 511 117 116 191 147 264 109z
m-2739 -105 c-66 -261 -284 -557 -579 -787 -51 -40 -97 -73 -102 -73 -23 0 8
32 92 96 178 134 347 324 463 518 63 105 95 181 121 285 11 40 20 66 22 57 2
-9 -6 -52 -17 -96z m5433 31 c16 -9 38 -28 49 -43 23 -31 29 -99 9 -106 -7 -2
-13 2 -11 9 4 34 -3 52 -31 79 -17 17 -37 30 -45 30 -8 0 -15 6 -15 13 0 7 -3
8 -8 2 -4 -5 -25 -10 -46 -11 -29 0 -45 -7 -62 -27 -29 -34 -117 -185 -183
-314 -51 -100 -86 -142 -54 -66 73 176 220 425 265 449 28 16 91 8 132 -15z
m-2724 -242 c-104 -308 -403 -754 -624 -931 -56 -45 -78 -41 -26 4 123 108
200 191 279 303 31 44 66 93 78 110 36 50 158 256 191 321 27 54 87 193 106
248 3 10 9 16 12 14 3 -3 -5 -34 -16 -69z m-707 -123 c3 -7 -36 -89 -85 -182
-121 -225 -140 -262 -192 -374 -43 -92 -47 -98 -133 -164 -48 -38 -105 -85
-125 -105 -21 -19 -40 -33 -42 -30 -11 11 110 237 189 354 49 72 129 191 178
265 83 124 182 250 198 250 4 0 9 -6 12 -14z m4071 -36 c37 -14 66 -47 66 -75
0 -31 -7 -31 -31 -3 -14 15 -34 23 -72 26 -46 4 -56 1 -91 -27 -45 -36 -46
-36 -46 -13 0 23 96 102 125 102 13 0 35 -4 49 -10z m-275 -56 c34 -4 61 -12
61 -18 0 -8 -76 -11 -259 -11 -173 0 -257 3 -250 10 16 16 341 30 448 19z
m565 -34 c104 -30 198 -69 210 -89 11 -18 -13 -22 -37 -7 -33 22 -105 44 -234
69 -107 22 -126 33 -83 50 25 9 31 8 144 -23z m-1354 -9 c-10 -20 -48 -27
-325 -60 -88 -11 -168 -23 -179 -27 -14 -5 -17 -3 -14 12 4 21 -2 20 273 55
94 12 186 27 205 33 42 15 53 11 40 -13z m-144 -262 c-51 -109 -76 -163 -136
-294 -67 -145 -183 -378 -209 -420 -64 -101 -265 -312 -401 -422 -119 -96
-217 -147 -308 -163 -54 -10 -67 -9 -106 8 -52 23 -99 81 -94 114 l4 23 11
-25 c26 -60 95 -94 178 -87 152 12 322 138 586 434 93 105 136 162 162 215 75
155 187 390 187 394 0 3 27 61 60 131 33 69 60 127 60 130 0 9 52 84 56 81 2
-3 -20 -56 -50 -119z m721 11 c2 -19 -6 -31 -37 -52 -21 -15 -55 -49 -74 -75
-28 -39 -250 -448 -265 -487 -13 -36 -175 -296 -233 -373 -93 -125 -128 -148
-128 -85 0 128 220 623 408 916 128 200 112 187 229 184 96 -3 98 -3 100 -28z
m810 -22 c35 -12 63 -24 63 -28 0 -7 -253 -150 -265 -150 -4 0 -20 9 -36 21
-37 26 -37 49 3 128 l33 63 70 -7 c38 -4 98 -16 132 -27z m-2182 -137 c49 -22
115 -87 115 -113 0 -24 -17 -23 -25 1 -7 22 -63 63 -120 87 -49 21 -134 23
-196 5 -119 -34 -349 -253 -529 -506 -181 -255 -451 -519 -599 -587 -57 -26
-131 -34 -170 -19 -32 14 -85 100 -78 129 2 10 9 1 17 -26 26 -83 118 -104
227 -53 92 44 163 100 304 240 138 138 171 177 276 326 181 256 404 475 533
521 55 20 197 17 245 -5z m2531 -31 c99 -56 166 -163 162 -258 -1 -47 -18 -59
-18 -12 0 124 -138 260 -265 260 -93 0 -145 -27 -145 -75 0 -14 -4 -25 -10
-25 -5 0 -10 15 -10 33 0 61 75 106 180 106 43 1 66 -6 106 -29z m-6149 -16
c55 -34 115 -109 132 -165 17 -56 27 -174 14 -166 -6 4 -13 30 -16 59 -15 122
-59 194 -148 242 -44 25 -65 29 -128 30 -64 1 -84 -4 -128 -27 -68 -35 -100
-36 -58 -2 87 72 241 85 332 29z m2599 5 c47 -22 87 -84 82 -127 l-4 -27 -15
35 c-19 42 -79 97 -115 106 -14 4 -59 4 -99 2 -60 -4 -90 -13 -161 -47 -197
-94 -356 -277 -513 -589 -92 -183 -372 -470 -459 -472 -26 0 -62 48 -61 82 l1
33 19 -42 c11 -24 26 -43 35 -43 24 0 111 54 170 105 30 26 102 106 160 178
80 100 121 163 168 257 126 251 270 415 446 508 138 73 251 86 346 41z m2529
4 c56 -20 95 -60 95 -97 -1 -25 -2 -28 -10 -14 -18 31 -107 88 -136 88 -74 0
-85 -16 -252 -340 -156 -304 -247 -448 -382 -606 -82 -96 -146 -151 -207 -183
-48 -24 -74 -26 -91 -9 -19 19 -14 25 18 20 51 -7 76 6 158 83 191 179 314
359 492 715 29 58 84 165 124 238 l71 133 40 -7 c22 -4 58 -13 80 -21z m2394
-8 c40 -20 81 -72 81 -101 0 -31 -14 -31 -28 0 -6 13 -27 36 -46 51 -30 23
-43 27 -77 22 -92 -12 -301 -188 -532 -446 -78 -88 -83 -71 -5 20 176 206 380
393 482 444 57 29 85 31 125 10z m-596 -35 c34 -20 57 -56 57 -88 0 -12 -12
-4 -41 26 -44 46 -78 54 -117 26 -13 -9 -58 -68 -101 -132 -43 -64 -92 -129
-107 -143 -55 -50 -261 -149 -310 -149 -33 0 -6 23 47 39 148 46 252 125 345
261 124 182 154 203 227 160z m-7369 -97 c-116 -115 -214 -248 -290 -393 -21
-41 -42 -77 -46 -80 -7 -6 -101 -129 -168 -222 -205 -281 -415 -499 -609 -627
-217 -144 -343 -195 -486 -195 -137 -1 -239 53 -300 158 -31 54 -75 219 -74
276 l1 45 9 -44 c5 -24 6 -48 3 -52 -3 -5 0 -9 5 -9 6 0 10 -3 9 -7 -2 -9 8
-46 22 -78 4 -11 16 -42 25 -70 25 -71 106 -148 177 -170 93 -28 137 -29 233
-5 119 29 263 101 409 205 134 96 184 140 305 270 103 111 409 518 481 640
104 177 158 251 264 363 38 39 63 59 69 53 6 -6 -8 -28 -39 -58z m6243 25 c43
-21 95 -68 63 -56 -8 3 -40 11 -71 18 -75 17 -99 3 -192 -108 -82 -98 -116
-151 -209 -327 -46 -87 -94 -157 -175 -255 -122 -149 -181 -203 -245 -226 -40
-14 -44 -13 -56 3 -12 16 -9 19 25 23 51 7 96 37 159 102 79 82 219 258 244
308 54 107 177 310 223 370 64 83 152 170 173 170 9 0 36 -10 61 -22z m-2222
-90 c-8 -37 -84 -209 -85 -192 0 7 15 52 34 100 18 49 36 97 39 107 11 30 19
19 12 -15z m-1029 -41 c-11 -44 -105 -176 -173 -242 -125 -122 -264 -211 -318
-203 -13 2 13 19 75 50 52 25 124 71 160 101 83 69 190 196 226 270 28 57 41
68 30 24z m-1506 13 c0 -5 -21 -73 -46 -151 -54 -164 -89 -221 -244 -401 -92
-107 -120 -133 -120 -110 0 45 25 191 42 242 51 156 89 208 258 349 95 80 110
90 110 71z m1300 -25 c0 -40 -47 -134 -91 -180 -26 -27 -49 -54 -51 -59 -1 -6
-13 -11 -25 -12 -21 -2 -21 -1 -7 38 21 60 68 138 115 191 39 45 59 52 59 22z
m-2496 6 c4 -5 1 -53 -6 -106 l-12 -97 -44 7 c-57 8 -92 25 -92 42 0 23 47 89
91 127 45 38 54 42 63 27z m7442 -90 c-8 -21 -55 -122 -105 -224 -50 -102 -91
-192 -91 -199 0 -8 -5 -19 -11 -25 -6 -6 -12 -19 -13 -29 -2 -10 -8 -20 -15
-22 -19 -6 19 83 163 381 76 156 98 193 72 118z m662 -23 c2 -16 -1 -28 -7
-28 -6 0 -11 4 -11 9 0 13 -47 6 -66 -10 -25 -21 -86 -104 -235 -324 -87 -128
-239 -292 -304 -326 l-45 -24 -20 21 -21 21 28 -4 c71 -11 228 150 408 416
168 248 200 284 250 278 14 -1 21 -11 23 -29z m-7557 -26 c-11 -20 -216 -112
-250 -112 -41 0 -20 17 62 49 45 17 102 43 127 56 57 30 74 32 61 7z m1299 -7
c0 -21 -67 -174 -101 -231 -52 -87 -139 -195 -179 -224 l-30 -21 0 44 c0 47
17 115 56 219 42 112 154 215 237 218 9 0 17 -2 17 -5z m1690 -80 c0 -32 75
-176 114 -219 l33 -35 -36 -34 c-117 -111 -220 -169 -301 -171 l-55 -1 -3 51
c-5 94 75 271 190 417 24 30 33 35 44 26 8 -6 14 -22 14 -34z m1785 8 c-9 -21
-41 -107 -72 -193 -63 -174 -82 -211 -49 -94 30 102 119 324 131 324 3 0 -2
-17 -10 -37z m667 -2 c32 -18 141 -47 203 -54 l30 -3 -30 -13 c-56 -24 -245
30 -245 70 0 23 1 23 42 0z m-6014 -39 c82 -4 102 -8 102 -20 0 -32 -284 3
-306 39 -14 23 10 26 54 7 34 -16 75 -23 150 -26z m6698 -148 c-30 -76 -64
-173 -75 -214 -14 -52 -20 -65 -20 -44 -1 34 86 300 120 365 40 80 29 30 -25
-107z m-5453 24 c-6 -7 -61 -76 -123 -153 -229 -282 -318 -354 -390 -315 -20
11 -45 70 -29 70 5 0 9 -5 9 -11 0 -16 27 -39 46 -39 25 0 84 23 84 32 0 4 6
8 13 9 15 1 196 199 289 317 70 87 98 116 106 107 3 -2 0 -10 -5 -17z m4754
-41 l42 -12 -50 -75 c-59 -86 -107 -140 -126 -140 -28 0 -9 108 37 215 17 39
22 44 37 35 10 -6 37 -16 60 -23z m197 -24 c-34 -82 -142 -249 -199 -308 -71
-72 -122 -100 -173 -92 -37 7 -72 32 -72 53 0 10 10 7 35 -7 100 -59 240 60
370 314 42 80 65 105 39 40z m-6158 1 c-14 -56 -97 -216 -141 -274 -46 -60
-121 -120 -149 -120 -26 0 -18 14 18 34 84 45 174 164 241 319 31 70 42 85 31
41z m2484 -5 c0 -6 7 -9 15 -5 53 20 -42 -72 -139 -135 -33 -22 -62 -39 -65
-39 -13 0 2 85 18 98 22 17 154 92 164 92 4 0 7 -5 7 -11z m-2844 -350 c61
-33 61 -63 0 -39 -34 12 -56 60 -54 112 l2 43 3 -46 c4 -44 7 -48 49 -70z"/>
<path d="M14580 9316 c-303 -38 -566 -109 -830 -223 -125 -54 -248 -115 -304
-151 -231 -145 -364 -252 -462 -370 -109 -132 -157 -250 -158 -387 0 -67 4
-90 28 -142 61 -135 206 -215 289 -160 45 29 61 72 61 167 1 79 3 89 35 138
76 119 275 274 541 422 173 95 277 139 349 147 34 3 61 2 61 -2 0 -4 -46 -92
-102 -194 -159 -290 -269 -514 -406 -826 -201 -459 -324 -808 -378 -1075 -32
-156 -30 -310 5 -400 51 -134 196 -251 290 -235 92 15 137 88 146 235 9 137
22 218 60 365 39 153 119 376 146 408 23 27 16 35 128 -138 307 -474 621 -800
911 -945 121 -61 216 -88 335 -96 172 -11 325 41 435 149 55 54 100 134 100
177 0 41 -42 113 -78 133 -31 18 -36 18 -100 3 -37 -9 -92 -23 -122 -32 -106
-30 -210 -4 -356 89 -158 100 -386 327 -609 607 -54 69 -118 147 -142 174
l-43 48 23 19 c13 10 53 29 89 42 411 155 932 537 1138 834 173 248 222 503
141 723 -39 105 -85 173 -171 253 -118 109 -278 185 -490 232 -101 22 -418 28
-560 11z m553 -137 c322 -65 521 -243 558 -499 11 -70 3 -183 -12 -174 -5 3
-9 40 -9 82 0 148 -45 257 -148 364 -52 55 -85 78 -166 118 -166 82 -238 95
-516 95 -266 -1 -353 -12 -605 -84 -552 -156 -1019 -436 -1217 -729 -29 -42
-58 -93 -65 -112 l-14 -35 6 35 c20 126 185 318 407 474 194 137 471 271 728
354 172 56 316 88 560 125 14 3 108 5 208 6 150 1 202 -3 285 -20z m-40 -239
c89 -19 154 -55 184 -101 26 -39 28 -50 27 -128 -1 -101 -26 -172 -105 -302
-151 -248 -464 -523 -802 -704 -87 -47 -124 -55 -134 -29 -12 33 167 363 329
604 131 195 158 248 158 313 0 102 -58 176 -185 232 -47 21 -85 44 -85 50 0 7
12 17 28 23 28 12 216 48 287 56 60 6 246 -2 298 -14z m367 -290 c-32 -154
-111 -322 -222 -472 -76 -104 -277 -305 -383 -384 -120 -90 -261 -178 -401
-251 -139 -72 -377 -173 -411 -173 -44 0 -32 19 24 38 214 75 464 201 667 335
213 141 401 322 531 512 93 136 185 362 185 456 0 15 3 36 8 46 13 32 15 -47
2 -107z m-952 83 c62 -20 125 -81 120 -115 -5 -33 -25 -32 -36 1 -15 42 -53
65 -94 56 -27 -6 -31 -5 -20 6 16 17 15 29 -3 29 -8 0 -15 -9 -15 -20 0 -24
-6 -25 -26 -5 -30 29 -57 18 -94 -37 -259 -395 -493 -882 -729 -1516 -56 -150
-115 -321 -131 -380 -46 -170 -68 -211 -30 -57 22 91 95 318 133 415 14 36 49
128 77 205 29 77 65 169 81 205 15 36 58 135 95 220 65 150 214 459 290 597
20 38 84 148 143 246 l106 178 40 -6 c22 -3 64 -13 93 -22z m-186 -1640 c424
-532 683 -783 924 -898 176 -84 308 -84 447 -1 58 35 77 33 56 -5 -8 -16 -13
-18 -19 -9 -6 10 -9 10 -15 0 -14 -23 -139 -72 -195 -77 -111 -10 -290 51
-420 142 -167 117 -383 323 -556 529 -236 283 -384 470 -384 487 0 27 32 -7
162 -168z"/>
<path d="M2015 9259 c-413 -19 -1012 -79 -1345 -134 -418 -69 -460 -79 -520
-123 -98 -72 -145 -169 -145 -297 1 -105 34 -178 107 -236 66 -52 120 -66 323
-83 194 -17 336 -50 424 -96 136 -73 244 -192 277 -307 12 -43 15 -80 11 -152
-6 -107 -23 -171 -137 -506 -238 -698 -289 -989 -203 -1146 56 -103 170 -179
283 -187 75 -5 118 9 173 57 46 41 63 88 82 241 35 270 163 779 273 1080 99
274 166 435 284 690 144 308 244 494 391 724 l51 79 209 -6 c115 -2 213 -9
218 -14 5 -5 -26 -44 -74 -93 -216 -221 -542 -881 -762 -1545 -87 -262 -118
-471 -82 -556 36 -86 132 -149 227 -149 120 0 168 53 300 333 53 113 107 217
118 232 33 42 26 15 -10 -41 -27 -40 -34 -61 -38 -119 -13 -178 25 -292 130
-388 73 -68 144 -97 235 -97 120 0 225 60 359 205 l78 86 44 -61 c77 -104 181
-162 325 -177 166 -17 374 86 591 296 228 219 393 466 392 587 -1 57 -13 85
-57 131 -39 42 -85 57 -131 44 -35 -9 -36 -9 -46 27 -5 21 -10 53 -10 73 0 66
-37 163 -81 212 -59 67 -163 117 -261 124 -191 14 -376 -78 -553 -278 -96
-107 -337 -455 -417 -599 -44 -80 -77 -131 -73 -115 8 37 91 203 156 310 66
111 113 253 106 321 -11 109 -77 203 -175 251 -50 24 -68 28 -150 27 -80 0
-93 2 -89 15 2 9 57 104 122 211 182 300 208 353 210 424 2 52 -3 68 -31 116
-30 50 -63 81 -162 150 -56 38 -30 44 135 31 170 -14 339 -44 400 -71 23 -10
66 -43 96 -74 41 -43 61 -56 83 -56 40 0 87 31 115 76 33 55 33 169 0 234 -54
105 -133 168 -268 215 -78 27 -313 69 -478 85 -264 26 -716 34 -1030 19z
m1065 -143 c288 -35 458 -79 533 -139 38 -29 97 -119 97 -146 0 -8 -14 6 -30
32 -88 131 -193 168 -619 217 -405 46 -1114 33 -1611 -31 -85 -11 -216 -26
-290 -34 -74 -8 -274 -35 -445 -60 -170 -25 -342 -50 -381 -54 -79 -9 -105
-20 -150 -63 -19 -18 -34 -26 -38 -19 -8 13 30 91 45 91 6 0 17 6 24 14 9 8
49 16 102 20 48 4 207 25 353 47 379 56 826 105 1310 142 25 2 252 3 505 2
355 -2 491 -6 595 -19z m-1145 -206 c-40 -63 -266 -520 -319 -645 -26 -60 -60
-139 -76 -175 -16 -36 -43 -102 -60 -147 -40 -106 -66 -128 -30 -26 58 164
148 371 288 663 30 63 77 162 104 220 46 97 108 184 116 161 2 -5 -9 -28 -23
-51z m-240 -112 c-4 -13 -33 -79 -65 -148 -32 -69 -76 -163 -98 -210 -68 -147
-105 -220 -112 -220 -4 0 -24 26 -45 58 -91 137 -147 187 -324 287 -58 33
-106 67 -106 75 0 25 347 117 605 160 147 25 153 25 145 -2z m1208 -113 c29
-8 57 -19 63 -23 15 -10 37 -53 30 -59 -3 -4 -34 6 -69 21 -51 22 -69 25 -90
17 -57 -22 -151 -146 -278 -366 -105 -184 -315 -634 -402 -865 -126 -333 -188
-517 -203 -597 -3 -21 -11 -45 -16 -53 -7 -12 -8 -11 -4 5 2 11 7 36 10 57 15
87 149 473 266 768 186 468 486 1011 599 1087 40 27 31 27 94 8z m-2274 -100
c102 -9 243 -46 336 -89 156 -72 259 -167 315 -291 41 -90 98 -307 88 -336 -3
-8 -10 9 -17 36 -23 103 -69 245 -97 301 -17 35 -57 87 -99 129 -109 109 -285
187 -515 230 -130 23 -180 36 -180 46 0 4 21 2 48 -6 26 -8 80 -17 121 -20z
m3476 -759 c28 -13 62 -36 77 -52 36 -39 60 -108 52 -151 -8 -44 -24 -32 -24
18 0 131 -148 206 -306 154 -164 -55 -346 -225 -480 -448 -16 -27 -37 -61 -46
-75 -10 -15 -21 -34 -24 -42 -3 -8 -15 -37 -26 -65 -12 -27 -44 -77 -72 -110
-28 -33 -77 -94 -108 -135 -31 -41 -94 -114 -140 -162 -89 -92 -127 -113 -156
-84 -15 15 -15 16 4 16 27 0 101 49 145 96 71 76 339 417 339 432 0 22 63 132
142 249 132 195 290 327 440 367 77 21 126 19 183 -8z m-1091 -56 c41 -20 76
-61 95 -113 14 -38 -8 -32 -27 6 -24 50 -125 100 -175 86 -94 -26 -347 -281
-526 -531 -19 -27 -40 -48 -48 -48 -21 0 -16 10 22 47 20 19 71 87 114 151 87
130 257 304 370 380 73 48 112 53 175 22z m866 -219 c-6 -15 -38 -56 -70 -92
-55 -60 -58 -62 -50 -31 10 37 61 125 93 160 18 20 22 21 30 7 5 -10 4 -27 -3
-44z m-2634 -6 c-8 -28 -35 -104 -61 -170 -70 -176 -178 -503 -210 -635 -35
-146 -37 -150 -42 -127 -9 37 77 349 171 616 96 274 184 469 142 316z m2812
-72 c-80 -142 -246 -294 -385 -354 -57 -24 -73 -24 -73 2 0 11 4 18 8 15 35
-22 190 76 305 191 71 72 176 212 178 237 0 6 3 5 6 -2 3 -7 -15 -47 -39 -89z
m-1264 -100 c-15 -37 -49 -112 -76 -166 -61 -123 -105 -233 -128 -322 -11 -43
-19 -59 -19 -42 -2 56 66 230 220 563 34 73 36 49 3 -33z m1690 31 c12 -32 7
-47 -15 -41 -25 7 -38 -6 -114 -109 -247 -335 -498 -544 -653 -544 -95 0 -163
54 -161 127 l1 28 8 -29 c27 -89 135 -120 250 -73 159 66 378 275 550 526 57
84 101 131 120 131 4 0 11 -7 14 -16z m-384 -63 c0 -20 -119 -154 -152 -172
-18 -10 -19 -9 -4 18 19 37 134 173 146 173 6 0 10 -8 10 -19z m-80 -192 c0
-13 -132 -109 -150 -109 -16 0 21 38 94 97 37 30 56 34 56 12z m-3119 -672
c-12 -51 -25 -117 -30 -147 -5 -34 -9 -44 -10 -25 -2 58 51 328 57 287 2 -12
-6 -64 -17 -115z"/>
<path d="M17003 8115 c-106 -32 -172 -94 -337 -314 -151 -200 -269 -321 -291
-299 -2 2 -9 37 -16 78 -25 165 -122 283 -273 333 -142 48 -329 -8 -498 -147
-217 -179 -373 -472 -409 -765 -12 -106 -6 -176 22 -258 57 -168 170 -271 332
-305 199 -42 461 128 691 449 48 67 107 139 130 161 44 41 177 102 221 102 23
0 26 -4 23 -27 -3 -28 -6 -31 -158 -136 -145 -101 -210 -218 -210 -380 0 -96
10 -135 47 -191 149 -223 411 -218 655 12 115 109 198 231 253 370 34 86 50
90 79 17 79 -207 166 -301 326 -355 230 -78 550 76 870 419 162 173 255 312
284 423 22 85 -1 144 -76 198 -55 40 -101 40 -174 -1 -30 -17 -57 -29 -60 -27
-2 3 3 21 11 41 22 53 19 155 -7 224 -26 71 -99 146 -183 188 -56 28 -67 30
-175 30 -108 0 -119 -2 -180 -31 -93 -45 -249 -166 -362 -281 -182 -184 -241
-237 -179 -158 8 11 -7 -1 -34 -27 -62 -58 -122 -98 -146 -98 -11 0 -29 10
-40 21 -19 19 -21 30 -16 78 6 69 27 112 102 210 75 99 98 146 98 201 -1 33 2
39 7 25 15 -37 11 8 -6 66 -38 127 -184 197 -321 154z m157 -116 c40 -24 50
-37 50 -61 0 -25 -14 -22 -46 7 -81 75 -196 -13 -437 -335 -81 -109 -195 -221
-290 -285 -39 -27 -167 -85 -187 -85 -22 0 3 22 47 41 140 60 316 205 409 337
135 191 275 346 344 380 56 27 66 27 110 1z m1086 -191 c43 -26 60 -44 79 -85
26 -54 32 -98 15 -108 -6 -4 -10 8 -10 28 0 35 -22 65 -91 125 l-36 31 -100
-8 c-88 -8 -193 -38 -213 -61 -3 -3 -27 -20 -55 -37 -27 -18 -73 -56 -101 -85
-46 -48 -188 -214 -224 -263 -9 -11 -33 -29 -55 -40 -22 -12 -62 -33 -90 -48
-72 -39 -261 -117 -285 -117 -22 0 -35 20 -44 70 l-7 35 15 -29 c9 -15 16 -37
16 -47 0 -16 3 -17 28 -5 15 8 63 28 107 45 199 78 269 132 478 371 49 56 109
113 147 138 36 24 77 53 93 65 15 12 35 23 45 23 9 1 26 2 37 3 17 1 17 3 5
11 -17 11 -16 11 43 15 15 1 31 5 35 10 17 17 115 -4 168 -37z m-2161 -7 c43
-20 124 -100 148 -147 18 -37 41 -133 33 -141 -3 -4 -6 0 -6 8 0 26 -50 114
-95 165 -62 72 -119 98 -198 91 -75 -6 -108 -20 -130 -55 l-16 -27 -1 31 c0
23 7 36 26 49 71 46 171 57 239 26z m-308 -143 c18 -13 33 -27 33 -32 0 -5
-24 -6 -54 -2 -59 7 -71 1 -154 -78 -98 -92 -213 -286 -262 -439 -12 -38 -24
-66 -27 -63 -9 9 38 148 82 243 77 165 210 329 305 376 44 21 38 21 77 -5z
m2423 -105 c-1 -89 -222 -334 -367 -407 -38 -19 -104 -21 -121 -4 -17 17 -15
27 6 24 32 -5 119 21 168 49 27 16 94 74 150 129 98 98 144 164 144 206 0 11
5 20 10 20 6 0 10 -8 10 -17z m-104 -21 c-16 -30 -147 -183 -192 -222 l-28
-25 30 36 c16 20 61 72 101 117 39 44 76 90 83 101 6 12 13 21 16 21 2 0 -2
-12 -10 -28z m554 -137 c0 -16 -30 -35 -57 -35 -10 0 -28 -16 -40 -35 -109
-168 -402 -470 -533 -550 -97 -59 -242 -85 -304 -54 -33 15 -60 57 -70 104 -6
29 -5 28 14 -7 32 -59 61 -73 155 -73 73 0 88 4 156 37 52 26 109 68 191 142
115 104 352 366 406 449 15 23 31 45 36 49 14 9 46 -10 46 -27z m-2853 -84
c31 -25 162 -55 203 -46 26 6 30 4 30 -14 0 -18 -6 -21 -45 -21 -59 0 -141 18
-187 41 -41 21 -52 34 -43 49 9 14 13 13 42 -9z m2392 -23 c-14 -27 -180 -192
-207 -207 -16 -8 -19 -7 -18 8 0 9 49 63 108 119 107 101 140 124 117 80z
m-1379 -187 l0 -129 -27 -7 c-45 -11 -187 -80 -248 -120 -68 -45 -122 -113
-137 -172 -11 -46 -28 -58 -28 -20 0 35 55 138 93 175 41 40 68 56 220 129
l117 57 0 108 c0 59 2 108 5 108 3 0 5 -58 5 -129z m630 36 c-6 -30 -15 -99
-19 -153 l-8 -99 -2 81 c-1 95 22 245 36 231 3 -3 0 -30 -7 -60z m-1665 -44
c5 -21 -3 -39 -40 -94 -73 -107 -93 -113 -60 -18 19 54 76 150 86 144 4 -3 10
-17 14 -32z m190 -21 c-27 -78 -131 -237 -203 -310 -55 -56 -84 -73 -132 -75
-36 -1 -46 3 -72 32 -37 41 -30 50 17 22 20 -11 45 -21 56 -21 75 0 197 128
298 315 40 72 41 75 45 75 2 0 -2 -17 -9 -38z m706 -304 c3 -79 -13 -113 -71
-153 l-42 -29 -18 22 c-32 39 2 122 69 168 48 32 61 31 62 -8z m109 -35 c-56
-175 -168 -257 -285 -209 -34 15 -55 41 -55 71 0 15 1 15 16 0 20 -19 80 -45
106 -45 10 0 16 -5 13 -10 -9 -15 43 9 92 42 42 28 91 110 109 183 4 16 9 24
11 18 3 -7 -1 -30 -7 -50z"/>
<path d="M9676 3275 c-49 -13 -79 -32 -70 -46 3 -5 0 -9 -6 -9 -7 0 -30 -16
-53 -35 -22 -19 -42 -33 -45 -31 -8 9 17 42 42 56 14 7 26 17 26 22 0 5 -10 2
-22 -6 -13 -8 -51 -24 -86 -36 -35 -11 -80 -31 -101 -44 -36 -23 -93 -87 -90
-103 4 -22 -3 -32 -30 -41 -28 -10 -28 -12 -35 -101 -4 -50 -5 -101 -1 -113 5
-17 4 -19 -3 -9 -14 20 -26 -65 -18 -122 9 -61 59 -143 106 -172 l39 -25 3
-117 3 -118 45 -6 c25 -4 69 -18 99 -32 29 -14 60 -23 67 -20 8 3 14 0 14 -6
0 -7 -6 -14 -14 -17 -21 -8 -46 -78 -46 -127 0 -33 6 -49 23 -65 26 -25 44
-27 97 -11 25 8 51 8 76 2 53 -12 60 -38 69 -262 l7 -183 -80 42 c-44 23 -96
45 -114 48 -54 11 -190 4 -238 -12 -44 -15 -42 -16 77 -10 97 4 132 2 170 -11
66 -23 163 -75 176 -96 8 -13 14 -15 28 -6 22 13 38 2 21 -15 -16 -16 -15 -38
1 -38 8 0 19 -10 26 -22 8 -17 10 -18 5 -3 -8 23 -17 161 -10 155 3 -4 11 -64
21 -165 2 -18 9 -58 21 -110 2 -11 -13 13 -34 53 -48 93 -115 160 -205 208
-76 40 -69 39 -262 32 -58 -2 -99 -8 -98 -13 1 -6 33 -57 71 -115 121 -184
198 -232 372 -235 147 -2 158 -16 147 -199 -8 -134 -31 -257 -61 -331 -13 -33
-48 -145 -78 -250 -57 -204 -65 -279 -37 -360 16 -46 41 -56 71 -28 54 47 173
356 222 575 44 197 50 270 48 511 -2 262 -12 237 106 256 89 14 182 62 257
132 76 71 118 134 139 210 27 94 11 105 -138 96 -58 -3 -112 -13 -148 -27 -72
-28 -176 -113 -207 -171 l-24 -44 24 20 c13 12 55 49 92 83 37 34 73 62 80 62
6 0 0 -7 -13 -16 -14 -9 -62 -53 -107 -97 -54 -53 -86 -78 -97 -74 -44 17 -78
139 -79 282 -1 115 10 145 74 213 40 42 42 43 76 31 47 -15 238 -8 255 10 11
10 -3 27 -72 91 -54 50 -81 82 -75 88 6 5 28 16 50 25 22 8 84 36 139 61 l98
46 -5 68 c-3 37 -8 76 -12 88 -5 15 3 32 29 65 50 63 72 107 80 162 7 46 5 51
-33 100 -22 29 -47 66 -55 82 -9 17 -16 24 -16 17 0 -22 31 -75 66 -115 36
-40 41 -52 22 -63 -6 -4 -8 -3 -5 3 4 6 0 14 -9 17 -8 3 -12 10 -9 16 3 5 0 7
-8 5 -7 -3 -22 4 -33 16 -10 13 -13 19 -6 15 6 -4 12 -2 12 3 0 10 -12 15 -30
13 -3 0 -6 7 -7 16 -1 9 -5 40 -8 67 -5 37 -4 46 4 35 9 -12 11 -13 11 -1 0 8
-6 22 -13 30 -8 9 -21 37 -31 63 -23 64 -101 133 -170 153 -72 20 -263 37
-285 25 -10 -5 -23 -16 -31 -24 -11 -14 -9 -16 11 -17 13 -1 28 -1 33 0 24 5
94 -31 104 -54 8 -16 23 -26 47 -31 35 -6 115 -57 115 -72 0 -22 -49 -1 -210
91 -45 25 -65 31 -115 30 -53 0 -81 -7 -160 -38 -18 -8 -18 -6 3 17 14 16 47
32 87 43 36 9 65 21 65 26 0 14 -70 40 -127 48 -31 5 -69 3 -97 -4z m306 -172
c58 -23 101 -55 87 -64 -9 -5 -6 -15 10 -34 11 -15 21 -32 21 -38 0 -6 -13 10
-30 34 -21 32 -44 52 -77 66 -53 24 -149 37 -158 22 -4 -5 -10 -7 -14 -5 -4 3
-30 -15 -58 -39 -28 -25 -55 -45 -60 -45 -4 0 -13 -16 -19 -36 -14 -42 3 -132
29 -158 18 -19 42 -85 33 -93 -3 -4 -6 -1 -6 6 0 7 -8 25 -19 39 -35 52 -63
144 -56 189 8 55 78 142 115 143 14 1 39 7 55 15 42 19 97 18 147 -2z m-403
-71 c-12 -20 -26 -43 -31 -50 -18 -21 -10 -121 12 -157 25 -41 133 -138 142
-129 3 2 5 -2 5 -10 0 -10 -12 -6 -42 13 -88 55 -137 111 -148 167 -8 44 4
179 14 162 7 -10 9 -9 9 5 0 9 8 17 18 17 14 0 15 2 2 10 -11 7 -11 10 -2 10
7 0 10 5 6 11 -4 8 0 8 15 0 l20 -11 -20 -38z m-135 26 c9 -12 16 -36 16 -53
l0 -30 -20 33 c-30 49 -61 59 -103 33 -38 -24 -47 -43 -47 -113 0 -29 -5 -48
-11 -48 -13 0 -5 104 12 146 19 50 125 72 153 32z m826 -63 c1 21 29 -42 30
-66 0 -34 -55 -140 -100 -193 -20 -22 -53 -64 -73 -92 -41 -58 -119 -125 -97
-85 14 26 26 42 100 127 31 35 73 97 94 138 36 70 38 79 32 133 -4 40 -3 53 4
43 5 -8 10 -10 10 -5z m-339 -7 c51 -12 89 -67 68 -100 -6 -9 -9 -5 -9 13 0
60 -82 103 -113 59 -8 -11 -17 -17 -20 -13 -4 3 -2 12 4 20 8 8 8 13 1 13 -20
0 -42 -12 -36 -21 3 -5 -2 -6 -10 -3 -36 14 21 46 69 40 17 -2 37 -6 46 -8z
m-176 -30 c-9 -27 30 -83 74 -107 40 -22 49 -23 99 -14 46 8 52 8 38 -3 -10
-7 -35 -16 -57 -19 -49 -8 -112 24 -146 74 -23 35 -31 81 -13 81 5 0 7 -6 5
-12z m345 -108 c-11 -34 -44 -57 -143 -98 -4 -2 21 25 56 60 37 37 70 81 78
103 l14 39 3 -35 c2 -18 -2 -50 -8 -69z m294 28 c-9 -24 -20 -74 -24 -112 -8
-69 -65 -200 -100 -230 -43 -36 -49 -23 -11 24 44 56 63 102 81 200 12 64 49
159 62 160 4 0 0 -19 -8 -42z m-922 -149 c61 -87 68 -91 164 -99 68 -6 115
-18 198 -50 60 -22 121 -47 136 -55 20 -10 30 -11 38 -3 8 8 9 5 5 -12 -4 -15
-2 -21 5 -16 6 3 13 2 17 -4 3 -5 -3 -10 -14 -10 -11 0 -23 5 -27 11 -12 20
-98 51 -127 45 -19 -4 -44 3 -78 20 -32 17 -70 27 -110 30 -88 5 -136 21 -175
57 -41 38 -74 125 -74 195 0 78 15 71 20 -10 3 -47 11 -83 22 -99z m-172 -13
c-24 -24 -1 -101 34 -112 23 -8 30 -14 69 -66 22 -30 27 -47 27 -95 0 -32 -6
-68 -13 -79 -6 -12 -22 -40 -35 -64 -13 -23 -26 -39 -29 -36 -3 3 2 17 12 32
9 15 21 56 25 93 5 36 13 67 19 69 6 2 11 8 11 13 0 6 -4 7 -10 4 -5 -3 -20
11 -34 32 -13 21 -45 59 -70 86 -41 42 -46 53 -46 92 0 31 5 47 17 54 20 11
38 -8 23 -23z m818 18 c-13 -13 -34 -16 -96 -15 -62 2 -93 -3 -143 -22 -89
-33 -141 -41 -137 -20 2 9 10 19 18 23 31 16 173 37 257 39 48 1 90 4 92 7 2
2 9 4 15 4 6 0 3 -7 -6 -16z m-491 -260 c77 -92 105 -129 125 -169 17 -31 17
-37 5 -26 -9 7 -26 29 -38 47 -11 19 -24 32 -29 29 -5 -3 -27 16 -50 42 -37
41 -68 85 -167 233 -20 30 96 -87 154 -156z m774 10 c20 -10 29 -10 38 -1 8 8
11 5 11 -12 0 -23 -2 -23 -52 -15 -29 5 -80 8 -113 8 -88 -2 -269 -50 -356
-95 -21 -10 -45 -19 -52 -19 -8 0 -26 -9 -40 -20 -32 -25 -41 -25 -27 0 35 66
392 185 519 172 25 -2 58 -10 72 -18z m-939 -152 c2 -5 28 -26 58 -47 35 -25
55 -34 58 -26 3 8 9 3 16 -11 7 -12 20 -22 29 -22 9 1 17 -4 17 -12 0 -7 6
-11 14 -8 8 3 17 0 21 -6 11 -19 2 -19 -35 -3 -19 9 -44 18 -55 20 -34 6 -115
65 -131 94 -8 16 -10 29 -5 29 5 0 11 -4 13 -8z m686 -112 c7 -12 17 -18 21
-15 5 3 4 -6 -2 -20 -13 -26 -33 -36 -24 -11 4 11 1 13 -11 9 -15 -6 -16 -5
-2 12 8 10 10 16 3 12 -6 -4 -14 -1 -16 5 -4 8 -6 7 -6 -4 -1 -22 -17 -32 -27
-17 -4 8 -3 9 4 5 7 -4 12 -1 12 8 0 19 4 19 -56 2 -27 -8 -71 -17 -99 -21
-27 -3 -59 -8 -70 -11 -16 -4 -17 -3 -5 4 24 15 202 54 222 49 10 -3 21 -1 24
4 8 14 18 11 32 -11z m91 -75 c23 -25 46 -45 52 -45 5 0 9 -4 9 -10 0 -19 -19
-10 -54 24 -19 19 -37 32 -42 28 -4 -4 -4 -1 1 7 6 10 2 12 -14 6 -21 -6 -30
12 -14 28 12 12 19 8 62 -38z m-411 -70 c2 -2 -7 -12 -19 -24 -31 -29 -89 -29
-89 0 0 11 4 17 10 14 5 -3 7 0 4 9 -5 13 2 14 43 9 26 -3 49 -7 51 -8z m172
6 c0 -5 -20 -27 -45 -50 -25 -23 -45 -49 -45 -59 0 -13 -2 -14 -9 -3 -6 10
-19 3 -55 -31 -37 -36 -48 -42 -57 -31 -6 7 -9 14 -5 14 3 1 12 2 19 3 6 1 11
7 10 13 -1 6 14 19 33 28 19 9 59 41 87 70 51 53 67 64 67 46z m402 -380 c-44
-26 -119 -78 -165 -114 -96 -75 -234 -219 -240 -251 -4 -17 -5 -16 -6 6 0 15
4 30 9 33 6 4 20 25 32 48 28 55 143 174 193 199 22 12 54 31 71 44 42 33 145
84 168 84 11 0 -17 -22 -62 -49z m-900 -215 c56 -17 83 -34 163 -99 62 -51
205 -186 205 -194 0 -3 -26 19 -57 47 -32 28 -79 62 -104 75 -25 13 -79 52
-120 86 -41 34 -92 70 -114 80 -48 22 -37 24 27 5z"/>
</g>
</svg>
