<?xml version="1.0" standalone="no"?>
<!DOCTYPE svg PUBLIC "-//W3C//DTD SVG 20010904//EN"
 "http://www.w3.org/TR/2001/REC-SVG-20010904/DTD/svg10.dtd">
<svg version="1.0" xmlns="http://www.w3.org/2000/svg"
 width="2399.986911pt" height="1446.028823pt" viewBox="0 0 2399.986911 1446.028823"
 preserveAspectRatio="xMidYMid meet">
<metadata>
Created by potrace 1.16, written by Peter Selinger 2001-2019
</metadata>
<g transform="translate(-0.016961,1446.052020) scale(0.100000,-0.100000)"
fill="#000000" stroke="none">
<path d="M20346 14445 c-11 -8 -40 -15 -64 -15 -96 0 -279 -106 -397 -231
-104 -109 -164 -233 -200 -411 -8 -43 -21 -97 -29 -120 -7 -24 -19 -63 -26
-88 -36 -122 -117 -340 -128 -345 -7 -2 -34 6 -60 19 -78 39 -152 51 -219 36
-82 -18 -144 -52 -190 -104 -26 -29 -99 -164 -211 -389 -95 -190 -172 -350
-172 -356 0 -7 -8 -26 -17 -44 -9 -18 -20 -48 -24 -67 -35 -157 -40 -198 -42
-325 -1 -86 4 -159 12 -190 28 -112 35 -133 62 -193 44 -95 45 -105 14 -159
-15 -26 -42 -75 -59 -108 -18 -33 -44 -80 -59 -105 -15 -25 -52 -88 -83 -140
-30 -52 -59 -102 -64 -110 -6 -8 -20 -30 -31 -47 -25 -39 -50 -42 -97 -13 -19
12 -64 32 -100 46 -37 14 -76 30 -87 34 -151 62 -461 67 -675 11 -83 -21 -222
-76 -315 -124 -188 -97 -300 -173 -518 -353 -42 -35 -81 -64 -87 -64 -5 0 -34
34 -65 75 -63 83 -194 208 -277 262 -107 70 -260 138 -363 162 -55 12 -113 27
-129 32 -16 5 -70 9 -120 9 -139 -1 -284 -47 -407 -131 -84 -57 -139 -114
-197 -202 -50 -76 -65 -111 -102 -237 -45 -155 -153 -418 -175 -426 -6 -3 -42
16 -81 42 -57 39 -161 92 -279 144 -26 11 -47 16 -185 45 -250 53 -459 22
-627 -93 -171 -117 -252 -240 -328 -496 -20 -65 -126 -295 -157 -339 -11 -16
-24 -25 -28 -20 -4 4 -18 44 -30 88 -74 276 -224 510 -437 681 -92 75 -102 88
-83 122 34 63 138 392 161 512 16 85 39 305 39 380 0 238 -54 480 -150 671
-118 234 -281 409 -497 533 -233 134 -552 203 -757 165 -174 -33 -287 -87
-400 -190 -135 -124 -197 -258 -220 -477 -21 -193 -87 -357 -314 -777 -35 -66
-77 -142 -91 -170 -45 -84 -82 -148 -112 -195 -15 -25 -40 -68 -56 -96 -60
-109 -107 -190 -128 -219 -12 -16 -39 -61 -61 -98 -21 -37 -52 -90 -69 -116
-16 -27 -52 -85 -78 -129 -26 -44 -54 -86 -62 -92 -8 -7 -15 -17 -15 -22 0 -5
-17 -35 -38 -66 -21 -31 -42 -64 -45 -72 -4 -8 -15 -27 -25 -41 -9 -14 -30
-46 -47 -73 -62 -98 -294 -453 -324 -496 -83 -119 -142 -206 -147 -220 -4 -8
-19 -30 -33 -49 -14 -19 -62 -87 -106 -152 -136 -200 -255 -371 -299 -433 -47
-66 -73 -84 -63 -45 8 31 52 164 87 259 15 41 38 109 50 150 12 41 35 118 51
170 16 52 40 140 54 195 13 55 33 136 44 180 35 142 90 440 108 587 22 184 25
743 5 888 -40 279 -162 586 -306 765 -137 172 -303 296 -503 376 -261 105
-561 106 -843 2 -222 -82 -460 -235 -584 -375 -56 -63 -139 -221 -155 -296
-14 -68 -14 -270 0 -330 34 -139 147 -311 255 -387 105 -74 108 -77 106 -128
-5 -133 -80 -432 -164 -652 -16 -44 -39 -105 -50 -135 -11 -30 -27 -70 -35
-87 -7 -18 -25 -63 -39 -100 -14 -38 -40 -99 -58 -138 -18 -38 -37 -81 -41
-95 -4 -14 -18 -45 -30 -70 -13 -25 -56 -115 -95 -200 -58 -124 -190 -392
-287 -582 -7 -14 -19 -28 -26 -31 -13 -5 -125 5 -269 22 -209 26 -277 32 -513
46 -321 19 -668 19 -915 -1 -239 -19 -272 -22 -335 -34 -27 -5 -77 -14 -110
-19 -109 -19 -209 -40 -290 -62 -44 -11 -96 -24 -115 -29 -192 -47 -498 -164
-740 -282 -69 -34 -145 -73 -170 -88 -25 -15 -90 -53 -145 -86 -85 -50 -193
-120 -320 -208 -16 -12 -46 -34 -66 -51 -20 -16 -60 -48 -89 -70 -205 -156
-596 -542 -763 -755 -95 -121 -156 -201 -184 -240 -75 -105 -222 -329 -250
-380 -17 -30 -49 -89 -73 -130 -55 -97 -56 -99 -139 -277 -84 -180 -177 -398
-215 -503 -15 -41 -36 -95 -46 -120 -10 -25 -28 -79 -40 -120 -12 -41 -30
-100 -40 -130 -11 -30 -38 -129 -61 -220 -58 -235 -80 -359 -100 -565 -6 -66
-15 -124 -20 -129 -11 -13 -12 -483 -1 -490 5 -3 14 -58 21 -123 6 -65 16
-143 21 -173 5 -30 11 -68 14 -85 16 -99 104 -377 155 -488 17 -37 31 -69 31
-71 0 -7 111 -199 141 -244 73 -107 231 -279 349 -379 71 -61 228 -162 325
-211 263 -131 523 -192 815 -192 145 0 453 35 570 64 125 31 322 87 339 95 9
5 55 23 102 39 46 16 109 40 139 54 30 13 71 30 90 38 48 18 359 178 392 201
14 11 29 19 32 19 4 0 25 12 49 27 23 14 58 36 77 48 286 176 641 444 925 699
304 273 618 591 895 906 80 90 166 187 191 215 46 51 198 235 233 284 11 14
34 42 51 61 18 19 46 55 64 80 17 25 48 66 69 92 31 39 102 132 197 259 52 69
110 145 118 154 4 6 35 48 68 95 33 47 66 92 73 101 8 9 38 52 67 94 30 43 68
97 84 120 36 52 216 316 265 390 19 29 64 96 99 149 34 53 69 96 77 96 19 0
18 -10 -12 -98 -26 -77 -107 -376 -125 -462 -5 -25 -16 -88 -24 -140 -8 -52
-22 -133 -30 -180 -45 -256 -58 -639 -30 -900 8 -74 17 -144 19 -155 3 -11 15
-72 26 -135 24 -131 33 -169 66 -260 12 -36 29 -88 37 -116 47 -163 228 -491
350 -633 61 -71 223 -228 281 -271 156 -118 330 -231 451 -293 94 -48 242
-117 250 -117 4 0 29 -11 56 -24 27 -14 90 -39 141 -57 51 -17 98 -34 103 -38
6 -4 29 -13 53 -21 59 -19 51 -37 -34 -80 -148 -74 -241 -164 -311 -302 -93
-182 -92 -424 2 -594 75 -136 166 -220 310 -289 119 -57 195 -70 357 -61 l128
6 26 -52 c89 -176 287 -333 489 -388 44 -12 88 -26 97 -31 23 -12 151 -12 164
0 5 5 27 11 49 14 185 24 358 127 489 290 182 227 211 541 75 810 -42 83 -29
95 57 53 93 -45 178 -60 329 -60 157 -1 211 10 355 71 82 35 168 87 220 133
14 12 36 32 50 44 110 96 237 272 335 465 89 175 205 287 388 374 120 57 269
91 589 132 51 7 54 4 75 -55 18 -49 16 -80 -5 -99 -35 -32 -110 -141 -150
-218 -24 -48 -50 -122 -67 -191 -25 -102 -27 -125 -23 -245 10 -256 86 -434
258 -607 138 -138 275 -213 467 -256 111 -24 300 -15 413 20 89 27 196 78 265
126 219 151 366 416 382 692 4 51 11 92 18 98 8 7 42 4 106 -10 116 -24 275
-26 408 -4 117 19 149 30 271 87 195 91 363 232 496 419 88 123 204 410 204
505 0 83 7 89 107 95 389 23 696 314 804 763 12 50 29 96 37 103 9 6 40 12 69
12 35 0 53 -4 54 -12 1 -7 0 -58 -1 -113 -1 -63 4 -125 14 -169 22 -91 84
-217 146 -292 113 -138 333 -244 540 -261 71 -6 172 12 293 51 198 64 247 71
482 71 228 0 264 -6 370 -58 33 -16 89 -53 125 -81 140 -111 160 -124 345
-231 95 -56 250 -117 385 -152 114 -30 156 -37 270 -40 131 -5 139 -4 265 31
71 20 161 52 200 72 276 142 459 374 521 658 20 90 23 381 5 486 -38 218 -156
483 -296 664 -59 77 -192 209 -292 293 -57 46 -104 92 -104 101 -1 9 -2 103
-3 207 l-1 190 -44 138 c-53 163 -59 147 84 223 257 136 513 360 704 615 239
319 364 607 442 1019 11 63 25 122 29 130 4 9 50 26 111 41 240 60 433 209
592 459 75 117 99 173 126 288 27 122 26 195 -4 316 -42 164 -88 241 -215 359
-146 136 -288 186 -577 203 -85 5 -116 11 -126 23 -23 26 -57 226 -57 333 0
117 16 185 72 297 35 72 59 101 158 200 64 64 150 145 191 181 120 103 225
269 260 410 20 78 17 298 -4 377 -21 77 -97 237 -156 328 -87 135 -293 320
-438 394 -51 26 -54 43 -14 91 24 29 40 38 92 48 102 21 149 30 224 42 39 6
88 15 110 20 39 8 96 18 220 39 33 5 110 15 170 21 61 6 156 18 213 26 130 18
182 18 208 -1 12 -8 40 -45 64 -82 113 -178 150 -222 225 -261 44 -23 62 -26
150 -26 161 0 212 36 335 234 44 71 80 132 80 135 0 3 15 29 33 58 195 306
310 585 342 830 3 26 10 47 16 47 13 0 12 227 -1 232 -6 2 -15 30 -19 63 -21
147 -82 293 -177 420 -193 261 -521 390 -905 355 -160 -14 -318 -36 -394 -54
-33 -8 -105 -24 -160 -36 -55 -12 -118 -27 -140 -32 -22 -6 -62 -11 -90 -12
-49 -1 -50 0 -73 44 -63 118 -196 288 -278 355 -26 22 -64 54 -83 71 -57 50
-248 172 -345 221 -216 109 -634 263 -712 263 -25 0 -49 6 -58 15 -20 21 -183
21 -210 0z m284 -349 c259 -75 539 -194 698 -297 200 -130 330 -265 414 -430
48 -93 60 -125 79 -217 16 -75 28 -89 66 -74 16 6 69 20 118 32 50 12 149 37
220 55 72 19 168 42 215 51 47 9 103 20 125 25 174 41 485 61 612 40 86 -15
208 -71 274 -127 78 -65 169 -195 169 -241 0 -7 4 -21 9 -31 44 -87 40 -330
-8 -502 -33 -120 -33 -120 -100 -260 -45 -96 -78 -156 -178 -320 -39 -63 -72
-119 -74 -125 -13 -33 -73 -115 -84 -115 -12 0 -115 140 -115 155 0 3 -18 33
-40 65 -22 32 -40 63 -40 67 0 5 -14 25 -30 45 -41 49 -105 63 -255 54 -159
-10 -252 -20 -500 -56 -44 -6 -109 -16 -145 -20 -98 -14 -180 -28 -230 -39
-25 -5 -88 -17 -140 -26 -176 -29 -345 -69 -367 -87 -7 -6 -30 -38 -50 -72
-21 -33 -103 -160 -184 -281 -81 -120 -145 -223 -143 -227 3 -4 33 -8 67 -8
34 0 89 -7 122 -16 33 -8 76 -19 95 -23 144 -33 317 -153 423 -294 113 -149
157 -260 157 -394 0 -163 -50 -260 -197 -383 -264 -221 -384 -383 -463 -625
-32 -96 -33 -106 -33 -265 -1 -122 4 -183 16 -235 21 -86 41 -200 57 -320 7
-49 17 -96 22 -102 8 -10 55 -13 175 -13 176 0 385 -21 461 -46 174 -58 273
-211 259 -398 -6 -86 -27 -135 -113 -266 -87 -133 -159 -197 -288 -256 -52
-24 -78 -28 -225 -36 -91 -5 -173 -13 -181 -17 -11 -6 -18 -43 -27 -147 -13
-147 -29 -263 -43 -304 -4 -14 -13 -52 -20 -85 -31 -150 -65 -247 -147 -414
-95 -196 -222 -376 -371 -528 -191 -196 -348 -303 -612 -420 -55 -24 -237 -73
-273 -73 -41 0 -40 -16 3 -62 89 -95 159 -219 210 -373 31 -93 33 -108 31
-215 -2 -63 -4 -149 -4 -190 -3 -131 46 -239 146 -322 29 -24 54 -45 57 -48 3
-3 31 -24 62 -48 126 -96 250 -249 331 -407 39 -77 89 -227 106 -321 14 -75
14 -313 1 -365 -5 -22 -15 -57 -20 -79 -27 -102 -152 -258 -264 -329 -143 -90
-334 -120 -531 -83 -211 40 -413 143 -654 334 -154 122 -268 170 -480 203
-235 37 -501 10 -796 -81 -49 -15 -117 -30 -151 -32 -69 -4 -171 19 -224 51
-60 36 -131 109 -158 162 -23 44 -26 62 -27 150 0 94 2 105 33 168 19 37 58
94 88 126 58 63 64 76 37 84 -10 3 -70 23 -133 45 -145 50 -280 68 -458 59
-122 -6 -317 -38 -333 -54 -4 -5 -11 -55 -15 -113 -6 -105 -49 -300 -81 -370
-31 -68 -104 -169 -156 -216 -73 -66 -181 -114 -271 -121 -137 -10 -281 24
-379 91 l-64 45 -68 -46 -67 -45 35 -36 c19 -21 50 -64 68 -97 l34 -60 -1
-135 c-1 -117 -4 -145 -26 -211 -53 -154 -114 -253 -233 -378 -164 -171 -349
-251 -582 -251 -204 0 -397 69 -526 189 l-28 26 -32 -19 c-72 -43 -145 -76
-194 -87 -55 -13 -65 -27 -36 -50 26 -22 113 -160 113 -180 0 -10 4 -20 9 -23
22 -14 39 -257 22 -316 -5 -19 -15 -57 -22 -83 -14 -55 -73 -153 -127 -210
-151 -160 -385 -211 -607 -135 -151 52 -282 193 -341 368 -14 42 -19 85 -19
180 0 108 3 135 25 195 23 63 60 127 115 196 42 52 191 149 230 149 33 0 28
31 -10 68 -41 40 -81 96 -111 157 -38 75 -47 128 -42 261 l4 126 -56 -5 c-30
-3 -86 -10 -125 -17 -61 -10 -233 -32 -460 -60 -38 -5 -79 -11 -90 -14 -11 -3
-60 -15 -110 -26 -115 -27 -153 -40 -245 -84 -169 -81 -305 -182 -408 -302
-73 -86 -99 -125 -150 -229 -24 -49 -58 -112 -75 -140 -43 -70 -140 -196 -168
-220 -83 -70 -141 -108 -208 -136 -67 -29 -90 -33 -192 -37 -130 -5 -188 7
-293 60 -114 58 -191 125 -239 209 -26 46 -34 48 -49 12 -24 -55 -119 -189
-183 -260 -37 -41 -104 -98 -153 -131 -97 -64 -181 -95 -307 -112 -70 -9 -89
-8 -152 10 -112 31 -184 67 -236 118 -63 62 -82 93 -112 188 -42 133 -31 256
36 393 37 74 36 76 -60 86 -91 9 -350 77 -501 130 -160 56 -239 89 -375 157
-272 135 -421 237 -598 408 -87 84 -207 225 -207 245 0 3 -13 25 -28 48 -30
43 -142 271 -142 288 0 5 -4 17 -9 27 -6 9 -23 60 -40 112 -190 606 -154 1327
109 2159 28 90 55 171 59 180 4 9 13 26 19 38 7 13 12 29 12 36 0 12 29 88 65
172 7 17 18 46 26 65 7 19 25 63 41 98 15 34 28 67 28 71 0 12 -89 41 -245 81
-66 17 -153 40 -192 51 -40 10 -79 19 -88 19 -8 0 -24 -19 -36 -42 -12 -23
-30 -54 -39 -68 -10 -14 -45 -68 -77 -120 -151 -240 -252 -396 -431 -665 -107
-159 -198 -292 -202 -295 -3 -3 -23 -30 -42 -60 -79 -121 -308 -433 -503 -685
-46 -60 -104 -133 -127 -162 -24 -28 -63 -77 -88 -108 -234 -296 -536 -631
-870 -966 -376 -376 -588 -561 -985 -855 -38 -28 -302 -202 -388 -255 -123
-77 -498 -257 -613 -294 -27 -9 -58 -20 -69 -25 -69 -32 -332 -98 -479 -122
-158 -25 -532 -30 -656 -9 -311 53 -642 248 -833 491 -28 36 -54 67 -58 70 -3
3 -28 39 -55 80 -112 168 -224 454 -254 650 -6 41 -15 98 -20 125 -30 171 -41
566 -19 749 18 161 54 388 70 451 6 22 14 56 19 75 29 119 53 207 81 290 37
113 87 257 99 285 5 11 14 38 21 60 6 22 24 67 39 100 15 33 38 85 50 115 55
136 188 409 259 533 11 20 30 53 41 72 50 88 225 344 328 479 198 259 547 616
767 784 33 25 62 49 65 52 21 24 392 280 406 280 3 0 18 8 32 19 47 32 353
186 442 221 47 18 90 36 95 40 14 10 331 115 385 128 68 16 90 22 145 36 68
18 145 33 235 46 41 6 102 15 135 20 157 26 257 32 612 37 438 6 446 6 1178
-67 110 -11 225 -25 296 -35 53 -8 51 -10 131 140 90 169 428 855 428 868 0 3
16 39 35 79 19 40 43 96 54 123 17 44 117 287 140 340 5 11 15 40 22 65 7 25
15 50 19 55 3 6 12 28 19 50 7 22 16 49 21 60 4 11 13 38 19 60 13 49 49 166
66 220 19 58 52 251 65 379 13 126 0 241 -32 281 -10 14 -36 29 -58 35 -117
32 -211 107 -259 210 -23 48 -26 68 -26 160 1 100 2 108 34 167 64 120 232
250 433 337 120 51 164 63 288 77 294 34 587 -91 764 -326 115 -151 202 -383
233 -614 20 -151 22 -536 4 -711 -13 -129 -40 -320 -46 -330 -2 -4 -14 -60
-25 -126 -21 -121 -65 -306 -100 -424 -11 -36 -20 -70 -20 -75 0 -9 -81 -271
-101 -330 -121 -338 -164 -452 -198 -527 -17 -36 -31 -71 -31 -77 0 -6 -16
-42 -35 -82 -19 -39 -37 -80 -41 -91 -3 -11 -26 -63 -51 -115 -25 -51 -42
-100 -39 -108 3 -8 22 -17 43 -20 21 -3 63 -10 93 -15 88 -14 278 -32 360 -34
l75 -1 50 75 c198 299 241 362 283 421 53 74 323 463 362 521 272 404 596 898
750 1143 110 175 257 416 311 512 10 18 29 49 42 70 13 21 50 83 82 138 32 55
68 117 81 137 13 21 24 40 24 44 0 3 30 58 66 123 80 140 277 535 323 646 18
44 37 89 41 100 28 64 52 173 60 265 5 58 17 129 26 159 31 94 141 193 250
225 144 43 398 7 569 -79 167 -84 329 -246 415 -415 36 -71 89 -246 99 -330
23 -183 9 -417 -35 -600 -27 -110 -82 -288 -94 -305 -4 -5 -22 -48 -40 -95
-17 -47 -38 -96 -46 -110 -30 -56 -83 -183 -80 -189 4 -6 44 -25 145 -67 60
-26 175 -106 239 -168 147 -140 233 -309 275 -541 15 -80 14 -423 -1 -505 -7
-36 -16 -87 -20 -115 -8 -45 -49 -180 -71 -230 -5 -11 -15 -36 -22 -55 -7 -19
-43 -96 -80 -170 -55 -111 -72 -156 -94 -255 -14 -66 -30 -138 -35 -160 -15
-68 -24 -245 -12 -245 6 0 27 28 46 63 44 76 59 100 66 107 3 3 16 25 29 50
14 25 32 56 41 70 31 46 98 155 123 200 13 25 54 94 91 154 36 60 66 110 66
113 0 2 11 20 24 41 34 54 124 207 166 282 20 36 48 85 62 110 115 203 334
627 400 775 20 45 46 117 58 160 31 110 63 169 123 228 72 70 141 100 245 105
311 17 588 -118 780 -380 23 -31 51 -75 63 -98 12 -22 26 -39 31 -38 17 6 239
454 329 663 47 111 98 262 99 293 0 7 14 43 31 78 38 79 101 142 183 185 58
30 67 32 171 33 225 1 420 -92 596 -283 38 -41 69 -79 69 -84 0 -4 13 -27 28
-50 52 -77 110 -232 127 -339 3 -21 10 -38 15 -38 5 0 29 21 52 48 23 26 112
117 198 202 498 496 993 696 1379 556 146 -53 223 -101 331 -205 40 -39 77
-71 81 -71 7 0 125 171 154 225 27 49 41 70 58 89 9 11 17 23 17 27 0 5 46 83
100 169 5 8 33 56 62 107 29 50 62 106 73 125 33 57 109 192 173 307 22 42 32
69 26 76 -59 80 -121 178 -132 210 -42 117 -50 238 -27 375 24 142 40 183 173
445 36 72 93 185 126 253 41 81 66 122 77 122 10 0 24 -19 37 -47 11 -27 46
-102 77 -168 31 -66 65 -143 76 -171 25 -66 52 -92 75 -73 8 7 25 33 36 58 11
25 24 54 29 63 5 10 9 22 9 28 0 5 13 37 29 70 17 34 35 78 42 98 7 20 25 64
40 98 64 138 207 543 248 704 12 47 26 101 32 121 5 20 9 44 9 54 0 38 61 142
116 198 94 95 168 125 309 126 78 1 119 -4 185 -23z m-11468 -12670 c21 -10
58 -36 83 -58 73 -64 105 -137 105 -240 0 -134 -66 -239 -187 -299 -61 -29
-77 -33 -153 -33 -73 0 -93 4 -140 28 -163 81 -236 245 -182 408 31 94 117
181 203 207 56 17 228 9 271 -13z m942 -256 c181 -86 284 -286 246 -474 -25
-118 -87 -213 -179 -275 -104 -70 -188 -90 -305 -73 -87 13 -131 27 -179 60
-57 39 -124 112 -155 170 -72 134 -65 294 18 425 92 147 219 210 406 203 66
-3 93 -9 148 -36z"/>
<path d="M20377 13768 c-33 -30 -38 -42 -52 -118 -14 -79 -65 -253 -120 -410
-13 -36 -31 -87 -41 -115 -9 -27 -32 -86 -49 -130 -18 -44 -38 -98 -45 -120
-7 -22 -30 -78 -51 -123 -22 -46 -39 -87 -39 -92 0 -8 -114 -268 -164 -375
-18 -39 -41 -76 -50 -84 -12 -10 -64 -15 -199 -18 -154 -4 -189 -3 -227 12
-25 9 -52 19 -61 22 -28 8 -59 -103 -59 -209 0 -74 4 -97 24 -136 41 -81 101
-126 203 -152 57 -14 90 -48 64 -65 -6 -3 -46 -74 -91 -158 -83 -158 -123
-231 -168 -307 -15 -25 -38 -68 -52 -95 -14 -28 -38 -71 -53 -95 -34 -54 -90
-149 -124 -210 -14 -25 -31 -52 -37 -60 -6 -8 -22 -35 -35 -60 -14 -25 -36
-63 -51 -85 -15 -22 -51 -78 -80 -125 -30 -47 -108 -166 -174 -265 -66 -99
-130 -196 -143 -215 -12 -19 -32 -48 -43 -65 -12 -16 -64 -95 -116 -175 -133
-203 -145 -212 -124 -93 19 109 23 245 10 340 -21 161 -107 286 -260 375 -84
50 -149 62 -285 55 -152 -9 -262 -51 -454 -174 -254 -163 -584 -490 -872 -866
-113 -146 -379 -520 -379 -532 0 -3 -17 -32 -39 -63 -21 -31 -58 -88 -81 -127
-24 -38 -50 -81 -59 -94 -37 -56 -133 -213 -187 -306 -31 -55 -69 -118 -84
-140 -15 -22 -42 -69 -62 -105 -19 -36 -43 -79 -54 -95 -10 -16 -28 -46 -39
-66 -11 -21 -42 -76 -70 -124 -27 -48 -61 -108 -75 -134 -100 -181 -171 -315
-273 -512 -30 -59 -71 -131 -91 -160 -36 -53 -36 -54 -30 -19 9 54 24 100 49
155 13 28 31 68 41 90 15 35 197 403 253 510 35 69 81 168 81 177 0 18 142
295 217 423 13 22 41 74 63 115 57 106 122 221 141 250 90 138 256 457 285
548 75 239 84 288 84 473 0 280 -63 455 -216 598 -60 56 -86 72 -167 104 -108
42 -157 47 -187 17 -18 -18 -23 -30 -33 -90 -5 -29 -33 -107 -59 -167 -10 -24
-18 -46 -18 -50 0 -7 -53 -127 -139 -318 -42 -92 -202 -411 -276 -550 -32 -60
-75 -141 -95 -180 -20 -38 -52 -99 -72 -135 -51 -93 -130 -237 -163 -295 -15
-27 -40 -72 -55 -100 -15 -27 -40 -72 -56 -100 -15 -27 -46 -84 -69 -125 -23
-41 -61 -109 -85 -150 -184 -321 -343 -658 -442 -935 -54 -152 -59 -166 -68
-200 -27 -97 -74 -276 -81 -310 -24 -104 -48 -324 -49 -434 0 -74 0 -74 -41
-113 l-41 -40 31 -32 c29 -30 40 -34 129 -45 170 -22 254 -47 387 -113 105
-53 195 -131 248 -215 28 -45 104 -103 134 -103 26 0 84 63 122 130 27 49 95
209 150 350 21 53 153 354 217 491 24 53 44 99 44 102 0 3 45 99 101 214 56
114 122 251 147 303 77 160 259 501 327 615 23 39 70 120 104 182 35 62 69
117 77 124 8 6 14 16 14 21 0 5 16 34 35 64 20 30 56 90 82 132 113 188 331
503 460 664 196 245 381 398 479 398 81 0 114 -53 114 -185 0 -117 -16 -183
-70 -292 -43 -87 -60 -111 -127 -172 -42 -39 -112 -97 -155 -128 -118 -88
-106 -111 77 -143 157 -27 305 -27 415 0 163 40 236 71 344 144 36 25 73 46
81 46 24 0 18 -38 -13 -83 -54 -80 -155 -247 -215 -357 -17 -30 -38 -66 -47
-80 -47 -70 -322 -617 -370 -735 -5 -11 -24 -58 -43 -105 -77 -184 -140 -400
-167 -570 -6 -41 -16 -97 -21 -123 -15 -79 -11 -214 7 -248 12 -25 20 -30 37
-24 112 33 386 39 527 11 272 -53 372 -105 483 -250 40 -51 142 -116 185 -116
35 0 180 71 272 133 25 17 65 44 90 61 121 81 250 181 383 299 48 42 91 77 97
77 17 0 21 -21 24 -147 3 -153 25 -237 86 -330 76 -116 208 -209 356 -250 74
-20 361 -24 444 -5 109 25 145 35 155 43 6 4 34 14 64 23 70 20 202 88 266
136 28 20 61 43 75 50 36 19 234 214 295 290 100 126 211 315 254 433 12 31
30 82 41 112 19 52 44 170 71 335 7 41 15 172 18 290 l6 215 25 11 c37 18 223
44 410 58 220 17 258 38 345 187 69 116 60 141 -56 161 -100 17 -461 16 -622
-1 -100 -12 -130 -12 -140 -2 -7 7 -17 70 -24 154 -12 151 -14 163 -63 442
-55 319 -59 453 -20 702 23 148 138 384 263 539 66 83 268 279 347 337 36 27
60 70 60 110 0 57 -57 157 -138 241 -54 55 -85 77 -162 114 l-95 46 -120 0
c-97 -1 -133 -5 -189 -23 -173 -56 -303 -132 -428 -251 -236 -223 -454 -584
-577 -955 -102 -310 -145 -714 -106 -995 24 -178 35 -244 45 -280 6 -19 10
-56 10 -81 0 -44 -6 -55 -102 -180 -55 -74 -114 -150 -130 -169 -65 -79 -145
-178 -183 -225 -46 -58 -240 -278 -363 -412 -160 -174 -400 -375 -502 -420
-19 -8 -44 -19 -55 -24 -40 -17 -176 -39 -243 -39 -172 0 -282 89 -282 230 0
60 27 183 51 234 11 22 19 44 19 49 0 12 129 267 171 338 19 32 43 72 54 90
52 88 69 116 105 173 45 69 337 499 390 574 19 27 59 82 87 123 29 41 70 97
90 125 21 29 73 101 116 160 42 60 103 145 135 189 203 279 437 608 509 715
20 30 46 65 57 78 11 12 29 38 40 57 12 19 48 73 81 121 33 48 92 133 130 189
39 56 142 208 230 336 88 129 165 241 170 250 11 19 79 121 218 329 50 74 141
212 204 305 62 94 121 181 131 195 10 14 51 77 92 140 191 298 179 284 253
294 64 9 138 22 197 35 116 26 228 48 315 62 33 5 80 13 105 18 101 19 291 50
375 60 50 6 131 16 180 23 55 8 196 13 360 13 287 0 318 -4 401 -56 17 -10 36
-19 42 -19 13 0 42 56 90 177 57 140 66 185 66 303 0 93 -3 111 -26 156 -37
72 -85 109 -170 135 -69 21 -79 22 -203 10 -71 -7 -157 -16 -190 -21 -133 -21
-182 -29 -222 -39 -65 -16 -109 -27 -208 -50 -49 -11 -106 -25 -125 -30 -19
-6 -111 -31 -205 -56 -93 -25 -186 -50 -205 -56 -19 -6 -46 -13 -60 -15 -14
-3 -34 -9 -45 -14 -11 -5 -31 -11 -45 -14 -14 -2 -43 -10 -65 -16 -22 -7 -53
-13 -70 -14 -36 -1 -36 6 -4 114 32 109 32 310 -1 393 -53 138 -167 266 -332
373 -84 54 -242 133 -328 164 -36 13 -69 26 -75 30 -5 4 -41 18 -80 30 -38 12
-95 30 -126 41 -85 29 -128 25 -172 -13z m563 -386 c116 -31 196 -92 236 -177
20 -41 24 -66 24 -144 0 -52 -4 -108 -10 -125 -40 -131 -69 -205 -113 -296
-53 -109 -166 -300 -198 -336 -11 -11 -19 -25 -19 -31 0 -7 -11 -20 -25 -31
-14 -11 -25 -25 -25 -31 0 -6 -4 -11 -8 -11 -5 0 -15 -12 -22 -27 -22 -43 -52
-85 -57 -80 -2 3 6 22 20 44 13 21 27 55 31 77 4 21 11 46 15 55 54 112 66
185 66 411 0 179 -14 290 -44 348 -5 9 -15 37 -22 62 -7 25 -16 49 -21 55 -4
5 -8 16 -8 26 0 9 -13 43 -29 75 -62 125 -70 149 -51 156 17 5 224 -10 260
-20z m2098 -695 c25 -25 27 -34 30 -125 3 -81 1 -100 -13 -112 -14 -11 -21 -9
-53 21 -62 58 -73 61 -233 56 -79 -2 -164 -10 -189 -17 -25 -6 -65 -14 -89
-17 l-43 -5 31 35 c20 21 82 60 159 100 112 56 147 70 237 91 11 3 46 4 78 2
48 -2 63 -7 85 -29z m-2117 -2187 c62 -12 197 -77 213 -102 16 -27 0 -36 -94
-53 -47 -9 -101 -21 -120 -27 -98 -30 -94 -29 -190 -72 -175 -79 -304 -177
-401 -302 -24 -31 -45 -51 -47 -45 -16 49 110 312 202 422 68 83 195 175 248
182 66 8 136 7 189 -3z m-3037 -354 c50 -17 102 -58 122 -97 24 -47 13 -265
-16 -334 -5 -11 -20 -50 -34 -86 -30 -78 -130 -278 -147 -293 -9 -8 -10 -6 -5
9 4 11 15 55 23 98 25 123 2 279 -60 405 -41 83 -50 99 -108 181 -64 93 -65
99 -26 116 42 19 199 19 251 1z m-2124 -96 c55 -20 110 -70 110 -100 0 -9 5
-21 11 -27 22 -22 2 -294 -31 -408 -6 -22 -14 -50 -17 -63 -3 -12 -9 -25 -14
-28 -5 -3 -9 -12 -9 -20 0 -9 -11 -40 -25 -70 -14 -30 -25 -59 -25 -64 0 -6
-4 -10 -10 -10 -5 0 -10 9 -10 20 0 11 5 20 10 20 12 0 13 47 1 54 -5 3 -12
-10 -15 -29 -4 -19 -12 -35 -18 -35 -7 0 -8 11 -3 33 14 59 17 329 5 402 -13
83 -68 274 -90 315 -5 9 -6 20 -3 24 13 12 80 6 133 -14z m-20 -826 c0 -14 -4
-23 -9 -20 -5 3 -7 15 -4 26 7 28 13 25 13 -6z m-28 -56 c-7 -7 -12 -8 -12 -2
0 14 12 26 19 19 2 -3 -1 -11 -7 -17z m-25 -45 c-3 -10 -5 -4 -5 12 0 17 2 24
5 18 2 -7 2 -21 0 -30z m-20 -50 c-3 -16 -20 -53 -37 -83 -23 -41 -29 -48 -24
-25 4 17 11 34 15 40 5 5 9 17 9 27 0 18 27 68 37 68 3 0 3 -12 0 -27z m4844
-1144 c12 -63 23 -135 26 -161 3 -27 9 -48 14 -48 5 0 9 -18 9 -40 0 -23 7
-76 17 -118 24 -115 24 -514 0 -677 -19 -123 -21 -133 -58 -245 -27 -81 -94
-219 -126 -257 -65 -77 -169 -176 -214 -203 -58 -35 -176 -90 -192 -90 -10 0
-26 -4 -35 -9 -9 -5 -42 -12 -72 -16 -60 -8 -60 2 0 25 74 29 252 198 311 295
47 77 121 237 138 295 7 25 17 59 22 75 12 37 53 200 68 275 6 30 16 98 21
150 48 469 53 577 36 780 -11 140 7 124 35 -31z m-3069 -541 c-21 -29 -46 -69
-55 -89 -9 -20 -23 -42 -32 -49 -8 -7 -15 -18 -15 -25 0 -7 -13 -39 -30 -70
-16 -31 -30 -63 -30 -71 0 -8 -4 -22 -9 -32 -14 -28 -28 -64 -42 -112 -19 -60
-20 -393 -1 -412 6 -6 12 -22 12 -34 0 -13 5 -26 10 -29 6 -3 10 -15 10 -25 0
-16 -12 -19 -112 -24 -62 -3 -135 -7 -163 -8 -50 -3 -50 -3 -48 27 1 17 2 39
3 50 9 146 43 308 72 340 4 5 8 19 8 32 0 13 4 31 9 41 56 112 77 153 97 187
13 22 33 58 45 80 43 79 251 275 292 275 14 0 10 -10 -21 -52z m2451 -288 c-4
-359 -125 -602 -357 -718 -104 -52 -125 -59 -219 -72 -68 -10 -81 -10 -96 4
-31 28 -43 87 -40 187 4 82 8 103 37 161 77 160 315 379 542 501 19 11 44 27
55 37 24 21 45 29 65 27 13 -2 15 -23 13 -127z"/>
<path d="M20516 7671 c-4 -7 -5 -15 -2 -18 9 -9 19 4 14 18 -4 11 -6 11 -12 0z"/>
<path d="M17347 7293 c-4 -3 -7 -11 -7 -17 0 -6 5 -5 12 2 6 6 9 14 7 17 -3 3
-9 2 -12 -2z"/>
<path d="M11263 11814 c-19 -16 -24 -34 -33 -127 -10 -116 -57 -275 -127 -432
-19 -44 -39 -89 -43 -100 -4 -11 -50 -105 -101 -210 -89 -182 -144 -285 -241
-460 -25 -44 -59 -107 -78 -140 -18 -33 -43 -76 -55 -95 -12 -19 -50 -82 -83
-140 -33 -58 -76 -130 -95 -160 -18 -30 -60 -98 -92 -150 -32 -52 -66 -106
-74 -119 -9 -13 -29 -47 -46 -75 -16 -28 -43 -71 -59 -96 -16 -25 -44 -67 -61
-95 -18 -27 -66 -102 -107 -165 -41 -63 -111 -171 -156 -240 -44 -69 -90 -138
-102 -155 -12 -16 -72 -107 -134 -201 -62 -94 -124 -187 -137 -205 -13 -19
-29 -41 -34 -51 -12 -20 -247 -360 -295 -427 -19 -27 -59 -85 -89 -128 -30
-43 -72 -101 -93 -129 -21 -28 -38 -54 -38 -57 0 -4 -20 -36 -45 -71 -25 -36
-45 -68 -45 -71 0 -3 -18 -30 -40 -59 -22 -29 -40 -56 -40 -59 0 -15 -112
-177 -123 -178 -65 -6 -366 21 -682 61 -88 11 -216 27 -285 35 -69 9 -144 20
-167 25 -23 6 -53 10 -67 10 -17 0 -26 6 -26 15 0 8 56 129 124 268 132 271
145 298 172 367 9 25 21 50 26 56 10 14 88 208 133 329 18 50 41 110 52 135
11 25 39 106 62 180 23 74 47 143 52 152 5 10 9 23 9 30 0 7 14 56 30 108 17
52 51 178 75 280 25 102 50 201 55 220 5 19 11 55 14 80 2 25 9 72 15 105 11
61 24 160 43 340 20 176 11 477 -16 590 -3 11 -14 63 -26 115 -27 118 -102
276 -164 347 -51 57 -147 122 -222 149 -68 25 -246 25 -329 0 -140 -42 -347
-177 -353 -230 -5 -37 10 -52 65 -65 115 -29 200 -101 254 -216 53 -114 62
-173 56 -377 -4 -156 -9 -190 -46 -353 -42 -182 -87 -339 -143 -495 -17 -47
-44 -123 -60 -170 -16 -46 -36 -97 -44 -113 -9 -16 -24 -54 -34 -85 -10 -31
-42 -109 -70 -172 -28 -63 -57 -128 -65 -145 -100 -228 -331 -698 -465 -949
-194 -365 -185 -351 -239 -342 -90 15 -313 45 -381 50 -41 4 -142 15 -225 26
-398 51 -677 65 -1075 56 -360 -8 -478 -18 -670 -54 -113 -21 -297 -63 -340
-77 -25 -8 -76 -24 -115 -36 -38 -12 -99 -33 -135 -46 -36 -14 -85 -32 -109
-40 -62 -21 -357 -163 -434 -209 -122 -73 -242 -148 -260 -163 -9 -8 -26 -19
-36 -25 -71 -41 -205 -148 -381 -302 -393 -345 -767 -830 -1000 -1294 -61
-120 -160 -339 -160 -352 0 -5 -18 -47 -40 -94 -22 -47 -40 -92 -40 -99 0 -7
-16 -52 -36 -101 -20 -49 -47 -127 -59 -174 -13 -47 -31 -105 -40 -130 -9 -25
-22 -72 -29 -105 -8 -33 -26 -114 -41 -180 -35 -157 -43 -215 -57 -427 -18
-282 6 -622 57 -787 52 -174 71 -226 109 -306 24 -50 65 -124 90 -164 56 -87
206 -240 294 -300 80 -54 254 -138 312 -150 25 -6 79 -18 120 -27 94 -21 351
-24 465 -6 216 35 290 51 395 84 407 131 790 336 1190 637 166 126 353 280
480 396 398 365 775 765 1130 1200 58 70 121 147 140 170 19 23 60 74 90 114
30 39 87 112 125 161 39 49 95 123 125 166 30 43 67 91 81 108 26 32 164 224
234 326 22 33 60 87 84 122 66 93 129 185 175 253 22 33 43 65 48 70 14 18
118 178 118 182 0 2 9 16 19 31 30 42 227 346 232 357 2 6 24 43 49 83 25 40
50 81 55 90 52 88 138 222 148 230 13 11 42 6 177 -30 41 -11 140 -37 220 -58
146 -39 258 -69 425 -116 50 -14 128 -35 175 -45 95 -23 150 -44 150 -58 0 -5
-30 -72 -66 -148 -141 -296 -237 -529 -319 -783 -85 -261 -106 -336 -125 -430
-11 -52 -24 -111 -30 -130 -26 -82 -46 -236 -65 -504 -13 -180 -14 -247 -5
-374 17 -235 41 -388 79 -500 11 -35 26 -82 32 -105 6 -23 33 -89 60 -146 27
-57 49 -105 49 -107 0 -16 123 -185 182 -251 66 -74 259 -243 277 -243 4 0 16
-8 27 -19 41 -38 434 -241 590 -305 221 -90 645 -236 688 -236 13 0 68 11 124
25 226 56 460 12 605 -112 20 -18 42 -33 48 -33 9 0 73 43 89 60 3 3 28 24 57
48 38 31 61 63 89 118 44 90 124 167 211 203 32 14 85 37 118 51 33 15 78 33
100 40 22 7 49 16 60 21 93 38 162 46 153 17 -2 -6 -43 -35 -91 -64 -191 -115
-344 -256 -396 -364 -37 -79 -42 -207 -11 -290 27 -72 67 -109 170 -158 105
-51 174 -55 262 -14 137 63 199 144 342 442 82 172 154 260 364 446 65 57 303
187 387 212 22 6 65 19 95 28 30 9 71 20 90 26 42 12 121 24 250 37 95 10 170
21 288 41 80 14 175 26 377 50 254 30 632 89 658 102 10 5 68 24 130 42 135
41 266 101 407 189 58 36 133 83 167 104 35 21 111 70 170 108 58 39 115 75
125 81 10 6 29 21 41 32 35 33 247 128 395 177 115 38 148 45 215 45 43 0 87
-5 98 -10 28 -16 52 -66 40 -88 -38 -69 -168 -134 -365 -182 -109 -26 -147
-45 -215 -106 -61 -55 -101 -113 -101 -147 0 -59 104 -98 207 -77 111 23 180
64 278 168 284 298 317 327 494 444 77 52 274 151 341 173 30 10 68 24 83 32
41 21 147 44 332 73 184 29 379 23 585 -16 164 -32 485 -162 607 -245 111 -77
183 -164 183 -224 0 -75 -179 -155 -346 -155 -70 0 -73 -1 -103 -35 -39 -45
-42 -91 -7 -124 35 -33 82 -36 151 -12 76 27 189 54 290 70 28 5 86 16 130 25
109 22 420 22 525 0 41 -8 93 -19 115 -24 103 -21 177 -47 265 -91 99 -50 134
-73 266 -174 98 -75 173 -121 294 -180 245 -120 444 -112 579 23 70 70 91 121
98 239 8 141 -9 246 -61 368 -77 181 -188 309 -383 444 -113 78 -207 223 -249
388 -24 93 -25 107 -19 274 l7 176 -36 89 c-85 208 -226 346 -460 447 -188 81
-271 93 -971 138 -358 23 -565 108 -736 299 -86 96 -137 120 -324 150 -135 22
-382 5 -515 -34 -66 -20 -210 -76 -248 -98 -101 -56 -269 -137 -527 -255 -66
-30 -138 -63 -160 -73 -59 -28 -286 -131 -400 -182 -55 -25 -125 -53 -155 -63
-30 -9 -62 -21 -70 -25 -9 -4 -43 -13 -75 -19 -33 -7 -85 -18 -115 -24 -81
-18 -340 -15 -427 5 -130 29 -269 126 -361 253 -48 66 -62 77 -157 125 -109
55 -207 73 -351 66 l-112 -6 -12 30 c-28 68 -155 156 -243 168 -103 14 -239
-65 -295 -172 -23 -44 -27 -63 -27 -136 0 -73 4 -92 28 -138 32 -60 84 -114
142 -145 58 -31 202 -31 260 0 61 32 145 129 145 166 0 8 9 22 20 32 19 18 21
17 71 -13 28 -18 54 -32 58 -32 13 0 41 -36 41 -53 0 -24 48 -107 84 -146 49
-52 189 -141 224 -141 17 0 64 -54 83 -95 22 -48 24 -133 5 -178 -23 -53 -103
-135 -154 -158 -38 -17 -61 -20 -118 -16 -99 6 -153 38 -304 183 -138 132
-181 164 -282 212 -118 56 -212 41 -292 -49 -34 -37 -38 -46 -33 -81 6 -45 34
-80 115 -140 54 -40 67 -61 97 -158 30 -94 37 -150 42 -322 6 -225 -15 -286
-141 -416 -76 -78 -80 -81 -201 -141 -132 -64 -173 -69 -530 -70 -257 -1 -299
-3 -380 -22 -207 -48 -289 -91 -431 -220 -89 -82 -120 -100 -224 -129 -25 -7
-83 -25 -130 -40 -47 -15 -105 -33 -130 -39 -25 -7 -59 -17 -76 -22 -17 -5
-38 -9 -47 -9 -10 0 -25 -4 -35 -10 -15 -8 -114 -33 -247 -61 -49 -11 -81 -18
-160 -37 -35 -9 -89 -19 -280 -52 -172 -30 -363 -45 -595 -44 -222 1 -308 7
-465 34 -113 20 -232 53 -302 86 -28 13 -57 24 -64 24 -21 0 -172 81 -236 127
-94 66 -182 151 -223 215 -38 58 -59 121 -80 243 -23 136 3 438 56 629 14 50
34 125 45 166 27 99 124 371 174 485 7 17 23 53 35 80 12 28 31 70 42 95 92
209 318 661 423 845 98 173 118 205 135 210 19 6 184 -19 223 -34 44 -17 90
-85 102 -151 6 -33 0 -146 -26 -524 -12 -184 -6 -236 32 -257 33 -17 75 6 93
52 18 45 20 182 5 319 -5 47 -12 130 -15 186 -8 119 7 178 63 251 45 59 56 87
108 258 52 172 61 197 145 410 103 258 124 305 221 499 64 128 84 177 72 173
-10 -3 -72 -24 -138 -46 -66 -23 -132 -45 -147 -50 -38 -13 -58 11 -38 44 19
28 221 332 269 403 20 29 47 71 61 92 14 21 40 58 58 83 17 25 32 50 32 55 0
5 7 15 15 22 13 11 74 99 215 308 76 114 244 358 249 362 6 5 178 258 196 288
5 10 27 40 47 68 21 28 38 54 38 58 0 3 38 62 85 130 47 68 85 127 85 131 0 3
15 27 32 53 101 145 165 257 199 347 26 70 57 122 89 150 12 11 35 38 50 60
46 68 181 338 230 460 77 195 105 276 121 360 30 159 39 232 39 317 0 90 -5
125 -32 233 -42 165 -131 290 -275 385 -88 58 -182 90 -288 97 -69 5 -83 3
-102 -13z m352 -353 c68 -53 138 -151 157 -220 21 -79 16 -272 -10 -376 -13
-49 -27 -99 -32 -110 -5 -11 -16 -42 -25 -70 -28 -86 -93 -222 -177 -374 -32
-58 -58 -105 -58 -107 0 -9 -192 -301 -256 -387 -43 -59 -147 -199 -161 -217
-30 -39 -119 -146 -131 -159 -8 -8 -32 -39 -55 -70 -80 -110 -265 -319 -207
-234 8 12 35 50 59 85 24 34 56 77 70 93 15 17 47 64 71 105 23 41 58 98 76
127 19 28 34 54 34 58 0 4 13 25 28 48 47 69 78 119 109 177 17 30 43 78 60
105 41 69 136 267 173 360 4 11 16 38 25 59 22 50 84 221 96 264 5 17 14 49
20 70 6 20 15 57 20 82 5 25 14 65 19 90 21 90 33 207 34 310 0 114 -12 239
-24 255 -5 6 -11 27 -15 48 -7 34 -6 37 16 36 13 0 51 -22 84 -48z m-3755
-458 c122 -56 202 -180 229 -353 28 -182 20 -456 -19 -667 -27 -145 -32 -171
-40 -203 -5 -19 -14 -60 -20 -90 -13 -67 -16 -84 -30 -135 -6 -22 -17 -65 -25
-95 -16 -70 -44 -160 -56 -182 -5 -10 -9 -28 -9 -41 0 -12 -9 -47 -20 -77 -11
-30 -20 -64 -20 -75 0 -12 -4 -25 -8 -31 -5 -5 -19 -43 -31 -84 -24 -76 -26
-83 -54 -155 -9 -22 -21 -58 -28 -80 -13 -45 -27 -82 -40 -107 -5 -10 -9 -23
-9 -29 0 -7 -11 -35 -24 -63 -13 -28 -30 -69 -37 -91 -8 -22 -16 -42 -19 -45
-13 -13 -30 -52 -30 -69 0 -11 -5 -23 -11 -27 -8 -5 -10 3 -6 27 13 76 20 99
28 99 5 0 9 18 9 39 0 22 4 42 9 45 9 6 17 36 29 116 8 49 29 54 24 5 -3 -36
11 -24 26 23 10 29 9 32 -6 30 -22 -4 -21 17 8 177 12 66 24 134 26 150 3 17
9 39 14 50 5 11 11 38 14 60 3 22 14 96 26 165 89 534 100 989 32 1310 -14 62
-42 171 -51 195 -18 49 -76 163 -98 193 -13 17 -21 37 -18 42 4 6 41 8 88 6
65 -2 96 -9 147 -33z m-310 -2753 c0 -5 -5 -10 -11 -10 -5 0 -7 5 -4 10 3 6 8
10 11 10 2 0 4 -4 4 -10z m-34 -86 c-8 -16 -18 -38 -22 -49 -4 -13 -8 -16 -11
-7 -3 7 0 25 5 40 6 15 13 36 16 46 5 13 10 16 17 9 7 -7 5 -19 -5 -39z m-32
-89 c-6 -16 -24 -21 -24 -7 0 11 11 22 21 22 5 0 6 -7 3 -15z m-2625 -1049
c59 -30 102 -78 120 -134 12 -35 12 -56 2 -130 -7 -48 -17 -100 -21 -117 -9
-33 -24 -109 -40 -199 -15 -90 -13 -241 5 -276 29 -56 76 -65 125 -24 76 64
100 193 62 340 -79 307 -9 439 258 485 150 25 289 46 368 55 60 7 284 -23 309
-41 12 -9 12 -15 2 -40 -7 -17 -21 -42 -31 -56 -20 -29 -144 -233 -162 -264
-6 -11 -23 -36 -38 -56 -16 -20 -28 -39 -28 -44 0 -4 -24 -44 -54 -89 -50 -76
-147 -222 -226 -341 -49 -74 -70 -105 -96 -145 -13 -19 -47 -69 -76 -111 -29
-42 -88 -127 -131 -190 -43 -63 -101 -143 -128 -179 -27 -36 -68 -92 -91 -125
-23 -33 -58 -81 -78 -106 -38 -50 -38 -50 -188 -249 -108 -142 -154 -202 -360
-456 -232 -289 -536 -633 -800 -909 -240 -250 -484 -485 -503 -485 -11 0 -28
21 -46 58 l-28 57 2 390 c1 229 9 483 18 615 60 858 82 1102 112 1240 18 83
38 238 53 410 15 181 51 281 148 412 115 155 142 186 258 297 214 205 296 253
544 324 171 49 195 55 290 68 36 4 98 13 139 18 40 6 76 13 79 16 3 3 45 5 94
5 74 0 97 -4 137 -24z m1628 -587 c-25 -47 -66 -107 -78 -115 -15 -9 -10 -1
44 83 39 61 61 80 34 32z m-105 -161 c-5 -7 -31 -53 -56 -102 -50 -96 -90
-162 -173 -288 -29 -43 -53 -81 -53 -84 0 -3 -18 -29 -40 -59 -22 -30 -40 -56
-40 -59 0 -11 -389 -585 -460 -678 -41 -55 -81 -111 -135 -188 -21 -30 -41
-57 -44 -60 -4 -3 -27 -34 -53 -70 -25 -36 -54 -74 -65 -85 -10 -11 -40 -50
-68 -85 -86 -112 -235 -293 -289 -350 -29 -30 -65 -73 -81 -95 -78 -106 -315
-366 -540 -590 -193 -194 -399 -376 -522 -462 -262 -183 -395 -258 -537 -303
-39 -13 -80 -26 -91 -30 -17 -7 -66 -18 -162 -36 -48 -9 -14 35 105 137 53 46
117 102 142 125 25 23 89 78 142 121 53 44 235 215 403 379 169 164 345 335
392 379 47 44 137 136 201 205 63 69 181 193 261 275 272 280 771 827 996
1090 65 77 144 169 175 205 80 93 313 383 406 505 57 76 188 224 193 219 2 -2
-1 -9 -7 -16z m-3480 -286 c31 -20 58 -54 78 -97 38 -83 16 -854 -50 -1770
-31 -417 -43 -544 -60 -625 -5 -25 -14 -72 -20 -105 -26 -132 -35 -164 -81
-262 -135 -289 -270 -464 -434 -563 -45 -27 -122 -67 -171 -90 -49 -23 -100
-47 -113 -53 -13 -7 -65 -12 -115 -12 -81 1 -99 4 -162 34 -81 37 -165 116
-208 194 -15 27 -37 83 -49 125 -20 70 -22 98 -21 302 0 251 16 398 64 610 18
80 31 138 40 185 16 87 90 323 164 525 95 261 264 611 444 922 103 179 357
532 444 618 69 68 194 99 250 62z m14438 -227 c92 -16 178 -55 245 -110 95
-78 218 -147 385 -217 14 -6 33 -14 42 -19 10 -5 26 -9 36 -9 10 0 22 -4 27
-9 32 -28 269 -88 400 -101 204 -20 273 -33 333 -63 51 -24 66 -48 58 -89 -7
-34 -73 -101 -119 -121 -136 -59 -296 -83 -444 -67 -98 11 -170 25 -208 40
-11 4 -36 13 -55 20 -102 35 -275 135 -355 206 -16 14 -41 36 -55 48 -14 11
-36 37 -50 56 -35 49 -67 75 -128 105 -44 21 -67 25 -142 25 -49 0 -113 -5
-142 -11 -64 -13 -199 -58 -212 -70 -6 -5 -17 -9 -26 -9 -19 0 -299 -141 -357
-181 -24 -16 -47 -29 -50 -29 -3 0 -47 -29 -99 -65 -52 -36 -98 -65 -102 -65
-5 0 -17 -10 -28 -21 -62 -69 -284 -179 -444 -219 -25 -7 -72 -21 -105 -31
-45 -15 -100 -22 -221 -26 -146 -5 -167 -4 -231 15 -39 12 -81 31 -94 41 -24
20 -24 20 -4 35 11 8 49 20 85 26 219 38 558 223 858 469 51 42 116 95 145
118 60 49 209 136 317 186 111 52 245 107 260 107 6 0 26 6 43 14 97 43 263
51 437 21z m-9314 -487 c-4 -46 -14 -141 -22 -213 -49 -413 -57 -561 -51 -880
6 -271 14 -357 52 -563 18 -101 33 -160 46 -184 5 -10 9 -25 9 -33 0 -8 4 -23
9 -33 5 -9 14 -35 21 -57 17 -57 93 -212 129 -265 17 -25 31 -49 31 -55 0 -18
-124 125 -166 190 -10 17 -21 32 -24 35 -37 35 -154 262 -203 395 -78 209
-102 364 -102 660 0 260 11 348 72 565 9 30 19 63 24 72 5 10 9 26 9 35 0 10
7 27 15 37 8 11 15 28 15 38 0 10 5 18 11 18 5 0 7 -4 4 -10 -3 -5 -1 -10 4
-10 6 0 11 7 11 15 0 8 9 29 20 47 11 18 20 44 20 58 l-1 25 -15 -25 c-10 -17
-13 -18 -8 -5 3 11 11 42 16 69 12 62 58 156 76 156 2 0 1 -37 -2 -82z m-6876
-768 c0 -11 -4 -20 -9 -20 -5 0 -7 9 -4 20 3 11 7 20 9 20 2 0 4 -9 4 -20z
m-47 -150 c-3 -11 -7 -20 -9 -20 -2 0 -4 9 -4 20 0 11 4 20 9 20 5 0 7 -9 4
-20z m-96 -32 c-3 -8 -6 -5 -6 6 -1 11 2 17 5 13 3 -3 4 -12 1 -19z m-20 -40
c-3 -8 -6 -5 -6 6 -1 11 2 17 5 13 3 -3 4 -12 1 -19z m90 -10 c-3 -7 -5 -2 -5
12 0 14 2 19 5 13 2 -7 2 -19 0 -25z m-20 -100 c-3 -7 -5 -2 -5 12 0 14 2 19
5 13 2 -7 2 -19 0 -25z m-110 -20 c-3 -7 -5 -2 -5 12 0 14 2 19 5 13 2 -7 2
-19 0 -25z m90 -85 c-2 -16 -4 -5 -4 22 0 28 2 40 4 28 2 -13 2 -35 0 -50z
m-110 10 c-3 -10 -5 -4 -5 12 0 17 2 24 5 18 2 -7 2 -21 0 -30z m-20 -85 c-2
-13 -4 -5 -4 17 -1 22 1 32 4 23 2 -10 2 -28 0 -40z m110 -60 c-2 -13 -4 -3
-4 22 0 25 2 35 4 23 2 -13 2 -33 0 -45z m-127 -4 c0 -8 -4 -12 -10 -9 -5 3
-10 10 -10 16 0 5 5 9 10 9 6 0 10 -7 10 -16z m-20 -86 c0 -18 -2 -20 -9 -8
-6 8 -7 18 -5 22 9 14 14 9 14 -14z m130 -25 c0 -7 -4 -13 -10 -13 -5 0 -10
12 -10 28 0 21 2 24 10 12 5 -8 10 -21 10 -27z m-163 -135 c-3 -7 -5 -2 -5 12
0 14 2 19 5 13 2 -7 2 -19 0 -25z m163 -278 c0 -36 -4 -60 -11 -60 -6 0 -9 22
-7 60 1 33 6 60 10 60 5 0 8 -27 8 -60z m17 -162 c-3 -7 -5 -2 -5 12 0 14 2
19 5 13 2 -7 2 -19 0 -25z m-167 -43 c0 -19 -5 -35 -10 -35 -6 0 -10 16 -8 35
1 19 6 35 10 35 4 0 8 -16 8 -35z m187 -62 c-3 -10 -5 -4 -5 12 0 17 2 24 5
18 2 -7 2 -21 0 -30z m-167 -24 c0 -11 -4 -18 -10 -14 -5 3 -7 12 -3 20 7 21
13 19 13 -6z m20 -78 c0 -21 -13 -4 -17 22 -2 17 -1 19 7 7 5 -8 10 -21 10
-29z m17 -63 c-3 -8 -6 -5 -6 6 -1 11 2 17 5 13 3 -3 4 -12 1 -19z m23 -38 c0
-5 -2 -10 -4 -10 -3 0 -8 5 -11 10 -3 6 -1 10 4 10 6 0 11 -4 11 -10z m44 -86
c3 -8 2 -12 -4 -9 -6 3 -10 10 -10 16 0 14 7 11 14 -7z m213 -106 c-3 -8 -6
-5 -6 6 -1 11 2 17 5 13 3 -3 4 -12 1 -19z m9796 -570 c22 -26 27 -42 27 -84
0 -67 -9 -90 -54 -136 -31 -32 -43 -38 -79 -38 -31 1 -50 8 -72 27 -28 25 -30
30 -30 102 0 64 4 81 23 109 49 68 136 78 185 20z"/>
<path d="M7641 8593 c0 -6 -4 -20 -7 -30 -5 -14 -4 -15 5 -7 7 7 11 20 8 30
-3 11 -5 14 -6 7z"/>
<path d="M7621 8524 c0 -11 3 -14 6 -6 3 7 2 16 -1 19 -3 4 -6 -2 -5 -13z"/>
<path d="M4500 6699 c-19 -4 -82 -18 -140 -29 -124 -26 -299 -82 -349 -113
-148 -90 -403 -356 -474 -493 -23 -45 -37 -113 -48 -234 -8 -97 -18 -169 -39
-295 -23 -137 -32 -197 -40 -270 -5 -44 -14 -118 -20 -165 -14 -116 -38 -455
-60 -855 -5 -99 -13 -231 -16 -292 -4 -65 -3 -113 2 -113 5 0 41 35 79 77 317
348 385 425 419 468 22 28 58 70 80 95 35 39 214 256 268 324 9 11 54 68 100
126 46 58 111 141 143 185 33 44 62 82 65 85 7 6 110 142 160 210 67 92 205
284 237 329 35 51 41 71 18 71 -35 0 -133 56 -177 103 -91 93 -113 169 -112
387 0 127 5 193 22 284 12 65 22 120 22 122 0 7 -104 2 -140 -7z m-243 -455
c7 -145 56 -335 105 -406 10 -14 18 -28 18 -31 0 -3 14 -28 31 -56 l31 -50
-29 -38 c-16 -21 -36 -48 -44 -59 -28 -43 -194 -261 -289 -379 -52 -66 -104
-132 -115 -146 -49 -65 -182 -227 -214 -261 -62 -67 -70 -52 -51 98 5 43 14
124 20 179 12 114 26 211 47 340 24 150 33 216 43 315 17 180 18 183 116 295
61 71 179 188 213 212 29 20 92 43 106 39 6 -1 11 -25 12 -52z"/>
<path d="M5438 6653 c-19 -5 -30 -27 -22 -48 9 -23 29 -18 44 10 15 28 6 44
-22 38z"/>
<path d="M2627 5372 c-15 -26 -63 -104 -106 -173 -115 -185 -371 -682 -371
-720 0 -5 -4 -17 -10 -27 -17 -30 -71 -164 -102 -252 -43 -122 -136 -443 -147
-503 -5 -29 -19 -106 -31 -172 -38 -213 -50 -327 -50 -471 0 -170 15 -232 68
-282 51 -48 64 -45 252 54 107 56 220 192 309 370 89 179 100 219 132 499 36
314 58 635 84 1250 17 409 18 475 8 475 -5 0 -20 -22 -36 -48z"/>
<path d="M11755 9683 c-8 -8 -15 -23 -15 -34 0 -11 -14 -57 -31 -102 -89 -239
-291 -641 -577 -1147 -36 -63 -76 -135 -90 -160 -14 -25 -51 -88 -82 -140 -80
-134 -119 -201 -165 -280 -22 -38 -65 -110 -95 -161 -30 -50 -63 -105 -74
-123 -113 -189 -436 -854 -436 -896 0 -5 -12 -35 -26 -67 -14 -32 -39 -96 -54
-143 -16 -47 -40 -118 -55 -159 -14 -41 -30 -92 -35 -115 -4 -23 -19 -84 -33
-136 -40 -158 -47 -210 -47 -368 0 -121 4 -168 20 -228 11 -41 24 -82 29 -92
5 -9 22 -43 37 -76 73 -159 265 -275 502 -306 108 -14 181 -51 250 -125 32
-34 66 -78 75 -97 23 -49 22 -144 -4 -243 -42 -166 -60 -304 -57 -431 4 -147
13 -164 87 -164 77 0 113 42 141 164 12 51 12 78 -4 215 -27 235 -29 297 -16
401 18 139 43 215 107 321 67 112 117 167 241 266 125 100 322 292 450 438 58
66 117 134 132 151 15 17 40 50 55 73 17 25 35 41 44 39 14 -3 16 -22 13 -143
-4 -140 3 -198 43 -350 47 -179 173 -333 331 -405 105 -48 249 -66 260 -32 13
40 67 140 90 167 13 15 24 29 24 30 0 2 -16 38 -36 81 -47 103 -63 171 -63
269 0 157 55 293 166 414 60 64 82 80 183 130 129 63 114 42 154 218 34 149
168 406 371 713 50 75 96 145 103 155 34 53 54 86 94 149 24 38 61 97 83 131
47 73 91 144 122 196 13 20 47 77 77 126 31 48 74 122 97 163 23 41 48 82 55
90 53 63 192 379 229 520 15 58 31 119 37 135 15 49 22 273 10 362 -38 281
-245 507 -506 553 -99 17 -121 14 -150 -21 -14 -17 -26 -41 -26 -54 0 -13 -4
-27 -10 -30 -5 -3 -10 -16 -10 -29 0 -12 -3 -26 -7 -29 -3 -4 -14 -28 -23 -54
-59 -162 -278 -589 -519 -1010 -22 -40 -59 -104 -80 -143 -21 -38 -48 -82 -58
-97 -11 -15 -46 -75 -78 -133 -32 -58 -72 -126 -89 -151 -17 -26 -44 -69 -59
-95 -49 -86 -94 -161 -133 -221 -20 -32 -53 -84 -73 -116 -20 -31 -55 -86 -78
-122 -24 -36 -43 -68 -43 -71 0 -4 -20 -35 -45 -70 -25 -34 -45 -67 -45 -71 0
-5 -9 -19 -20 -31 -11 -11 -40 -54 -65 -94 -25 -40 -75 -111 -111 -158 -191
-250 -183 -240 -212 -240 -39 0 -71 26 -93 74 -23 52 -24 158 -4 386 9 91 17
199 20 240 3 41 9 149 15 240 17 269 34 379 80 530 4 14 14 45 21 70 7 25 46
110 85 190 79 158 150 365 164 475 14 106 12 304 -4 389 -9 45 -34 114 -60
170 -74 153 -209 276 -351 319 -77 24 -133 28 -150 10z m195 -284 c129 -29
186 -98 197 -238 6 -77 -14 -208 -38 -253 -5 -10 -9 -27 -9 -37 0 -11 -4 -23
-10 -26 -5 -3 -10 -14 -10 -25 0 -10 -9 -35 -19 -57 -11 -21 -28 -58 -38 -83
-29 -72 -113 -234 -130 -250 -14 -14 -15 -10 -9 35 4 28 12 75 18 105 16 90
21 308 8 385 -14 83 -47 207 -66 252 -8 17 -14 36 -14 42 0 7 -9 29 -20 51
-25 48 -26 86 -2 99 22 13 84 13 142 0z m2150 -71 c40 -13 104 -51 117 -70 33
-52 43 -167 22 -255 -24 -99 -58 -203 -89 -269 -46 -99 -150 -306 -166 -329
-24 -34 -15 2 16 67 24 49 30 75 30 125 0 36 4 72 9 82 27 49 16 260 -20 396
-27 104 -24 94 -64 193 -10 23 -22 42 -27 42 -13 0 -9 28 5 33 17 8 125 -3
167 -15z m-2276 -1801 c26 -35 28 -127 8 -437 -7 -113 -17 -284 -23 -380 -11
-200 -22 -299 -46 -420 l-17 -85 -135 -138 c-195 -199 -309 -275 -427 -285
-57 -4 -63 -3 -96 27 -52 45 -61 75 -55 178 7 111 17 159 65 308 100 303 317
762 533 1125 79 132 146 169 193 107z"/>
<path d="M19295 8768 c-10 -18 -34 -53 -53 -78 -19 -25 -43 -58 -55 -74 -12
-16 -40 -54 -62 -86 -22 -31 -71 -101 -110 -154 -161 -225 -436 -628 -532
-780 -94 -151 -253 -459 -253 -492 0 -21 3 -23 33 -17 81 15 169 81 352 267
116 117 317 339 416 458 112 135 333 416 342 435 6 15 4 59 -8 145 -9 67 -19
187 -22 266 -6 152 -13 168 -48 110z"/>
<path d="M16296 8172 c-99 -156 -174 -278 -219 -357 -19 -33 -53 -94 -77 -135
-24 -41 -62 -109 -85 -150 -23 -41 -53 -95 -67 -120 -79 -141 -225 -429 -301
-590 -19 -41 -62 -133 -96 -205 -34 -71 -66 -139 -71 -150 -5 -11 -25 -55 -44
-97 -20 -43 -36 -80 -36 -83 0 -3 -15 -38 -34 -78 -19 -40 -44 -97 -56 -127
-12 -30 -32 -77 -45 -105 -13 -27 -37 -84 -54 -125 -16 -41 -42 -104 -56 -140
-14 -36 -35 -82 -45 -103 -36 -70 -29 -71 108 -23 90 32 168 66 349 152 39 19
74 34 77 34 5 0 80 34 273 126 51 24 95 44 98 44 27 0 492 232 500 250 3 8 1
63 -6 122 -18 159 3 395 52 583 5 22 16 67 23 100 16 69 104 329 134 396 11
25 32 76 47 114 14 39 82 182 151 319 68 138 121 253 117 256 -5 4 -62 12
-127 19 -219 23 -333 58 -414 126 -16 14 -34 25 -38 25 -5 0 -31 -35 -58 -78z
m19 -652 c3 -5 -3 -26 -13 -47 -31 -62 -111 -307 -153 -473 -46 -179 -68 -325
-75 -495 -3 -97 -8 -123 -22 -136 -9 -8 -71 -40 -137 -71 -66 -31 -155 -73
-198 -93 -114 -53 -119 -44 -52 98 25 53 45 98 45 101 0 20 423 859 466 925 9
12 29 48 46 80 39 72 71 121 80 121 4 0 10 -4 13 -10z"/>
<path d="M18558 5895 c-45 -31 -48 -45 -9 -45 16 0 43 -3 60 -6 38 -8 41 8 8
49 l-22 28 -37 -26z"/>
<path d="M9092 5488 c-3 -13 -27 -66 -53 -118 -48 -98 -119 -252 -184 -400
-20 -47 -41 -93 -46 -102 -5 -10 -9 -22 -9 -28 0 -6 -9 -29 -19 -53 -25 -56
-45 -108 -82 -220 -17 -51 -35 -96 -39 -102 -5 -5 -11 -28 -15 -50 -4 -22 -16
-71 -27 -110 -65 -228 -87 -462 -56 -582 15 -57 97 -146 193 -209 330 -216
802 -276 1490 -188 146 19 222 33 545 103 56 12 110 42 133 73 12 17 40 43 62
60 l40 30 -35 -9 c-19 -4 -80 -8 -135 -8 -95 0 -103 2 -163 34 -202 110 -273
354 -202 701 5 25 19 101 32 169 26 143 26 144 -65 156 -159 22 -360 103 -477
191 -59 45 -145 132 -174 177 -21 32 -38 34 -74 9 -78 -54 -123 -67 -233 -67
-93 0 -111 3 -155 25 -99 50 -185 166 -206 279 -5 25 -12 94 -15 154 -5 101
-17 136 -31 85z m96 -802 c127 -64 284 -85 449 -62 62 9 63 8 105 -26 105 -84
280 -185 349 -201 15 -4 36 -15 48 -24 22 -18 22 -18 6 -120 -28 -186 -19
-311 32 -491 27 -95 26 -109 -13 -116 -161 -31 -685 -32 -848 -2 -174 32 -339
100 -415 169 -22 21 -23 26 -18 122 7 137 64 368 146 595 52 141 73 190 82
190 5 0 40 -15 77 -34z"/>
<path d="M11694 5132 c-67 -59 -149 -128 -182 -154 -60 -47 -118 -121 -162
-207 -31 -61 -47 -245 -32 -351 35 -236 35 -239 17 -370 -9 -69 -24 -148 -34
-176 -26 -79 -81 -162 -133 -203 -26 -20 -47 -39 -48 -42 0 -3 30 -2 67 3 50
6 73 14 92 32 74 71 290 187 416 224 200 59 262 71 434 82 l126 8 110 57 c220
114 412 214 488 255 l77 41 0 46 c0 26 -4 60 -10 77 -5 17 -12 44 -15 61 -6
28 -150 183 -161 173 -2 -3 -6 -41 -7 -84 -7 -211 -166 -314 -487 -314 -178 0
-262 30 -346 123 -50 55 -63 76 -83 138 -21 67 -6 176 34 239 24 38 130 140
146 140 20 0 7 37 -26 72 -40 42 -145 205 -145 225 0 7 -3 13 -7 13 -5 0 -63
-48 -129 -108z"/>
<path d="M12045 4715 c-48 -47 -29 -117 41 -153 41 -21 157 -42 232 -42 102 1
165 27 160 67 -7 66 -198 153 -334 153 -66 0 -78 -3 -99 -25z"/>
<path d="M16197 3633 c-131 -67 -227 -149 -227 -194 0 -37 50 -94 97 -110 19
-6 60 -9 91 -7 50 4 59 9 88 44 47 55 72 130 80 234 6 74 4 90 -7 90 -8 -1
-63 -26 -122 -57z"/>
<path d="M13910 2773 c-124 -19 -200 -111 -200 -240 0 -74 20 -130 62 -174
108 -115 263 -111 355 9 56 73 67 173 29 264 -36 84 -158 154 -246 141z m44
-84 c32 -38 34 -84 4 -116 -17 -18 -32 -23 -73 -23 -74 0 -97 19 -93 78 3 40
8 49 37 69 49 33 93 30 125 -8z"/>
<path d="M14849 2735 c-100 -22 -208 -92 -257 -169 -22 -34 -27 -52 -27 -111
0 -58 5 -77 26 -110 36 -55 54 -69 134 -107 62 -29 82 -33 172 -36 108 -4 115
-3 235 52 76 35 181 139 216 214 33 72 36 150 8 181 -31 34 -135 79 -206 91
-84 13 -230 11 -301 -5z m311 -86 c20 -11 49 -40 64 -62 24 -36 27 -50 24
-100 -4 -46 -10 -63 -34 -88 -45 -48 -75 -59 -157 -59 -60 0 -80 4 -108 23
-97 65 -107 180 -22 258 44 41 64 48 132 49 46 0 73 -6 101 -21z"/>
<path d="M9850 1988 c-74 -5 -151 -13 -171 -18 -158 -42 -235 -267 -131 -382
84 -93 240 -121 357 -64 86 43 230 189 273 278 48 101 44 147 -19 178 -43 22
-82 23 -309 8z m-126 -90 c71 -21 87 -70 39 -120 -21 -22 -36 -28 -69 -28 -59
0 -94 30 -94 80 0 30 6 43 26 59 31 24 42 25 98 9z"/>
<path d="M13555 1758 c-69 -24 -134 -116 -135 -191 0 -110 105 -218 212 -217
46 1 116 39 151 83 26 31 31 47 35 110 4 60 1 80 -16 113 -49 95 -149 136
-247 102z m82 -65 c64 -30 73 -95 21 -150 -16 -17 -33 -23 -66 -23 -36 0 -49
5 -73 31 -49 53 -36 108 36 147 27 16 41 15 82 -5z"/>
<path d="M8973 1203 c-54 -10 -70 -91 -28 -137 39 -42 105 -35 130 15 23 44
19 74 -16 103 -30 25 -41 28 -86 19z"/>
<path d="M9818 939 c-60 -31 -88 -82 -88 -156 0 -62 1 -64 48 -112 54 -56 80
-66 157 -56 117 14 188 141 136 243 -23 45 -56 77 -94 91 -44 17 -118 12 -159
-10z m114 -86 c63 -60 12 -153 -74 -136 -62 12 -79 30 -76 81 3 38 8 48 33 63
45 26 84 23 117 -8z"/>
<path d="M9801 803 c0 -25 1 -26 9 -8 12 27 12 35 0 35 -5 0 -10 -12 -9 -27z"/>
</g>
</svg>
