<?xml version="1.0" standalone="no"?>
<!DOCTYPE svg PUBLIC "-//W3C//DTD SVG 20010904//EN"
 "http://www.w3.org/TR/2001/REC-SVG-20010904/DTD/svg10.dtd">
<svg version="1.0" xmlns="http://www.w3.org/2000/svg"
 width="2400.000000pt" height="1923.000000pt" viewBox="0 0 2400.000000 1923.000000"
 preserveAspectRatio="xMidYMid meet">
<metadata>
Created by potrace 1.16, written by Peter Selinger 2001-2019
</metadata>
<g transform="translate(0.000000,1923.000000) scale(0.100000,-0.100000)"
fill="#000000" stroke="none">
<path d="M0 19070 c0 -88 4 -160 9 -160 15 0 31 26 46 79 21 69 120 168 191
190 31 10 50 23 52 34 3 16 -9 17 -147 17 l-151 0 0 -160z"/>
<path d="M23702 19213 c2 -10 23 -24 50 -34 78 -28 182 -129 194 -188 7 -37
27 -74 42 -79 9 -3 12 33 12 157 l0 161 -151 0 c-136 0 -150 -2 -147 -17z"/>
<path d="M14330 18518 c-95 -49 -172 -133 -206 -227 -17 -45 -28 -98 -29 -133
-1 -31 -7 -63 -13 -70 -9 -11 -44 -14 -164 -12 l-153 3 -75 42 c-41 23 -115
66 -165 94 -49 29 -159 88 -243 131 l-153 79 -107 0 c-99 0 -112 -2 -174 -32
-82 -38 -147 -104 -189 -192 -30 -61 -31 -67 -27 -175 4 -102 7 -116 37 -176
19 -36 44 -79 57 -96 13 -17 24 -35 24 -40 0 -5 18 -36 40 -69 41 -62 49 -100
28 -138 -6 -12 -15 -58 -19 -102 -5 -51 -17 -101 -34 -139 -39 -87 -55 -169
-55 -284 0 -156 46 -341 121 -486 44 -84 41 -121 -14 -199 -70 -98 -203 -375
-263 -547 -24 -71 -34 -101 -84 -275 -12 -38 -32 -128 -46 -200 -14 -71 -29
-137 -33 -145 -14 -27 -48 -22 -100 14 -81 55 -164 78 -294 80 -68 0 -135 -5
-170 -13 -82 -20 -111 -9 -115 44 -5 69 -76 197 -143 259 -293 271 -740 156
-864 -223 -15 -45 -17 -75 -12 -169 7 -119 9 -127 93 -270 19 -33 19 -33 -1
-48 -12 -9 -31 -12 -50 -9 -16 3 -50 10 -75 15 -25 5 -72 14 -105 21 -32 6
-70 16 -83 22 -13 6 -57 61 -97 122 -106 159 -200 245 -346 315 -106 50 -210
74 -322 75 -100 0 -110 6 -121 75 -9 60 -74 179 -127 235 -68 72 -140 119
-239 155 -81 30 -91 31 -205 28 l-120 -3 -105 -52 c-111 -55 -167 -103 -229
-195 -38 -57 -56 -68 -111 -68 -58 0 -180 -62 -249 -126 -40 -37 -69 -77 -101
-140 -45 -89 -45 -89 -48 -209 -3 -109 -1 -126 23 -189 50 -132 135 -222 278
-291 80 -39 83 -41 115 -107 43 -87 165 -205 263 -253 140 -69 330 -94 480
-63 56 11 58 11 94 -18 106 -86 134 -106 173 -125 49 -24 82 -69 82 -111 0
-40 34 -122 64 -159 14 -17 26 -39 26 -49 0 -22 -28 -40 -64 -40 -14 0 -63
-18 -109 -40 -110 -53 -190 -134 -243 -246 -37 -78 -37 -80 -39 -224 l-3 -145
46 -93 c38 -76 59 -104 112 -151 57 -51 184 -121 219 -121 6 0 39 -27 72 -59
41 -41 89 -74 147 -103 79 -38 95 -43 175 -46 130 -6 218 17 305 78 80 56 144
125 178 192 26 51 70 74 119 62 16 -4 51 1 86 11 59 18 60 18 87 -2 16 -12 32
-38 39 -64 34 -119 114 -232 213 -299 100 -68 149 -83 292 -88 153 -5 161 -10
159 -98 -1 -49 5 -67 38 -128 22 -39 59 -90 83 -112 47 -46 131 -94 164 -94
11 0 28 -6 38 -13 26 -19 13 -51 -32 -78 -59 -36 -112 -78 -188 -151 -47 -45
-80 -68 -96 -68 -24 0 -79 33 -134 80 -45 39 -261 145 -325 160 -74 17 -248 9
-314 -14 -66 -24 -139 -73 -200 -135 -58 -60 -96 -67 -134 -27 -13 14 -48 37
-78 52 -220 107 -410 122 -585 45 -108 -48 -227 -180 -266 -296 -26 -76 -40
-79 -129 -26 -135 78 -318 118 -506 108 -62 -4 -126 -9 -143 -13 -55 -11 -64
10 -65 144 -1 162 -19 272 -76 467 -62 214 -192 437 -329 565 -128 119 -292
213 -459 262 -74 21 -97 23 -315 22 -221 -1 -241 -2 -330 -27 -129 -35 -183
-52 -262 -80 -67 -25 -352 -169 -405 -205 -230 -157 -289 -200 -389 -283 -291
-242 -588 -565 -847 -922 -20 -29 -51 -70 -67 -92 -16 -22 -52 -74 -79 -115
-28 -41 -68 -98 -91 -126 -22 -28 -40 -56 -40 -61 0 -6 -27 -46 -60 -89 -33
-43 -60 -82 -60 -87 0 -5 -21 -39 -46 -75 -25 -36 -49 -73 -53 -81 -3 -9 -40
-68 -82 -131 -86 -131 -154 -242 -185 -299 -12 -22 -37 -64 -56 -93 -20 -29
-43 -69 -53 -88 -10 -19 -46 -83 -81 -141 -36 -59 -72 -128 -81 -155 -9 -27
-20 -54 -25 -61 -5 -7 -31 -52 -57 -100 -27 -48 -70 -126 -96 -173 -110 -196
-279 -515 -559 -1060 l-84 -165 -37 -3 c-51 -5 -209 42 -273 81 -83 50 -137
113 -163 193 -19 58 -23 96 -26 234 -4 157 -2 172 31 325 38 178 67 285 96
360 10 28 35 91 54 140 19 50 47 112 61 139 14 27 25 62 25 77 0 15 16 58 36
96 20 37 52 106 71 152 34 82 35 88 31 195 -3 107 -5 115 -45 199 -58 120
-127 191 -247 254 l-91 48 -122 3 c-115 4 -128 2 -225 -28 -122 -38 -353 -153
-456 -227 -40 -29 -83 -58 -95 -64 -54 -28 -343 -299 -405 -379 -23 -30 -67
-86 -97 -123 -30 -38 -60 -87 -66 -110 -6 -22 -22 -55 -35 -72 -13 -18 -64
-113 -113 -211 -72 -144 -98 -208 -132 -329 -23 -83 -46 -175 -50 -205 -4 -30
-12 -91 -18 -135 -6 -44 -14 -100 -19 -125 -8 -44 1 -397 12 -495 28 -235 131
-484 305 -734 26 -38 31 -53 31 -105 0 -34 -5 -81 -11 -106 -16 -69 -30 -193
-38 -326 -4 -78 -11 -127 -19 -137 -8 -9 -45 -42 -83 -72 -54 -45 -75 -70 -98
-120 -16 -34 -36 -65 -44 -68 -22 -8 -120 -154 -167 -247 -52 -104 -106 -268
-120 -366 -5 -42 -10 -137 -10 -212 0 -181 26 -293 105 -447 47 -92 70 -124
143 -198 169 -171 345 -262 624 -322 106 -22 140 -25 337 -25 194 0 234 3 345
25 147 29 332 81 361 101 11 8 29 14 41 14 19 0 223 94 289 133 11 6 38 21 60
32 22 12 65 39 95 61 30 23 65 46 78 53 82 43 365 291 507 443 103 110 120
123 149 112 30 -12 76 -90 76 -129 0 -161 137 -361 305 -445 69 -34 72 -35
213 -38 135 -3 148 -2 207 22 147 59 243 147 313 289 47 95 68 110 126 89 17
-6 63 -16 101 -21 39 -6 100 -19 135 -30 169 -51 451 -109 705 -146 355 -52
870 -69 1217 -41 115 10 212 14 218 11 20 -12 9 -53 -25 -98 -20 -26 -38 -61
-42 -79 -3 -18 -11 -40 -18 -48 -52 -63 -201 -474 -260 -722 -29 -118 -55
-369 -55 -520 0 -176 36 -451 75 -573 36 -112 109 -266 168 -355 107 -161 307
-334 476 -412 103 -47 225 -86 309 -98 91 -13 392 -8 509 8 76 11 196 44 385
106 81 26 458 214 493 245 11 10 53 40 94 67 147 98 182 123 239 172 32 28 81
68 109 89 140 105 376 334 398 385 8 20 25 44 37 55 36 28 319 336 358 388 19
26 69 87 110 135 117 137 245 304 313 410 16 24 30 35 47 35 23 0 25 -3 22
-45 -21 -343 21 -659 118 -870 21 -47 41 -100 44 -118 6 -35 62 -133 124 -218
65 -89 214 -226 337 -309 67 -46 229 -132 308 -163 33 -14 36 -48 7 -85 -11
-14 -37 -60 -56 -102 l-37 -76 5 -123 c4 -113 8 -128 39 -197 42 -92 139 -199
219 -239 84 -43 186 -70 246 -68 l54 2 65 -71 c109 -120 250 -188 412 -200
107 -8 185 9 293 61 68 33 101 57 163 120 42 43 77 82 77 87 0 5 11 26 24 47
30 45 66 186 66 258 0 68 22 87 91 78 36 -5 68 1 155 29 121 39 219 98 293
176 63 67 147 183 176 244 58 121 171 222 266 234 63 9 73 -25 26 -89 -18 -24
-21 -46 -25 -171 -5 -174 7 -231 71 -350 88 -161 210 -260 396 -322 63 -20 95
-25 184 -25 204 0 356 66 502 218 48 50 145 229 145 267 0 41 29 55 113 55
112 0 234 32 351 92 89 46 114 65 211 163 94 96 117 125 157 206 26 52 52 112
57 134 16 62 30 74 106 93 139 35 301 153 330 242 9 27 22 51 30 54 19 7 42
-17 50 -54 14 -63 157 -177 270 -215 113 -38 291 -38 382 0 60 25 179 45 271
45 81 0 95 -3 151 -32 34 -17 88 -53 121 -80 76 -61 276 -161 377 -189 134
-37 146 -39 240 -39 245 0 468 117 615 325 53 75 78 130 78 173 0 22 7 59 15
82 11 30 15 83 15 179 0 177 -27 291 -104 443 -68 134 -111 191 -220 296 -47
45 -88 93 -91 105 -2 12 -6 58 -9 102 -3 44 -8 97 -12 118 -8 46 -1 55 93 117
186 123 378 343 484 555 57 114 93 208 114 295 27 116 38 136 82 151 79 26
169 84 235 151 41 42 75 68 88 68 13 0 37 -17 58 -41 49 -55 106 -93 194 -131
62 -26 89 -31 178 -35 89 -4 117 -2 180 17 100 30 177 71 225 120 l39 40 116
0 c125 0 163 9 263 62 67 36 170 141 197 202 43 97 58 185 51 296 -6 92 -12
115 -43 180 -35 74 -66 112 -165 201 -45 41 -52 53 -58 95 -14 112 -86 244
-182 335 -90 86 -306 179 -414 179 -66 0 -97 18 -140 82 -23 33 -70 90 -105
127 l-64 68 0 97 c0 52 -5 116 -12 141 -19 69 -7 80 83 81 126 2 161 10 241
53 132 71 219 185 264 346 8 27 14 68 14 91 0 30 11 64 39 116 22 40 54 118
72 173 28 87 33 119 39 245 5 115 3 159 -10 215 -23 97 -83 215 -146 286 -30
33 -54 64 -54 69 0 50 -203 165 -325 185 -22 3 -91 8 -152 11 -110 6 -113 7
-113 30 0 13 21 48 49 81 26 33 51 68 55 79 18 58 117 102 280 125 95 13 197
43 251 74 22 12 51 26 65 30 26 7 113 69 163 114 46 42 144 166 167 211 12 23
57 80 100 126 43 45 95 113 116 149 43 78 91 117 172 140 32 9 95 30 142 46
47 17 123 43 170 59 185 63 367 129 415 150 69 32 149 116 188 198 29 61 32
76 32 162 0 87 -3 101 -33 166 -60 127 -173 213 -309 234 -32 5 -155 11 -273
15 -350 10 -461 15 -471 21 -6 3 -20 22 -33 43 -35 55 -183 201 -246 242 -30
19 -62 48 -70 63 -13 26 -12 31 13 75 40 71 127 323 127 367 0 22 9 59 20 83
39 84 98 357 126 571 22 173 15 643 -11 775 -25 128 -90 365 -127 465 -100
272 -353 730 -474 862 -12 13 -38 49 -58 81 -20 31 -41 57 -45 57 -5 0 -18 14
-29 31 -26 42 -261 289 -274 289 -6 0 -25 12 -43 28 -37 30 -158 118 -220 159
-56 37 -236 133 -249 133 -6 0 -40 14 -76 31 -72 34 -237 88 -345 113 -181 41
-342 56 -594 56 -135 0 -282 -4 -326 -10 -235 -28 -348 -44 -405 -58 -25 -6
-88 -21 -140 -33 -234 -54 -545 -162 -742 -258 -163 -79 -173 -79 -214 -2 -13
25 -39 65 -57 88 -17 23 -50 67 -72 98 -159 227 -525 561 -795 727 -106 66
-391 204 -480 234 -361 121 -532 152 -875 161 -209 5 -222 7 -250 28 -28 21
-58 70 -160 260 -39 73 -112 201 -134 235 -9 14 -31 54 -49 91 -21 44 -53 86
-100 131 -85 82 -155 108 -291 108 -79 0 -93 -3 -151 -32z m258 -737 c-3 -51
-1 -56 19 -59 12 -2 24 -10 27 -19 8 -21 7 -21 -35 -16 l-36 5 -6 66 c-4 41
-3 70 4 79 20 23 31 2 27 -56z m-1231 -46 c29 -19 56 -35 61 -35 5 0 19 -11
31 -24 13 -14 35 -26 49 -28 14 -2 28 -9 30 -17 5 -16 -20 -12 -76 10 -25 11
-37 11 -51 2 -17 -11 -23 -5 -57 45 -55 80 -56 82 -47 82 5 0 32 -16 60 -35z
m1371 -187 c17 -17 15 -38 -3 -38 -8 0 -15 4 -15 9 0 5 -3 16 -6 25 -7 19 7
21 24 4z m-578 -18 c13 -8 2 -11 -83 -26 -21 -4 -43 -2 -50 4 -7 6 -52 10
-102 10 -159 -2 -235 2 -235 12 0 12 451 12 470 0z m-756 -99 c3 -5 -5 -16
-17 -24 -25 -16 -51 -85 -41 -111 4 -11 1 -16 -11 -16 -10 0 -15 7 -14 18 1 9
-1 24 -5 34 -9 20 16 71 46 92 26 18 35 20 42 7z m1435 -61 c21 -29 29 -46 21
-48 -17 -6 -94 73 -85 87 11 18 27 8 64 -39z m801 -21 c131 -10 148 -13 325
-53 130 -29 244 -64 340 -104 162 -68 388 -188 445 -237 25 -21 40 -32 115
-82 62 -41 197 -166 330 -305 124 -130 143 -152 210 -248 22 -31 58 -81 80
-111 42 -56 111 -171 151 -252 30 -60 64 -78 102 -55 101 62 307 162 487 237
65 28 245 89 335 115 52 15 126 37 164 48 38 11 105 26 150 33 44 7 133 22
196 33 269 47 661 54 903 17 202 -31 400 -94 592 -190 168 -83 260 -149 399
-283 147 -143 281 -304 373 -451 16 -24 38 -58 50 -75 42 -59 149 -252 215
-386 96 -196 170 -436 209 -680 19 -119 17 -541 -4 -675 -26 -166 -73 -375
-111 -491 -20 -61 -36 -124 -36 -142 0 -56 -192 -489 -247 -556 -13 -16 -33
-47 -45 -70 -11 -22 -38 -64 -59 -92 -22 -28 -39 -55 -39 -60 0 -5 -16 -29
-35 -54 -19 -25 -50 -67 -68 -95 -19 -27 -45 -61 -59 -75 -13 -14 -41 -48 -62
-77 -36 -50 -90 -103 -105 -103 -11 0 -121 108 -121 119 0 5 30 45 68 90 114
136 156 191 175 226 9 19 22 35 27 35 5 0 18 17 29 38 11 22 36 60 55 85 53
70 139 232 262 494 19 39 34 87 34 106 0 19 7 54 16 78 65 181 103 361 140
663 30 251 10 482 -71 821 -41 170 -97 318 -186 490 -34 66 -73 143 -87 170
-14 28 -50 85 -81 128 -31 43 -65 93 -76 111 -87 140 -429 476 -486 476 -4 0
-24 14 -42 30 -19 17 -39 30 -43 30 -5 0 -49 20 -99 45 -128 65 -199 90 -415
145 -150 38 -539 63 -643 40 -29 -6 -95 -13 -147 -16 -52 -3 -138 -15 -190
-26 -52 -11 -115 -24 -140 -28 -44 -6 -79 -16 -270 -78 -239 -78 -399 -145
-675 -287 -162 -83 -191 -100 -238 -142 -39 -35 -86 -44 -105 -20 -5 6 -44 78
-85 159 -72 143 -147 263 -224 360 -21 26 -56 70 -78 99 -57 75 -360 383 -424
433 -30 22 -91 66 -137 96 -46 30 -98 65 -116 77 -18 13 -53 32 -78 44 -25 11
-83 39 -130 61 -176 85 -232 108 -258 108 -15 0 -54 12 -87 25 -33 14 -72 25
-87 25 -15 0 -39 5 -55 11 -15 6 -89 17 -163 23 -134 12 -137 13 -235 63 -55
28 -117 56 -138 63 -43 14 -55 33 -36 56 13 16 54 16 339 -7z m-2160 -16 c0
-14 -19 -38 -25 -32 -8 8 5 39 16 39 5 0 9 -3 9 -7z m1479 -77 c15 -8 33 -22
40 -30 22 -26 -28 -20 -56 6 -38 36 -31 48 16 24z m187 -47 c20 -32 -60 -36
-102 -4 -17 13 -14 14 38 15 31 0 60 -5 64 -11z m154 -64 c17 -9 30 -17 30
-18 0 -5 -132 1 -137 6 -3 3 -2 10 2 16 9 16 72 13 105 -4z m-2045 -152 c-10
-76 -21 -98 -31 -59 -4 18 -2 37 5 48 7 11 10 22 7 25 -6 6 11 43 20 43 3 0 2
-26 -1 -57z m2241 11 c9 -13 14 -27 12 -30 -8 -7 -68 49 -68 64 0 19 36 -2 56
-34z m140 -151 c49 -53 112 -120 139 -148 28 -29 64 -68 81 -86 17 -19 42 -42
55 -51 20 -15 22 -19 9 -28 -8 -5 -19 -10 -24 -10 -12 0 -153 148 -191 200
-16 23 -52 66 -79 96 -59 65 -100 124 -87 124 5 0 49 -44 97 -97z m-2376 -29
c0 -8 -4 -12 -10 -9 -5 3 -10 10 -10 16 0 5 5 9 10 9 6 0 10 -7 10 -16z m1240
-52 c70 -35 76 -59 22 -90 -49 -27 -50 -27 -62 2 -12 32 -78 56 -94 34 -6 -8
-33 -18 -60 -21 -50 -7 -76 -21 -77 -41 0 -6 -20 -27 -45 -46 -25 -19 -53 -52
-63 -74 -12 -23 -34 -47 -57 -61 -22 -12 -38 -27 -36 -33 3 -18 -60 -71 -84
-72 -12 0 -42 -22 -71 -53 -49 -51 -52 -53 -134 -66 -46 -8 -105 -13 -131 -12
-25 1 -49 -2 -52 -7 -6 -11 81 -102 97 -102 25 0 95 -42 131 -79 21 -22 44
-37 50 -35 15 6 56 -32 56 -51 0 -59 -40 -58 -95 3 -32 35 -64 56 -125 82 -65
28 -94 47 -141 97 -73 76 -79 107 -21 117 27 4 41 13 54 36 10 17 23 28 30 25
10 -4 14 8 16 50 2 41 -1 55 -11 55 -18 0 -127 -116 -127 -135 0 -7 -24 -26
-52 -42 -50 -26 -53 -31 -56 -70 -2 -29 2 -45 14 -55 9 -7 46 -44 83 -82 53
-55 85 -78 158 -113 137 -67 188 -138 133 -188 -25 -23 -37 -13 -48 40 -7 36
-12 41 -47 50 -22 6 -58 18 -80 28 -22 10 -58 27 -80 37 -22 10 -53 22 -70 27
-20 6 -30 15 -31 28 0 21 -9 48 -25 77 -5 10 -9 31 -9 48 0 23 -5 30 -19 30
-24 0 -37 -17 -45 -57 -4 -17 -14 -37 -22 -44 -8 -6 -14 -17 -14 -23 0 -7 -11
-22 -23 -35 -14 -13 -29 -44 -36 -76 -7 -29 -18 -59 -26 -65 -8 -6 -19 -28
-26 -48 -7 -20 -20 -48 -30 -62 -10 -14 -22 -51 -28 -82 -6 -32 -20 -71 -31
-86 -12 -16 -21 -44 -22 -63 0 -19 -10 -50 -23 -69 -16 -25 -24 -56 -28 -107
-4 -44 -14 -87 -27 -113 -15 -30 -23 -68 -27 -134 -3 -50 -11 -97 -16 -105
-15 -17 -25 -169 -33 -473 -8 -280 -6 -290 50 -261 22 12 63 17 138 20 l108 3
14 -35 c13 -31 19 -35 50 -35 33 0 36 3 46 40 14 51 26 51 33 -1 5 -37 2 -43
-31 -74 -21 -19 -43 -35 -50 -35 -8 0 -27 14 -43 31 -37 40 -77 48 -162 36
-52 -8 -77 -7 -103 2 -27 10 -38 10 -49 1 -21 -17 -35 -78 -25 -104 16 -44 32
-49 127 -37 125 15 129 15 172 -25 37 -33 43 -35 97 -32 53 3 59 1 70 -22 43
-89 73 -190 55 -190 -13 0 -61 51 -61 65 0 7 -14 31 -30 54 -26 35 -33 40 -50
31 -30 -16 -50 -12 -60 14 -8 23 -14 24 -137 31 -70 3 -144 5 -163 4 -55 -3
-148 29 -190 67 -20 18 -46 37 -58 41 -26 10 -88 62 -162 136 -39 39 -65 57
-82 57 -14 0 -37 9 -51 20 -38 30 -89 26 -132 -11 -21 -19 -35 -40 -35 -54 0
-24 33 -55 59 -55 8 0 25 -10 38 -22 20 -19 36 -23 104 -24 56 -1 86 -7 102
-18 12 -9 37 -26 54 -37 41 -26 65 -91 42 -115 -24 -23 -85 -29 -127 -12 -43
18 -122 39 -170 46 -18 2 -44 15 -57 28 -13 13 -35 24 -48 24 -13 0 -34 11
-47 24 -12 14 -37 28 -54 32 -17 4 -44 17 -61 30 -16 12 -42 25 -57 29 -14 4
-34 15 -44 26 -12 13 -30 19 -59 19 -29 0 -55 9 -88 30 -35 22 -60 30 -93 30
-25 0 -59 7 -77 17 -28 14 -91 17 -457 25 -234 4 -463 13 -510 19 -217 27
-298 45 -330 74 -14 13 -39 30 -55 38 -61 30 -246 244 -260 298 -16 65 -153
158 -244 166 l-57 5 -57 -54 -57 -54 0 -61 c0 -134 100 -256 266 -325 49 -21
100 -38 114 -38 52 1 191 -63 246 -114 77 -68 71 -96 -18 -96 -34 0 -47 -7
-79 -39 -26 -26 -39 -48 -39 -66 0 -64 79 -139 186 -176 74 -26 291 -27 361
-2 35 13 79 18 163 18 114 0 116 0 190 -39 79 -41 98 -58 157 -145 36 -52 37
-59 44 -165 3 -61 3 -123 -2 -138 -4 -15 -28 -53 -53 -84 -25 -31 -46 -66 -46
-78 0 -22 32 -57 84 -91 19 -13 40 -16 80 -13 64 5 104 35 177 135 26 34 66
79 89 98 35 29 50 35 89 35 42 0 51 -4 88 -42 52 -54 59 -79 36 -118 -9 -16
-21 -30 -25 -30 -4 0 -29 -27 -56 -59 -38 -45 -51 -70 -57 -107 -3 -26 -16
-59 -26 -74 -16 -21 -19 -38 -16 -79 6 -61 38 -103 94 -122 29 -9 39 -8 77 15
54 31 103 89 116 135 5 19 18 43 29 55 11 12 23 37 28 56 7 31 17 39 78 70
l70 35 145 -1 c106 0 160 -5 200 -17 30 -9 85 -21 122 -26 77 -11 110 -31 134
-83 18 -40 15 -87 -8 -135 -17 -35 -46 -40 -95 -15 -72 37 -202 65 -325 70
-64 2 -128 2 -142 -2 -29 -7 -86 -61 -86 -81 0 -19 -46 -91 -90 -141 -19 -22
-61 -55 -93 -73 -55 -31 -62 -33 -146 -29 -76 3 -93 7 -127 31 -45 31 -85 34
-138 12 -96 -41 -224 33 -240 138 -4 27 -3 54 3 66 26 48 15 68 -56 102 -80
38 -103 56 -103 79 0 9 -13 37 -29 61 -27 40 -30 54 -32 131 -2 81 0 89 25
119 53 63 69 107 63 176 -6 77 -37 128 -105 173 -41 27 -53 30 -123 30 -55 0
-94 -6 -131 -21 -44 -17 -73 -20 -200 -20 -172 1 -216 9 -317 58 -176 84 -270
247 -211 362 12 25 19 53 16 65 -6 24 -44 46 -79 46 -12 0 -69 24 -126 53
-126 63 -236 163 -266 240 -9 25 -25 49 -35 52 -10 3 -50 -12 -96 -37 l-79
-43 -132 -3 -131 -4 -64 36 c-150 85 -195 180 -153 324 11 37 29 65 63 98 55
55 82 68 181 84 70 12 80 11 149 -11 85 -27 159 -85 193 -151 17 -33 24 -39
47 -36 18 2 31 13 41 33 52 102 100 144 203 176 122 38 278 -3 381 -100 50
-48 75 -80 160 -213 59 -91 113 -131 223 -167 53 -17 108 -31 121 -31 14 0 51
-6 82 -14 63 -17 342 -36 514 -36 128 0 145 8 132 57 -26 102 -14 162 43 219
50 49 89 64 165 64 87 0 149 -40 183 -117 29 -65 30 -111 4 -163 -31 -62 -22
-100 25 -100 11 -1 45 -10 75 -21 30 -11 76 -26 102 -34 27 -7 68 -23 92 -34
51 -25 89 -17 107 23 20 43 7 52 -77 60 -125 11 -198 54 -247 145 -26 48 -27
53 -17 117 13 83 17 89 79 148 68 62 103 76 199 76 133 0 215 -44 310 -167 42
-53 63 -143 43 -176 -8 -12 -19 -30 -25 -40 -17 -27 4 -50 59 -64 69 -18 131
-49 197 -100 38 -29 66 -43 81 -41 21 3 22 8 23 93 5 328 29 511 119 920 18
83 91 317 123 394 54 129 215 444 252 489 20 26 48 65 62 87 14 22 48 62 74
89 27 27 60 66 74 86 42 63 268 290 289 290 26 0 31 -19 31 -105 0 -51 -7 -92
-21 -130 -24 -63 -17 -102 28 -155 20 -25 32 -30 68 -30 43 0 44 1 251 210
132 134 217 213 234 216 14 2 41 13 60 24 51 28 123 25 190 -8z m1520 -282 c0
-5 -9 -10 -20 -10 -11 0 -20 5 -20 10 0 6 9 10 20 10 11 0 20 -4 20 -10z
m-1833 -77 c-9 -9 -19 -14 -23 -11 -10 10 6 28 24 28 15 0 15 -1 -1 -17z
m2293 -283 c6 -12 9 -24 7 -27 -14 -14 -50 14 -89 68 -55 78 -78 106 -105 134
-13 12 -23 27 -23 33 0 14 194 -178 210 -208z m-2364 199 c3 -6 1 -16 -5 -22
-13 -13 -42 0 -49 21 -5 15 44 16 54 1z m2632 -90 c4 -43 -19 -69 -43 -49 -18
15 -19 43 -4 71 17 32 44 19 47 -22z m-2678 -8 c0 -19 -23 -35 -34 -24 -7 8
12 43 24 43 6 0 10 -9 10 -19z m2596 -108 c-11 -11 -19 6 -11 24 8 17 8 17 12
0 3 -10 2 -21 -1 -24z m223 -197 c9 -10 9 -16 1 -21 -16 -10 -40 2 -40 20 0
19 24 20 39 1z m-3595 -25 c4 -5 3 -17 0 -26 -5 -13 -8 -14 -15 -3 -5 7 -9 19
-9 26 0 14 16 16 24 3z m-25 -146 c12 -45 -4 -98 -28 -93 -12 2 -17 16 -19 52
-2 27 -1 55 2 62 10 26 35 14 45 -21z m421 -57 c0 -19 -18 -43 -25 -36 -9 9 4
48 16 48 5 0 9 -6 9 -12z m3440 2 c0 -5 -4 -10 -9 -10 -6 0 -13 5 -16 10 -3 6
1 10 9 10 9 0 16 -4 16 -10z m-3940 -31 c0 -11 -4 -17 -10 -14 -5 3 -10 15
-10 26 0 11 5 17 10 14 6 -3 10 -15 10 -26z m4055 -18 c7 -13 -33 -34 -51 -27
-8 3 -14 12 -14 21 0 17 55 22 65 6z m71 -55 c18 -14 18 -15 1 -21 -19 -8 -50
12 -41 26 7 13 17 11 40 -5z m-8149 -95 c85 -43 124 -112 125 -215 0 -79 -11
-110 -58 -163 -145 -160 -424 -52 -424 164 0 61 16 97 67 154 78 86 193 110
290 60z m4878 -1 c3 -6 -1 -13 -10 -16 -19 -8 -30 0 -20 15 8 14 22 14 30 1z
m-845 -21 c0 -5 -4 -9 -10 -9 -5 0 -10 7 -10 16 0 8 5 12 10 9 6 -3 10 -10 10
-16z m-22 -27 c2 -12 8 -20 13 -17 5 4 9 3 9 -2 0 -10 -63 -53 -78 -53 -15 0
-15 6 2 38 8 15 17 35 20 45 8 24 30 17 34 -11z m-90 -40 c2 -7 -3 -12 -12
-12 -9 0 -16 7 -16 16 0 17 22 14 28 -4z m-1764 -110 c15 -9 42 -36 59 -59 26
-36 30 -52 31 -106 1 -75 -23 -119 -88 -161 -33 -22 -52 -26 -109 -26 -68 0
-69 0 -118 48 -60 56 -74 100 -58 180 20 99 99 157 199 146 30 -3 68 -13 84
-22z m-2667 -132 c28 -24 42 -48 54 -89 19 -63 16 -92 -16 -139 -74 -109 -207
-111 -280 -4 -20 29 -25 49 -25 100 0 60 2 65 42 108 53 57 69 65 135 61 41
-3 59 -10 90 -37z m9058 20 c0 -22 -29 -18 -33 3 -3 14 1 18 15 15 10 -2 18
-10 18 -18z m-3235 -18 c20 -16 21 -23 13 -48 l-10 -29 -7 33 c-5 18 -14 36
-22 39 -15 6 -19 23 -5 23 5 0 19 -8 31 -18z m7 -224 c-2 -24 -4 -7 -4 37 0
44 2 63 4 43 2 -21 2 -57 0 -80z m4028 71 c9 -14 -24 -38 -52 -39 -29 0 -37
15 -17 34 18 18 60 21 69 5z m-5535 -231 c0 -45 -3 -59 -10 -48 -13 20 -13
110 0 110 6 0 10 -27 10 -62z m-3182 -20 c12 -12 22 -29 22 -39 0 -25 -38 -49
-77 -49 -27 0 -37 6 -53 32 -15 25 -17 36 -8 52 26 49 66 50 116 4z m4748
-143 c5 -69 4 -89 -7 -96 -26 -16 -29 -9 -29 79 0 161 24 173 36 17z m-1579
-47 c-2 -13 -4 -5 -4 17 -1 22 1 32 4 23 2 -10 2 -28 0 -40z m1493 -78 c0 -5
-9 -10 -21 -10 -11 0 -17 5 -14 10 3 6 13 10 21 10 8 0 14 -4 14 -10z m-230
-100 c0 -5 -9 -10 -20 -10 -11 0 -20 5 -20 10 0 6 9 10 20 10 11 0 20 -4 20
-10z m-160 -124 c0 -17 -14 -29 -23 -20 -8 8 3 34 14 34 5 0 9 -6 9 -14z
m-485 -16 c3 -5 -3 -10 -14 -10 -11 0 -23 5 -26 10 -3 6 3 10 14 10 11 0 23
-4 26 -10z m-2360 -49 c17 -7 16 -8 -9 -13 -37 -7 -73 1 -54 13 16 10 36 10
63 0z m1095 -7 c0 -9 -7 -14 -17 -12 -25 5 -28 28 -4 28 12 0 21 -6 21 -16z
m-1307 -1 c-7 -2 -19 -2 -25 0 -7 3 -2 5 12 5 14 0 19 -2 13 -5z m315 0 c-16
-2 -40 -2 -55 0 -16 2 -3 4 27 4 30 0 43 -2 28 -4z m2477 -63 c3 -5 2 -10 -4
-10 -5 0 -13 5 -16 10 -3 6 -2 10 4 10 5 0 13 -4 16 -10z m155 1 c0 -6 -4 -12
-9 -15 -13 -8 -42 4 -35 15 7 12 44 12 44 0z m-2050 -41 c0 -5 -15 -10 -32
-10 -25 0 -29 3 -18 10 20 13 50 13 50 0z m-765 -20 c3 -5 -1 -10 -10 -10 -9
0 -13 5 -10 10 3 6 8 10 10 10 2 0 7 -4 10 -10z m795 -55 c0 -8 -7 -15 -15
-15 -8 0 -15 7 -15 15 0 8 7 15 15 15 8 0 15 -7 15 -15z m165 -35 c3 -5 1 -10
-4 -10 -6 0 -11 5 -11 10 0 6 2 10 4 10 3 0 8 -4 11 -10z m-735 -86 c0 -8 -4
-12 -10 -9 -5 3 -10 13 -10 21 0 8 5 12 10 9 6 -3 10 -13 10 -21z m835 16 c3
-5 -1 -10 -10 -10 -9 0 -13 5 -10 10 3 6 8 10 10 10 2 0 7 -4 10 -10z m415
-25 c0 -8 -4 -15 -10 -15 -5 0 -10 7 -10 15 0 8 5 15 10 15 6 0 10 -7 10 -15z
m-1200 -35 c0 -5 -4 -10 -10 -10 -5 0 -10 5 -10 10 0 6 5 10 10 10 6 0 10 -4
10 -10z m1658 -187 c2 -17 10 -37 18 -43 16 -14 19 -30 4 -30 -6 0 -14 10 -19
23 -5 12 -18 31 -30 41 -28 26 -27 48 2 44 17 -2 23 -11 25 -35z m-668 -172
c0 -12 -20 -25 -27 -18 -7 7 6 27 18 27 5 0 9 -4 9 -9z m-1608 -40 c53 -34 65
-51 74 -110 6 -39 4 -44 -49 -104 -95 -108 -239 -166 -342 -137 -98 27 -169
162 -129 245 19 40 60 77 126 112 37 20 57 23 158 23 111 0 118 -1 162 -29z
m3371 0 c8 -31 -9 -47 -22 -22 -12 21 -8 41 8 41 5 0 11 -9 14 -19z m-1863
-36 c0 -8 -6 -15 -14 -15 -8 0 -16 7 -20 15 -4 10 1 15 14 15 11 0 20 -7 20
-15z m1920 -132 c0 -8 -20 -33 -44 -56 -31 -30 -47 -53 -51 -79 -5 -28 -12
-38 -26 -38 -11 0 -22 7 -26 16 -6 16 29 72 54 87 7 4 13 16 13 25 0 10 9 25
20 35 11 9 20 29 20 44 l1 28 19 -24 c11 -13 20 -30 20 -38z m-4352 37 c79
-10 185 -59 208 -95 11 -17 10 -26 -8 -62 -25 -50 -20 -68 27 -90 31 -15 48
-38 49 -68 1 -6 12 -31 25 -55 20 -40 22 -50 12 -85 -15 -55 -79 -121 -130
-135 -58 -15 -117 2 -169 50 -39 37 -42 43 -42 93 0 75 -14 86 -84 64 -68 -22
-75 -22 -140 7 -44 20 -57 30 -61 53 -4 15 -13 45 -21 66 -39 105 19 225 124
257 37 11 123 11 210 0z m3127 -166 c24 -25 44 -68 59 -131 15 -63 84 -208
141 -297 41 -65 48 -98 22 -104 -23 -5 -51 21 -127 113 -149 182 -224 435
-129 435 10 0 25 -7 34 -16z m1283 -46 c8 -8 12 -52 12 -133 0 -94 3 -126 16
-143 18 -27 21 -43 29 -172 4 -52 12 -124 20 -160 7 -36 13 -74 13 -85 -1 -11
5 -42 13 -68 13 -45 12 -50 -5 -63 -22 -15 -54 -10 -101 17 -21 12 -61 18
-135 22 -65 3 -128 12 -165 25 -33 11 -95 22 -137 26 -42 3 -103 14 -135 25
-32 11 -80 22 -108 26 -59 8 -99 29 -116 62 -16 30 -7 38 32 24 18 -6 69 -11
115 -11 78 0 83 -1 86 -22 3 -22 10 -24 119 -33 80 -7 123 -16 143 -28 20 -14
56 -19 149 -24 67 -3 127 -10 133 -14 16 -13 38 17 29 38 -4 10 -9 74 -11 142
-1 71 -7 128 -13 134 -6 6 -11 28 -11 48 0 20 -7 42 -15 49 -12 10 -15 37 -15
125 0 115 -4 132 -26 114 -9 -7 -19 -6 -33 3 -35 21 -26 44 22 57 23 6 49 15
57 21 19 13 24 12 38 -2z m6245 -71 c-2 -27 -38 -75 -49 -65 -11 11 -7 67 6
83 20 24 45 14 43 -18z m-3813 -43 c0 -8 7 -28 15 -44 14 -27 14 -32 0 -54
-11 -17 -15 -42 -13 -82 2 -33 -1 -61 -7 -64 -10 -5 -25 231 -17 257 5 17 22
6 22 -13z m-2520 -24 c0 -16 -4 -32 -10 -35 -6 -4 -10 10 -10 35 0 25 4 39 10
35 6 -3 10 -19 10 -35z m-1394 -42 c3 -13 13 -30 20 -39 11 -12 12 -23 5 -43
-9 -23 -40 -37 -41 -18 -1 4 -5 27 -9 51 -9 45 -6 71 9 71 5 0 12 -10 16 -22z
m7484 -137 c0 -12 -57 -60 -87 -74 -13 -6 -23 -18 -23 -27 0 -24 -82 -91 -96
-78 -7 8 27 48 42 48 8 0 14 9 14 20 0 11 6 20 13 20 7 0 35 23 62 50 46 47
75 62 75 41z m230 -11 c0 -11 -4 -20 -9 -20 -14 0 -23 18 -16 30 10 17 25 11
25 -10z m-7620 -41 c0 -12 -27 -11 -35 1 -11 17 5 32 21 19 8 -6 14 -15 14
-20z m-99 -26 c-9 -16 -10 -14 -11 12 0 21 3 26 11 18 8 -8 8 -16 0 -30z
m4209 -28 c7 -9 11 -18 8 -20 -9 -10 -38 7 -38 21 0 18 14 18 30 -1z m-3633
-17 c-3 -8 -6 -5 -6 6 -1 11 2 17 5 13 3 -3 4 -12 1 -19z m1208 -18 c23 -33
25 -42 15 -55 -21 -25 -38 -17 -49 23 -23 80 -9 94 34 32z m-1775 -117 c7 -29
24 -68 41 -89 16 -20 29 -41 29 -47 0 -9 -67 -4 -77 7 -9 9 -33 143 -33 188 0
71 13 93 22 38 4 -25 13 -68 18 -97z m164 115 c3 -13 30 -49 61 -81 50 -52 69
-87 47 -87 -21 0 -142 151 -142 177 0 22 27 14 34 -9z m-5334 -39 c41 -12 114
-42 163 -67 72 -37 103 -61 176 -138 72 -76 98 -112 134 -186 64 -131 87 -185
87 -200 0 -7 12 -56 26 -108 24 -87 26 -115 31 -340 4 -254 -9 -438 -38 -508
-28 -68 28 -94 90 -40 47 40 181 97 314 134 91 25 108 26 235 21 205 -8 302
-47 418 -169 64 -66 85 -101 123 -207 25 -69 31 -100 31 -166 0 -91 8 -105 56
-105 39 0 38 -2 68 97 14 43 45 138 70 210 54 156 106 360 106 415 0 55 33
112 88 154 46 34 49 35 122 31 64 -3 90 -11 173 -50 83 -39 109 -58 180 -129
97 -98 143 -174 191 -319 79 -244 53 -531 -75 -808 -22 -46 -45 -105 -53 -131
-8 -26 -23 -64 -34 -86 -10 -21 -22 -60 -25 -85 -4 -26 -13 -62 -21 -80 -44
-97 -166 -437 -166 -461 0 -43 51 -4 101 77 21 34 79 154 174 360 13 28 39 97
58 155 19 58 53 157 75 220 36 104 61 181 107 340 9 30 23 98 31 150 8 52 21
138 29 190 26 164 30 306 11 378 -25 97 -21 159 13 223 37 70 90 102 170 103
48 0 70 -7 151 -49 52 -27 120 -66 150 -86 56 -37 240 -213 240 -229 0 -14 30
-40 46 -40 8 0 25 11 37 23 210 224 353 353 515 464 26 18 60 42 76 55 91 71
401 218 460 218 13 0 43 7 66 15 70 25 146 20 209 -14 73 -38 228 -159 252
-196 10 -16 38 -43 60 -60 66 -48 98 -84 109 -123 18 -59 25 -314 10 -396 -15
-91 -44 -200 -65 -251 -45 -109 -152 -310 -184 -347 -21 -24 -47 -59 -59 -79
-48 -80 -326 -320 -434 -375 -26 -13 -49 -28 -52 -33 -4 -5 -23 -15 -44 -22
-20 -6 -44 -18 -53 -25 -9 -8 -36 -21 -61 -30 -58 -19 -73 -36 -99 -110 -32
-91 -36 -126 -44 -319 -3 -99 -11 -206 -16 -238 -6 -32 -7 -67 -4 -77 10 -32
50 -25 87 16 18 20 78 82 133 139 55 56 118 126 140 155 22 29 63 78 90 109
63 70 165 221 165 243 0 9 10 29 23 45 13 15 37 51 55 78 17 28 44 68 61 90
28 38 48 70 152 237 52 85 89 122 159 156 49 24 68 27 177 30 l121 4 42 -42
c87 -87 88 -154 4 -321 -30 -59 -54 -110 -54 -114 0 -4 -8 -19 -19 -33 -10
-15 -37 -69 -60 -120 -23 -51 -59 -123 -81 -159 -22 -36 -40 -67 -40 -70 0 -3
-13 -23 -28 -46 -16 -23 -60 -89 -98 -145 -262 -392 -388 -550 -619 -774 -66
-64 -157 -143 -202 -177 -108 -80 -110 -85 -46 -195 7 -11 13 -29 13 -39 0
-10 5 -27 11 -39 6 -11 12 -34 14 -52 1 -17 8 -58 14 -91 13 -65 9 -331 -7
-470 -21 -179 -74 -401 -153 -640 -38 -115 -76 -239 -85 -275 -8 -35 -21 -74
-28 -85 -7 -11 -19 -38 -26 -60 -12 -37 -53 -125 -94 -203 -16 -30 -16 -35 -3
-56 13 -20 27 -24 94 -29 43 -4 108 -10 145 -13 78 -8 110 7 134 59 7 18 31
57 53 87 22 30 57 81 78 113 21 32 52 75 70 96 17 20 40 59 50 86 11 28 50 93
88 145 37 52 84 119 104 150 20 30 48 71 64 91 15 20 27 39 27 42 0 4 44 73
98 154 127 191 191 290 272 423 9 14 31 51 48 82 18 31 40 62 47 68 8 7 15 18
15 24 0 6 12 29 27 51 15 22 44 69 64 105 20 36 53 94 73 130 21 36 65 119 98
185 134 268 156 326 161 431 3 72 7 86 36 127 39 53 121 95 204 104 55 5 193
-24 251 -54 112 -57 199 -143 253 -253 58 -115 73 -181 73 -319 0 -130 -31
-283 -82 -406 -16 -38 -35 -87 -43 -107 -8 -21 -24 -51 -36 -68 -33 -44 -19
-79 41 -98 96 -32 220 -141 267 -236 60 -123 73 -180 73 -329 0 -108 -5 -157
-21 -220 -11 -45 -24 -86 -28 -92 -12 -17 -39 -97 -46 -140 -3 -22 -17 -56
-30 -75 -12 -19 -35 -78 -50 -130 -15 -52 -33 -118 -42 -147 -18 -63 -11 -93
22 -93 19 0 30 10 46 43 51 100 174 314 195 340 13 15 30 49 38 76 7 26 30 72
49 102 19 30 42 72 51 93 9 22 23 44 31 50 8 6 36 54 63 106 27 52 78 151 114
220 36 69 80 168 97 222 28 84 39 103 83 147 28 28 62 54 75 57 13 4 71 4 131
2 98 -4 113 -7 182 -40 86 -42 191 -132 220 -189 36 -69 87 -71 104 -4 4 14
36 84 72 157 79 162 130 288 139 348 6 37 16 54 61 97 66 63 105 77 198 71
156 -10 329 -132 402 -283 19 -38 34 -84 34 -102 0 -33 21 -63 45 -63 8 0 56
43 107 96 127 131 237 220 338 271 19 10 46 26 60 35 14 9 68 31 120 48 88 29
103 31 205 28 105 -3 113 -5 176 -41 78 -44 111 -47 127 -13 13 29 5 41 -58
81 -69 44 -97 73 -162 170 -72 107 -90 128 -188 210 -91 76 -247 157 -353 185
-42 10 -98 26 -123 35 -48 16 -83 13 -85 -8 -1 -7 -2 -45 -3 -85 -1 -71 -2
-74 -36 -103 -19 -16 -58 -36 -87 -44 -56 -17 -66 -26 -103 -93 -38 -69 -68
-86 -148 -86 -59 0 -78 6 -164 48 -54 26 -126 55 -160 63 -89 21 -295 28 -387
13 -63 -10 -193 -55 -260 -90 -121 -63 -233 -100 -305 -100 -73 0 -216 37
-243 62 -12 11 -30 44 -39 72 -10 28 -34 87 -56 130 -21 44 -38 85 -38 92 0 6
-13 40 -29 75 -15 35 -43 98 -60 139 -18 41 -41 93 -51 115 -10 22 -30 65 -43
95 -85 189 -135 295 -259 543 -54 109 -98 205 -98 213 0 20 -171 352 -247 479
-33 55 -79 135 -102 178 -46 85 -125 212 -167 267 -24 32 -26 41 -20 98 6 67
-6 107 -71 237 -27 54 -46 136 -37 160 14 35 40 13 88 -75 27 -49 57 -92 67
-95 10 -4 28 -26 41 -51 12 -25 37 -63 55 -84 18 -21 33 -43 33 -49 0 -7 7
-14 15 -17 8 -3 19 -22 26 -42 6 -21 19 -46 29 -57 10 -11 23 -36 29 -56 7
-20 21 -45 31 -54 21 -19 70 -101 70 -117 0 -6 14 -27 30 -48 17 -21 30 -43
30 -50 0 -7 9 -25 20 -41 12 -15 26 -43 32 -61 6 -18 19 -44 28 -58 10 -14 21
-36 25 -50 4 -14 16 -34 26 -45 10 -11 25 -40 33 -63 9 -24 25 -55 36 -69 11
-14 20 -31 20 -38 0 -12 47 -94 83 -145 10 -15 17 -43 17 -71 0 -33 7 -57 24
-82 14 -20 28 -53 32 -73 4 -20 17 -45 29 -56 13 -11 25 -36 29 -57 3 -20 17
-52 31 -71 14 -18 25 -42 25 -52 0 -21 48 -98 61 -98 12 0 29 35 29 59 0 12
-4 21 -9 21 -12 0 -34 56 -27 68 3 5 -1 15 -9 22 -8 7 -15 23 -15 36 0 24 14
32 25 14 3 -5 14 -10 24 -10 15 0 19 -11 24 -61 3 -34 12 -68 21 -78 9 -10 16
-29 16 -44 0 -25 -7 -35 -49 -69 -42 -35 -18 -138 32 -138 41 0 50 -13 38 -56
-9 -34 -8 -42 14 -74 13 -19 41 -82 61 -140 20 -58 45 -114 56 -126 10 -11 18
-31 18 -45 0 -38 75 -187 109 -218 30 -27 36 -28 104 -24 40 3 86 11 102 18
17 7 42 16 57 20 14 4 34 15 44 26 9 10 29 19 44 19 15 0 38 8 51 19 30 23 44
27 149 46 110 19 334 19 425 0 38 -8 91 -15 116 -15 28 0 69 -10 103 -25 31
-14 64 -25 74 -25 9 0 35 -11 57 -25 22 -13 47 -25 56 -25 24 0 69 39 69 59 0
27 -25 44 -133 91 -155 67 -154 109 3 179 142 64 258 86 440 85 119 -1 165 -5
200 -18 25 -9 104 -37 175 -61 137 -46 292 -120 369 -175 51 -37 88 -87 106
-142 14 -46 60 -103 141 -175 54 -48 64 -53 106 -53 39 0 53 5 80 32 44 43 43
74 -4 120 -44 41 -116 88 -137 88 -7 0 -41 20 -74 44 -44 33 -62 53 -67 77 -8
36 4 49 49 49 47 0 222 -103 298 -176 36 -35 74 -64 84 -64 23 0 54 29 54 50
0 10 13 34 30 55 37 47 37 61 1 111 -66 92 -91 251 -57 365 15 50 98 219 128
261 11 16 18 40 16 55 -3 30 -27 45 -186 113 -96 41 -108 59 -91 143 21 96 39
107 100 61 99 -75 304 -147 371 -131 13 4 61 42 106 87 45 44 88 80 96 80 7 0
29 17 48 38 27 30 37 51 42 91 21 158 66 253 149 314 48 34 57 37 121 37 205
0 657 -219 706 -342 8 -18 26 -49 40 -68 38 -49 80 -135 80 -163 0 -14 9 -36
21 -51 25 -31 61 -34 105 -7 17 10 51 21 75 24 24 3 120 21 213 40 127 27 200
36 290 39 112 2 126 0 183 -24 85 -35 135 -80 176 -160 27 -52 36 -83 42 -145
10 -124 -11 -211 -97 -381 -67 -135 -71 -146 -60 -176 7 -18 12 -40 12 -50 0
-27 -35 -88 -78 -133 l-39 -43 -84 0 c-77 0 -91 4 -177 43 -97 44 -174 98
-190 133 -10 21 6 75 27 88 6 4 11 19 11 33 0 25 -1 25 -47 19 -27 -4 -85 -10
-130 -14 -95 -8 -127 -29 -137 -92 -8 -52 -80 -117 -139 -125 -83 -11 -199 1
-240 25 -35 21 -39 21 -61 6 -35 -23 -116 -131 -116 -155 0 -40 43 -54 189
-63 248 -14 373 -64 508 -200 68 -69 84 -92 97 -137 29 -98 17 -194 -29 -250
-40 -47 -33 -64 43 -112 68 -42 209 -179 229 -221 53 -112 63 -138 65 -172 4
-55 30 -70 83 -49 88 35 231 23 352 -28 56 -24 119 -82 154 -144 24 -42 29
-61 29 -122 0 -86 -23 -136 -88 -194 -57 -50 -117 -69 -217 -69 -69 0 -87 3
-112 23 -17 12 -52 38 -77 57 -53 39 -102 110 -121 172 -20 69 -37 71 -94 12
-65 -68 -106 -86 -211 -92 -136 -7 -224 28 -313 128 -56 62 -102 154 -120 241
-29 135 -125 279 -185 279 -37 0 -49 -15 -103 -125 l-44 -89 0 -161 c0 -111 5
-172 14 -200 8 -22 15 -67 17 -100 4 -89 10 -93 195 -94 141 -1 156 -3 217
-29 45 -18 70 -35 78 -52 6 -14 23 -50 38 -81 35 -76 35 -148 0 -215 -46 -87
-123 -168 -193 -205 -58 -30 -74 -33 -153 -35 -114 -2 -128 -12 -128 -98 0
-34 -13 -123 -29 -199 -25 -120 -37 -154 -96 -272 -72 -145 -102 -188 -210
-302 -121 -129 -301 -246 -420 -274 -140 -33 -150 -48 -82 -128 24 -28 57 -77
73 -109 28 -55 29 -63 32 -216 4 -187 7 -195 118 -290 175 -151 252 -263 295
-426 18 -70 21 -101 16 -175 -3 -50 -13 -110 -22 -134 -8 -24 -15 -54 -15 -66
0 -31 -112 -144 -171 -173 -57 -27 -132 -42 -213 -42 -65 0 -229 50 -283 86
-15 10 -44 26 -63 36 -38 19 -82 59 -118 107 -54 72 -203 130 -352 138 -135 6
-358 -25 -437 -62 -72 -34 -174 -10 -252 60 -51 46 -66 95 -56 184 6 58 11 67
46 99 45 40 51 74 17 96 -58 37 -271 55 -432 37 -81 -9 -111 -34 -103 -86 6
-36 -25 -174 -53 -238 -29 -65 -129 -153 -197 -173 -78 -23 -169 -11 -250 32
-73 39 -83 41 -114 15 l-24 -19 35 -68 c31 -61 35 -77 38 -163 l3 -96 -45 -94
c-61 -123 -138 -204 -250 -262 -79 -42 -84 -43 -194 -47 -104 -4 -120 -2 -186
22 -43 16 -85 39 -101 57 -37 37 -80 38 -155 1 -64 -31 -73 -55 -37 -98 48
-58 67 -109 67 -183 0 -104 -35 -185 -110 -254 -175 -162 -430 -111 -541 108
-25 50 -29 69 -29 138 0 71 4 89 34 151 38 79 76 121 139 151 51 25 57 46 22
91 -14 19 -38 59 -52 90 -22 48 -24 64 -18 119 6 58 5 64 -15 75 -15 8 -36 8
-73 1 -64 -12 -170 -27 -300 -41 -54 -6 -117 -20 -140 -31 -23 -10 -49 -19
-58 -19 -21 0 -140 -63 -198 -105 -77 -55 -140 -134 -203 -250 -124 -229 -283
-330 -464 -291 -78 16 -116 38 -186 105 -61 58 -81 61 -98 15 -19 -49 -123
-155 -192 -195 -38 -22 -68 -47 -68 -55 0 -16 39 -34 76 -34 33 0 113 -75 142
-133 16 -32 22 -62 22 -109 0 -55 -5 -71 -32 -115 -60 -94 -129 -133 -238
-133 -165 1 -287 160 -245 319 17 67 35 93 86 128 80 54 76 83 -12 83 -37 0
-55 7 -91 34 -49 38 -92 90 -109 133 -19 45 -11 172 12 209 10 17 19 39 19 47
0 20 -30 37 -66 37 -61 0 -351 94 -474 154 -186 90 -287 158 -391 261 -54 53
-102 111 -109 128 -6 18 -17 43 -25 57 -89 163 -156 353 -175 501 -13 99 -13
404 0 509 31 252 156 691 236 827 26 45 31 95 12 110 -24 18 -257 75 -281 69
-21 -5 -77 -72 -77 -93 0 -5 -10 -19 -21 -33 -30 -37 -89 -129 -89 -139 0 -4
-9 -16 -19 -25 -11 -10 -25 -32 -32 -49 -7 -18 -40 -70 -74 -117 -34 -47 -74
-103 -89 -125 -61 -94 -229 -327 -316 -440 -38 -49 -84 -110 -102 -134 -18
-24 -67 -83 -108 -131 -41 -48 -118 -139 -170 -201 -52 -63 -191 -210 -308
-329 -117 -118 -221 -228 -231 -245 -29 -48 -268 -255 -340 -295 -15 -9 -41
-26 -57 -38 -129 -100 -184 -133 -402 -243 -157 -79 -296 -130 -462 -170 -81
-20 -123 -23 -285 -23 -219 -1 -249 6 -421 92 -76 38 -119 69 -187 132 -48 45
-101 102 -117 125 -83 120 -159 309 -174 430 -4 28 -11 82 -16 120 -22 168 -7
542 25 640 8 22 16 58 19 81 14 103 130 428 214 598 24 50 55 115 68 143 24
54 51 100 161 263 120 179 178 247 340 405 67 67 123 126 123 133 0 19 -39 6
-169 -56 -273 -129 -795 -211 -1361 -214 -140 0 -304 4 -365 11 -60 6 -159 16
-220 22 -60 6 -150 18 -200 26 -49 7 -117 18 -150 23 -33 5 -91 16 -130 25
-38 9 -106 23 -150 31 -44 8 -118 26 -165 40 -83 24 -257 60 -395 83 -38 7
-130 23 -203 36 -74 13 -140 21 -148 18 -20 -7 -27 -44 -15 -77 19 -47 13
-179 -9 -239 -49 -132 -205 -197 -314 -133 -93 54 -130 160 -118 336 9 142 5
150 -70 150 -27 0 -63 6 -81 14 -43 17 -94 77 -124 144 -13 30 -39 78 -58 108
-29 45 -40 54 -64 54 -24 0 -38 -11 -79 -62 -123 -155 -159 -199 -241 -287
-77 -85 -148 -156 -275 -276 -148 -139 -318 -255 -526 -359 -172 -85 -250
-114 -450 -167 -138 -36 -471 -40 -630 -8 -188 38 -300 92 -415 201 -139 132
-175 212 -185 418 -7 138 -6 151 20 257 29 115 98 259 174 364 48 66 215 228
256 249 47 24 150 133 150 159 0 11 -14 36 -31 56 l-32 36 6 127 c3 70 13 163
21 207 20 101 37 300 30 334 -14 66 -27 88 -101 182 -18 23 -33 45 -33 51 0 5
-11 24 -24 41 -39 53 -107 196 -137 292 -48 150 -61 258 -61 475 1 260 38 496
101 630 11 25 21 53 21 63 0 56 215 429 296 515 18 19 35 47 38 64 7 34 109
144 207 223 34 28 83 69 110 92 26 23 70 54 96 69 26 15 57 35 68 45 56 48
365 179 423 179 12 0 47 -12 79 -26 76 -33 113 -84 120 -164 6 -61 14 -39
-118 -314 -16 -32 -33 -82 -38 -112 -6 -29 -17 -65 -26 -78 -9 -14 -25 -51
-35 -83 -10 -32 -37 -110 -59 -174 -23 -64 -45 -136 -50 -160 -5 -24 -18 -80
-29 -124 -42 -164 -54 -286 -49 -479 5 -201 15 -250 81 -389 43 -89 139 -199
221 -252 128 -81 275 -130 505 -166 69 -10 137 -22 151 -25 19 -4 33 1 52 18
14 13 107 185 210 388 101 201 209 412 239 470 30 58 83 159 118 225 70 135
159 298 200 365 15 25 49 86 75 135 26 50 53 97 60 105 7 8 27 44 45 80 18 36
38 72 45 80 7 8 18 33 25 55 18 55 47 108 145 265 47 74 94 155 106 180 12 25
29 54 39 65 10 11 55 81 100 155 46 74 93 146 105 160 12 14 37 52 55 85 18
33 44 74 57 90 13 17 44 59 69 95 66 97 150 219 185 270 17 25 44 59 60 75 16
17 29 36 29 42 0 6 26 42 58 81 31 38 88 109 127 158 82 104 437 467 544 557
208 174 379 291 547 375 161 81 224 105 363 143 194 53 383 59 531 18z m10580
14 c22 -21 -208 -32 -285 -14 -30 7 -29 8 15 17 42 9 259 7 270 -3z m-342 -2
c8 -5 -22 -11 -75 -15 -73 -5 -91 -10 -104 -27 -10 -13 -29 -22 -50 -24 -19
-1 -45 -6 -59 -9 -18 -5 -35 0 -60 16 -44 30 -47 54 -5 50 61 -6 172 -4 230 6
81 12 108 13 123 3z m458 -16 c18 -14 17 -15 -20 -13 -22 2 -41 9 -44 16 -5
17 40 15 64 -3z m188 -11 c32 -12 15 -25 -31 -22 -56 4 -73 28 -20 28 20 0 42
-3 51 -6z m-5079 -25 c10 -15 -1 -23 -20 -15 -9 3 -13 10 -10 16 8 13 22 13
30 -1z m5325 -7 c0 -5 -28 -7 -62 -4 -90 5 -95 10 -10 11 39 1 72 -3 72 -7z
m-4184 -119 c6 -54 5 -65 -7 -61 -18 6 -32 92 -24 138 7 32 8 33 16 12 5 -12
12 -52 15 -89z m4390 82 c17 -13 15 -14 -36 -15 -62 0 -100 8 -100 21 0 15
114 10 136 -6z m-4223 -44 c18 -30 23 -61 10 -61 -35 1 -69 90 -35 90 4 0 15
-13 25 -29z m4447 -3 c20 -7 22 -11 10 -18 -22 -14 -48 -12 -76 7 -19 12 -22
18 -12 24 13 8 28 6 78 -13z m-6042 -30 c19 -19 15 -58 -6 -58 -25 0 -42 19
-42 47 0 25 27 32 48 11z m3302 -1 c0 -8 -11 -24 -24 -36 -24 -23 -24 -23 -35
-3 -9 17 -7 24 11 36 27 19 48 20 48 3z m2978 -34 c5 -18 -30 -16 -54 2 -18
14 -17 15 15 13 19 -2 36 -9 39 -15z m-4624 -33 c-14 -14 -38 5 -30 26 6 16 8
16 23 1 11 -11 14 -20 7 -27z m4826 1 c34 -9 36 -54 2 -59 -27 -4 -106 44 -97
58 7 11 57 12 95 1z m-6387 -35 c14 -13 32 -26 39 -29 9 -3 10 -8 2 -16 -7 -8
-16 -5 -34 14 -13 14 -32 25 -42 25 -10 0 -18 7 -18 15 0 22 24 18 53 -9z
m1627 -33 c0 -14 -2 -14 -20 2 -11 10 -20 22 -20 27 0 5 9 4 20 -2 11 -6 20
-18 20 -27z m-220 -43 c14 -26 5 -40 -23 -40 -34 0 -50 15 -42 39 8 28 50 28
65 1z m-1225 0 c3 -5 -1 -10 -9 -10 -9 0 -16 5 -16 10 0 6 4 10 9 10 6 0 13
-4 16 -10z m1525 -38 c-12 -4 -50 26 -50 40 0 5 14 -2 31 -14 16 -12 25 -24
19 -26z m1076 37 c4 -6 20 -8 39 -5 19 4 36 2 40 -4 7 -12 10 -11 -72 -15 -63
-4 -73 1 -51 23 15 15 35 15 44 1z m-3599 -24 c19 -8 53 -15 74 -15 29 0 39
-4 39 -16 0 -14 -7 -15 -37 -10 -21 4 -73 11 -115 16 -82 9 -102 16 -93 31 9
14 92 11 132 -6z m3425 -5 c30 0 47 -4 43 -10 -3 -6 -52 -10 -112 -10 -59 0
-134 -4 -167 -10 -99 -15 -206 -17 -206 -4 0 19 26 24 130 24 63 0 101 4 106
11 5 8 30 10 82 5 41 -3 97 -6 124 -6z m-2207 -31 c5 -5 -1 -9 -17 -9 -36 0
-59 10 -52 22 7 11 53 2 69 -13z m-972 4 c-7 -2 -19 -2 -25 0 -7 3 -2 5 12 5
14 0 19 -2 13 -5z m2045 -27 c3 -13 -1 -17 -14 -14 -11 2 -20 11 -22 22 -3 13
1 17 14 14 11 -2 20 -11 22 -22z m582 -32 c0 -42 -13 -44 -30 -3 -11 26 -11
32 0 39 21 13 30 2 30 -36z m-2365 11 c0 -5 -10 -11 -22 -13 -16 -2 -23 2 -23
13 0 11 7 15 23 13 12 -2 22 -7 22 -13z m949 -1 c29 -4 46 -12 46 -20 0 -11
-23 -14 -107 -14 -107 0 -118 5 -60 27 38 14 59 15 121 7z m146 -34 c0 -5 -6
-10 -14 -10 -8 0 -18 5 -21 10 -3 6 3 10 14 10 12 0 21 -4 21 -10z m188 -18
c48 -14 26 -27 -48 -28 -75 -1 -116 9 -105 27 7 10 117 11 153 1z m380 -43 c3
-18 -41 -41 -63 -32 -14 5 -13 9 7 30 24 26 51 27 56 2z m-100 -28 c13 -8 0
-10 -50 -11 -63 0 -86 8 -70 25 9 9 97 -1 120 -14z m5589 -913 c39 -42 55 -72
47 -92 -6 -15 -74 -70 -135 -109 -16 -11 -29 -22 -29 -26 0 -3 -27 -27 -61
-51 -33 -25 -89 -67 -124 -95 -75 -59 -177 -136 -222 -168 -18 -12 -72 -50
-120 -84 -48 -34 -110 -79 -137 -100 -28 -21 -71 -51 -97 -68 -82 -53 -172
-113 -226 -152 -29 -21 -70 -47 -91 -58 -21 -11 -58 -36 -83 -57 -24 -20 -63
-47 -85 -60 -43 -24 -128 -78 -218 -137 -28 -18 -67 -48 -86 -66 -48 -45 -347
-197 -380 -193 -36 4 -55 48 -40 93 6 19 20 41 30 48 10 7 28 29 40 50 12 20
28 37 35 37 8 0 26 11 42 24 15 13 45 29 65 35 21 7 40 17 44 22 3 5 22 18 42
28 20 10 54 35 74 54 21 19 51 38 67 42 16 3 44 23 63 43 45 48 160 130 201
144 17 6 45 22 60 35 16 12 33 23 39 23 6 0 36 22 67 49 31 26 67 52 81 56 14
4 50 29 81 56 31 26 69 51 84 55 52 13 263 149 410 264 32 25 70 54 84 65 14
11 50 39 80 63 29 24 69 54 90 66 20 13 54 41 76 62 75 72 160 134 186 134 8
0 29 -15 46 -32z m-5803 -53 c23 -24 42 -35 62 -35 16 0 60 -7 98 -17 63 -15
67 -18 50 -31 -14 -10 -38 -13 -96 -8 -43 3 -78 2 -78 -1 0 -4 8 -15 17 -26
17 -18 17 -19 -7 -16 -16 3 -26 11 -28 24 -2 12 -22 32 -47 48 -37 21 -45 32
-45 55 0 54 28 57 74 7z m4734 -53 c4 -14 -10 -15 -97 -6 -70 8 -81 21 -18 26
58 4 110 -5 115 -20z m78 -149 c-11 -11 -24 9 -18 29 l5 22 9 -24 c5 -12 6
-25 4 -27z m-829 -65 c-2 -13 -4 -5 -4 17 -1 22 1 32 4 23 2 -10 2 -28 0 -40z
m-3353 6 c8 -20 -4 -23 -54 -14 -25 5 -71 6 -102 3 -39 -4 -58 -2 -58 5 0 21
206 27 214 6z m195 -97 c25 -31 -25 -37 -60 -7 l-24 19 36 1 c20 0 42 -6 48
-13z m4149 -14 c4 -24 -26 -40 -34 -18 -8 21 3 47 19 43 6 -3 13 -14 15 -25z
m-4795 -13 c3 -11 1 -20 -4 -20 -5 0 -9 9 -9 20 0 11 2 20 4 20 2 0 6 -9 9
-20z m4727 -55 c0 -16 -9 -19 -34 -9 -25 9 -19 24 9 24 16 0 25 -6 25 -15z
m-4617 -101 c9 -9 -4 -35 -14 -28 -5 3 -9 12 -9 20 0 14 12 19 23 8z m876 -91
c0 -31 -2 -34 -9 -18 -12 28 -12 55 0 55 6 0 10 -17 9 -37z m3366 -58 c0 -11
-8 -21 -17 -23 -14 -3 -18 3 -18 23 0 20 4 26 18 23 9 -2 17 -12 17 -23z
m-4806 -90 c25 -49 65 -121 87 -160 79 -135 152 -280 164 -325 7 -25 18 -52
25 -60 7 -8 67 -127 135 -265 67 -137 138 -276 157 -307 58 -95 23 -105 -87
-24 -70 52 -158 92 -291 130 -64 18 -277 22 -348 5 -140 -32 -310 -167 -369
-293 -35 -75 -41 -99 -52 -209 -7 -76 -14 -95 -95 -257 -124 -249 -125 -252
-150 -285 -13 -16 -37 -57 -54 -90 -39 -74 -111 -196 -175 -295 -58 -89 -87
-134 -112 -176 -155 -257 -166 -274 -185 -274 -29 0 -32 20 -14 95 42 181 41
564 -1 697 -9 26 -12 58 -9 70 4 13 80 97 170 188 146 148 264 284 350 400 17
22 41 55 55 72 14 17 44 59 67 92 23 34 64 92 90 130 48 69 137 205 171 260 9
16 32 52 51 80 18 28 43 71 56 96 13 25 39 72 59 105 20 33 41 77 47 99 6 22
44 105 84 185 79 160 90 197 86 314 -4 130 22 131 88 2z m2491 66 c0 -25 -10
-51 -20 -51 -11 0 -20 39 -13 56 8 21 33 17 33 -5z m2250 -41 c0 -5 -7 -10
-15 -10 -8 0 -15 5 -15 10 0 6 7 10 15 10 8 0 15 -4 15 -10z m-2199 -80 c10
-6 19 -16 19 -23 0 -7 18 -30 40 -52 22 -21 38 -41 35 -43 -5 -5 -128 105
-133 120 -5 11 15 10 39 -2z m-1103 -27 c-2 -10 -13 -19 -26 -21 -24 -4 -29 7
-10 26 18 18 40 15 36 -5z m-658 -123 c0 -11 -4 -20 -10 -20 -5 0 -10 9 -10
20 0 11 5 20 10 20 6 0 10 -9 10 -20z m550 -10 c0 -11 -4 -20 -10 -20 -5 0
-10 9 -10 20 0 11 5 20 10 20 6 0 10 -9 10 -20z m2017 -375 c-27 -24 -57 -33
-57 -17 0 11 52 41 70 41 10 0 5 -8 -13 -24z m-2127 -11 c0 -14 -4 -23 -9 -20
-5 3 -7 15 -4 26 7 28 13 25 13 -6z m2540 -104 c0 -5 -5 -10 -11 -10 -5 0 -7
5 -4 10 3 6 8 10 11 10 2 0 4 -4 4 -10z m-2592 -26 c-9 -9 -21 -13 -27 -10
-20 13 -11 26 16 26 25 0 26 -1 11 -16z m2690 -147 c2 -9 -4 -20 -13 -23 -20
-8 -50 19 -40 36 10 17 49 8 53 -13z m-1690 -539 c3 -13 -3 -18 -22 -18 -27 0
-41 14 -31 31 10 16 49 6 53 -13z m-775 -46 c17 -15 17 -17 1 -29 -23 -17 -74
9 -74 38 0 18 4 20 28 14 15 -3 35 -14 45 -23z m347 8 c0 -17 -7 -20 -42 -20
-48 0 -84 15 -58 24 24 8 53 14 78 15 16 1 22 -5 22 -19z m-270 -50 c13 -9 13
-11 0 -20 -24 -16 -40 -12 -40 10 0 22 16 26 40 10z m775 -38 c0 -20 -19 -18
-23 2 -3 12 1 17 10 14 7 -3 13 -10 13 -16z m-830 -65 c0 -39 -19 -38 -23 2
-3 24 0 32 10 29 7 -3 13 -17 13 -31z m6281 -1938 c57 -15 76 -39 99 -132 22
-88 13 -136 -32 -182 -67 -68 -131 -82 -203 -45 -78 40 -102 115 -70 218 26
85 41 107 88 131 44 24 58 25 118 10z m-464 -106 c66 -65 108 -143 108 -204 0
-63 -52 -160 -106 -199 -40 -29 -57 -34 -120 -38 -89 -6 -145 12 -191 61 -54
56 -73 104 -73 183 0 81 11 101 112 207 l55 59 77 -5 78 -5 60 -59z m-8558
-4083 c35 -13 104 -77 123 -114 41 -79 34 -133 -25 -198 -47 -52 -85 -68 -162
-68 -72 0 -104 14 -153 69 -33 37 -37 47 -39 99 0 31 0 66 1 77 2 23 46 80 83
108 43 32 125 45 172 27z"/>
<path d="M8985 14873 c-63 -14 -87 -28 -110 -61 -47 -69 -30 -135 47 -186 46
-29 64 -35 133 -39 107 -7 174 4 197 33 28 35 33 68 14 107 -16 34 -99 117
-139 140 -21 12 -101 15 -142 6z m20 -53 c3 -5 19 -10 35 -10 29 0 60 -30 60
-57 0 -18 -59 -53 -89 -53 -30 0 -61 27 -61 52 0 24 28 78 40 78 5 0 12 -4 15
-10z"/>
<path d="M11890 14740 c-12 -16 -27 -30 -35 -30 -24 0 -45 -31 -45 -67 0 -24
10 -47 30 -73 26 -32 40 -41 88 -51 113 -23 239 8 266 66 9 18 16 38 16 44 0
18 -59 78 -107 110 -41 27 -55 31 -119 31 -69 0 -74 -1 -94 -30z m54 -56 c13
-34 7 -54 -18 -54 -24 0 -36 16 -36 51 0 24 45 27 54 3z"/>
<path d="M11394 14640 c-30 -12 -53 -47 -47 -71 14 -53 104 -78 143 -39 22 22
26 70 10 101 -12 21 -66 25 -106 9z"/>
<path d="M11246 12844 c-19 -18 -21 -65 -4 -82 17 -17 73 -15 88 3 18 22 15
66 -6 82 -24 18 -59 16 -78 -3z"/>
<path d="M8979 15372 c-21 -17 -49 -87 -49 -122 0 -8 14 -30 31 -47 24 -27 38
-33 71 -33 34 0 47 6 80 40 37 36 40 44 35 78 -13 80 -111 129 -168 84z m58
-50 c11 -7 17 -26 14 -48 -3 -33 -71 -19 -71 14 0 33 31 51 57 34z"/>
<path d="M11200 15192 c-19 -5 -40 -32 -40 -49 0 -22 38 -53 65 -53 34 0 62
42 47 74 -10 23 -44 36 -72 28z"/>
<path d="M8516 15064 c-32 -32 -10 -94 34 -94 20 0 50 35 50 57 0 17 -37 53
-54 53 -8 0 -22 -7 -30 -16z"/>
<path d="M10618 13369 c-11 -6 -18 -22 -18 -39 0 -31 -6 -35 -29 -21 -8 5 -11
16 -6 30 6 19 3 21 -39 21 -49 0 -66 -16 -66 -63 0 -59 83 -73 189 -32 71 27
96 50 85 78 -11 31 -81 47 -116 26z"/>
<path d="M9673 13210 c-32 -19 -40 -41 -27 -75 11 -26 44 -33 119 -23 109 14
164 35 171 65 11 42 -15 53 -130 53 -83 0 -107 -4 -133 -20z"/>
<path d="M9995 12962 c-44 -9 -60 -66 -27 -95 26 -24 55 -21 82 8 20 21 22 28
12 49 -13 29 -39 44 -67 38z"/>
<path d="M7220 12463 c-14 -2 -50 -13 -80 -23 -30 -9 -76 -23 -102 -29 -58
-13 -324 -144 -358 -176 -14 -12 -54 -37 -90 -55 -36 -18 -94 -58 -130 -90
-36 -32 -83 -69 -105 -82 -46 -29 -415 -393 -521 -513 -39 -44 -90 -107 -114
-140 -24 -33 -61 -78 -81 -100 -20 -22 -48 -58 -63 -80 -49 -73 -75 -110 -106
-150 -45 -57 -92 -123 -115 -161 -42 -67 -99 -151 -137 -201 -22 -29 -52 -75
-67 -102 -14 -26 -52 -87 -83 -134 -32 -47 -58 -90 -58 -95 0 -4 -18 -33 -40
-62 -22 -29 -40 -59 -40 -65 0 -6 -13 -26 -29 -45 -15 -19 -38 -55 -51 -80
-13 -25 -33 -58 -45 -75 -13 -16 -32 -50 -44 -75 -11 -25 -25 -52 -30 -60 -4
-8 -30 -57 -55 -108 -26 -51 -62 -117 -80 -145 -18 -29 -38 -66 -45 -84 -7
-17 -21 -39 -32 -49 -10 -9 -19 -23 -19 -30 0 -8 -13 -36 -30 -62 -16 -27 -30
-53 -30 -57 0 -4 -9 -20 -20 -35 -23 -32 -87 -147 -126 -225 -14 -27 -40 -77
-58 -110 -80 -144 -145 -270 -502 -970 -73 -143 -141 -266 -151 -272 -39 -26
-511 31 -588 71 -16 9 -39 16 -51 16 -25 0 -159 61 -194 88 -14 10 -41 24 -61
31 -25 8 -67 43 -130 109 -74 76 -104 116 -140 187 -96 189 -114 272 -114 525
1 195 17 345 46 435 11 33 22 85 26 115 3 30 12 66 19 80 7 14 27 72 44 130
31 105 74 213 93 238 6 7 9 33 9 57 -1 24 2 46 7 49 5 4 17 30 27 59 9 28 26
65 36 80 11 15 24 44 30 65 6 20 24 56 40 80 19 27 28 52 26 70 -3 25 -7 27
-49 30 -39 2 -62 -5 -140 -44 -52 -26 -120 -60 -151 -75 -31 -16 -74 -43 -94
-61 -20 -18 -47 -37 -60 -43 -38 -17 -173 -147 -203 -195 -15 -25 -55 -72 -87
-105 -33 -33 -80 -91 -105 -130 -164 -249 -229 -382 -269 -551 -12 -49 -28
-116 -36 -149 -19 -81 -32 -373 -22 -510 4 -60 16 -139 27 -175 11 -36 27 -92
36 -125 10 -33 23 -71 31 -85 7 -14 29 -54 48 -90 19 -36 54 -88 78 -117 24
-29 61 -87 83 -130 39 -76 40 -81 43 -200 3 -80 -1 -159 -12 -225 -22 -148
-30 -202 -28 -209 0 -3 -5 -26 -13 -51 -16 -54 -4 -88 36 -102 49 -17 76 -1
109 64 l30 59 -16 138 c-13 115 -13 149 -3 207 18 100 31 111 118 109 45 -1
79 -7 93 -17 12 -9 35 -16 49 -16 15 0 69 -13 119 -30 50 -16 100 -30 111 -30
11 0 27 -4 37 -10 63 -34 286 -60 590 -68 252 -6 275 -8 287 -26 16 -21 8 -44
-25 -81 -10 -11 -28 -45 -40 -75 -46 -118 -64 -129 -250 -149 -58 -7 -127 -16
-155 -22 -27 -5 -95 -16 -150 -24 -122 -19 -331 -62 -353 -74 -10 -5 -35 -11
-57 -15 -22 -4 -62 -15 -90 -26 -169 -62 -204 -78 -236 -107 -32 -29 -127 -84
-254 -146 -93 -46 -351 -292 -382 -365 -8 -21 -26 -59 -39 -87 -57 -120 -69
-172 -69 -315 l0 -135 38 -75 c55 -111 127 -183 224 -225 44 -19 92 -41 109
-50 16 -8 39 -15 51 -15 12 0 48 -7 80 -15 88 -23 345 -20 465 5 127 27 170
38 258 68 121 41 380 174 455 234 17 13 51 37 78 52 26 15 47 31 47 36 0 5 17
21 37 34 46 31 367 347 390 384 10 15 49 62 88 105 38 43 75 88 80 101 16 36
128 154 150 157 11 1 54 -1 95 -5 63 -7 84 -14 122 -41 54 -40 105 -112 124
-176 8 -26 27 -61 43 -78 28 -30 31 -31 90 -25 l61 7 61 -61 61 -60 -3 -174
c-3 -189 3 -218 46 -218 14 0 32 11 44 26 24 31 26 85 10 266 -7 77 -6 114 2
132 30 64 151 69 419 17 58 -11 152 -28 210 -36 115 -17 288 -55 390 -85 76
-22 122 -31 290 -60 69 -12 132 -25 140 -29 21 -11 132 -28 270 -41 63 -6 159
-15 212 -20 125 -13 620 -13 763 0 235 21 391 39 420 48 17 6 54 13 84 17 30
3 100 19 155 35 56 15 115 31 133 35 17 3 48 15 69 26 21 10 44 19 51 19 7 0
42 16 79 35 36 19 71 35 79 35 7 0 18 7 25 15 7 9 29 23 49 32 20 10 81 61
136 115 89 86 106 108 148 194 27 53 53 121 58 152 6 30 9 134 7 231 -3 139
-8 185 -22 221 -9 25 -23 70 -30 100 -7 30 -18 64 -24 75 -6 11 -25 49 -42 85
-37 75 -57 100 -79 100 -9 0 -70 -61 -136 -136 -121 -136 -184 -186 -209 -165
-19 16 -31 177 -31 416 0 197 1 213 22 250 27 50 136 157 184 182 186 93 220
116 327 221 110 108 202 212 202 228 0 5 19 33 43 61 40 50 159 271 173 323 9
34 52 90 68 90 19 0 26 -23 26 -87 0 -69 50 -246 89 -314 15 -27 54 -79 85
-114 45 -51 73 -72 133 -101 100 -47 160 -50 228 -10 60 36 475 449 575 574
41 51 107 130 146 175 39 45 83 100 98 122 23 35 65 90 112 148 7 9 22 17 32
17 17 0 18 -14 18 -252 -1 -244 0 -255 23 -313 13 -33 32 -71 41 -85 9 -14 21
-36 26 -50 15 -42 136 -146 210 -181 38 -17 106 -38 152 -46 99 -17 115 -9
126 59 9 57 114 159 212 207 38 18 87 43 109 54 34 18 57 21 180 21 105 0 146
-3 166 -14 147 -83 167 -86 237 -38 143 97 488 450 588 603 10 16 29 39 41 52
13 12 23 30 23 41 0 10 16 34 36 53 20 18 47 54 62 79 14 25 41 62 59 82 18
21 39 52 48 70 8 18 31 53 50 78 19 25 42 61 51 80 8 19 23 51 33 70 10 19 24
51 30 70 6 19 33 73 61 119 27 46 50 88 50 92 0 12 71 148 80 154 5 3 11 19
15 36 10 46 -7 59 -78 59 -49 0 -66 -5 -94 -26 -36 -27 -86 -96 -138 -190 -16
-30 -60 -98 -97 -151 -36 -54 -72 -118 -79 -142 -7 -24 -23 -50 -37 -59 -13
-8 -37 -42 -54 -75 -17 -34 -54 -86 -83 -116 -29 -31 -65 -76 -80 -101 -16
-25 -119 -135 -229 -246 -259 -258 -383 -344 -458 -315 -15 5 -28 20 -32 35
-5 22 3 207 30 686 3 58 12 125 19 150 7 25 16 68 20 95 4 28 21 74 38 103 31
52 37 56 178 126 81 40 185 99 233 130 99 65 325 279 362 342 14 24 45 74 70
111 24 37 44 74 44 83 0 9 11 31 25 50 24 32 63 126 85 205 6 22 14 109 17
193 7 194 -1 239 -69 367 -24 45 -126 133 -169 146 -26 8 -67 8 -145 1 -133
-13 -202 -32 -291 -79 -37 -19 -89 -47 -116 -60 -143 -73 -430 -295 -568 -439
-72 -76 -236 -270 -272 -323 -44 -63 -107 -66 -107 -4 0 14 -17 63 -37 110
-32 71 -52 99 -123 171 -89 92 -141 135 -175 146 -11 3 -45 22 -75 41 -64 41
-94 44 -115 12 -14 -22 -14 -28 1 -68 14 -37 15 -74 10 -240 -4 -108 -13 -228
-21 -265 -8 -38 -15 -87 -15 -110 0 -22 -9 -67 -20 -99 -11 -32 -20 -68 -20
-79 0 -12 -7 -46 -16 -76 -8 -30 -24 -90 -35 -133 -10 -43 -25 -88 -33 -100
-8 -12 -19 -48 -26 -79 -6 -31 -24 -81 -40 -110 -17 -31 -30 -68 -30 -90 0
-20 -11 -58 -24 -85 -14 -26 -36 -75 -51 -108 -39 -90 -78 -166 -100 -200 -11
-16 -37 -61 -57 -100 -78 -147 -88 -164 -98 -170 -6 -3 -17 -22 -25 -42 -9
-20 -33 -55 -54 -78 -21 -23 -45 -53 -52 -66 -7 -13 -42 -60 -79 -104 -36 -44
-77 -95 -89 -112 -25 -37 -69 -45 -91 -18 -17 21 -7 267 14 350 9 33 25 105
36 160 12 55 31 120 42 145 11 25 22 64 24 87 1 23 14 63 27 90 31 62 64 165
71 226 3 27 16 62 28 79 11 17 33 65 48 107 38 104 67 175 101 246 16 33 34
87 40 120 6 33 17 79 25 103 19 59 18 277 -2 362 -25 109 -95 237 -166 306
-118 115 -236 157 -275 98 -9 -15 -20 -58 -24 -96 -5 -37 -12 -83 -18 -101 -6
-17 -20 -61 -32 -97 -11 -36 -27 -90 -34 -120 -7 -30 -25 -86 -40 -125 -15
-38 -35 -97 -45 -130 -10 -34 -27 -81 -38 -107 -12 -25 -24 -64 -28 -86 -13
-84 -73 -108 -119 -47 -31 40 -60 52 -82 33 -9 -7 -34 -37 -55 -66 -38 -51
-104 -102 -132 -102 -23 0 -26 26 -11 82 43 156 47 183 43 318 -4 133 -4 136
-41 207 -51 99 -89 139 -170 179 -67 33 -71 33 -215 35 -134 1 -154 -1 -224
-24 -97 -33 -243 -102 -288 -137 -19 -15 -47 -33 -62 -41 -38 -20 -284 -246
-325 -298 -28 -38 -81 -81 -98 -81 -16 0 0 61 34 132 66 138 113 291 162 515
35 163 44 650 14 749 -8 27 -15 61 -15 76 0 35 -28 108 -88 228 -65 131 -168
234 -296 297 l-90 43 -160 -1 c-89 -1 -172 -4 -186 -6z m22 -455 c61 -26 77
-45 135 -158 l48 -95 3 -207 c2 -155 -1 -226 -12 -288 -9 -45 -16 -99 -16
-119 0 -33 -51 -244 -114 -476 -34 -127 -95 -292 -153 -420 -28 -61 -70 -153
-94 -204 -23 -52 -53 -111 -66 -130 -13 -19 -26 -46 -29 -60 -10 -48 -119
-249 -158 -291 -13 -14 -32 -41 -41 -60 -21 -41 -53 -85 -116 -160 -26 -30
-53 -67 -60 -81 -8 -15 -48 -66 -89 -113 -68 -77 -78 -86 -110 -86 -20 0 -46
7 -59 16 -51 36 -52 45 -52 617 -1 603 6 871 26 972 8 39 21 113 30 165 31
191 38 226 52 257 7 18 13 46 13 63 0 17 9 49 19 73 10 23 26 66 36 96 9 30
36 94 61 143 24 48 44 94 44 101 0 14 30 48 194 216 148 151 199 193 276 229
57 27 72 30 125 25 33 -3 81 -14 107 -25z m564 6 c18 -9 53 -34 78 -55 33 -30
45 -48 49 -76 3 -21 10 -58 17 -83 22 -84 -5 -382 -40 -450 -13 -25 -29 -67
-35 -95 -13 -55 -38 -72 -49 -33 -3 13 -6 64 -6 115 0 65 -6 108 -19 145 -10
29 -22 75 -25 101 -3 26 -17 64 -31 85 -14 20 -25 45 -25 56 0 22 -31 78 -98
179 -56 85 -52 97 39 113 90 16 106 16 145 -2z m4849 -484 c22 -9 49 -20 60
-24 25 -7 85 -83 85 -107 0 -10 -6 -21 -12 -26 -26 -16 -115 -45 -188 -62 -41
-9 -95 -27 -120 -39 -25 -12 -53 -22 -64 -22 -10 0 -31 -11 -48 -25 -16 -14
-42 -25 -57 -25 -16 0 -37 -10 -51 -25 -14 -15 -35 -25 -52 -25 -17 0 -39 -10
-53 -24 -13 -13 -37 -31 -52 -39 -15 -8 -49 -26 -75 -41 -43 -25 -68 -27 -68
-8 0 24 366 401 405 417 17 7 41 23 54 34 13 12 31 21 40 21 9 1 36 12 61 25
48 26 67 26 135 -5z m146 -374 c62 -42 66 -123 11 -228 -53 -104 -91 -153
-184 -240 -166 -155 -191 -173 -352 -253 -148 -74 -162 -79 -224 -79 l-67 -1
2 34 c1 19 14 51 32 76 17 24 31 47 31 52 0 5 14 22 30 38 17 16 30 34 30 40
0 6 15 27 33 46 17 20 48 57 67 84 91 123 270 310 350 365 74 50 146 83 195
89 6 0 27 -10 46 -23z m-2630 -186 c10 -14 27 -37 39 -52 17 -23 20 -40 20
-135 -1 -93 -5 -120 -30 -193 -28 -79 -62 -126 -82 -114 -4 3 -8 41 -8 85 0
44 -6 101 -14 127 -8 26 -22 75 -32 110 -12 43 -30 77 -56 107 -22 25 -38 53
-38 68 0 25 0 25 91 23 84 -2 93 -4 110 -26z m1018 -78 c20 -23 22 -31 16 -71
-5 -25 -8 -63 -7 -83 1 -20 -7 -62 -18 -93 -10 -30 -17 -61 -14 -68 6 -18 -21
-52 -35 -43 -6 4 -9 11 -7 15 3 4 -1 54 -9 112 -10 75 -22 121 -44 167 -47 95
-44 103 37 95 45 -4 62 -11 81 -31z m-5059 -90 c27 -27 28 -33 34 -153 13
-277 16 -883 5 -1099 -6 -124 -14 -301 -18 -395 -3 -93 -11 -179 -18 -190 -6
-11 -14 -39 -18 -62 -3 -22 -17 -56 -30 -73 -13 -18 -27 -45 -30 -61 -7 -32
-226 -259 -250 -259 -7 0 -38 -22 -68 -50 -30 -27 -59 -50 -65 -50 -6 0 -34
-20 -64 -44 -29 -23 -71 -53 -93 -65 -22 -12 -62 -36 -90 -53 -220 -137 -601
-330 -752 -380 -26 -9 -37 -8 -58 6 -29 19 -28 43 6 86 11 14 27 41 35 60 9
19 49 103 89 185 197 406 245 505 245 511 0 3 27 60 59 127 53 109 79 164 141
302 52 115 98 211 203 425 63 129 118 251 122 269 4 19 32 82 63 140 30 59 73
141 96 185 22 43 62 118 87 167 25 48 51 94 56 101 10 13 96 171 139 258 28
55 106 140 129 140 9 0 29 -13 45 -28z m2240 -176 c0 -8 -9 -17 -20 -21 -11
-3 -29 -21 -41 -38 -12 -18 -56 -66 -98 -107 -42 -41 -92 -95 -111 -119 -19
-24 -59 -68 -87 -97 -29 -30 -53 -58 -53 -62 0 -5 -25 -40 -55 -78 -30 -38
-55 -79 -55 -90 0 -12 -11 -29 -23 -37 -14 -9 -33 -41 -46 -76 -12 -34 -27
-59 -32 -56 -15 10 -8 107 11 145 10 19 20 51 24 70 4 19 22 60 41 90 19 30
46 75 60 100 79 138 233 289 296 290 9 0 24 8 33 19 9 10 34 21 54 25 20 3 48
17 61 31 26 28 41 32 41 11z m639 -182 l34 -37 -7 -89 c-11 -166 -52 -194
-218 -152 -69 18 -156 15 -245 -9 -29 -8 -53 -10 -53 -5 0 27 43 83 129 167
75 72 114 102 176 133 99 48 133 47 184 -8z m-551 -476 c4 -86 14 -95 86 -78
29 7 87 11 130 8 75 -3 79 -5 112 -41 19 -20 34 -46 34 -58 0 -11 9 -33 19
-48 47 -65 62 -128 68 -282 7 -167 -5 -267 -43 -366 -13 -34 -24 -72 -24 -85
0 -13 -12 -45 -25 -73 -14 -27 -25 -56 -25 -63 0 -21 -142 -301 -183 -362 -21
-30 -37 -59 -37 -64 0 -19 -235 -250 -271 -267 -20 -9 -39 -21 -43 -27 -3 -6
-31 -18 -61 -28 -47 -14 -62 -15 -95 -5 -71 21 -71 24 -55 301 7 135 19 371
25 525 11 247 16 299 45 445 34 173 36 179 91 275 19 33 48 89 65 125 62 130
145 246 172 238 7 -3 13 -29 15 -70z m4729 -24 c6 -17 -89 -210 -113 -230 -8
-6 -14 -15 -14 -19 0 -5 -7 -17 -17 -27 -9 -10 -21 -27 -27 -37 -16 -27 -95
-132 -125 -165 -73 -80 -75 -82 -79 -64 -3 18 9 38 95 154 29 39 53 77 53 86
0 8 10 23 22 34 11 10 40 57 62 104 78 160 124 213 143 164z m-1269 -47 l34
-32 -6 -105 c-10 -156 -23 -297 -34 -365 -6 -33 -13 -147 -16 -254 -8 -224
-17 -273 -59 -318 -43 -46 -86 -63 -156 -63 -90 0 -158 29 -220 95 l-51 54 0
122 c0 75 6 142 14 173 8 28 19 71 26 96 6 25 15 62 20 82 6 20 18 51 29 70
10 18 22 49 26 68 4 19 15 51 25 70 55 106 110 228 110 244 0 46 32 71 115 92
67 17 103 10 143 -29z m-9788 -281 c0 -18 -6 -39 -14 -45 -20 -17 -86 -127
-86 -144 0 -9 -11 -28 -23 -44 -13 -15 -27 -44 -30 -64 -3 -20 -14 -56 -25
-80 -11 -24 -23 -71 -27 -104 -5 -33 -14 -74 -21 -92 -30 -71 -14 -377 25
-476 24 -61 -21 -64 -85 -5 -25 23 -51 56 -59 74 -7 18 -25 40 -39 49 -15 10
-26 27 -26 39 0 12 -12 39 -27 61 -27 38 -28 46 -31 180 -3 135 -2 141 21 176
14 20 28 55 32 77 3 23 17 50 31 63 13 12 24 31 24 41 0 10 18 36 40 58 22 22
40 43 40 47 0 17 153 156 215 196 54 35 65 34 65 -7z m5200 -184 c0 -14 -9
-39 -19 -56 -10 -17 -22 -51 -26 -76 -4 -25 -15 -58 -25 -75 -10 -16 -20 -56
-23 -87 -3 -32 -10 -72 -16 -90 -36 -119 -54 -460 -30 -592 15 -85 48 -195 69
-231 10 -16 23 -46 29 -66 7 -21 47 -73 97 -128 82 -87 93 -95 217 -156 113
-56 138 -65 186 -65 76 0 146 -34 221 -107 l60 -59 0 -85 c0 -47 -7 -130 -16
-185 -9 -54 -18 -143 -20 -198 -4 -114 7 -144 61 -170 19 -9 35 -23 35 -30 0
-17 -45 -57 -105 -92 -63 -38 -316 -153 -373 -170 -24 -7 -55 -22 -70 -32 -79
-56 -226 -93 -527 -134 -206 -27 -949 -12 -1070 22 -16 5 -91 13 -165 19 -186
15 -332 41 -360 65 -22 19 -199 71 -310 91 -52 10 -115 24 -140 32 -25 8 -79
21 -120 28 -41 7 -106 21 -145 30 -38 9 -88 18 -110 21 -22 3 -76 14 -120 25
-44 10 -136 25 -205 33 -141 17 -200 36 -200 66 0 11 21 51 46 90 25 39 54 90
65 113 11 23 35 69 54 102 18 33 38 70 44 83 12 26 83 59 154 73 26 5 58 14
70 21 12 6 45 17 72 24 28 7 93 28 145 48 52 19 131 48 175 64 78 29 308 136
450 210 39 20 90 47 115 60 25 12 78 43 118 67 41 25 77 45 82 45 4 0 35 20
68 45 34 24 82 55 109 69 26 13 61 38 77 55 17 17 35 31 42 31 7 0 31 16 54
35 23 19 45 35 49 35 4 0 18 10 31 23 13 12 45 38 71 57 160 119 295 245 573
530 136 139 228 246 393 454 18 23 39 49 47 58 8 9 23 29 32 45 10 15 27 38
38 51 19 22 21 22 33 6 7 -10 13 -29 13 -42z m-2590 -17 c0 -15 -38 -40 -47
-31 -7 7 26 46 39 46 4 0 8 -7 8 -15z m8055 -55 c-3 -5 -11 -10 -16 -10 -6 0
-7 5 -4 10 3 6 11 10 16 10 6 0 7 -4 4 -10z m-8107 -37 c2 -23 -3 -34 -22 -47
-15 -9 -26 -26 -26 -39 0 -12 -10 -38 -21 -57 -41 -67 -116 -216 -123 -246 -4
-16 -18 -43 -31 -60 -14 -18 -29 -51 -34 -74 -5 -23 -16 -49 -24 -58 -8 -9
-20 -37 -27 -62 -7 -25 -18 -52 -25 -60 -7 -8 -22 -35 -34 -60 -12 -25 -28
-56 -36 -70 -8 -14 -15 -35 -15 -46 0 -12 -7 -27 -14 -34 -8 -6 -20 -28 -27
-48 -6 -20 -22 -59 -34 -87 -54 -116 -75 -166 -75 -179 0 -7 -11 -33 -24 -57
-12 -25 -28 -73 -34 -108 -21 -118 -56 -146 -184 -146 -48 1 -90 4 -93 7 -6 5
22 68 63 143 8 17 29 55 44 85 16 30 35 61 43 70 8 9 21 36 30 60 9 24 27 63
40 86 14 24 25 52 25 64 0 11 11 31 25 44 14 13 25 28 25 33 0 5 8 17 18 27
11 9 25 35 31 58 7 23 29 67 50 97 20 31 45 76 55 101 11 25 30 56 43 70 12
14 25 40 29 57 3 18 15 40 25 49 11 9 19 24 19 33 0 19 49 97 81 129 12 12 31
39 41 60 32 62 52 95 81 133 15 20 27 41 27 48 0 6 11 16 25 21 18 7 25 17 25
36 0 30 27 67 44 61 6 -2 12 -17 14 -34z m3287 -286 c13 -20 13 -53 5 -243
-19 -427 -36 -611 -61 -641 -12 -14 -57 -17 -76 -5 -6 4 -25 37 -42 72 -28 58
-31 75 -31 160 0 125 19 235 80 465 49 183 63 215 97 215 7 0 19 -10 28 -23z
m1505 -502 c7 -9 24 -39 37 -67 13 -28 39 -68 58 -90 42 -46 43 -55 9 -68 -45
-17 -95 -1 -141 45 -48 47 -53 74 -23 112 11 14 20 36 20 48 0 36 19 46 40 20z
m-997 -1513 c35 -39 49 -103 49 -232 0 -160 -26 -294 -59 -309 -15 -7 -23 -19
-23 -34 0 -27 -43 -72 -59 -62 -7 3 -11 42 -11 92 0 98 -15 196 -36 233 -37
68 -65 136 -62 154 2 11 17 27 33 36 17 8 32 18 33 23 11 23 95 117 106 117 7
0 20 -8 29 -18z m-5539 -498 c34 -13 18 -62 -50 -152 -36 -48 -73 -94 -83
-102 -9 -8 -24 -26 -33 -39 -30 -42 -220 -231 -278 -276 -31 -24 -84 -59 -116
-79 -32 -19 -70 -46 -83 -60 -13 -14 -40 -31 -59 -37 -19 -6 -50 -22 -70 -35
-19 -13 -39 -24 -44 -24 -5 0 -33 -11 -61 -24 -96 -44 -234 -71 -306 -61 -93
14 -138 102 -111 217 26 109 73 187 168 278 85 81 209 180 227 180 8 0 125 54
185 85 66 34 164 66 245 80 49 9 109 21 134 27 25 6 100 14 166 18 66 4 128 7
137 8 9 1 23 -1 32 -4z"/>
<path d="M7065 11859 c-28 -18 -116 -98 -196 -178 l-147 -146 -65 -135 c-61
-125 -78 -171 -108 -290 -6 -25 -17 -67 -24 -95 -8 -27 -21 -97 -30 -155 -8
-58 -24 -159 -35 -225 -20 -128 -27 -335 -32 -930 -3 -318 -3 -320 18 -323 16
-2 34 16 83 90 34 51 86 128 116 172 30 43 55 81 55 86 0 4 9 15 19 24 11 10
23 32 26 48 4 16 54 123 112 236 58 114 111 223 118 242 7 19 30 80 52 135
110 277 186 556 225 825 19 131 22 181 18 320 -6 181 -22 240 -78 293 -43 41
-70 42 -127 6z"/>
<path d="M5961 10354 c-12 -15 -21 -33 -21 -40 0 -7 -25 -61 -56 -121 -165
-317 -194 -376 -194 -390 0 -9 -55 -126 -121 -262 -67 -135 -153 -313 -191
-396 -38 -82 -82 -177 -98 -210 -15 -33 -44 -94 -63 -135 -172 -372 -225 -482
-254 -524 -36 -53 -41 -77 -19 -95 12 -10 24 -7 58 12 24 14 102 57 173 97 72
40 139 81 150 90 11 10 36 25 55 34 19 9 60 34 90 57 30 22 74 53 96 68 23 15
57 39 75 54 196 158 227 187 272 257 57 86 68 137 77 355 5 110 14 227 21 260
14 73 20 871 7 898 -12 24 -33 21 -57 -9z"/>
<path d="M8565 9685 c-35 -22 -47 -24 -110 -18 -81 6 -76 10 -131 -92 -70
-132 -92 -288 -115 -825 -5 -140 -15 -278 -20 -306 -11 -55 -6 -79 18 -88 31
-12 71 28 221 223 45 58 180 321 206 401 8 25 24 72 36 105 64 183 81 398 40
519 -36 109 -69 128 -145 81z"/>
<path d="M11718 9573 c-17 -18 -38 -70 -62 -148 -20 -66 -44 -140 -52 -165
-18 -52 -31 -117 -40 -212 -7 -67 -6 -68 26 -98 38 -35 81 -39 110 -10 17 17
20 33 20 118 0 53 7 160 15 237 24 216 29 305 18 305 -5 0 -21 -12 -35 -27z"/>
<path d="M6909 8758 c-78 -95 -267 -277 -399 -384 -19 -16 -42 -36 -50 -45
-15 -16 -87 -75 -145 -119 -101 -77 -223 -168 -241 -181 -188 -126 -258 -170
-304 -194 -19 -10 -46 -27 -60 -39 -34 -28 -508 -264 -635 -316 -139 -57 -328
-123 -470 -165 -85 -25 -125 -41 -138 -57 -10 -13 -33 -43 -52 -66 -43 -54
-46 -94 -10 -118 15 -10 34 -14 48 -10 12 3 49 -1 82 -8 33 -8 103 -21 155
-31 52 -9 140 -27 195 -40 392 -95 551 -129 780 -165 413 -65 659 -83 1050
-77 332 6 417 15 695 77 121 27 273 79 369 128 l75 37 1 180 c2 124 7 199 18
240 8 33 18 84 21 112 6 50 5 55 -27 90 -30 32 -42 38 -93 44 -84 10 -154 32
-253 79 -116 56 -176 97 -251 172 -206 207 -288 473 -267 868 2 39 -1 45 -20
48 -16 2 -34 -13 -74 -60z m-159 -638 c5 -8 31 -64 59 -124 75 -159 188 -296
346 -419 55 -43 231 -139 286 -156 20 -6 46 -21 58 -33 20 -18 22 -27 17 -77
-14 -122 -6 -113 -156 -151 -111 -28 -157 -37 -324 -61 -302 -43 -915 -17
-1301 55 -44 8 -147 25 -230 37 -82 12 -156 27 -163 32 -7 6 -12 19 -10 30 2
15 20 26 70 43 83 28 366 175 501 261 37 24 70 43 73 43 3 0 24 13 47 29 23
15 53 35 67 44 185 119 446 314 537 401 70 67 106 81 123 46z"/>
<path d="M2530 6324 c-30 -13 -66 -24 -80 -24 -53 0 -310 -116 -384 -173 -110
-84 -221 -211 -241 -275 -16 -54 37 -67 111 -27 26 14 53 25 61 25 19 0 121
52 223 113 106 65 208 145 362 287 37 34 48 51 46 70 -4 33 -29 34 -98 4z"/>
<path d="M19430 9953 c-33 -34 -38 -45 -44 -107 -4 -38 -12 -78 -18 -90 -6
-11 -19 -50 -29 -86 -15 -57 -52 -162 -88 -255 -14 -36 -44 -102 -76 -170 -13
-27 -31 -71 -40 -97 -9 -25 -23 -52 -31 -58 -7 -7 -14 -21 -14 -32 0 -10 -12
-31 -26 -45 l-26 -26 -139 6 c-166 6 -163 8 -157 -114 3 -70 6 -81 32 -108 16
-17 45 -36 65 -42 20 -6 42 -16 49 -22 14 -11 16 -49 3 -62 -6 -6 -48 -80 -94
-165 -132 -241 -173 -312 -203 -348 -15 -19 -38 -55 -50 -82 -12 -26 -27 -51
-33 -54 -6 -4 -21 -26 -32 -49 -12 -23 -39 -67 -61 -97 -22 -30 -80 -116 -129
-192 -85 -130 -112 -159 -130 -141 -5 5 -10 58 -12 118 -3 100 -6 115 -32 164
-32 58 -102 126 -152 147 -44 19 -187 18 -249 -1 -27 -9 -74 -31 -104 -50 -30
-19 -70 -42 -89 -51 -19 -8 -57 -37 -84 -62 -146 -135 -265 -254 -313 -312
-146 -178 -174 -215 -208 -273 -20 -34 -61 -92 -90 -128 -30 -37 -57 -76 -61
-88 -6 -19 -46 -83 -137 -219 -16 -24 -32 -58 -35 -75 -6 -35 -46 -110 -74
-142 -10 -11 -25 -36 -34 -55 -8 -19 -23 -46 -34 -60 -10 -14 -31 -45 -47 -69
-38 -59 -68 -91 -84 -91 -9 0 -6 8 8 23 11 12 26 44 32 72 6 27 15 52 19 55 4
3 14 19 23 35 8 17 36 71 62 121 25 50 46 102 46 116 0 14 6 31 14 37 8 6 20
26 27 44 7 18 31 59 53 92 23 33 50 76 61 97 69 129 105 202 105 212 0 6 9 30
20 51 35 67 52 169 51 303 -1 114 -4 128 -31 189 -54 120 -204 236 -280 216
-28 -7 -68 -72 -76 -123 -6 -39 -59 -159 -161 -365 -69 -139 -207 -402 -223
-425 -9 -14 -39 -68 -66 -120 -27 -52 -61 -115 -77 -140 -15 -25 -32 -61 -37
-80 -8 -29 -83 -174 -130 -250 -5 -8 -27 -54 -49 -101 -22 -48 -59 -127 -82
-175 -95 -204 -149 -393 -173 -616 -10 -91 -18 -122 -35 -143 -28 -37 -27 -59
5 -84 20 -16 40 -21 78 -19 65 2 109 -8 166 -38 25 -13 62 -31 83 -40 21 -9
66 -48 103 -90 54 -60 72 -74 96 -74 22 0 33 7 46 31 9 17 28 48 41 67 13 20
30 59 38 87 8 27 20 59 27 70 7 11 39 79 70 150 31 72 71 162 88 200 17 39 35
77 40 85 4 8 18 35 29 60 32 69 138 279 170 335 16 28 41 75 57 105 42 80 118
209 135 228 8 9 24 37 36 62 12 25 28 56 35 70 8 14 29 54 46 90 17 36 44 81
59 100 16 20 37 53 49 75 11 22 29 49 41 59 12 11 21 25 21 33 0 13 113 146
219 256 53 55 133 107 165 107 7 0 28 -13 46 -30 31 -29 32 -30 25 -97 -11
-111 -47 -175 -154 -273 -102 -95 -110 -117 -51 -137 19 -7 85 -12 147 -12
124 -1 211 16 282 55 48 26 87 31 94 12 6 -17 -19 -66 -49 -99 -16 -16 -28
-45 -33 -78 -6 -40 -17 -61 -43 -89 -20 -20 -56 -78 -80 -128 -25 -50 -54
-107 -65 -125 -11 -19 -24 -47 -27 -63 -4 -17 -16 -42 -27 -57 -11 -15 -26
-45 -33 -66 -7 -21 -24 -58 -36 -81 -45 -86 -93 -271 -110 -426 -16 -146 -16
-145 143 -139 126 6 211 -4 312 -35 60 -18 101 -46 176 -122 81 -81 127 -85
228 -20 26 16 52 30 57 30 6 0 39 24 75 53 128 104 204 157 225 157 18 0 34
-40 34 -87 0 -51 63 -165 116 -208 78 -64 141 -85 254 -85 157 0 243 16 340
62 130 62 250 160 351 285 45 56 159 265 159 291 0 6 11 46 25 88 22 68 25 94
25 225 0 90 4 158 11 173 8 17 27 30 58 40 50 16 164 29 225 27 60 -3 100 16
150 69 51 54 57 84 27 121 -19 24 -22 24 -193 24 -95 0 -191 -4 -214 -8 -33
-7 -45 -5 -64 11 -22 18 -25 31 -31 118 -9 113 -33 290 -48 349 -6 22 -11 91
-11 152 0 139 22 228 90 363 44 86 61 108 179 224 131 128 131 129 131 175 0
79 -81 174 -180 212 -45 17 -71 20 -145 17 -78 -3 -99 -8 -155 -37 -36 -19
-83 -43 -105 -54 -63 -31 -265 -258 -265 -297 0 -7 -11 -28 -25 -46 -35 -46
-131 -251 -140 -299 -3 -21 -13 -52 -21 -67 -27 -52 -47 -260 -41 -433 3 -88
10 -176 16 -196 6 -19 12 -72 13 -116 3 -89 14 -69 -112 -213 -40 -45 -102
-121 -150 -184 -37 -48 -137 -155 -279 -296 -106 -106 -138 -131 -206 -164
-72 -36 -89 -40 -171 -43 l-92 -4 -41 43 -42 43 3 85 c2 56 9 95 20 115 9 17
29 53 43 80 14 28 36 70 49 95 13 25 31 52 40 59 9 7 16 18 16 24 0 16 98 176
132 215 15 18 28 39 28 47 0 8 16 32 35 54 19 21 41 57 49 79 14 39 48 91 136
212 19 27 53 75 75 107 21 32 61 81 87 110 26 28 48 57 48 64 0 6 12 26 28 44
15 18 36 43 47 56 11 13 36 49 55 79 19 31 54 83 78 115 23 33 66 95 95 137
58 85 141 202 157 221 23 27 70 103 70 113 0 6 7 18 17 25 22 19 84 106 108
152 11 21 34 55 50 75 17 21 50 67 74 105 24 37 46 67 50 67 4 0 15 17 26 37
11 20 35 55 54 77 19 23 40 56 48 74 8 18 34 58 58 88 25 30 45 61 45 68 0 7
21 42 48 78 26 35 54 74 62 86 16 24 88 48 185 62 98 14 186 30 245 45 30 7
96 18 145 24 50 6 146 18 215 27 155 19 307 14 372 -12 71 -28 96 -15 130 69
34 84 51 177 43 228 -8 48 -65 124 -102 136 -38 14 -268 -1 -363 -22 -41 -10
-86 -20 -100 -22 -14 -3 -86 -21 -160 -40 -74 -20 -155 -40 -180 -45 -25 -6
-49 -14 -55 -18 -16 -12 -113 -30 -129 -24 -13 5 -14 25 -9 124 5 107 4 124
-16 179 -19 48 -36 71 -89 120 -37 33 -87 80 -112 104 -32 32 -77 59 -150 92
-107 48 -234 95 -259 95 -7 0 -30 -17 -51 -37z m413 -290 c26 -15 52 -34 57
-44 24 -43 8 -232 -22 -266 -9 -10 -19 -32 -22 -49 -4 -17 -18 -46 -32 -65
-13 -18 -24 -39 -24 -45 0 -14 -38 -44 -56 -44 -7 0 -13 43 -16 133 -4 87 -11
147 -23 177 -9 25 -22 69 -29 98 -8 29 -22 62 -32 73 -24 27 -9 52 37 61 52
10 108 0 162 -29z m1177 -402 c15 -29 12 -61 -6 -68 -9 -3 -31 2 -50 11 -19 9
-51 16 -72 16 -44 0 -82 9 -82 20 0 16 78 38 137 39 52 1 64 -2 73 -18z
m-1225 -1291 c35 -13 27 -32 -21 -50 -22 -8 -50 -23 -64 -32 -13 -10 -30 -18
-38 -18 -24 0 -126 -52 -179 -91 -50 -37 -83 -49 -83 -30 0 5 7 14 16 21 8 8
21 27 28 44 7 17 40 58 74 91 46 45 71 62 99 66 63 10 140 10 168 -1z m-1810
-214 c27 -27 41 -107 27 -157 -19 -69 -75 -190 -86 -186 -6 2 -13 36 -16 79
-3 50 -11 82 -21 94 -30 35 -92 165 -83 174 10 10 38 14 107 17 39 2 53 -2 72
-21z m-1263 -90 c17 -33 20 -53 16 -111 -3 -39 -12 -85 -21 -101 -9 -16 -21
-48 -27 -71 -6 -24 -14 -43 -19 -43 -4 0 -12 70 -18 154 -9 131 -14 161 -33
191 -17 28 -20 39 -10 50 19 22 86 -20 112 -69z m2816 -1812 c-2 -107 -7 -146
-19 -165 -9 -13 -19 -37 -23 -53 -4 -17 -19 -45 -34 -63 -15 -18 -38 -46 -51
-63 -24 -31 -113 -104 -157 -128 -44 -24 -48 -2 -7 42 52 55 100 126 109 160
3 15 17 34 30 43 21 13 24 23 24 78 0 52 4 69 23 92 19 22 26 49 36 135 6 59
17 129 24 157 l12 50 18 -72 c14 -56 17 -103 15 -213z m-422 152 c16 -12 19
-25 17 -84 -3 -88 -30 -174 -82 -262 -57 -95 -137 -148 -242 -157 -48 -5 -59
-3 -78 16 -30 30 -29 109 3 176 38 81 215 251 321 308 37 20 37 20 61 3z
m-1556 -41 c0 -19 -9 -59 -21 -90 -17 -45 -20 -71 -16 -142 2 -49 8 -100 12
-115 9 -33 -8 -43 -93 -52 -60 -7 -62 -6 -72 19 -7 19 -6 37 6 68 8 23 19 68
24 101 5 35 17 67 29 80 11 11 32 47 46 78 24 52 56 88 77 88 5 0 8 -16 8 -35z"/>
<path d="M18940 9363 c-85 -14 -103 -45 -71 -118 18 -41 24 -46 48 -43 23 2
33 13 55 58 31 63 35 95 12 104 -9 3 -16 5 -17 5 -1 -1 -13 -4 -27 -6z"/>
<path d="M13990 8783 c-27 -10 -40 -36 -40 -82 0 -44 -8 -78 -37 -156 -9 -22
-23 -63 -33 -92 -10 -28 -27 -69 -38 -90 -11 -21 -25 -49 -31 -63 -7 -14 -36
-70 -65 -125 -29 -55 -74 -140 -100 -188 -26 -48 -63 -113 -84 -144 -20 -31
-46 -70 -57 -88 -73 -118 -94 -153 -130 -214 -22 -37 -48 -78 -58 -92 -34 -45
-87 -133 -87 -144 0 -6 -20 -33 -44 -60 -24 -28 -47 -61 -51 -75 -4 -14 -21
-40 -36 -58 -16 -18 -29 -39 -29 -46 0 -8 -8 -20 -17 -27 -9 -8 -40 -50 -68
-94 -29 -44 -69 -102 -90 -129 -21 -28 -54 -84 -73 -125 -20 -42 -48 -91 -64
-109 -15 -18 -28 -41 -28 -52 0 -11 -19 -42 -42 -69 -24 -27 -53 -64 -66 -83
-13 -18 -43 -60 -68 -93 -25 -33 -56 -81 -69 -107 -14 -26 -29 -49 -35 -53 -6
-3 -19 -24 -30 -45 -16 -32 -28 -41 -62 -50 -23 -7 -55 -9 -72 -5 -17 4 -80
11 -141 16 -218 18 -290 26 -318 38 -16 6 -46 11 -67 11 -48 0 -85 14 -93 34
-4 10 29 90 83 200 50 101 90 188 90 193 0 6 12 28 26 49 18 27 28 56 32 99 2
34 15 81 28 107 13 26 24 52 24 58 0 6 9 29 20 53 10 23 24 60 29 82 5 22 17
60 27 85 9 25 25 79 36 120 11 41 26 100 33 130 8 30 15 69 15 85 0 17 9 57
19 90 10 34 24 131 31 224 11 134 11 188 1 300 -12 124 -17 143 -53 219 -39
83 -103 158 -158 187 -70 36 -229 36 -294 0 -22 -13 -64 -36 -92 -50 -64 -32
-83 -66 -54 -95 11 -11 28 -20 38 -20 32 0 108 -68 138 -123 24 -45 29 -65 32
-147 6 -151 -54 -454 -113 -571 -13 -25 -29 -68 -36 -95 -16 -64 -101 -261
-195 -449 -43 -87 -74 -163 -74 -180 0 -16 -9 -43 -19 -59 -11 -16 -61 -111
-113 -212 -103 -204 -105 -206 -199 -198 -215 18 -299 27 -389 41 -83 13 -183
17 -475 17 l-370 1 -156 -33 c-86 -18 -182 -41 -214 -52 -32 -11 -64 -20 -71
-20 -7 0 -38 -11 -68 -25 -30 -14 -58 -25 -62 -25 -15 0 -239 -116 -314 -163
-20 -12 -51 -31 -69 -42 -18 -11 -56 -38 -84 -60 -28 -22 -73 -58 -101 -79
-70 -54 -268 -249 -319 -315 -23 -30 -63 -78 -89 -108 -27 -29 -48 -58 -48
-64 0 -5 -23 -38 -50 -72 -33 -41 -90 -142 -165 -292 -151 -303 -214 -487
-271 -785 -24 -125 -25 -150 -21 -345 4 -163 8 -219 21 -249 9 -21 16 -58 16
-81 0 -43 21 -99 88 -234 77 -155 262 -293 445 -333 114 -24 392 4 567 57 53
17 229 92 280 120 14 7 48 25 75 39 28 14 70 39 95 56 25 17 63 39 85 49 22
11 52 32 65 46 14 14 40 36 60 48 71 43 147 113 428 394 314 314 467 477 562
603 19 25 68 85 110 133 41 48 88 105 103 125 15 20 37 48 48 62 28 35 66 90
86 124 10 16 34 48 54 70 20 23 44 55 53 71 9 17 41 64 71 105 30 41 77 109
104 150 28 41 59 89 71 105 59 85 170 257 199 310 81 146 95 165 127 175 39
13 135 -1 212 -30 29 -11 62 -20 73 -20 11 0 53 -11 92 -24 68 -24 140 -41
217 -53 40 -6 70 -29 70 -52 0 -9 -13 -43 -29 -76 -88 -183 -153 -336 -175
-410 -10 -33 -24 -76 -31 -95 -28 -76 -80 -298 -98 -420 -17 -119 -16 -497 2
-578 8 -34 18 -65 22 -68 5 -3 9 -21 9 -39 0 -51 109 -271 155 -315 21 -19 45
-51 54 -71 9 -20 49 -65 88 -101 59 -52 107 -81 255 -155 101 -50 201 -97 223
-104 22 -7 45 -17 51 -21 19 -13 126 -48 148 -48 12 0 39 -9 60 -21 41 -22 97
-22 279 -3 79 8 188 -19 232 -57 18 -16 44 -29 57 -29 35 0 114 67 139 117 26
54 87 109 155 140 86 39 146 19 87 -29 -122 -100 -181 -199 -168 -285 10 -65
74 -132 149 -155 52 -17 57 -16 108 1 75 25 136 87 188 191 23 47 46 92 51
100 5 8 18 31 29 52 20 37 98 118 185 193 60 51 240 135 290 135 20 0 46 6 58
14 12 7 51 16 86 20 36 3 75 13 87 21 13 8 29 12 37 9 7 -2 36 5 63 17 50 23
94 30 294 49 202 19 444 66 500 96 14 8 75 38 135 68 61 30 119 64 130 76 11
13 40 31 65 42 24 10 62 34 85 51 64 52 154 102 241 135 87 33 208 53 243 40
23 -8 27 -36 9 -59 -23 -27 -83 -66 -113 -73 -42 -10 -135 -36 -165 -47 -36
-14 -110 -85 -110 -106 0 -10 7 -29 16 -41 13 -19 24 -22 81 -22 88 0 135 24
215 107 158 166 217 222 241 228 14 4 33 15 43 26 9 10 22 19 29 19 6 0 50 20
97 45 47 24 111 51 141 59 31 8 66 20 79 27 16 10 78 13 219 13 203 0 207 0
359 -52 25 -8 90 -36 145 -63 75 -35 113 -61 153 -101 32 -34 51 -60 47 -69
-3 -8 -27 -29 -53 -46 -39 -25 -63 -33 -123 -38 -80 -8 -119 -31 -119 -69 1
-57 48 -62 209 -22 132 33 149 35 291 36 178 2 263 -11 351 -53 41 -19 90 -42
109 -51 19 -9 54 -34 78 -56 24 -22 83 -61 132 -85 58 -29 91 -52 95 -66 10
-30 64 -49 145 -49 l71 0 63 57 c88 80 101 108 99 210 -4 195 -57 282 -300
492 -35 30 -63 59 -63 66 0 6 -12 34 -26 61 -25 45 -27 62 -33 204 -6 141 -8
160 -33 210 -15 30 -54 83 -88 117 -49 51 -81 73 -166 113 -58 27 -122 52
-142 56 -20 3 -147 12 -282 19 -284 16 -307 20 -426 66 -77 30 -97 42 -154
102 -98 99 -135 110 -355 105 -167 -5 -171 -5 -240 -38 -251 -118 -389 -180
-650 -295 -71 -32 -134 -61 -140 -65 -5 -5 -28 -12 -50 -16 -22 -4 -64 -15
-94 -25 -41 -15 -84 -19 -176 -19 -161 0 -203 17 -318 131 -107 106 -175 139
-286 139 -83 0 -86 1 -176 74 -48 39 -143 47 -191 17 -101 -62 -125 -199 -51
-284 39 -45 71 -57 148 -57 68 0 106 21 139 78 18 30 24 33 62 30 38 -3 44 -7
65 -48 33 -61 75 -103 153 -149 107 -64 125 -125 59 -204 -45 -55 -81 -70
-146 -63 -70 8 -75 10 -163 101 -84 86 -184 145 -246 145 -40 0 -98 -31 -114
-60 -20 -38 -11 -62 44 -112 71 -64 94 -134 97 -288 2 -96 -1 -110 -25 -162
-29 -60 -132 -168 -161 -168 -9 0 -35 -10 -58 -23 -39 -21 -57 -22 -292 -27
l-250 -6 -90 -46 c-49 -25 -105 -62 -123 -81 -42 -43 -135 -85 -267 -119 -22
-6 -87 -23 -145 -39 -221 -59 -383 -86 -605 -100 -226 -15 -435 0 -512 37 -28
13 -59 24 -69 24 -9 0 -62 22 -118 49 -87 42 -109 58 -162 117 -90 102 -108
158 -101 317 6 126 37 275 77 369 11 26 20 57 20 70 0 13 15 55 34 93 18 39
36 83 40 100 15 60 224 482 314 631 53 89 75 100 155 83 83 -19 91 -38 86
-194 -2 -66 -4 -172 -4 -235 0 -125 3 -130 61 -116 l24 6 0 214 c0 192 2 216
18 237 31 40 50 86 77 186 15 52 30 103 35 112 4 9 18 45 30 81 12 36 58 138
101 227 43 89 79 169 79 177 0 21 -26 20 -78 -4 -47 -21 -82 -14 -82 16 0 9
28 53 63 97 34 45 80 113 101 151 21 38 52 82 67 99 16 16 29 33 29 37 0 4 20
35 44 68 25 33 49 76 54 95 9 32 23 55 97 157 11 15 60 87 108 159 48 72 91
131 96 131 4 0 21 24 36 53 16 28 41 67 57 85 15 18 28 39 28 47 0 8 16 36 37
62 20 27 59 96 87 154 29 59 70 128 92 155 66 80 199 375 215 474 5 30 13 78
18 105 33 171 -18 354 -122 437 -82 66 -214 111 -267 91z m227 -255 c45 -49
63 -103 63 -187 0 -44 -6 -100 -14 -123 -8 -24 -18 -61 -22 -83 -4 -22 -14
-51 -24 -65 -9 -14 -23 -41 -30 -60 -8 -19 -27 -59 -42 -89 -15 -29 -28 -59
-28 -67 0 -8 -9 -19 -21 -26 -11 -7 -31 -35 -45 -63 -14 -27 -38 -63 -53 -80
-16 -16 -45 -56 -66 -87 -20 -32 -39 -58 -41 -58 -2 0 -4 18 -4 40 0 31 6 47
24 64 14 12 45 65 70 118 25 53 49 99 55 102 5 3 12 24 16 46 4 22 15 50 26
64 10 13 19 36 19 50 0 39 20 129 34 151 23 36 36 221 23 318 -7 55 -6 57 16
57 13 0 33 -10 44 -22z m-2259 -251 c83 -62 111 -150 113 -356 1 -77 -2 -144
-5 -150 -4 -5 -15 -75 -27 -155 -11 -80 -26 -161 -34 -180 -8 -20 -15 -49 -15
-66 0 -17 -15 -64 -34 -103 -19 -40 -37 -91 -40 -115 -6 -40 -64 -167 -73
-158 -3 2 3 32 11 66 9 34 16 86 16 115 0 30 4 56 9 59 15 10 30 119 37 266 3
80 10 152 15 161 5 10 3 96 -5 205 -14 189 -38 310 -71 358 -16 21 -20 58 -8
69 15 16 80 6 111 -16z m-1816 -2379 c55 -16 72 -45 65 -111 -19 -182 -28
-246 -38 -279 -14 -43 -7 -75 22 -111 27 -35 51 -34 84 5 24 28 26 38 21 82
-17 154 -18 262 -3 292 30 58 70 85 138 95 35 5 87 13 114 18 28 6 93 10 145
10 113 1 146 -11 143 -53 -2 -26 -54 -116 -93 -161 -10 -11 -21 -31 -25 -44
-4 -13 -32 -56 -61 -94 -30 -39 -54 -76 -54 -83 0 -7 -18 -34 -41 -60 -23 -26
-46 -59 -52 -73 -6 -14 -18 -35 -28 -46 -9 -11 -41 -56 -72 -101 -30 -44 -66
-93 -81 -109 -14 -15 -26 -33 -26 -40 0 -15 -45 -82 -85 -127 -54 -60 -102
-122 -118 -154 -9 -17 -23 -37 -33 -45 -15 -12 -39 -42 -172 -217 -24 -31 -69
-84 -101 -117 -32 -33 -69 -78 -83 -100 -15 -22 -73 -89 -130 -150 -56 -60
-116 -125 -133 -144 -81 -95 -349 -351 -366 -351 -10 0 -28 9 -39 20 -29 29
-28 72 11 715 21 354 39 559 54 635 2 14 12 87 20 163 15 132 35 233 52 260
32 53 134 174 195 233 109 107 155 135 320 199 114 44 366 68 450 43z m-1160
-620 c34 -17 40 -48 39 -187 -1 -201 -29 -770 -47 -971 -35 -385 -43 -428
-101 -550 -28 -58 -58 -123 -67 -146 -33 -78 -185 -214 -239 -214 -8 0 -32
-14 -53 -31 -38 -30 -42 -31 -121 -27 -66 2 -87 7 -110 26 -15 12 -38 26 -50
32 -29 12 -69 73 -88 135 -25 85 -19 351 13 505 5 25 15 79 22 120 7 41 27
122 46 179 19 57 34 113 34 125 0 11 22 66 49 121 26 55 52 112 56 125 4 14
13 32 20 40 7 8 32 58 55 110 24 52 51 106 62 119 10 13 18 29 18 36 0 7 24
47 53 90 28 43 63 96 77 119 48 80 190 242 225 257 22 8 79 2 107 -13z m8714
-141 c18 -9 47 -34 66 -56 18 -22 47 -43 63 -47 17 -4 51 -18 76 -31 26 -13
53 -23 60 -23 7 0 22 -9 33 -19 28 -25 241 -81 336 -88 137 -9 204 -61 144
-111 -65 -53 -72 -56 -191 -60 -139 -6 -253 11 -305 44 -21 13 -41 24 -46 24
-5 0 -17 9 -28 21 -10 12 -36 28 -56 36 -24 9 -51 33 -73 64 -58 78 -84 89
-211 89 -105 0 -112 -1 -179 -35 -39 -19 -77 -39 -85 -44 -8 -5 -35 -19 -60
-31 -89 -44 -136 -70 -175 -100 -22 -16 -53 -36 -70 -44 -16 -8 -41 -23 -55
-34 -43 -34 -142 -82 -168 -82 -13 0 -39 -9 -57 -20 -42 -26 -235 -41 -260
-20 -26 22 -17 40 33 60 72 30 144 70 173 97 14 13 41 28 60 33 19 6 58 29 87
52 28 24 74 59 102 78 59 40 104 76 134 106 12 11 36 24 54 27 19 4 47 18 63
31 16 14 53 32 83 40 30 9 58 21 62 27 3 6 20 17 38 25 46 21 309 15 352 -9z
m-6950 -119 c-23 -35 -55 -85 -71 -113 -29 -51 -38 -63 -125 -171 -28 -34 -50
-66 -50 -71 0 -6 -16 -26 -35 -46 -19 -20 -35 -46 -35 -58 0 -13 -30 -56 -75
-106 -41 -46 -75 -89 -75 -94 0 -14 -45 -71 -89 -112 -18 -18 -52 -57 -74 -87
-111 -148 -457 -499 -529 -536 -26 -13 -52 -33 -58 -44 -6 -11 -29 -29 -51
-41 -26 -13 -45 -32 -54 -53 -11 -27 -30 -42 -87 -71 -40 -20 -83 -45 -94 -56
-29 -27 -158 -40 -167 -16 -4 10 7 24 34 43 22 15 55 48 74 74 19 26 56 66 82
90 129 117 402 380 524 505 159 163 131 135 290 288 69 67 168 169 220 227 53
58 135 145 182 193 48 49 87 93 87 99 0 6 22 34 48 62 27 28 52 58 58 66 10
17 96 89 106 90 4 0 -12 -28 -36 -62z m1245 -513 c-10 -290 -2 -578 17 -597 7
-7 12 -40 12 -86 l0 -75 -20 26 c-11 14 -20 30 -20 36 0 6 -4 11 -10 11 -5 0
-14 18 -20 40 -6 21 -14 41 -19 44 -15 10 -61 282 -61 360 0 28 5 69 10 92 5
23 14 81 20 130 5 48 22 127 36 174 55 175 65 147 55 -155z m-4210 -696 c5
-89 -7 -160 -24 -142 -4 3 -7 60 -7 126 0 90 3 118 13 115 8 -3 14 -37 18 -99z
m33 -228 c3 -5 0 -11 -8 -14 -15 -6 -26 1 -26 15 0 11 27 10 34 -1z m19 -78
c-3 -7 -9 -13 -13 -13 -16 0 -22 21 -9 36 14 17 31 0 22 -23z m5955 -495 c26
-26 6 -130 -29 -148 -37 -20 -82 57 -59 102 29 55 62 72 88 46z"/>
<path d="M9929 5715 c-3 -2 -50 -13 -106 -24 -107 -21 -176 -50 -259 -111 -79
-59 -172 -167 -210 -245 -29 -59 -34 -80 -34 -140 0 -38 -9 -108 -19 -155 -26
-120 -52 -381 -72 -730 -5 -96 -12 -194 -15 -217 -5 -35 -3 -44 11 -50 13 -4
29 6 57 38 22 24 68 76 103 114 34 39 98 111 142 162 43 50 114 133 159 185
44 51 89 106 100 123 19 29 168 223 198 257 9 10 26 34 40 55 13 21 47 65 75
98 60 70 65 98 20 123 -56 31 -77 51 -108 107 -30 52 -31 60 -31 167 0 75 5
128 16 157 13 39 13 46 -1 67 -14 21 -53 33 -66 19z"/>
<path d="M8773 4888 c-36 -56 -93 -164 -199 -377 -81 -164 -119 -259 -179
-459 -48 -156 -75 -344 -75 -521 0 -133 0 -135 27 -163 27 -28 85 -39 98 -18
3 5 32 23 65 41 54 28 90 71 90 106 0 5 12 20 26 34 33 31 108 189 122 259 30
141 54 429 72 835 5 105 12 212 16 239 5 36 3 50 -7 57 -23 14 -27 11 -56 -33z"/>
<path d="M20142 8768 c-32 -32 12 -65 71 -54 40 7 62 29 53 51 -7 19 -106 21
-124 3z"/>
<path d="M20810 8755 c-23 -27 -7 -49 55 -73 33 -13 74 -30 92 -38 40 -18 88
-18 107 1 13 13 12 20 -11 60 -14 25 -33 50 -43 55 -30 16 -185 13 -200 -5z"/>
<path d="M16977 8722 c-22 -24 -21 -34 3 -60 38 -40 90 -18 90 38 0 42 -62 57
-93 22z"/>
<path d="M10483 8689 c-41 -61 -239 -273 -409 -439 -106 -103 -176 -162 -242
-204 l-92 -58 -83 3 c-76 4 -92 8 -192 57 -98 47 -119 62 -189 135 -48 50 -88
102 -102 135 -35 76 -65 70 -112 -23 -52 -101 -301 -365 -412 -436 -105 -67
-115 -74 -162 -95 -67 -32 -105 -62 -144 -116 -33 -45 -35 -52 -39 -145 -6
-144 11 -155 103 -63 l59 60 82 0 82 0 50 -47 c81 -76 186 -316 221 -508 5
-27 11 -113 14 -190 5 -117 2 -158 -15 -250 -25 -130 -75 -245 -130 -298 -41
-40 -79 -102 -68 -113 8 -8 94 36 144 72 17 13 34 24 37 24 3 0 56 25 118 55
62 31 133 61 158 67 25 6 58 18 75 26 41 21 275 78 370 90 219 29 313 34 557
29 278 -6 377 -14 726 -54 33 -4 48 -1 63 13 21 19 139 250 139 271 0 6 40 94
89 195 87 178 136 290 188 432 14 38 33 83 44 100 38 62 18 96 -58 96 -49 1
-105 39 -152 104 -34 48 -35 52 -35 140 0 99 12 175 40 247 10 25 15 53 11 62
-10 27 -65 55 -121 62 -29 4 -95 28 -154 56 -83 40 -118 64 -184 127 -70 67
-87 91 -134 186 -30 59 -57 127 -60 150 -3 22 -7 51 -10 64 -7 36 -39 27 -71
-19z m29 -594 c57 -62 193 -157 251 -175 50 -16 71 -55 62 -119 -7 -54 15
-196 40 -255 21 -49 61 -111 102 -159 18 -20 33 -48 33 -61 0 -33 -29 -100
-142 -328 -103 -209 -113 -221 -171 -204 -44 13 -276 27 -537 33 -344 7 -628
-20 -816 -78 -75 -23 -100 -4 -91 70 3 29 0 70 -8 102 -8 30 -15 69 -15 88 0
32 -22 113 -72 266 -30 91 -134 298 -173 345 -19 23 -35 50 -35 60 0 10 21 36
47 57 26 21 67 59 91 86 50 53 68 57 109 24 48 -39 106 -72 173 -99 128 -51
166 -59 295 -59 105 -1 132 3 194 24 135 47 310 175 479 351 102 106 112 108
184 31z"/>
<path d="M20160 8212 c0 -9 25 -46 55 -80 30 -35 56 -71 56 -80 1 -9 3 -36 4
-60 4 -55 45 -112 83 -113 68 -3 87 7 109 58 30 72 -13 145 -131 224 -100 67
-176 89 -176 51z"/>
<path d="M11414 8062 c-21 -14 -34 -51 -54 -156 -29 -151 -29 -174 4 -203 34
-29 68 -29 100 0 32 27 46 95 46 222 0 78 -3 96 -21 119 -20 25 -53 33 -75 18z"/>
<path d="M20201 7752 c-62 -59 -67 -87 -18 -123 45 -33 103 -99 112 -128 4
-14 18 -44 31 -68 12 -24 28 -69 34 -101 17 -81 63 -174 105 -210 107 -95 208
-96 279 -5 34 44 36 51 36 120 0 63 -5 83 -31 136 -40 78 -178 214 -237 232
-44 13 -140 85 -179 132 -63 79 -64 79 -132 15z m459 -422 c10 -5 28 -25 40
-45 l21 -35 -27 -35 c-19 -25 -34 -35 -54 -35 -72 0 -94 123 -27 150 29 11 26
11 47 0z"/>
<path d="M14260 7508 c-11 -13 -23 -34 -26 -48 -11 -51 -156 -364 -174 -375
-5 -3 -14 -22 -21 -43 -6 -20 -20 -48 -29 -62 -10 -14 -35 -59 -56 -100 -21
-41 -51 -92 -66 -114 -15 -21 -37 -63 -48 -94 -12 -30 -49 -101 -83 -158 -34
-57 -71 -120 -83 -141 -11 -21 -38 -65 -60 -98 -21 -33 -50 -82 -65 -110 -14
-27 -39 -77 -56 -110 -34 -64 -107 -220 -165 -350 -41 -91 -61 -149 -90 -254
-11 -41 -24 -84 -30 -95 -20 -38 -38 -160 -38 -263 0 -119 21 -189 78 -265 64
-85 134 -128 208 -128 58 0 175 -54 220 -102 34 -37 42 -53 48 -99 4 -35 3
-66 -5 -85 -29 -70 -49 -307 -29 -343 15 -29 64 -28 95 3 l24 24 0 242 c0 229
1 245 22 284 11 22 30 58 41 79 23 46 61 85 199 204 58 50 150 139 204 198
110 119 129 133 151 114 13 -10 14 -26 9 -78 -5 -49 -2 -75 9 -103 9 -21 16
-49 16 -63 0 -68 126 -211 209 -240 97 -33 145 -17 185 62 21 42 20 61 -5 118
-18 41 -21 63 -17 155 3 98 6 110 32 148 42 61 105 120 154 143 62 30 88 63
95 118 6 46 98 239 150 317 15 21 27 42 27 47 0 5 15 27 34 50 18 23 41 56 50
74 9 18 39 62 66 99 28 37 50 72 50 78 0 6 23 43 50 81 28 38 50 77 50 86 0 9
10 29 23 45 54 68 173 287 193 356 8 29 23 76 34 103 41 113 48 151 48 265 1
81 -3 121 -13 136 -7 11 -18 39 -25 62 -7 28 -28 60 -63 95 -74 75 -132 106
-211 112 -61 5 -66 4 -85 -21 -12 -15 -21 -34 -21 -43 0 -9 -11 -37 -25 -63
-14 -26 -25 -53 -25 -61 0 -8 -11 -30 -24 -50 -13 -19 -27 -48 -31 -65 -3 -16
-15 -38 -26 -48 -10 -9 -19 -21 -19 -27 0 -9 -112 -219 -180 -337 -21 -36 -41
-75 -45 -88 -9 -32 -94 -183 -115 -207 -10 -11 -37 -56 -59 -100 -23 -44 -49
-91 -60 -105 -10 -14 -34 -50 -53 -80 -97 -153 -192 -294 -209 -311 -10 -10
-19 -26 -19 -34 0 -8 -15 -32 -33 -52 -18 -21 -48 -59 -67 -85 -27 -38 -39
-48 -62 -48 -23 0 -32 6 -42 33 -13 33 -14 27 13 537 5 104 15 183 25 214 9
27 16 59 16 70 0 12 12 38 26 59 14 21 29 61 34 91 5 29 22 79 39 112 43 82
63 178 69 319 3 107 1 128 -20 189 -19 57 -34 80 -90 137 -99 100 -185 133
-228 87z m185 -205 c30 -30 59 -89 50 -103 -3 -4 -7 -41 -10 -80 -3 -40 -10
-81 -15 -91 -6 -10 -10 -27 -10 -38 0 -11 -12 -34 -27 -51 -25 -30 -28 -31
-40 -14 -7 10 -12 38 -12 63 2 74 -29 222 -51 246 -19 20 -27 74 -13 88 3 4
27 7 53 7 38 0 53 -5 75 -27z m1292 -43 c16 -31 17 -141 2 -195 -21 -78 -64
-100 -74 -37 -13 83 -27 144 -41 170 -18 34 -18 42 2 70 23 33 93 28 111 -8z
m-1442 -1073 c13 -21 14 -50 0 -278 -8 -140 -15 -285 -15 -324 0 -110 -19
-150 -124 -254 -83 -82 -196 -161 -231 -161 -28 0 -84 42 -94 71 -18 51 30
245 93 383 13 28 34 74 46 101 25 54 85 176 134 269 17 33 42 80 54 105 29 57
80 111 104 111 10 0 24 -10 33 -23z"/>
<path d="M2125 7240 c-16 -18 -17 -25 -6 -61 7 -23 11 -81 10 -133 -2 -51 1
-97 5 -104 11 -18 41 -15 85 8 22 11 59 22 83 26 23 4 48 10 53 15 17 13 183
47 330 68 142 21 155 24 155 46 0 17 -27 23 -155 35 -114 11 -273 42 -354 69
-74 25 -165 51 -178 51 -5 0 -18 -9 -28 -20z"/>
<path d="M21068 7170 c-26 -16 -25 -128 1 -178 20 -39 81 -101 118 -120 12 -7
56 -12 97 -12 73 0 77 1 116 36 35 32 40 42 40 81 0 34 -7 54 -27 80 -57 71
-81 91 -119 103 -56 16 -205 23 -226 10z m282 -155 c0 -30 -14 -39 -40 -25
-27 14 -25 39 3 49 28 11 37 6 37 -24z"/>
<path d="M18746 6939 c-14 -17 -26 -34 -26 -39 0 -4 -18 -31 -40 -59 -22 -28
-40 -53 -40 -57 0 -3 -13 -22 -30 -40 -16 -19 -33 -47 -36 -62 -10 -40 -34
-84 -62 -112 -13 -14 -45 -56 -70 -95 -25 -38 -73 -111 -106 -161 -34 -50 -78
-122 -99 -160 -21 -38 -51 -90 -67 -116 -16 -26 -30 -55 -32 -64 -4 -22 24
-38 54 -31 45 12 339 306 460 462 77 98 94 118 135 166 52 60 61 100 39 179
-12 43 -15 77 -10 124 10 97 -20 125 -70 65z"/>
<path d="M16994 6603 c-14 -15 -50 -68 -79 -118 -29 -49 -65 -112 -81 -138
-37 -63 -87 -150 -118 -207 -55 -102 -266 -523 -272 -543 -6 -21 -51 -117
-130 -282 -19 -39 -34 -77 -34 -85 0 -8 -16 -48 -36 -89 -19 -40 -33 -79 -30
-87 7 -18 66 -18 92 0 11 8 88 45 170 81 378 170 540 247 564 271 11 11 15 46
15 162 2 154 15 229 71 400 13 41 24 79 24 84 0 16 152 339 182 387 53 84 34
111 -79 111 -67 0 -136 22 -173 54 -33 29 -59 29 -86 -1z"/>
<path d="M18326 5235 c-11 -29 -6 -36 22 -33 19 2 27 9 27 23 0 25 -40 33 -49
10z"/>
<path d="M12640 4928 c-11 -18 -29 -58 -41 -88 -11 -30 -36 -86 -55 -126 -73
-152 -163 -423 -184 -556 -7 -42 -11 -110 -8 -151 3 -76 3 -77 53 -128 62 -63
173 -118 309 -153 164 -43 484 -46 691 -6 28 5 102 19 165 30 63 12 126 23
138 26 32 6 72 48 72 74 0 18 -6 20 -57 20 -85 1 -134 26 -180 96 l-38 57 0
156 c1 127 4 162 18 188 22 42 22 88 -2 112 -11 11 -41 22 -72 26 -109 13
-247 87 -308 164 -43 54 -62 58 -121 27 -141 -74 -298 10 -315 169 -4 33 -9
68 -11 78 -8 27 -32 20 -54 -15z"/>
<path d="M14225 4788 c-114 -104 -183 -175 -201 -209 -15 -29 -17 -53 -13
-164 8 -258 5 -325 -20 -375 -13 -25 -34 -59 -47 -77 -25 -33 -30 -58 -14 -68
12 -8 77 26 115 60 70 63 295 135 420 136 76 1 76 1 276 101 174 88 203 105
216 134 15 30 15 36 -3 85 -33 89 -104 120 -104 44 0 -71 -39 -114 -135 -150
-39 -15 -73 -18 -155 -16 -92 2 -110 5 -154 29 -41 22 -56 38 -78 82 -47 94
-36 156 41 225 47 43 52 74 19 107 -13 12 -32 40 -43 62 -29 58 -50 57 -120
-6z"/>
<path d="M14452 4544 c-30 -21 -29 -64 4 -95 23 -22 36 -24 128 -27 83 -3 105
-1 115 12 11 13 10 21 -6 48 -16 28 -28 35 -73 44 -30 7 -68 17 -83 23 -38 15
-58 14 -85 -5z"/>
<path d="M16898 3882 c-18 -15 -49 -39 -68 -52 -59 -41 -64 -58 -24 -95 31
-29 80 -33 124 -10 35 18 83 111 78 152 -3 24 -8 28 -40 31 -28 2 -43 -3 -70
-26z"/>
<path d="M15481 3314 c-73 -74 -68 -151 14 -223 29 -25 44 -31 83 -31 26 0 58
6 72 13 33 16 70 91 70 142 0 77 -72 146 -149 144 -40 -1 -51 -6 -90 -45z
m105 -49 c8 -34 -1 -55 -25 -55 -44 0 -70 68 -34 89 24 13 51 -3 59 -34z"/>
<path d="M16072 3319 c-71 -35 -107 -74 -123 -131 -17 -66 8 -109 85 -147 66
-34 124 -39 205 -20 50 11 161 101 186 150 52 100 -25 168 -201 175 -85 4 -95
2 -152 -27z m196 -48 c15 -10 37 -21 49 -25 25 -8 38 -39 26 -59 -4 -8 -25
-29 -46 -47 -32 -28 -43 -32 -74 -27 -48 8 -64 26 -70 79 -5 42 -3 45 33 70
47 32 49 33 82 9z"/>
<path d="M13119 2889 c-96 -8 -134 -23 -173 -69 -35 -42 -42 -76 -25 -124 31
-89 147 -126 250 -79 62 28 159 139 169 194 14 76 -32 92 -221 78z m-49 -98
c0 -32 -22 -56 -45 -47 -18 6 -20 47 -3 64 23 23 48 14 48 -17z"/>
<path d="M15327 2743 c-45 -34 -70 -84 -62 -121 24 -111 134 -142 212 -60 36
38 40 50 30 99 -10 50 -77 109 -125 109 -10 0 -35 -12 -55 -27z m83 -74 c14
-26 -3 -49 -36 -49 -26 0 -47 30 -38 54 9 24 61 20 74 -5z"/>
<path d="M13119 2273 c-42 -26 -62 -67 -54 -114 10 -57 35 -79 91 -79 70 0
103 27 118 97 6 27 2 37 -30 72 -41 46 -79 53 -125 24z m54 -66 c8 -21 -8 -39
-29 -35 -11 2 -20 13 -22 26 -3 18 1 22 21 22 14 0 27 -6 30 -13z"/>
<path d="M21626 6594 c-32 -32 -6 -81 37 -70 22 5 27 12 27 36 0 19 -7 33 -19
40 -25 13 -27 13 -45 -6z"/>
<path d="M21048 6525 c-35 -24 -38 -30 -38 -73 0 -42 5 -52 38 -85 24 -23 47
-37 64 -37 31 0 101 53 109 83 13 49 -33 126 -47 79 -17 -53 -25 -63 -47 -60
-22 3 -24 13 -15 88 4 34 -19 36 -64 5z"/>
<path d="M12579 2419 c-33 -33 -4 -89 46 -89 29 0 45 19 45 51 0 55 -52 77
-91 38z"/>
<path d="M0 335 l0 -335 12000 0 12000 0 0 335 c0 211 -4 335 -10 335 -14 0
-37 -40 -45 -78 -4 -18 -20 -47 -36 -63 -16 -16 -29 -40 -29 -53 0 -32 -52
-76 -133 -115 l-65 -31 -11680 0 -11680 0 -58 26 c-81 37 -144 89 -144 119 0
14 -13 39 -29 57 -15 18 -31 44 -35 58 -16 54 -29 80 -42 80 -12 0 -14 -57
-14 -335z"/>
</g>
</svg>
