<?xml version="1.0" standalone="no"?>
<!DOCTYPE svg PUBLIC "-//W3C//DTD SVG 20010904//EN"
 "http://www.w3.org/TR/2001/REC-SVG-20010904/DTD/svg10.dtd">
<svg version="1.0" xmlns="http://www.w3.org/2000/svg"
 width="2398.175422pt" height="1484.923485pt" viewBox="0 0 2398.175422 1484.923485"
 preserveAspectRatio="xMidYMid meet">
<metadata>
Created by potrace 1.16, written by Peter Selinger 2001-2019
</metadata>
<g transform="translate(-0.001352,1484.923037) scale(0.100000,-0.100000)"
fill="#000000" stroke="none">
<path d="M11945 14840 c-11 -5 -42 -9 -70 -9 -87 -2 -408 -67 -505 -103 -8 -3
-35 -11 -60 -19 -25 -7 -49 -15 -55 -19 -5 -4 -30 -12 -55 -20 -45 -13 -130
-47 -206 -81 -22 -11 -43 -19 -47 -19 -22 0 -343 -167 -497 -259 -86 -52 -309
-200 -372 -248 -207 -155 -183 -137 -363 -285 -55 -45 -105 -87 -111 -92 -6
-6 -41 -38 -78 -70 -191 -168 -523 -500 -711 -711 -44 -50 -82 -92 -85 -95 -8
-7 -198 -236 -240 -289 -19 -24 -47 -58 -61 -75 -54 -66 -219 -289 -354 -480
-49 -69 -118 -166 -153 -214 -65 -89 -490 -726 -622 -932 -41 -63 -93 -144
-116 -180 -90 -141 -211 -338 -400 -655 -233 -390 -250 -418 -283 -480 -18
-33 -36 -64 -41 -70 -4 -5 -37 -62 -72 -125 -36 -63 -75 -133 -88 -155 -12
-22 -42 -74 -65 -115 -23 -41 -53 -93 -65 -115 -13 -22 -41 -74 -63 -115 -22
-41 -57 -104 -77 -140 -21 -36 -59 -105 -85 -155 -26 -49 -51 -94 -55 -100 -4
-5 -31 -55 -60 -110 -29 -55 -60 -113 -70 -130 -10 -16 -48 -88 -85 -160 -37
-71 -101 -191 -141 -266 -40 -75 -112 -212 -159 -305 -48 -93 -100 -191 -115
-219 -15 -27 -157 -306 -315 -620 -158 -313 -294 -580 -302 -593 -18 -30 -23
-29 -338 34 -113 23 -268 67 -330 93 -181 77 -258 126 -360 228 -191 190 -275
454 -275 865 0 173 18 370 50 543 6 33 15 87 21 120 34 203 176 691 259 890 5
11 27 69 50 129 22 60 52 134 66 165 14 31 32 70 39 86 61 141 84 192 145 313
38 77 82 175 97 218 26 72 28 91 28 224 0 115 -4 157 -19 205 -81 256 -241
419 -506 516 -58 21 -82 24 -215 24 -167 0 -170 -1 -405 -88 -117 -43 -268
-115 -470 -224 -142 -76 -480 -321 -642 -464 -354 -311 -677 -711 -891 -1104
-35 -64 -131 -259 -169 -345 -48 -105 -95 -235 -152 -420 -82 -260 -140 -595
-167 -950 -19 -264 1 -676 43 -855 6 -27 12 -59 14 -70 13 -110 99 -395 171
-565 78 -187 246 -470 378 -638 19 -23 39 -59 45 -80 21 -78 10 -253 -30 -462
-23 -124 -32 -179 -40 -250 -5 -41 -14 -113 -21 -160 -21 -133 -13 -390 12
-406 22 -13 2 -39 -88 -110 -134 -106 -339 -308 -436 -429 -277 -345 -443
-730 -483 -1123 -4 -34 -11 -65 -15 -68 -13 -7 -11 -361 1 -369 6 -3 10 -25
10 -47 0 -22 4 -57 9 -77 5 -20 15 -61 21 -91 72 -332 268 -632 555 -850 144
-109 342 -211 530 -273 101 -33 288 -81 380 -97 39 -6 94 -16 124 -21 30 -5
78 -9 107 -9 29 0 56 -4 59 -10 8 -13 467 -14 481 -1 5 5 41 12 79 15 123 10
235 29 415 71 63 15 131 30 150 35 62 13 332 107 445 155 61 26 119 49 130 53
58 17 424 220 572 316 213 139 499 362 684 532 227 210 588 591 734 776 36 45
55 48 77 10 50 -84 214 -232 308 -276 25 -11 48 -25 52 -31 4 -5 8 -39 8 -75
1 -56 15 -176 37 -298 3 -18 9 -35 14 -38 5 -3 9 -14 9 -25 0 -32 83 -197 134
-266 80 -109 224 -211 346 -247 113 -32 137 -36 235 -36 442 1 768 316 817
790 3 23 6 25 53 22 48 -3 229 -32 520 -82 99 -18 152 -30 280 -64 223 -60
322 -84 560 -135 55 -12 120 -27 145 -32 146 -33 222 -47 390 -73 356 -55 702
-95 1010 -118 188 -13 902 -17 1120 -5 240 13 728 62 955 96 179 27 216 34
285 48 41 9 93 19 115 24 103 21 333 81 460 120 293 91 572 211 775 335 289
175 477 333 653 549 101 123 104 127 199 290 45 78 124 261 163 380 21 64 43
164 55 250 6 44 16 104 21 134 14 83 11 324 -6 473 -16 130 -48 318 -65 368
-4 14 -13 45 -20 70 -26 91 -103 317 -125 365 -12 28 -37 84 -55 125 -51 118
-109 228 -156 301 -66 100 -194 217 -271 248 -36 15 -43 38 -15 48 15 6 178
127 192 143 3 3 48 42 100 86 103 89 220 207 345 352 44 50 85 92 90 92 6 0
51 -35 100 -78 221 -192 453 -307 745 -368 171 -36 398 -2 565 86 203 107 592
453 958 852 57 63 103 105 111 102 7 -3 23 -23 35 -44 39 -70 141 -203 210
-273 165 -171 359 -298 614 -403 44 -17 84 -37 89 -42 7 -7 5 -37 -7 -94 -22
-105 -26 -367 -6 -448 37 -154 95 -273 186 -383 73 -87 132 -133 246 -192 295
-153 694 -99 945 128 139 126 243 335 274 549 5 37 15 165 20 285 6 120 13
226 16 235 3 9 22 22 42 29 44 14 181 64 237 88 85 35 302 146 380 195 253
159 342 223 543 387 238 195 488 444 716 714 103 122 223 271 263 328 12 18
47 66 78 107 64 86 315 443 330 469 6 9 55 84 109 166 145 220 180 273 218
340 20 33 53 89 75 125 175 286 504 925 558 1085 24 72 27 94 27 215 0 147
-18 223 -77 341 -129 253 -393 403 -678 386 l-99 -6 5 27 c2 15 28 95 57 177
29 83 56 164 60 180 5 17 15 55 23 85 14 53 31 139 58 300 18 103 17 522 0
615 -55 292 -76 357 -177 560 -179 362 -513 615 -893 679 -109 18 -326 21
-451 6 -170 -21 -414 -91 -595 -169 -136 -59 -218 -100 -390 -196 -181 -101
-482 -312 -690 -484 -55 -46 -191 -169 -303 -273 l-203 -189 -72 68 c-111 106
-307 251 -442 326 -135 75 -338 168 -407 187 -118 31 -293 26 -393 -10 -220
-80 -362 -206 -459 -409 -19 -39 -37 -90 -41 -112 -4 -22 -12 -42 -18 -45 -7
-2 -49 32 -94 76 -153 148 -353 278 -528 345 -38 15 -79 30 -90 35 -11 4 -40
13 -65 20 -25 7 -56 16 -69 22 -38 15 -210 21 -276 9 -127 -21 -124 -20 -250
-82 -74 -36 -105 -60 -180 -134 -142 -142 -200 -277 -220 -510 -3 -44 -10 -96
-15 -115 -5 -19 -14 -57 -21 -85 -18 -78 -32 -115 -44 -115 -5 1 -28 26 -50
57 -102 143 -359 325 -570 404 -52 19 -117 38 -203 59 -212 53 -552 50 -799
-6 -38 -9 -83 -18 -101 -21 -18 -3 -35 -9 -38 -14 -3 -5 -16 -9 -29 -9 -13 0
-27 -4 -30 -10 -3 -5 -21 -10 -39 -10 l-32 0 4 253 c11 614 -101 1172 -319
1586 -204 386 -473 656 -824 828 -174 85 -445 163 -564 163 -33 0 -63 5 -66
10 -8 12 -311 12 -340 0z m335 -370 c213 -21 371 -68 535 -158 402 -221 680
-641 799 -1207 46 -218 54 -276 76 -542 24 -286 -1 -614 -78 -1048 -16 -88
-25 -161 -21 -163 4 -2 21 5 36 16 108 75 259 155 408 217 50 20 99 41 110 45
88 37 274 85 388 100 154 20 409 10 537 -21 343 -84 599 -314 710 -639 47
-137 58 -192 72 -380 6 -80 12 -147 14 -149 4 -4 83 -20 119 -24 16 -2 26 15
57 103 54 149 101 289 138 405 17 55 35 109 40 120 5 11 23 70 40 130 17 61
38 133 46 160 50 173 73 283 83 396 10 113 24 163 65 233 32 55 115 120 188
147 59 22 198 29 245 12 16 -6 46 -16 68 -22 221 -67 457 -233 610 -430 152
-196 237 -396 294 -691 27 -145 31 -186 31 -364 0 -222 -23 -380 -83 -586 -19
-64 -200 -528 -287 -735 -7 -17 -77 -201 -141 -370 -65 -175 -158 -455 -200
-605 -27 -96 -58 -203 -69 -236 -11 -34 -20 -65 -20 -69 0 -13 29 16 43 44 8
14 52 89 99 166 143 237 282 504 394 758 41 94 81 186 89 202 15 34 50 125 90
235 14 41 30 84 35 95 22 55 51 139 75 220 40 134 43 145 63 210 36 113 71
255 112 450 11 55 25 118 29 140 5 22 14 63 20 90 6 28 22 145 37 260 32 263
37 615 9 755 -27 142 -32 186 -24 247 28 231 265 386 481 313 122 -40 370
-181 528 -298 106 -79 305 -282 374 -382 33 -47 62 -89 66 -93 9 -10 27 8 125
119 126 143 391 403 570 560 166 145 434 342 610 447 11 7 38 24 60 38 22 14
74 43 115 64 41 21 89 46 105 55 43 24 259 114 335 140 329 112 644 118 866
16 208 -96 344 -234 451 -456 54 -110 87 -233 123 -455 19 -115 5 -465 -25
-600 -4 -16 -13 -64 -22 -105 -15 -74 -20 -93 -47 -180 -13 -42 -38 -109 -56
-155 -4 -11 -18 -47 -31 -80 -63 -169 -253 -498 -378 -655 -331 -416 -727
-717 -1256 -955 -33 -15 -71 -32 -83 -38 -51 -24 -102 -176 -121 -357 -6 -58
-15 -193 -21 -300 -6 -107 -15 -253 -20 -325 -24 -314 -26 -360 -20 -368 11
-12 142 104 335 296 230 229 321 336 599 707 232 308 600 859 805 1201 34 59
154 165 218 195 81 36 267 64 432 64 96 0 179 -38 245 -111 43 -48 53 -65 85
-142 18 -46 14 -164 -10 -230 -26 -74 -233 -490 -324 -652 -37 -66 -79 -140
-93 -165 -258 -463 -832 -1305 -1106 -1624 -361 -420 -647 -686 -991 -922
-285 -196 -469 -290 -745 -380 -138 -45 -184 -69 -243 -124 -75 -69 -77 -77
-77 -359 0 -405 -32 -547 -152 -677 -65 -70 -125 -101 -258 -130 -82 -18 -125
-18 -193 0 -259 68 -387 304 -337 626 18 115 74 326 102 386 12 25 2 48 -34
80 -22 20 -38 25 -183 60 -182 42 -376 131 -511 233 -152 114 -293 280 -372
437 -54 107 -114 286 -137 412 -10 50 -21 92 -24 92 -3 0 -28 -28 -56 -62
-190 -235 -475 -549 -729 -803 -491 -490 -674 -598 -928 -551 -264 50 -523
206 -696 419 -69 85 -137 189 -177 271 -33 69 -20 78 -123 -84 -165 -260 -424
-560 -639 -740 -98 -82 -280 -207 -373 -256 -30 -16 -73 -41 -95 -55 -22 -15
-63 -38 -90 -52 -70 -35 -155 -121 -190 -192 -27 -55 -30 -70 -33 -180 -3
-121 10 -300 23 -313 3 -4 12 0 19 9 145 199 243 262 406 262 75 -1 94 -5 152
-32 104 -48 160 -112 245 -283 67 -134 124 -268 159 -376 8 -26 19 -56 23 -67
5 -11 18 -54 29 -95 19 -70 31 -127 64 -310 8 -49 13 -153 12 -300 0 -205 -2
-236 -27 -347 -36 -168 -67 -257 -139 -399 -213 -423 -575 -721 -1163 -956
-143 -58 -364 -131 -445 -147 -25 -6 -63 -15 -85 -21 -61 -17 -136 -35 -225
-54 -43 -9 -321 -54 -410 -66 -47 -6 -114 -15 -150 -20 -36 -5 -110 -14 -165
-19 -55 -6 -145 -15 -200 -21 -148 -15 -548 -30 -805 -30 -430 0 -856 27
-1245 80 -321 43 -509 74 -675 111 -25 5 -63 14 -85 18 -238 50 -354 77 -540
126 -49 13 -125 33 -167 45 -43 12 -102 25 -130 31 -56 10 -143 25 -218 39
-72 13 -347 60 -445 75 -49 8 -137 24 -195 35 -152 29 -259 45 -264 39 -3 -3
0 -50 6 -104 14 -116 16 -330 4 -395 -22 -121 -69 -212 -144 -281 -71 -65
-114 -86 -215 -105 -69 -14 -92 -14 -147 -4 -85 17 -127 39 -190 100 -132 128
-175 364 -130 701 12 86 12 98 -3 119 -15 22 -24 24 -119 25 -130 1 -185 25
-277 117 -62 63 -123 169 -165 289 -25 70 -78 151 -111 170 -16 10 -53 21 -80
24 l-51 7 -27 -41 c-34 -52 -275 -357 -348 -442 -160 -186 -228 -259 -383
-417 -94 -96 -220 -217 -281 -270 -60 -53 -112 -99 -115 -102 -10 -10 -106
-88 -155 -126 -132 -101 -169 -127 -285 -205 -204 -137 -445 -271 -640 -354
-36 -15 -78 -33 -95 -40 -138 -60 -407 -139 -570 -170 -49 -9 -99 -18 -110
-21 -157 -40 -577 -52 -800 -23 -210 27 -443 82 -550 128 -125 55 -269 133
-325 178 -254 201 -379 401 -447 713 -21 95 -23 403 -4 505 30 162 80 340 118
425 177 394 436 694 839 971 65 45 134 89 152 97 17 9 32 21 32 27 0 6 -16 27
-36 46 -44 42 -79 101 -99 165 -17 57 -20 267 -5 341 5 26 16 102 25 168 8 66
28 199 45 295 22 128 30 207 30 295 0 195 -35 293 -172 473 -100 134 -192 283
-248 407 -23 50 -48 104 -56 120 -59 128 -142 449 -176 680 -20 140 -17 664 5
835 28 218 64 403 114 590 9 30 18 67 20 83 3 15 9 30 14 33 5 3 9 14 9 25 0
10 4 27 9 37 5 9 18 42 29 72 55 153 93 239 169 390 104 206 193 352 330 540
189 259 564 627 823 809 335 235 640 390 889 452 90 23 116 23 195 3 124 -32
209 -101 263 -214 23 -47 27 -68 27 -145 0 -105 5 -91 -139 -400 -119 -253
-111 -235 -188 -425 -56 -137 -75 -189 -148 -400 -67 -190 -97 -296 -164 -560
-44 -179 -51 -210 -75 -375 -11 -77 -25 -176 -32 -220 -16 -111 -15 -529 1
-635 33 -218 68 -333 147 -495 121 -249 308 -432 571 -564 180 -90 434 -165
708 -210 149 -24 365 -51 413 -51 16 0 72 104 291 543 261 521 446 886 590
1162 38 72 103 198 146 280 43 83 81 155 85 160 4 6 40 73 80 150 41 77 81
151 90 165 9 14 36 63 60 110 24 47 52 101 63 120 11 19 58 105 105 190 46 85
88 160 92 165 4 6 24 40 43 78 20 37 54 97 75 135 22 37 52 90 67 117 15 28
40 70 54 96 99 172 132 229 175 302 27 45 64 109 83 142 19 33 44 76 56 96 12
19 35 57 51 85 176 298 442 729 557 902 27 40 49 75 49 77 0 6 276 424 400
605 91 134 153 222 240 344 25 35 63 89 85 120 22 31 69 97 105 145 36 49 94
129 130 177 202 277 528 654 819 944 219 218 341 330 591 540 118 99 436 331
528 385 9 6 35 22 57 36 120 77 371 209 510 268 11 5 47 21 79 36 162 73 421
144 671 184 125 20 288 24 425 11z m9140 -5444 c0 -16 -80 -116 -92 -116 -5 0
-8 17 -6 37 2 30 10 42 43 65 46 31 55 34 55 14z"/>
<path d="M11940 14149 c-166 -17 -357 -67 -610 -162 -106 -39 -355 -162 -474
-235 -50 -30 -106 -63 -124 -73 -48 -28 -211 -141 -321 -223 -337 -251 -691
-579 -1044 -966 -244 -268 -503 -592 -712 -890 -11 -15 -47 -66 -80 -112 -33
-45 -70 -99 -84 -118 -13 -19 -44 -64 -69 -100 -179 -255 -602 -899 -722
-1100 -28 -47 -74 -121 -102 -165 -28 -44 -91 -147 -141 -230 -49 -82 -104
-173 -121 -200 -45 -73 -51 -83 -95 -160 -23 -38 -51 -88 -64 -110 -77 -131
-148 -254 -205 -355 -36 -63 -72 -126 -82 -140 -9 -14 -41 -70 -70 -125 -29
-55 -63 -116 -75 -135 -12 -19 -42 -73 -67 -120 -25 -47 -80 -147 -122 -224
-43 -76 -115 -209 -160 -295 -46 -86 -117 -220 -159 -298 -69 -129 -104 -195
-260 -493 -124 -239 -356 -694 -632 -1245 l-302 -600 -89 1 c-141 1 -457 34
-609 64 -27 5 -66 12 -85 15 -37 6 -101 20 -160 35 -19 5 -64 16 -100 25 -127
31 -167 43 -212 66 -10 5 -22 9 -28 9 -26 0 -274 119 -354 170 -292 186 -487
422 -617 747 -61 152 -74 205 -119 488 -24 153 -20 519 9 755 19 155 50 346
69 425 6 22 13 56 17 75 4 19 10 46 15 60 9 29 15 54 65 250 16 62 166 522
184 565 5 11 16 36 24 55 8 19 29 73 47 120 17 47 38 99 45 115 20 46 55 124
81 183 13 29 24 55 24 57 0 3 38 84 85 181 47 97 85 185 85 194 0 42 -81 66
-142 40 -13 -5 -54 -21 -93 -36 -72 -27 -273 -125 -354 -172 -56 -32 -237
-150 -306 -200 -250 -179 -521 -449 -737 -733 -278 -365 -498 -863 -579 -1309
-5 -30 -14 -77 -20 -105 -54 -281 -63 -704 -21 -1020 17 -126 93 -410 137
-513 100 -231 189 -381 332 -558 57 -71 131 -249 163 -395 20 -92 5 -389 -30
-559 -24 -119 -30 -159 -46 -275 -9 -66 -18 -175 -21 -243 -6 -152 -1 -162 87
-162 116 0 193 89 210 242 9 77 -1 269 -20 428 -7 52 -10 131 -7 175 7 98 38
164 110 231 46 44 49 45 95 39 26 -4 72 -18 102 -32 84 -38 156 -59 263 -77
53 -9 118 -25 144 -35 123 -48 344 -107 531 -141 136 -25 164 -30 262 -40 58
-7 137 -16 175 -21 39 -6 276 -13 528 -16 328 -4 457 -9 455 -17 -3 -11 -147
-290 -240 -463 -32 -61 -56 -94 -71 -99 -12 -4 -71 -11 -132 -15 -149 -12
-286 -26 -370 -39 -38 -6 -101 -15 -140 -19 -76 -10 -290 -45 -370 -62 -27 -6
-69 -15 -92 -20 -24 -5 -62 -13 -85 -19 -24 -5 -97 -21 -163 -36 -105 -23
-180 -43 -275 -74 -14 -4 -59 -18 -100 -30 -117 -36 -281 -91 -325 -110 -22
-9 -87 -37 -145 -61 -139 -57 -330 -154 -460 -231 -116 -69 -120 -72 -254
-173 -287 -217 -501 -479 -608 -745 -34 -84 -71 -194 -83 -248 -24 -100 -38
-288 -30 -401 9 -137 34 -233 92 -345 38 -73 66 -110 143 -187 122 -123 205
-175 380 -239 236 -87 406 -113 740 -113 258 -1 318 5 530 52 25 6 59 13 75
16 67 14 310 93 445 144 30 11 127 56 215 99 265 130 507 284 725 459 8 7 34
27 56 45 176 141 514 467 657 635 290 339 484 583 589 739 15 22 37 49 47 59
22 19 9 21 267 -41 33 -7 67 -14 76 -14 34 0 106 -48 175 -117 40 -40 73 -77
73 -83 0 -7 8 -24 18 -38 11 -15 36 -67 56 -117 91 -220 104 -234 201 -216 34
6 74 11 89 11 74 0 188 -89 260 -203 45 -72 59 -128 53 -223 -5 -72 -23 -229
-29 -250 -1 -5 1 -51 5 -103 8 -90 32 -164 61 -184 16 -11 78 2 100 21 36 33
48 74 53 176 3 67 -1 142 -12 221 -25 172 -30 309 -14 357 39 120 205 146 554
88 99 -17 205 -35 235 -41 30 -5 93 -16 140 -24 103 -16 290 -50 385 -69 39
-7 104 -19 145 -26 41 -7 215 -48 385 -90 331 -82 415 -102 510 -120 33 -6 76
-15 95 -20 19 -5 53 -11 75 -14 22 -3 90 -15 150 -26 257 -45 331 -56 620 -90
357 -41 440 -45 1010 -45 534 1 607 4 1070 54 161 17 466 68 670 111 190 41
234 53 440 122 204 68 205 68 375 150 480 230 768 538 883 943 60 215 64 520
8 765 -6 25 -13 59 -17 75 -31 145 -111 360 -206 550 -48 97 -73 125 -109 125
-45 0 -56 -9 -126 -99 -133 -172 -477 -495 -657 -616 -16 -11 -39 -27 -50 -35
-12 -8 -37 -24 -55 -35 -18 -11 -60 -37 -94 -58 -82 -53 -373 -197 -477 -237
-47 -18 -98 -38 -115 -45 -33 -15 -217 -77 -280 -95 -136 -39 -238 -64 -375
-91 -30 -6 -75 -15 -100 -21 -25 -5 -71 -13 -102 -19 -202 -33 -229 -36 -538
-65 -257 -24 -948 -24 -1240 1 -447 37 -522 45 -805 85 -278 39 -447 66 -585
91 -30 5 -82 14 -115 20 -128 21 -374 68 -410 78 -16 5 -57 14 -90 21 -33 7
-85 19 -115 27 -65 17 -129 32 -265 62 -55 13 -142 34 -192 47 -51 14 -114 29
-140 34 -27 6 -102 21 -168 35 -66 14 -145 30 -175 35 -30 6 -77 15 -105 21
-99 20 -319 58 -520 89 -33 5 -91 14 -130 20 -38 6 -105 14 -147 18 -89 8
-110 21 -88 55 49 78 305 544 416 757 34 66 43 74 108 89 28 7 80 21 116 32
36 11 79 24 95 28 216 64 527 166 610 201 11 5 81 32 155 60 123 47 205 81
315 130 22 10 83 37 135 60 206 89 717 356 900 470 8 5 56 34 105 65 50 31 99
62 110 68 10 7 75 49 142 94 68 46 125 83 128 83 13 0 458 330 575 428 36 29
72 59 80 65 337 261 928 836 1271 1237 77 89 206 245 254 305 22 28 48 59 57
70 62 73 212 275 354 478 38 55 75 102 82 105 14 4 16 -29 3 -43 -5 -6 -30
-75 -55 -155 -26 -80 -51 -154 -56 -165 -14 -32 -74 -249 -90 -325 -5 -25 -18
-85 -30 -135 -26 -114 -40 -185 -50 -255 -4 -30 -13 -84 -18 -120 -40 -249
-36 -724 8 -907 5 -24 15 -64 21 -90 37 -159 128 -369 219 -504 62 -93 233
-262 327 -323 91 -59 271 -146 358 -175 118 -38 128 -40 220 -50 181 -19 273
-73 397 -231 64 -82 81 -126 86 -225 4 -94 -6 -174 -48 -400 -31 -161 -39
-241 -40 -368 0 -119 3 -146 21 -190 40 -96 121 -137 203 -103 54 23 68 64 63
185 -5 106 -23 336 -31 391 -3 19 -8 78 -10 130 -3 52 -8 145 -12 206 -9 156
8 267 56 372 72 154 204 290 352 362 31 15 70 37 86 49 17 11 33 21 36 21 11
0 160 93 246 154 96 68 206 164 320 281 76 77 94 98 190 220 25 31 51 63 58
70 6 8 12 16 12 20 0 7 34 56 67 98 50 63 221 360 293 510 95 199 152 334 232
550 21 55 33 24 29 -71 -4 -115 14 -334 40 -473 35 -190 116 -402 202 -529 46
-67 174 -197 240 -242 64 -43 219 -118 246 -118 9 0 21 -4 27 -10 5 -5 34 -12
64 -16 47 -5 63 -2 109 20 209 100 698 582 1191 1171 161 193 289 350 332 407
379 503 373 496 383 486 4 -3 -3 -65 -14 -136 -56 -348 -56 -705 0 -925 58
-229 130 -367 263 -505 156 -162 405 -279 635 -299 113 -10 246 -127 330 -290
30 -60 27 -100 -24 -263 -102 -328 -111 -476 -30 -550 36 -33 129 -36 172 -4
55 40 73 97 83 261 5 81 10 228 10 325 0 234 14 290 104 407 46 62 147 146
221 184 28 15 106 47 175 71 261 93 311 115 450 193 65 37 275 175 350 231
306 228 664 582 931 922 205 261 534 735 722 1040 87 140 227 373 227 376 0 3
10 21 23 42 59 94 203 365 300 566 95 196 106 241 62 252 -14 3 -42 3 -62 -1
-20 -4 -74 -10 -119 -15 -136 -14 -154 -30 -298 -265 -187 -304 -425 -660
-616 -920 -52 -71 -102 -140 -110 -151 -42 -60 -174 -228 -288 -365 -317 -382
-696 -725 -1003 -907 -43 -26 -84 -28 -136 -7 -75 31 -78 43 -76 275 2 184 13
403 43 835 5 77 14 217 20 310 6 94 15 186 20 205 5 19 14 58 21 85 46 199
149 357 265 410 30 14 57 25 60 25 3 0 65 29 138 64 208 101 367 199 536 330
333 259 579 553 752 901 97 194 160 372 210 590 20 89 23 126 23 340 -1 267
-12 345 -75 501 -118 294 -362 433 -675 384 -336 -52 -691 -220 -1113 -525
-390 -281 -905 -808 -1235 -1262 -17 -24 -37 -43 -43 -43 -7 0 -16 17 -19 38
-10 60 -36 166 -46 184 -5 10 -9 24 -9 31 0 25 -90 199 -146 282 -101 151
-314 346 -489 447 -88 51 -266 138 -283 138 -10 0 -27 -9 -37 -20 -19 -21 -19
-30 10 -190 12 -63 16 -154 16 -347 0 -145 -2 -266 -4 -270 -3 -5 -8 -44 -11
-88 -8 -97 -33 -294 -45 -355 -5 -25 -15 -74 -21 -110 -36 -198 -113 -521
-173 -720 -27 -91 -50 -169 -51 -175 -2 -5 -6 -17 -9 -25 -3 -8 -15 -44 -27
-80 -36 -106 -130 -362 -151 -407 -10 -24 -19 -45 -19 -48 0 -7 -120 -287
-136 -315 -7 -14 -40 -81 -73 -150 -105 -218 -321 -603 -378 -673 -12 -15 -30
-42 -38 -60 -50 -103 -432 -602 -574 -749 -64 -68 -71 -65 -108 38 -30 87 -22
363 17 594 29 165 76 382 90 415 5 11 11 31 13 45 9 46 38 155 47 175 5 11 12
36 16 55 7 38 79 262 94 295 5 11 30 81 55 156 25 75 63 181 85 235 22 53 40
102 40 107 0 5 29 83 65 172 36 90 65 166 65 169 0 4 8 25 19 49 185 418 250
630 272 889 10 112 9 153 -4 258 -43 336 -129 554 -300 753 -126 146 -368 287
-494 287 -56 0 -69 -21 -77 -125 -3 -44 -12 -111 -21 -150 -9 -38 -22 -102
-30 -141 -8 -38 -20 -90 -28 -115 -8 -24 -19 -62 -25 -84 -25 -85 -65 -217
-117 -380 -30 -94 -55 -174 -55 -178 0 -4 -9 -26 -19 -50 -10 -23 -21 -51 -24
-62 -8 -29 -100 -287 -135 -380 -17 -44 -44 -118 -60 -165 -41 -115 -43 -120
-53 -120 -4 0 -27 25 -49 55 -73 98 -187 195 -230 195 -32 0 -49 -18 -83 -85
-60 -117 -169 -220 -295 -279 -88 -42 -93 -33 -49 101 20 59 45 151 57 203 11
52 25 111 30 130 5 19 15 100 21 179 32 389 -70 676 -296 829 -66 46 -136 78
-215 100 -19 6 -53 16 -75 23 -52 16 -342 16 -416 -1 -106 -24 -197 -49 -221
-61 -10 -5 -24 -9 -31 -9 -35 0 -265 -106 -387 -178 -277 -164 -586 -429 -825
-707 -60 -71 -129 -149 -153 -174 -43 -46 -43 -46 -39 -16 4 25 55 145 168
392 10 24 19 48 19 54 0 6 6 25 14 42 8 18 33 88 56 157 22 69 45 134 49 145
9 22 81 323 107 445 66 318 89 590 81 960 -6 283 -25 437 -76 636 -90 342
-207 563 -400 755 -85 85 -126 117 -209 164 -222 125 -445 165 -742 134z
m-221 -820 c82 -25 178 -80 228 -131 87 -89 140 -197 191 -393 62 -237 51
-733 -27 -1175 -5 -30 -16 -95 -25 -145 -9 -49 -20 -108 -25 -130 -26 -114
-33 -143 -42 -180 -6 -22 -13 -55 -16 -73 -3 -18 -9 -35 -14 -38 -5 -3 -9 -14
-9 -25 0 -74 -187 -651 -309 -954 -143 -354 -349 -770 -536 -1083 -6 -9 -34
-57 -63 -106 -29 -49 -73 -118 -98 -155 -24 -36 -72 -108 -106 -160 -131 -194
-435 -590 -562 -728 l-49 -54 -56 7 c-50 6 -104 28 -139 57 -25 20 -50 91 -62
172 -18 119 -25 1311 -11 1755 19 615 34 834 70 1060 66 406 107 629 132 715
11 39 24 87 29 108 63 241 109 377 193 559 121 262 195 364 482 656 241 247
417 383 564 437 44 17 212 19 260 4z m1176 -41 c62 -33 135 -107 169 -173 14
-27 35 -88 48 -135 21 -77 23 -106 23 -310 -1 -172 -5 -246 -18 -315 -57 -296
-65 -338 -73 -393 -4 -23 -11 -45 -15 -48 -5 -3 -9 -18 -9 -35 0 -16 -4 -37
-9 -47 -13 -26 -31 -86 -31 -105 0 -10 -4 -25 -9 -35 -14 -26 -41 -118 -41
-141 0 -11 -4 -23 -10 -26 -5 -3 -10 -17 -10 -30 0 -13 -4 -27 -10 -30 -5 -3
-10 -17 -10 -30 0 -13 -4 -27 -10 -30 -5 -3 -10 -16 -10 -29 0 -12 -3 -25 -6
-29 -8 -7 -53 -131 -61 -167 -3 -14 -9 -29 -13 -35 -4 -5 -15 -36 -24 -67 -10
-32 -23 -61 -28 -64 -11 -7 -9 6 12 81 27 96 56 237 86 415 30 182 19 700 -16
785 -5 11 -11 36 -13 55 -3 19 -10 53 -17 75 -6 22 -14 51 -16 65 -3 14 -9 34
-14 45 -5 11 -16 40 -24 65 -25 79 -100 240 -154 332 -38 66 -168 240 -208
279 -37 36 -32 59 12 59 12 0 26 5 29 10 3 6 16 10 28 10 12 0 40 7 62 15 31
12 75 14 190 12 139 -3 154 -5 200 -29z m8972 -879 c102 -41 154 -80 219 -164
26 -35 84 -131 84 -141 0 -9 -236 -104 -259 -104 -17 0 -210 -64 -351 -117
-107 -39 -117 -43 -180 -71 -25 -10 -65 -28 -90 -38 -139 -58 -502 -258 -575
-316 -5 -5 -57 -44 -115 -87 -58 -43 -158 -131 -224 -195 -65 -64 -120 -116
-122 -116 -6 0 28 51 121 180 14 19 37 53 52 75 14 22 29 42 33 45 3 3 41 50
85 105 43 55 81 102 85 105 3 3 44 52 91 110 97 118 316 343 429 441 167 144
397 279 478 279 11 0 24 5 27 10 8 14 177 13 212 -1z m216 -721 c40 -23 78
-63 93 -97 41 -99 -10 -328 -105 -470 -10 -14 -33 -48 -51 -76 -123 -184 -403
-443 -690 -639 -55 -38 -290 -156 -310 -156 -6 0 -18 -4 -28 -9 -110 -56 -471
-138 -487 -110 -9 13 260 415 395 593 25 32 65 86 90 120 158 216 493 569 655
689 83 61 206 129 280 155 43 14 131 14 158 0z m-4954 -287 c140 -38 209 -111
242 -255 17 -76 1 -356 -22 -380 -5 -6 -9 -19 -9 -30 0 -11 -4 -33 -10 -50
-32 -102 -84 -247 -99 -281 -10 -22 -33 -76 -51 -120 -60 -144 -216 -452 -226
-443 -2 2 11 44 28 94 32 93 34 100 66 229 37 150 47 229 47 385 0 227 -28
359 -118 550 -38 80 -154 247 -179 258 -5 2 -8 11 -8 21 0 13 13 20 53 28 65
13 228 10 286 -6z m1938 -152 c56 -31 69 -45 94 -102 20 -44 23 -69 24 -167 0
-63 -6 -144 -14 -180 -7 -36 -15 -81 -18 -100 -3 -19 -9 -39 -13 -45 -5 -5
-16 -37 -25 -70 -9 -33 -20 -69 -25 -80 -5 -11 -14 -38 -20 -60 -6 -22 -15
-49 -19 -60 -13 -33 -28 -68 -44 -105 -8 -19 -32 -75 -52 -125 -21 -49 -44
-99 -52 -110 -13 -18 -14 -17 -7 20 4 22 10 47 15 55 19 38 52 237 65 398 7
87 -12 319 -28 328 -4 3 -8 18 -8 34 0 16 -4 32 -10 35 -5 3 -10 17 -10 30 0
13 -4 27 -10 30 -5 3 -10 12 -10 20 0 7 -16 42 -36 77 -21 34 -43 75 -50 89
-8 14 -23 34 -34 44 -11 10 -20 23 -20 29 0 20 62 33 167 35 87 1 108 -2 140
-20z m-9325 -179 c45 -35 62 -111 78 -340 12 -174 13 -201 29 -930 15 -697 3
-1146 -39 -1435 -6 -38 -14 -189 -19 -335 -15 -422 -48 -572 -174 -780 -114
-189 -311 -371 -742 -686 -132 -96 -510 -346 -580 -383 -22 -11 -56 -31 -77
-43 -144 -90 -481 -267 -648 -343 -36 -16 -105 -47 -155 -70 -197 -91 -545
-219 -558 -206 -5 5 41 107 101 227 61 121 137 275 170 344 108 226 254 534
282 595 15 33 58 122 94 199 36 76 66 139 66 141 0 2 25 56 56 121 31 66 66
142 79 169 12 28 41 91 64 140 23 50 48 104 56 120 7 17 32 71 55 120 46 97
75 162 110 240 13 28 45 97 71 154 27 57 49 104 49 106 0 1 33 72 74 156 40
85 89 188 109 229 110 234 553 1126 647 1305 26 50 76 144 110 210 91 174 145
275 217 404 35 62 63 115 63 116 0 2 33 62 74 133 41 71 84 148 96 171 30 60
96 128 144 151 52 25 68 25 98 0z m4408 -267 c0 -5 -46 -42 -102 -83 -244
-179 -572 -494 -755 -722 -125 -157 -273 -366 -273 -386 0 -6 -4 -12 -9 -14
-17 -6 -171 -305 -225 -439 -82 -201 -146 -440 -166 -618 -6 -51 -16 -103 -23
-115 -17 -29 -22 251 -7 389 17 156 31 257 40 295 5 19 21 86 35 147 119 521
418 987 804 1252 200 137 513 277 674 300 4 1 7 -2 7 -6z m852 -387 c56 -31
104 -109 114 -183 13 -110 -14 -258 -75 -397 l-21 -48 -83 5 c-78 5 -113 11
-224 39 -61 14 -346 16 -394 1 -129 -38 -222 -119 -258 -225 -39 -116 -22
-368 25 -368 7 0 28 12 46 28 37 31 68 47 113 58 46 11 222 10 295 -2 59 -10
68 -15 107 -60 76 -87 168 -264 193 -374 7 -30 16 -68 21 -84 5 -16 14 -95 21
-174 12 -146 4 -312 -23 -452 -27 -144 -39 -199 -70 -307 -5 -18 -13 -48 -18
-65 -66 -233 -285 -741 -394 -911 -20 -32 -37 -59 -37 -61 0 -8 -103 -161
-153 -226 -116 -155 -299 -336 -415 -413 -80 -53 -196 -111 -269 -136 -117
-39 -192 -21 -233 58 -32 63 -28 278 20 1136 6 99 15 297 20 440 5 143 12 278
15 300 3 22 12 101 20 175 16 142 30 235 47 310 23 106 30 137 38 170 39 148
58 190 161 367 60 102 109 188 109 189 0 3 94 147 202 307 96 143 187 267 292
397 87 109 341 360 411 407 176 118 305 151 397 99z m7946 -944 c-16 -36 -63
-112 -70 -112 -4 0 -8 -5 -8 -11 0 -6 -25 -47 -55 -90 -30 -43 -55 -82 -55
-87 0 -4 -8 -17 -18 -28 -10 -10 -29 -35 -42 -54 -13 -19 -69 -96 -125 -170
-55 -74 -109 -147 -120 -162 -85 -115 -319 -412 -447 -569 -42 -52 -87 -107
-100 -123 -36 -45 -100 -112 -96 -101 3 10 210 324 309 472 27 39 49 74 49 78
0 3 34 56 75 116 41 61 75 112 75 115 0 2 34 56 75 119 41 64 75 119 75 124 0
4 9 16 20 26 11 10 20 22 20 26 0 5 29 54 65 109 36 55 65 102 65 104 0 2 20
37 45 78 34 58 53 77 83 91 21 9 44 17 50 17 7 0 20 4 30 9 45 23 106 37 100
23z m-2553 -106 c52 -27 109 -92 128 -144 22 -59 20 -162 -5 -337 -22 -146
-36 -290 -47 -460 -5 -77 -17 -252 -25 -390 -33 -513 -36 -535 -65 -595 -31
-64 -116 -160 -163 -182 -91 -45 -208 -49 -355 -12 -182 45 -287 134 -330 282
-21 69 -30 313 -14 387 5 28 15 79 22 115 30 169 141 520 223 705 12 28 28 66
36 85 7 19 17 39 22 45 4 5 8 14 8 21 0 6 41 96 91 200 50 104 95 199 99 210
5 12 21 24 37 28 70 17 121 28 158 33 22 3 44 9 50 14 14 14 100 11 130 -5z
m-4549 -137 c3 -6 2 -21 -4 -32 -6 -12 -18 -42 -26 -67 -8 -25 -21 -63 -29
-85 -9 -22 -23 -67 -33 -100 -10 -33 -24 -76 -32 -95 -13 -33 -15 -33 -28 -15
-9 12 -14 46 -14 99 0 45 -7 113 -15 151 -26 122 -26 120 58 138 90 19 114 20
123 6z m-13277 -81 c-13 -18 -26 -35 -29 -38 -17 -16 -200 -277 -200 -286 0
-3 -10 -20 -22 -37 -66 -91 -221 -395 -268 -522 -11 -30 -31 -78 -41 -97 -5
-10 -9 -28 -9 -41 0 -13 -4 -27 -9 -32 -8 -10 -52 -173 -70 -260 -5 -27 -15
-74 -20 -103 -17 -85 -24 -357 -12 -462 27 -234 66 -368 172 -585 10 -22 19
-46 19 -52 0 -16 -103 50 -195 125 -90 72 -285 284 -285 308 0 6 -7 17 -15 24
-8 6 -32 46 -53 88 -109 215 -136 431 -84 682 37 176 164 413 326 610 110 132
335 354 465 456 13 10 32 27 42 36 10 9 69 54 131 100 179 132 196 141 157 86z
m4921 -85 c-1 -5 -34 -73 -75 -153 -86 -165 -639 -1276 -708 -1420 -128 -268
-277 -583 -277 -587 0 -2 -12 -30 -26 -61 -77 -168 -168 -370 -176 -392 -5
-14 -30 -72 -55 -130 -67 -154 -67 -156 -113 -275 -23 -60 -46 -119 -50 -130
-28 -61 -111 -340 -130 -437 -13 -65 -9 -63 -135 -78 -49 -6 -119 -15 -155
-20 -190 -26 -234 -30 -242 -22 -12 12 0 38 228 497 322 647 559 1097 824
1560 112 198 175 306 270 465 172 291 392 628 579 890 171 239 242 327 241
293z m14320 -1117 c0 -3 -4 -8 -10 -11 -5 -3 -10 -1 -10 4 0 6 5 11 10 11 6 0
10 -2 10 -4z m-8680 -128 c11 -18 20 -42 20 -53 0 -12 5 -26 11 -32 12 -12 7
-172 -10 -373 -5 -58 -14 -217 -20 -355 -29 -675 -44 -819 -97 -911 -41 -72
-60 -68 -145 24 -94 102 -124 215 -122 462 1 202 43 494 102 700 5 19 17 64
26 100 55 218 69 266 112 387 25 67 39 83 74 83 22 0 34 -8 49 -32z m2865
-1013 c8 -39 29 -98 44 -132 39 -81 145 -188 229 -230 34 -17 58 -34 54 -37
-24 -15 -169 -28 -262 -24 -84 4 -113 10 -145 28 -57 31 -64 38 -86 84 -43 89
-10 243 91 431 48 88 44 87 52 15 4 -36 14 -97 23 -135z m-1870 -2743 c47
-117 55 -138 73 -207 31 -115 36 -160 36 -320 -1 -164 -4 -185 -42 -335 -13
-48 -75 -196 -104 -245 -56 -96 -133 -199 -207 -277 -43 -45 -81 -81 -84 -78
-3 3 12 59 34 124 51 156 63 234 56 381 -7 130 -20 191 -67 305 -29 71 -103
193 -142 237 -25 27 -19 36 50 75 71 41 183 146 233 220 22 31 39 59 39 62 0
3 16 40 37 82 42 89 43 88 88 -24z m-10190 -953 c7 -10 -23 -59 -130 -207 -33
-46 -67 -93 -75 -106 -8 -12 -52 -69 -98 -128 -294 -379 -612 -661 -1042 -926
-89 -55 -418 -212 -444 -212 -7 0 -16 -4 -22 -8 -5 -5 -29 -14 -54 -21 -25 -7
-54 -17 -65 -21 -57 -22 -153 -35 -265 -35 -116 0 -129 2 -175 27 -68 36 -101
73 -125 142 -25 73 -25 116 -1 231 30 148 88 271 189 403 69 91 211 227 317
304 44 32 85 62 90 66 98 72 285 172 470 251 180 77 314 117 555 164 249 50
448 73 685 80 50 2 111 4 137 5 26 1 50 -3 53 -9z"/>
<path d="M11481 12980 c-166 -108 -402 -335 -613 -593 -59 -72 -182 -305 -226
-427 -11 -30 -29 -80 -40 -110 -28 -77 -57 -177 -87 -300 -14 -58 -30 -121
-35 -140 -17 -66 -40 -192 -75 -415 -14 -88 -29 -185 -34 -215 -32 -187 -32
-185 -50 -595 -28 -607 -36 -1827 -12 -1824 15 1 291 388 406 569 12 19 48 75
79 123 31 48 56 89 56 92 0 2 23 43 51 92 217 375 459 895 569 1223 16 47 46
137 68 200 77 223 167 551 232 850 11 52 53 337 71 485 18 142 18 581 0 670
-50 257 -117 355 -241 355 -49 0 -65 -5 -119 -40z m6 -697 c-5 -215 -11 -286
-42 -493 -16 -110 -28 -175 -45 -250 -6 -25 -15 -65 -20 -90 -8 -37 -56 -227
-90 -355 -37 -139 -148 -478 -177 -544 -8 -18 -19 -45 -23 -60 -13 -40 -57
-155 -75 -198 -9 -21 -21 -47 -26 -58 -4 -11 -24 -55 -44 -98 -19 -43 -35 -81
-35 -83 0 -9 -209 -426 -221 -440 -22 -26 -31 -15 -25 29 3 23 11 182 16 352
15 454 20 528 50 705 16 98 29 183 45 295 20 143 28 180 86 422 50 205 77 298
103 356 7 18 30 74 51 126 44 113 83 187 139 260 67 89 306 341 323 341 13 0
14 -26 10 -217z"/>
<path d="M21578 11050 c-70 -71 -128 -134 -128 -140 0 -19 51 24 151 127 90
93 130 143 112 143 -4 0 -65 -58 -135 -130z"/>
<path d="M9439 10153 c-40 -76 -91 -174 -114 -218 -23 -44 -67 -127 -97 -185
-110 -209 -628 -1253 -628 -1265 0 -2 -34 -75 -76 -162 -42 -87 -97 -205 -124
-263 -26 -58 -69 -149 -94 -203 -25 -55 -46 -100 -46 -102 0 -2 -29 -65 -65
-140 -36 -75 -65 -138 -65 -140 0 -2 -27 -61 -60 -130 -33 -69 -60 -128 -60
-130 0 -4 -50 -113 -124 -268 -31 -65 -56 -120 -56 -121 0 -2 -31 -68 -69
-147 -38 -79 -82 -173 -99 -209 -16 -36 -60 -127 -96 -204 -37 -76 -65 -140
-62 -143 4 -4 236 112 361 181 33 18 83 45 110 61 217 119 782 497 955 638 8
6 58 46 110 88 197 158 327 323 378 479 34 106 42 172 52 445 9 246 20 381 40
486 23 119 33 547 25 1119 -4 322 -7 604 -7 628 1 23 -3 42 -8 42 -4 0 -41
-62 -81 -137z m-279 -1440 c-1 -27 -8 -100 -16 -163 -21 -169 -32 -317 -43
-575 -8 -211 -11 -235 -34 -292 -59 -146 -163 -246 -545 -528 -67 -49 -133
-96 -146 -104 -54 -33 -47 -8 70 238 35 73 64 135 64 138 0 2 18 42 40 89 22
47 40 87 40 89 0 1 29 64 65 139 36 75 65 138 65 140 0 6 203 429 329 685 45
91 81 171 81 178 0 7 7 13 15 13 11 0 15 -12 15 -47z"/>
<path d="M14300 8994 c-99 -71 -215 -92 -314 -56 l-56 20 -29 -41 c-15 -23
-43 -71 -61 -107 -19 -36 -41 -76 -50 -90 -40 -63 -100 -333 -129 -580 -5 -41
-11 -82 -14 -90 -6 -15 -12 -140 -22 -415 -3 -82 -10 -231 -15 -330 -22 -391
-42 -847 -37 -852 8 -8 85 48 158 115 71 66 186 203 265 317 139 201 304 534
406 820 90 255 110 328 158 599 13 78 13 320 -1 388 -26 129 -76 265 -112 306
-29 32 -100 30 -147 -4z m-114 -440 c19 -5 21 -11 17 -67 -8 -141 -25 -246
-73 -437 -14 -56 -70 -221 -79 -235 -4 -5 -13 -29 -21 -52 -13 -41 -23 -52
-33 -35 -6 9 10 248 23 332 39 271 74 445 95 476 16 24 33 28 71 18z"/>
<path d="M20174 8892 c-12 -26 -38 -87 -59 -137 -21 -49 -46 -110 -57 -135
-38 -86 -67 -165 -113 -310 -15 -47 -33 -101 -41 -120 -60 -157 -100 -517 -65
-584 19 -35 88 -59 169 -60 61 -1 67 1 78 24 7 14 17 115 24 225 37 640 69
1014 95 1118 11 43 -8 31 -31 -21z"/>
<path d="M3160 2735 c-146 -30 -225 -50 -265 -65 -11 -4 -71 -24 -134 -45
-102 -33 -199 -74 -331 -138 -62 -30 -191 -111 -280 -176 -206 -149 -379 -373
-398 -513 l-5 -41 59 8 c120 15 359 107 549 212 290 161 645 441 837 660 45
52 85 99 86 104 5 12 -40 10 -118 -6z"/>
<path d="M11253 7297 c-272 -301 -717 -723 -1048 -996 -77 -63 -184 -150 -206
-166 -314 -237 -420 -314 -613 -442 -126 -85 -260 -173 -299 -196 -39 -23 -85
-51 -103 -62 -18 -11 -83 -49 -145 -85 -63 -36 -121 -69 -131 -75 -66 -39
-484 -251 -588 -299 -149 -68 -374 -166 -382 -166 -5 0 -31 -11 -60 -25 -28
-14 -55 -25 -60 -25 -5 0 -27 -9 -51 -19 -59 -27 -119 -49 -217 -81 -47 -16
-130 -45 -185 -65 -112 -40 -282 -92 -477 -146 -33 -8 -42 -18 -68 -72 -17
-33 -35 -66 -39 -72 -23 -29 -109 -203 -104 -209 4 -3 17 -6 31 -6 14 0 41 -4
61 -9 20 -5 63 -14 96 -19 169 -29 253 -44 285 -52 19 -5 62 -14 95 -20 33 -6
76 -15 95 -20 19 -5 62 -14 95 -20 115 -22 260 -54 325 -70 19 -5 76 -19 125
-31 50 -11 104 -25 120 -29 17 -5 59 -16 95 -25 36 -8 81 -20 100 -25 19 -5
98 -21 175 -36 77 -14 217 -41 310 -59 264 -52 545 -99 723 -120 64 -8 153
-19 197 -25 324 -45 578 -66 979 -81 403 -16 805 -1 1121 40 440 57 732 126
1073 253 152 56 352 149 371 171 10 12 10 24 1 54 -6 21 -17 84 -25 141 -11
87 -11 126 1 245 12 126 35 296 48 352 4 19 10 52 37 207 11 65 10 69 -14 110
-51 86 -93 112 -199 123 -109 12 -235 46 -383 105 -589 234 -955 734 -1044
1425 -33 258 -39 412 -20 568 6 51 9 109 7 129 l-3 38 -102 -113z m-220 -828
c22 -128 74 -319 106 -394 5 -11 16 -36 25 -57 9 -20 16 -39 16 -43 0 -12 99
-206 121 -236 10 -15 19 -30 19 -33 0 -10 90 -137 139 -196 270 -327 604 -542
1046 -676 102 -31 119 -40 109 -63 -3 -9 -8 -32 -11 -51 -2 -19 -8 -57 -13
-85 -22 -117 -40 -294 -40 -394 0 -75 -4 -112 -12 -119 -17 -14 -207 -84 -288
-106 -36 -10 -73 -22 -82 -27 -10 -5 -28 -9 -41 -9 -13 0 -27 -4 -32 -8 -6 -5
-35 -14 -65 -21 -30 -6 -74 -16 -97 -21 -24 -6 -62 -14 -85 -20 -24 -5 -90
-16 -148 -25 -58 -8 -134 -20 -170 -25 -36 -5 -87 -12 -115 -15 -27 -2 -111
-10 -185 -17 -181 -17 -920 -17 -1140 0 -493 39 -832 81 -1235 152 -27 4 -90
15 -140 24 -118 20 -506 94 -605 116 -19 4 -105 25 -190 47 -85 23 -166 43
-180 46 -28 6 -135 32 -191 47 -20 6 -47 10 -60 10 -13 0 -31 5 -39 10 -24 15
3 33 90 60 41 13 80 27 85 30 6 4 37 17 70 30 246 95 578 242 789 348 88 45
360 188 411 217 240 136 253 144 410 242 28 17 75 46 105 65 82 50 352 232
463 312 318 229 610 465 911 736 82 74 166 149 185 167 20 18 40 31 46 29 5
-1 13 -22 18 -47z"/>
<path d="M2297 4423 c-3 -4 -1 -42 4 -83 28 -246 31 -434 8 -508 -6 -18 -8
-36 -5 -39 3 -4 75 17 159 45 135 45 401 119 512 143 22 4 60 13 85 19 64 16
113 26 210 44 47 8 112 20 145 26 123 22 249 40 285 40 20 0 44 6 55 13 15 12
2 15 -101 20 -177 9 -451 49 -625 91 -35 8 -104 24 -153 36 -80 19 -269 77
-321 99 -11 5 -65 17 -120 28 -55 11 -107 23 -116 27 -10 4 -19 4 -22 -1z"/>
</g>
</svg>
