<?xml version="1.0" standalone="no"?>
<!DOCTYPE svg PUBLIC "-//W3C//DTD SVG 20010904//EN"
 "http://www.w3.org/TR/2001/REC-SVG-20010904/DTD/svg10.dtd">
<svg version="1.0" xmlns="http://www.w3.org/2000/svg"
 width="2556.000000pt" height="862.000000pt" viewBox="0 0 2556.000000 862.000000"
 preserveAspectRatio="xMidYMid meet">
<metadata>
Created by potrace 1.16, written by Peter Selinger 2001-2019
</metadata>
<g transform="translate(0.000000,862.000000) scale(0.100000,-0.100000)"
fill="#000000" stroke="none">
<path d="M30 8572 c-6 -24 -8 -53 -4 -64 4 -14 2 -18 -5 -14 -16 10 -13 0 4
-14 13 -10 17 -7 30 23 18 42 39 48 183 46 l102 -2 2 -331 c2 -182 3 -366 3
-409 0 -59 -3 -81 -15 -90 -13 -11 -13 -10 0 7 14 18 14 19 -7 5 l-23 -14 23
-12 c30 -16 127 -16 150 1 17 13 17 14 -1 18 -26 7 -32 106 -32 510 l0 318 74
0 c40 0 101 -3 136 -7 59 -6 63 -8 76 -40 22 -51 44 -43 43 15 -1 91 30 84
-357 82 -188 0 -342 3 -342 8 0 5 -6 9 -14 9 -9 0 -19 -18 -26 -45z"/>
<path d="M973 8593 c17 -4 17 -5 1 -17 -15 -12 -14 -14 15 -19 26 -5 31 -11
31 -34 0 -16 4 -23 8 -16 4 6 7 -161 7 -372 0 -211 -3 -381 -6 -379 -4 2 -10
-3 -13 -11 -3 -9 -17 -20 -31 -25 -14 -5 -25 -15 -25 -22 0 -10 2 -10 9 1 6
10 13 11 29 2 29 -16 129 -13 177 4 l40 14 -37 1 c-26 0 -40 6 -48 19 -6 12
-10 100 -10 216 l0 197 260 -3 c154 -3 263 -8 269 -14 5 -6 11 -95 13 -202 2
-105 0 -186 -4 -180 -5 8 -8 6 -8 -5 0 -9 -9 -20 -21 -23 -37 -12 -6 -26 74
-34 42 -4 74 -4 71 0 -5 8 21 19 47 19 29 0 23 -18 -8 -23 -27 -5 -27 -5 2 -3
46 2 39 30 -9 36 -35 4 -41 9 -48 37 -5 17 -7 204 -6 415 l3 383 38 3 c30 3
37 7 35 20 -3 15 -19 17 -118 18 -85 1 -101 -1 -60 -6 42 -5 47 -7 20 -9 -19
0 -46 -4 -60 -8 l-25 -7 30 -6 c20 -3 31 -13 36 -30 9 -32 11 -258 3 -299 l-6
-31 -264 0 -264 0 0 169 c0 179 2 186 50 193 14 1 25 10 25 18 0 12 -21 15
-120 17 -66 0 -112 -1 -102 -4z"/>
<path d="M2100 8585 c0 -10 10 -15 29 -15 56 0 56 3 56 -431 0 -218 3 -395 8
-392 4 2 7 -1 7 -6 0 -6 -8 -11 -17 -11 -10 0 -25 -5 -33 -11 -11 -8 -9 -9 10
-3 22 6 23 5 11 -10 -12 -15 -7 -16 60 -16 41 0 139 -3 219 -6 80 -4 142 -4
139 0 -4 4 4 28 16 54 28 56 16 81 -18 39 -30 -37 -72 -47 -194 -47 l-103 0 0
210 0 210 103 0 c122 0 145 -5 149 -33 2 -11 8 -22 15 -24 7 -3 12 17 15 57 3
70 -1 84 -25 74 -9 -3 -15 -10 -12 -14 3 -5 -51 -10 -120 -12 l-125 -3 0 178
0 177 108 -1 c127 -1 154 -7 167 -37 5 -12 17 -22 25 -22 13 0 13 -1 0 -10
-13 -8 -12 -10 4 -10 17 0 18 6 13 55 -3 30 -8 59 -12 65 -4 6 -94 10 -251 10
-210 0 -244 -2 -244 -15z"/>
<path d="M2714 6922 c3 -5 -18 -7 -47 -5 -39 3 -48 2 -37 -6 11 -9 4 -10 -29
-5 -35 6 -42 4 -36 -6 6 -10 -1 -11 -31 -6 -29 5 -35 4 -24 -4 11 -7 4 -9 -27
-4 -26 4 -43 3 -43 -3 0 -6 -12 -8 -26 -5 -17 3 -25 1 -21 -5 4 -6 -4 -8 -20
-5 -19 4 -24 2 -18 -8 5 -9 4 -11 -4 -6 -6 4 -25 4 -43 1 -19 -5 -26 -10 -18
-15 8 -5 3 -10 -15 -14 -15 -4 -30 -5 -33 -1 -3 3 3 5 13 5 10 0 16 3 12 6 -8
9 -48 -6 -42 -16 7 -12 -25 -21 -48 -14 -11 3 -17 2 -14 -3 4 -6 -23 -22 -59
-36 -66 -28 -90 -34 -64 -17 8 5 11 10 5 9 -14 0 -62 -28 -50 -29 12 -1 -36
-29 -50 -29 -5 0 1 6 15 14 46 26 10 15 -51 -15 -33 -17 -57 -35 -54 -40 4 -6
-1 -7 -11 -3 -12 4 -15 3 -10 -5 4 -7 2 -10 -6 -7 -8 3 -22 -2 -33 -11 -11 -8
-14 -13 -7 -9 21 11 13 -4 -9 -16 -17 -8 -20 -8 -14 1 4 7 -19 -5 -52 -26 -60
-39 -131 -92 -104 -78 9 5 12 3 7 -5 -4 -6 -11 -9 -15 -7 -12 8 -122 -84 -115
-96 5 -7 3 -8 -5 -3 -15 8 -93 -63 -85 -77 3 -5 0 -7 -8 -6 -7 2 -12 -3 -11
-9 2 -7 -1 -12 -7 -10 -14 3 -141 -153 -134 -165 4 -7 2 -8 -4 -4 -13 8 -35
-28 -24 -39 4 -5 2 -5 -4 -2 -7 4 -31 -28 -60 -80 -97 -173 -141 -313 -155
-491 -6 -80 -14 -129 -23 -137 -7 -8 -16 -11 -20 -8 -3 4 -6 1 -6 -5 0 -7 -4
-11 -8 -10 -25 8 -277 -176 -266 -194 4 -6 2 -8 -4 -4 -6 3 -13 2 -17 -4 -4
-6 -11 -7 -17 -4 -7 4 -8 2 -4 -5 4 -6 0 -14 -8 -17 -9 -3 -16 -13 -16 -21 0
-8 -4 -12 -9 -9 -15 10 -156 -158 -243 -288 -89 -133 -172 -291 -162 -308 5
-7 2 -8 -6 -3 -10 6 -12 4 -7 -8 3 -9 1 -17 -4 -19 -25 -8 -110 -284 -140
-455 -19 -107 -23 -165 -23 -358 -1 -219 15 -405 34 -405 4 0 5 -12 3 -27 -4
-23 -2 -25 7 -13 9 12 10 11 5 -8 -8 -28 23 -164 36 -156 5 3 6 -1 3 -9 -12
-31 159 -432 179 -420 6 3 7 1 3 -5 -8 -13 69 -152 84 -152 6 0 9 -3 8 -7 -3
-9 41 -83 48 -83 3 0 2 5 -2 12 -5 7 -3 8 5 4 7 -5 10 -11 7 -14 -3 -3 5 -20
19 -37 13 -18 21 -36 17 -39 -3 -4 1 -4 10 -1 9 4 19 1 24 -6 5 -8 3 -10 -7
-4 -8 4 1 -8 19 -27 18 -19 30 -37 27 -40 -3 -3 3 -11 12 -19 16 -13 17 -12 4
3 -7 10 -9 18 -4 18 15 0 114 -106 117 -126 2 -10 9 -19 17 -19 8 -1 13 -7 11
-15 -3 -12 -1 -12 9 -3 9 9 21 2 54 -31 45 -47 94 -80 80 -54 -4 7 3 2 16 -12
13 -14 22 -21 19 -15 -3 6 6 -1 19 -15 13 -14 20 -18 15 -10 -4 8 7 0 25 -17
30 -30 43 -37 64 -34 4 0 7 -3 7 -9 0 -14 159 -92 172 -84 6 4 8 3 5 -3 -8
-13 50 -36 66 -26 6 4 7 1 2 -7 -6 -9 -2 -10 15 -5 15 5 20 4 16 -4 -4 -6 4
-13 19 -17 14 -3 25 -11 25 -16 0 -6 6 -5 15 2 12 10 15 10 15 0 0 -7 7 -10
15 -6 8 3 15 1 15 -5 0 -6 7 -9 15 -5 8 3 15 1 15 -5 0 -6 7 -9 15 -5 8 3 15
1 15 -5 0 -5 12 -7 28 -3 21 4 24 3 12 -6 -12 -9 -8 -10 16 -5 22 4 36 1 47
-10 11 -10 25 -14 44 -9 23 4 25 3 13 -6 -12 -9 -7 -10 23 -5 29 5 37 3 32 -6
-6 -9 2 -10 30 -5 22 4 35 4 31 -2 -8 -13 115 -24 200 -18 55 4 61 3 29 -4
-28 -6 4 -8 104 -6 95 2 146 6 149 14 2 6 17 8 39 5 26 -5 34 -3 29 6 -6 8 4
10 36 5 33 -4 40 -3 28 6 -12 9 -5 10 30 5 34 -5 41 -3 30 5 -11 8 -6 9 24 4
29 -5 37 -4 32 5 -6 9 0 10 20 5 19 -5 25 -4 20 5 -6 9 0 10 20 5 20 -5 25 -4
19 6 -5 9 -2 10 15 5 15 -5 20 -4 16 4 -4 6 -2 9 6 6 18 -6 140 39 131 49 -4
4 -1 4 8 1 18 -7 226 94 329 160 98 63 216 155 213 166 -2 5 1 8 5 6 4 -1 32
19 62 46 30 26 50 47 44 47 -6 0 -21 -11 -34 -25 -13 -14 -28 -25 -34 -25 -5
0 3 14 20 31 19 21 9 16 -31 -16 -33 -27 -59 -53 -57 -58 1 -4 -1 -6 -6 -3 -5
3 -25 -9 -44 -27 -19 -18 -39 -34 -44 -35 -36 -14 -132 -80 -126 -87 4 -4 2
-5 -4 -2 -15 8 -136 -57 -127 -68 5 -4 3 -5 -4 -2 -13 8 -133 -41 -133 -55 0
-5 -4 -7 -9 -4 -11 7 -101 -23 -101 -35 0 -4 -7 -5 -17 -2 -12 5 -14 3 -8 -7
6 -10 4 -12 -9 -7 -22 9 -97 -13 -90 -25 3 -5 -7 -6 -23 -3 -22 5 -25 4 -13
-5 12 -9 7 -10 -20 -5 -26 5 -31 4 -20 -5 11 -8 4 -9 -30 -4 -34 4 -41 3 -30
-6 12 -8 6 -9 -25 -5 -30 5 -36 4 -25 -4 11 -9 1 -10 -40 -7 -43 4 -48 3 -25
-4 22 -6 8 -8 -50 -5 -54 3 -70 1 -50 -4 19 -6 -25 -9 -125 -9 -103 1 -143 3
-120 9 24 5 7 7 -50 4 -60 -3 -81 -2 -70 6 11 7 1 8 -35 4 -38 -4 -45 -3 -30
5 15 8 8 9 -30 5 -37 -3 -45 -2 -30 5 15 8 11 9 -20 5 -27 -4 -35 -3 -26 4 11
7 2 11 -32 16 -26 4 -47 11 -47 16 0 5 -3 8 -7 7 -13 -4 -153 35 -153 42 0 4
-7 7 -15 7 -8 0 -36 10 -62 23 -27 12 -57 26 -68 29 -39 14 -140 65 -158 80
-10 8 -24 16 -31 17 -15 2 -95 51 -114 71 -7 7 -16 13 -20 13 -4 0 -19 10 -33
23 -85 72 -124 102 -131 100 -4 -2 -8 4 -8 12 0 8 -3 14 -8 12 -4 -1 -19 9
-32 22 -14 13 -19 20 -11 16 9 -5 12 -4 7 3 -4 7 -14 12 -22 12 -8 0 -14 7
-14 17 0 9 -2 14 -5 11 -7 -7 -75 58 -75 71 0 6 -5 13 -12 17 -7 5 -9 2 -4 -7
14 -26 -82 92 -109 135 -11 17 -25 37 -33 45 -7 7 -22 32 -34 55 -11 22 -34
60 -49 83 -16 23 -33 52 -38 65 -5 13 -20 48 -34 78 -196 427 -248 882 -151
1305 99 428 296 770 599 1042 82 73 213 173 228 173 4 0 5 4 2 10 -4 6 1 7 11
3 10 -4 15 -2 11 4 -3 5 3 9 15 8 12 -1 23 -6 24 -11 1 -5 7 -35 14 -67 6 -31
15 -55 20 -52 4 3 6 -5 2 -17 -3 -14 -1 -19 6 -14 8 5 10 2 6 -8 -3 -9 -1 -16
6 -16 6 0 8 -4 5 -10 -3 -5 -1 -10 5 -10 6 0 9 -4 5 -9 -3 -6 3 -24 14 -42 11
-18 17 -37 14 -42 -4 -6 1 -8 11 -4 10 4 15 3 11 -3 -3 -5 5 -21 18 -34 14
-14 23 -27 21 -29 -3 -2 2 -9 9 -16 12 -9 1 -24 -58 -84 -80 -80 -130 -150
-199 -279 -50 -92 -130 -313 -122 -335 3 -7 2 -13 -2 -13 -19 0 -35 -128 -39
-305 -4 -166 -2 -203 17 -294 43 -212 110 -378 218 -541 58 -87 189 -233 202
-225 4 2 15 -4 25 -15 10 -11 14 -20 9 -20 -5 0 22 -22 60 -50 37 -27 72 -47
77 -44 5 3 9 1 9 -4 0 -19 175 -117 190 -107 6 3 10 1 10 -5 0 -7 7 -9 16 -6
9 4 13 2 8 -5 -4 -8 1 -9 16 -4 15 5 20 4 16 -3 -8 -14 88 -44 111 -35 12 5
14 3 8 -7 -6 -10 -2 -11 19 -6 20 5 26 4 20 -5 -5 -9 1 -10 20 -5 20 5 26 4
20 -5 -5 -9 -1 -10 14 -7 12 4 25 2 28 -4 4 -5 28 -7 58 -4 28 3 41 2 28 -2
-13 -4 65 -7 172 -7 107 0 188 3 178 7 -9 3 7 4 36 1 35 -4 52 -2 52 5 0 6 6
9 14 6 32 -12 262 63 401 131 223 109 374 229 528 420 45 55 86 103 92 107 5
4 6 8 1 8 -5 0 -2 8 7 18 8 9 39 63 67 120 187 374 205 748 76 1627 -18 121
-33 234 -40 295 -5 44 -4 46 40 80 57 44 79 62 129 108 22 20 44 35 50 34 5
-2 7 -1 3 3 -4 4 26 42 66 84 41 42 87 92 102 111 16 19 35 41 42 49 73 76
181 259 253 426 38 89 58 259 40 346 -11 50 -59 144 -69 135 -2 -3 -20 7 -40
20 -25 17 -44 23 -62 19 -19 -4 -22 -3 -10 5 11 8 0 9 -40 6 -40 -4 -47 -3
-25 3 26 7 22 9 -25 9 -41 0 -50 -2 -35 -9 14 -6 8 -7 -21 -3 -30 4 -46 1 -56
-10 -9 -8 -18 -13 -21 -10 -7 7 -67 -24 -67 -34 0 -21 -42 -7 -68 22 -149 170
-506 286 -880 286 -68 0 -121 -4 -118 -8z m356 -52 c230 -28 461 -119 575
-227 55 -51 119 -150 135 -206 20 -72 9 -208 -22 -284 -15 -34 -31 -68 -37
-75 -6 -7 -24 -29 -40 -49 -17 -20 -27 -39 -23 -43 4 -4 2 -6 -3 -4 -6 1 -40
-19 -76 -45 -37 -26 -72 -47 -79 -47 -9 0 -10 18 -5 73 11 114 32 206 71 301
43 109 55 127 118 195 28 30 45 50 38 46 -8 -4 -13 -2 -11 6 3 28 -1 49 -12
49 -5 0 -8 -4 -5 -9 3 -5 -1 -12 -10 -15 -9 -3 -12 -2 -8 5 3 6 -3 5 -15 -3
-12 -7 -21 -16 -21 -21 0 -4 4 -5 10 -2 6 3 7 -1 3 -10 -4 -12 -8 -13 -13 -5
-5 8 -22 -5 -49 -40 -23 -28 -38 -57 -34 -62 4 -7 1 -8 -7 -3 -10 6 -12 4 -7
-7 3 -9 -1 -24 -9 -35 -14 -17 -14 -16 -4 7 11 24 10 24 -5 5 -8 -11 -13 -25
-10 -33 2 -7 1 -11 -4 -8 -12 8 -65 -120 -56 -135 5 -7 4 -10 -2 -6 -13 8 -27
-39 -17 -55 5 -7 2 -8 -6 -3 -10 6 -11 1 -6 -21 4 -17 3 -24 -2 -16 -11 16
-45 -128 -36 -153 5 -13 4 -16 -4 -11 -8 5 -12 -3 -12 -27 0 -34 -1 -34 -52
-41 -29 -3 -152 -6 -273 -6 -121 0 -215 -4 -208 -8 6 -4 -57 -6 -140 -5 -101
1 -138 -2 -112 -7 27 -5 5 -7 -65 -4 -73 3 -99 1 -85 -6 14 -7 -2 -8 -55 -5
-55 3 -67 2 -45 -5 22 -6 10 -8 -45 -5 -54 3 -68 2 -50 -5 19 -7 8 -9 -40 -5
-47 3 -58 1 -40 -5 18 -7 10 -8 -30 -5 -41 4 -51 3 -40 -5 11 -8 4 -10 -30 -5
-33 5 -41 3 -30 -5 11 -8 4 -9 -29 -4 -34 6 -42 4 -36 -6 6 -9 0 -11 -26 -5
-26 5 -30 4 -19 -5 11 -8 5 -9 -25 -5 -31 5 -37 4 -25 -5 12 -9 7 -10 -20 -5
-27 5 -31 4 -20 -5 11 -8 5 -9 -25 -5 -26 4 -35 3 -27 -3 10 -7 1 -12 -33 -21
-25 -6 -50 -9 -55 -6 -12 8 -61 -5 -55 -15 2 -4 -7 -5 -22 -2 -19 4 -24 2 -18
-8 5 -9 4 -11 -4 -6 -16 10 -53 -3 -45 -16 4 -6 -1 -8 -16 -3 -17 5 -21 4 -15
-6 6 -9 3 -11 -10 -5 -24 9 -87 -12 -79 -26 4 -7 2 -8 -5 -4 -13 8 -53 -2 -47
-12 2 -4 -6 -8 -18 -8 -32 -2 -186 -75 -180 -86 3 -4 2 -7 -3 -6 -13 4 -73
-23 -73 -34 0 -5 -9 -4 -21 2 -19 11 -20 17 -14 73 24 210 129 448 280 633 93
115 289 294 365 334 14 7 27 16 30 20 10 16 109 72 225 129 178 87 204 98 326
135 61 18 108 36 103 38 -5 3 -3 3 5 1 22 -5 81 8 76 18 -3 4 12 5 32 3 30 -4
35 -3 23 6 -12 8 -6 9 24 4 29 -5 37 -4 31 5 -5 9 2 11 27 7 18 -3 58 -2 88 3
79 12 271 13 370 1z m922 -274 c-3 -5 2 -6 12 -3 10 4 15 3 11 -3 -3 -6 -1
-11 4 -11 6 -1 17 -2 24 -3 6 0 12 -5 13 -11 0 -5 8 -27 17 -47 10 -21 17 -45
17 -55 0 -12 3 -14 8 -6 4 6 7 -30 7 -82 0 -51 -3 -91 -6 -89 -7 4 -22 -85
-22 -134 0 -22 -3 -29 -10 -20 -6 9 -7 6 -4 -10 3 -14 1 -20 -6 -15 -6 4 -8
-2 -4 -16 3 -13 3 -20 -1 -17 -8 9 -43 -85 -35 -97 3 -6 1 -7 -4 -4 -12 7 -26
-20 -18 -33 3 -4 -2 -10 -10 -14 -8 -3 -15 -10 -15 -16 0 -15 -104 -180 -150
-238 -21 -28 -36 -53 -32 -58 4 -4 2 -4 -4 -1 -6 4 -33 -20 -60 -54 -52 -65
-185 -189 -203 -189 -6 0 -11 10 -11 23 1 12 -4 60 -9 107 -5 47 -10 142 -10
213 -1 116 1 127 17 127 32 0 185 109 229 164 80 100 121 229 109 346 -4 46
-31 148 -52 205 -3 7 8 17 23 24 56 23 187 36 175 17z m-628 -823 c3 -21 5
-56 5 -78 l-2 -40 -8 35 c-5 21 -7 -50 -5 -175 1 -115 0 -185 -4 -155 -6 46
-7 37 -8 -52 -1 -68 -6 -109 -14 -114 -6 -4 -8 -3 -5 3 3 5 0 10 -7 10 -9 0
-12 -7 -8 -16 3 -9 2 -13 -3 -9 -4 4 -21 -2 -36 -13 -16 -11 -29 -18 -29 -15
0 3 -9 -2 -20 -12 -11 -9 -76 -51 -145 -93 -68 -42 -121 -80 -117 -84 4 -5 2
-5 -5 -1 -7 4 -39 -7 -72 -24 -33 -16 -65 -30 -71 -30 -5 0 -45 36 -88 80 -43
44 -81 80 -84 80 -3 0 -42 22 -87 49 -131 79 -330 148 -395 137 -21 -4 -25 -3
-12 2 11 5 -55 8 -150 6 -226 -2 -222 -2 -204 -15 11 -7 6 -8 -19 -4 -24 5
-31 4 -26 -4 5 -8 -2 -10 -22 -6 -22 5 -25 4 -13 -5 12 -9 9 -10 -13 -5 -20 4
-27 2 -22 -6 5 -8 1 -9 -15 -4 -16 5 -20 4 -15 -5 5 -9 1 -10 -15 -5 -17 5
-21 4 -15 -5 5 -9 4 -11 -4 -6 -15 9 -53 -3 -46 -15 3 -5 -2 -6 -11 -2 -12 4
-15 3 -10 -5 5 -8 1 -10 -10 -5 -12 4 -15 3 -10 -5 5 -8 1 -10 -10 -5 -13 5
-15 3 -9 -7 5 -8 4 -11 -3 -6 -14 9 -63 -14 -55 -27 3 -6 1 -7 -5 -3 -13 8
-55 -17 -47 -27 3 -4 2 -5 -1 -2 -9 6 -41 -12 -104 -60 -48 -37 -58 -41 -73
-30 -9 7 -17 15 -17 17 0 3 -18 37 -40 74 -22 38 -49 98 -60 134 -23 77 -37
193 -21 170 6 -8 11 -10 11 -4 0 6 13 17 30 24 16 7 27 16 24 21 -3 5 3 6 12
2 13 -5 15 -3 9 8 -4 8 -5 11 -1 7 5 -4 34 4 65 18 31 14 61 26 66 27 6 1 12
5 15 8 3 3 38 18 78 34 39 15 72 32 72 37 0 5 4 7 9 4 13 -9 173 48 164 58 -4
5 -2 6 5 2 15 -9 113 14 107 24 -3 4 7 5 22 2 17 -3 24 -1 19 6 -4 6 2 8 14 5
12 -3 20 0 20 6 0 7 4 10 9 7 4 -3 36 0 70 6 35 7 56 15 49 19 -6 4 8 5 33 3
34 -4 41 -3 29 6 -11 8 -6 9 24 4 28 -5 37 -4 32 5 -6 8 4 10 36 6 32 -4 38
-3 23 4 -15 8 -5 9 35 6 39 -4 49 -3 35 4 -14 7 -3 8 35 4 41 -3 51 -2 40 6
-11 8 -2 9 34 4 33 -4 47 -3 43 4 -5 7 16 9 61 7 37 -2 57 0 44 4 -13 4 159 9
381 10 337 3 455 8 518 21 4 0 9 -16 13 -36z m-1306 -554 c-8 -6 4 -9 32 -9
70 0 205 -36 298 -80 46 -22 88 -37 93 -35 4 3 11 -1 16 -9 11 -19 108 -93 99
-75 -4 8 -1 5 8 -5 8 -10 13 -23 9 -29 -3 -6 -1 -7 4 -4 6 4 25 -8 41 -27 17
-19 33 -32 37 -28 4 4 6 2 5 -3 -1 -6 -1 -12 0 -15 8 -21 6 -41 -5 -50 -7 -6
-61 -30 -119 -54 -59 -23 -103 -46 -99 -50 5 -4 1 -7 -7 -6 -34 5 -61 0 -54
-11 4 -8 0 -9 -15 -4 -11 3 -21 2 -21 -3 0 -6 -9 -8 -20 -5 -11 3 -20 1 -20
-5 0 -6 -10 -8 -22 -5 -19 4 -20 3 -8 -7 12 -9 8 -10 -20 -5 -27 5 -32 4 -20
-5 12 -9 6 -10 -23 -5 -24 4 -37 3 -33 -3 4 -6 -10 -8 -36 -5 -33 3 -39 2 -28
-6 11 -9 2 -10 -40 -7 -36 4 -45 3 -25 -2 18 -5 -29 -8 -112 -7 -78 0 -135 3
-125 8 9 4 -8 5 -38 2 -40 -3 -50 -2 -35 6 16 7 12 8 -18 5 -25 -3 -35 -1 -31
6 5 8 -4 9 -27 6 -40 -6 -62 0 -52 14 4 7 -2 9 -15 6 -12 -4 -20 -2 -16 3 3 5
0 9 -7 9 -26 0 -128 53 -122 64 3 6 3 8 -2 4 -11 -10 -77 26 -119 65 -19 19
-37 32 -40 30 -2 -2 -13 8 -25 23 -16 20 -18 30 -10 40 6 8 16 11 22 7 6 -3 7
-1 3 5 -4 7 -2 12 4 12 6 0 8 5 5 10 -4 6 -3 9 2 8 11 -4 102 55 97 63 -2 4 2
6 9 6 6 -1 55 20 107 45 52 25 114 53 138 60 23 8 39 18 35 23 -5 4 -3 5 3 2
6 -4 40 0 75 7 35 7 57 15 49 18 -8 3 9 3 38 0 28 -2 52 0 52 5 0 5 32 9 71 9
42 1 65 -2 57 -7z m1280 -278 c-2 -109 -6 -194 -10 -187 -4 6 -8 -8 -8 -30 0
-58 -36 -328 -61 -454 -29 -150 -44 -206 -100 -373 -27 -82 -46 -154 -42 -160
3 -5 1 -7 -5 -3 -6 3 -14 -4 -18 -16 -14 -47 -124 -266 -163 -326 -23 -35 -38
-69 -35 -75 4 -7 4 -9 -1 -5 -8 8 -107 -117 -102 -130 1 -4 -1 -7 -5 -7 -14 0
-58 -50 -54 -61 3 -7 -3 -18 -12 -26 -16 -12 -16 -11 -2 7 14 20 14 20 -7 1
-13 -10 -20 -24 -16 -30 3 -6 3 -8 -2 -4 -4 4 -36 -19 -70 -51 -103 -95 -269
-214 -301 -214 -8 0 -14 -4 -14 -7 0 -4 -13 -13 -30 -20 -16 -7 -27 -16 -24
-21 3 -5 -1 -7 -8 -4 -7 2 -49 -9 -93 -25 -44 -16 -71 -29 -60 -30 39 -1 -28
-26 -95 -36 -79 -11 -234 -8 -275 5 -17 5 -22 10 -12 10 10 1 16 5 13 9 -5 8
-28 11 -113 16 -11 0 -19 4 -17 7 6 10 -73 32 -86 24 -8 -5 -11 -4 -6 3 10 17
-41 47 -87 51 -5 1 -5 6 -1 13 4 6 3 8 -3 5 -11 -7 -123 64 -170 107 -15 14
-31 26 -35 26 -5 0 -8 8 -8 17 0 9 -3 13 -7 10 -9 -9 -44 23 -37 35 3 4 1 7
-5 6 -5 -2 -28 22 -51 52 -22 30 -44 60 -50 67 -42 51 -100 160 -163 303 -25
57 -66 238 -78 345 -17 152 8 381 57 516 8 24 17 51 19 59 28 120 163 350 275
469 l60 64 28 -24 c47 -43 102 -80 110 -75 5 3 16 -4 26 -16 47 -54 307 -143
390 -133 23 3 33 2 24 -2 -10 -5 63 -8 161 -8 99 0 178 2 176 5 -2 3 13 4 33
2 28 -2 33 -1 22 7 -11 8 -4 9 24 4 31 -5 37 -3 31 7 -6 10 -4 12 8 7 21 -8
168 24 161 35 -3 4 1 5 9 2 15 -5 209 66 287 106 36 18 45 20 56 8 22 -22 83
-179 90 -231 4 -27 10 -44 13 -39 3 6 6 -34 6 -88 0 -54 -4 -93 -8 -87 -5 7
-7 -7 -5 -30 2 -24 0 -43 -5 -43 -5 0 -6 -15 -2 -32 4 -22 3 -29 -3 -19 -7 10
-12 5 -17 -20 -4 -19 -20 -60 -36 -92 -16 -32 -26 -63 -23 -69 4 -7 2 -8 -4
-4 -13 8 -45 -47 -34 -59 4 -5 2 -5 -4 -2 -11 7 -44 -33 -48 -57 -3 -19 -17
-37 -26 -31 -12 7 -61 -35 -54 -47 4 -6 3 -8 -3 -5 -12 8 -65 -27 -56 -37 5
-4 4 -7 -2 -6 -22 5 -36 -1 -29 -12 4 -7 3 -8 -4 -4 -6 4 -28 -3 -49 -14 -21
-12 -29 -18 -18 -15 13 4 16 3 10 -3 -5 -5 -21 -13 -35 -17 -20 -5 -22 -4 -10
5 13 10 12 11 -3 6 -10 -3 -24 -6 -30 -6 -7 0 -6 -4 3 -10 11 -7 2 -9 -30 -6
-25 2 -33 1 -17 -1 15 -2 27 -8 27 -14 0 -13 -57 -11 -66 2 -4 7 -24 9 -53 5
-34 -4 -41 -3 -26 4 15 8 10 9 -22 5 -47 -6 -76 2 -66 18 4 6 0 8 -11 4 -9 -4
-15 -3 -13 1 3 4 -1 13 -9 20 -8 7 -14 9 -14 5 0 -4 -20 14 -45 40 -41 44 -75
119 -75 166 0 31 26 87 55 117 48 51 105 74 179 74 75 0 96 14 96 65 0 23 -11
48 -37 82 -20 26 -40 50 -45 51 -4 2 -14 9 -21 15 -22 21 -48 24 -147 18 -47
-4 -99 -16 -137 -34 -13 -6 -25 -8 -28 -5 -11 11 82 41 150 49 l70 7 -70 -2
c-130 -3 -261 -86 -323 -204 -70 -134 -69 -303 4 -429 25 -44 29 -48 86 -100
43 -38 115 -76 128 -68 6 3 10 1 10 -5 0 -7 8 -9 20 -5 12 4 20 2 20 -5 0 -8
11 -9 33 -5 23 5 28 4 17 -4 -11 -8 11 -10 77 -9 51 1 90 5 87 9 -3 5 9 6 26
3 19 -4 30 -2 30 5 0 7 9 9 26 5 21 -5 25 -4 19 6 -5 9 -4 11 4 6 7 -4 20 -5
29 -1 9 4 28 9 41 11 52 7 245 116 308 174 12 11 26 20 30 20 21 2 140 166
184 255 65 133 84 224 75 370 -7 130 -19 178 -77 310 -24 56 -38 100 -32 102
28 10 323 179 395 228 46 30 86 55 91 55 4 0 7 -89 5 -199z"/>
<path d="M18410 6855 c-8 -2 -50 -7 -93 -10 -43 -4 -77 -8 -75 -10 2 -1 26 -5
53 -9 30 -4 45 -3 37 2 -35 24 367 31 408 7 l25 -14 -35 -2 c-38 -2 153 -20
237 -22 29 -1 47 -5 40 -9 -7 -5 -2 -8 15 -8 15 0 30 5 33 10 3 6 14 10 23 10
16 -1 16 -1 0 -14 -15 -11 -9 -14 45 -26 34 -7 74 -13 89 -14 14 0 24 -4 21
-8 -2 -5 4 -8 15 -8 30 0 246 -73 369 -125 64 -27 118 -44 125 -39 7 4 10 4 6
-1 -8 -8 241 -149 249 -141 7 7 -156 111 -235 150 -40 20 -78 34 -85 30 -7 -4
-9 -3 -4 1 9 10 -113 66 -131 60 -7 -3 -11 -1 -8 3 5 9 -214 84 -313 106 -35
8 -78 13 -95 10 -24 -3 -26 -2 -11 4 31 14 -95 34 -137 21 -44 -12 -49 -10
-14 5 28 13 27 14 -37 20 -37 4 -71 5 -76 2 -5 -4 -11 -1 -13 5 -4 11 -393 24
-428 14z"/>
<path d="M18490 6830 c20 -13 187 -13 195 0 4 6 -32 10 -102 10 -73 0 -103 -3
-93 -10z"/>
<path d="M18200 6820 c12 -9 6 -10 -25 -6 -30 4 -35 3 -20 -4 15 -8 7 -9 -30
-5 -32 3 -43 2 -30 -4 14 -6 0 -8 -45 -9 -36 0 -85 -7 -110 -16 -42 -14 -42
-15 -10 -11 l35 5 -35 -14 c-19 -8 -44 -15 -55 -15 l-20 0 20 9 c23 10 5 13
-19 4 -9 -3 -13 -10 -10 -15 3 -6 -6 -7 -23 -4 -22 5 -25 4 -13 -5 12 -9 9
-10 -13 -5 -21 4 -27 3 -21 -6 4 -8 3 -9 -5 -5 -14 9 -143 -32 -136 -44 6 -9
-25 -23 -33 -15 -3 3 1 5 8 5 7 0 11 2 8 5 -9 10 -38 -7 -31 -18 4 -6 1 -7 -6
-3 -16 10 -73 -13 -64 -27 3 -5 1 -7 -5 -4 -15 10 -43 -3 -35 -16 3 -5 1 -7
-5 -3 -12 7 -63 -14 -57 -24 7 -12 -39 -28 -69 -25 -15 2 -69 22 -120 44 -52
23 -101 41 -110 41 -9 0 -16 5 -16 11 0 5 -4 8 -9 4 -5 -3 -27 1 -48 10 -67
26 -194 57 -209 51 -8 -3 -13 -2 -10 3 7 11 -60 24 -76 15 -6 -4 -8 -3 -5 4 8
12 -67 27 -84 16 -8 -5 -9 -3 -4 6 6 10 -1 12 -33 7 -28 -3 -40 -2 -35 6 4 7
-11 8 -48 4 -39 -5 -50 -4 -39 4 11 7 -8 9 -65 5 -44 -2 -64 -1 -45 3 44 8
-152 22 -280 19 -83 -2 -82 -2 35 -9 95 -5 82 -6 -61 -3 -99 2 -212 0 -250 -3
-66 -7 -67 -8 -29 -15 26 -4 15 -5 -30 -2 -45 3 -65 1 -56 -5 20 -13 -47 -25
-91 -16 -25 5 -29 4 -18 -5 11 -8 6 -9 -25 -5 -31 4 -35 3 -20 -5 15 -7 9 -9
-25 -4 -35 4 -42 3 -30 -6 12 -9 9 -10 -13 -6 -28 7 -55 1 -180 -35 -43 -13
-65 -24 -61 -31 5 -7 0 -9 -15 -5 -26 6 -83 -11 -76 -23 3 -4 -2 -11 -11 -14
-24 -9 -31 -7 -14 4 8 5 11 10 5 10 -13 0 -43 -20 -30 -20 13 0 -17 -20 -30
-20 -5 0 -3 5 5 10 23 15 5 12 -40 -6 -23 -9 -38 -19 -35 -22 6 -7 -51 -42
-68 -42 -6 1 4 9 23 20 19 11 32 19 27 20 -11 0 -207 -99 -207 -105 0 -3 23 6
50 20 28 14 50 22 50 18 -1 -5 -28 -20 -61 -35 -33 -15 -57 -23 -53 -17 3 6
-8 3 -25 -5 -17 -9 -35 -24 -40 -34 -13 -25 -87 -75 -99 -68 -5 3 -16 -2 -23
-12 -13 -16 -12 -16 6 -3 11 7 3 -3 -18 -22 -22 -20 -44 -34 -51 -31 -7 3 -21
-5 -32 -17 -12 -14 -13 -19 -4 -14 8 4 -1 -8 -19 -28 -19 -21 -37 -37 -40 -37
-3 0 8 14 24 30 16 17 24 30 19 30 -15 0 -126 -118 -120 -128 3 -4 -9 -24 -26
-43 -17 -19 -27 -27 -23 -19 5 8 17 25 28 38 11 12 16 22 11 22 -12 -1 -90
-100 -87 -111 2 -5 0 -8 -5 -7 -4 0 -15 -2 -25 -7 -10 -4 -42 -3 -70 4 -29 6
-63 8 -77 5 -20 -5 -22 -4 -10 6 12 9 9 11 -17 8 -18 -3 -30 -1 -27 3 6 10
-92 22 -107 13 -7 -4 -9 -3 -6 3 11 17 -46 23 -258 27 -110 1 -128 1 -40 -1
107 -2 155 -7 145 -13 -10 -6 -11 -10 -2 -10 24 0 12 -19 -15 -23 -16 -3 1 -3
37 -1 48 3 61 1 50 -7 -11 -8 -3 -9 29 -5 32 3 41 2 30 -6 -10 -7 -3 -8 24 -4
25 3 35 1 31 -6 -4 -7 5 -8 27 -3 27 5 31 4 19 -5 -12 -9 -8 -10 18 -6 21 4
31 2 27 -5 -4 -6 3 -8 22 -4 23 5 25 4 13 -5 -12 -10 -11 -11 8 -7 12 3 22 1
22 -5 0 -6 7 -8 15 -4 8 3 15 1 15 -4 0 -5 9 -11 19 -15 20 -6 24 -47 6 -63
-4 -4 -5 0 -1 8 4 8 0 6 -8 -5 -9 -11 -14 -25 -11 -33 2 -7 0 -10 -5 -7 -6 3
-14 -5 -19 -18 -6 -14 -15 -28 -20 -32 -6 -3 -11 -13 -11 -21 0 -9 5 -12 12
-8 7 4 8 3 4 -5 -4 -6 -11 -9 -16 -6 -11 7 -22 -24 -13 -37 3 -6 1 -8 -4 -5
-14 9 -37 -48 -27 -64 4 -7 3 -10 -4 -5 -13 8 -24 -25 -16 -50 4 -13 3 -15 -3
-6 -13 18 -67 -150 -67 -206 1 -28 -2 -39 -8 -30 -5 8 -7 -13 -4 -52 3 -36 2
-52 -2 -36 -4 17 -7 -70 -7 -193 0 -122 3 -212 6 -199 3 15 9 -4 17 -55 13
-85 70 -264 109 -341 13 -26 19 -45 13 -41 -9 6 -9 2 -1 -14 7 -11 14 -21 17
-21 3 0 2 6 -1 13 -4 6 3 1 14 -13 11 -14 19 -30 16 -37 -2 -7 1 -15 7 -19 7
-5 8 -2 3 7 -8 12 -6 12 9 0 9 -8 15 -20 12 -27 -2 -6 18 -36 45 -65 28 -30
48 -48 44 -41 -11 21 5 13 38 -20 18 -17 23 -25 11 -17 -11 8 -4 -1 15 -18 20
-18 42 -31 49 -28 7 3 11 1 8 -3 -7 -12 63 -44 76 -36 6 4 8 2 4 -4 -8 -13 25
-24 50 -16 15 4 16 4 5 -4 -10 -7 6 -14 63 -27 42 -9 83 -14 92 -11 8 3 12 2
9 -4 -4 -6 38 -10 117 -10 172 0 327 31 457 92 34 16 64 28 66 26 1 -2 5 -24
7 -50 4 -31 2 -45 -5 -41 -6 4 -7 -11 -3 -43 4 -30 3 -44 -2 -36 -11 17 -24
-63 -16 -99 5 -20 4 -21 -6 -9 -9 12 -11 10 -7 -12 2 -15 0 -25 -4 -22 -5 3
-9 -2 -9 -10 0 -22 -57 -198 -75 -233 -8 -15 -15 -31 -15 -35 0 -10 -59 -130
-100 -203 -57 -102 -178 -277 -247 -355 -61 -70 -71 -85 -66 -93 3 -6 2 -7 -4
-4 -5 4 -23 -7 -39 -24 -16 -17 -57 -54 -91 -81 -34 -28 -60 -55 -56 -61 3 -6
1 -7 -4 -4 -15 9 -97 -54 -88 -67 3 -3 2 -4 -1 -1 -11 7 -45 -15 -39 -26 4 -5
3 -9 -2 -8 -22 4 -34 -2 -27 -13 4 -7 4 -10 -1 -6 -11 10 -67 -21 -60 -32 4
-6 -1 -7 -11 -3 -11 4 -15 3 -10 -5 3 -6 1 -14 -5 -18 -8 -5 -9 -3 -4 6 4 7 4
11 -1 8 -81 -37 -179 -90 -177 -96 1 -8 -18 -22 -32 -22 -5 0 -3 5 5 11 12 8
10 9 -7 4 -49 -13 -176 -65 -148 -60 25 4 27 3 12 -6 -10 -6 -26 -8 -35 -4
-19 7 -28 4 -24 -8 1 -4 -10 -5 -25 -1 -23 4 -25 3 -13 -6 13 -10 12 -11 -3
-6 -10 3 -57 -1 -104 -9 -47 -8 -118 -15 -157 -16 -49 0 -65 -3 -51 -9 13 -6
15 -9 5 -9 -37 -3 18 -21 65 -22 l50 -2 -40 -7 c-22 -4 -31 -8 -19 -9 33 -2
114 11 110 18 -2 3 26 7 63 8 93 2 413 106 394 128 -5 4 -3 5 4 1 14 -8 124
44 117 56 -3 4 3 5 12 1 13 -5 15 -3 9 7 -5 8 -4 11 3 6 18 -11 167 85 154 99
-4 5 -2 5 4 2 14 -8 172 112 273 208 160 152 321 373 435 598 102 202 162 395
196 635 19 135 23 149 47 167 124 94 166 139 203 219 55 117 87 223 73 237 -9
9 -10 6 -6 -12 6 -21 4 -22 -9 -11 -14 11 -19 9 -35 -13 -71 -100 -119 -159
-174 -215 l-64 -65 -3 45 c-11 212 -28 317 -73 475 -11 39 -22 75 -23 80 -1 6
-10 28 -20 50 -10 22 -24 56 -31 76 -7 20 -32 69 -54 109 -23 39 -41 76 -41
81 0 5 -4 9 -9 9 -5 0 -13 9 -16 20 -4 11 -17 32 -31 45 -13 13 -24 28 -24 32
0 4 -18 27 -40 51 -22 24 -40 47 -40 53 0 6 -4 7 -10 4 -5 -3 -10 -2 -10 4 0
9 -136 148 -157 161 -4 3 -7 8 -6 13 2 4 -3 7 -10 7 -7 0 -27 13 -45 29 -17
17 -32 28 -32 25 0 -5 -17 8 -51 39 -10 9 -21 17 -24 17 -4 0 -72 43 -90 58
-11 8 -197 99 -252 123 -18 8 -33 18 -33 22 0 17 53 76 63 70 5 -3 8 -2 4 3
-9 16 171 187 293 278 135 102 351 214 538 279 67 24 120 46 117 49 -4 3 4 6
17 5 13 0 93 16 178 36 85 20 194 42 242 49 48 6 83 15 77 18 -6 4 133 6 308
5 376 -2 498 -19 743 -102 198 -67 339 -136 337 -164 -1 -9 -4 -16 -8 -13 -4
2 -12 -4 -18 -13 -5 -10 -13 -17 -18 -16 -17 4 -113 -59 -107 -69 4 -7 2 -8
-4 -4 -13 8 -114 -62 -107 -74 3 -4 -3 -7 -13 -6 -10 0 -16 -5 -14 -14 2 -8 0
-12 -3 -8 -12 11 -46 -11 -39 -25 4 -7 4 -9 -1 -5 -11 11 -67 -31 -59 -44 4
-6 3 -8 -3 -5 -14 9 -95 -62 -87 -75 4 -6 2 -8 -3 -5 -6 4 -19 -3 -29 -16 -19
-21 -19 -21 1 -7 18 14 19 14 6 -2 -7 -10 -18 -15 -23 -12 -13 8 -139 -121
-136 -138 2 -7 -2 -12 -9 -11 -6 1 -32 -22 -57 -51 -45 -53 -57 -74 -34 -60 7
4 8 3 4 -5 -4 -6 -11 -9 -15 -6 -12 7 -42 -29 -165 -198 -15 -20 -24 -42 -20
-49 4 -7 3 -8 -4 -4 -6 4 -16 -4 -23 -16 -7 -13 -15 -25 -18 -28 -21 -16 -121
-202 -115 -213 4 -6 4 -9 -1 -5 -11 11 -38 -29 -29 -44 4 -6 3 -8 -4 -4 -13 8
-166 -299 -158 -319 3 -8 0 -14 -6 -12 -7 1 -14 -6 -16 -17 -3 -13 0 -16 9
-11 8 5 10 4 5 -4 -4 -6 -11 -9 -15 -7 -8 5 -19 -17 -71 -154 -18 -47 -38 -94
-44 -105 -6 -11 -11 -22 -11 -25 -1 -6 -35 -110 -42 -130 -3 -8 -8 -23 -9 -32
-2 -9 -22 -65 -44 -124 -23 -59 -39 -113 -36 -121 3 -8 2 -12 -3 -9 -5 3 -15
-13 -24 -37 -18 -50 -118 -355 -157 -482 -85 -271 -199 -555 -301 -754 -38
-75 -75 -145 -82 -156 -38 -61 -103 -162 -114 -175 -177 -223 -291 -329 -513
-477 -94 -63 -243 -142 -337 -178 -40 -15 -70 -32 -67 -36 3 -5 -3 -6 -12 -2
-12 4 -15 3 -10 -5 4 -8 2 -10 -7 -6 -22 8 -158 -36 -150 -49 3 -6 1 -7 -6 -3
-6 4 -25 4 -43 1 -23 -6 -27 -9 -17 -17 9 -6 3 -7 -21 -3 -26 5 -31 4 -20 -4
11 -8 6 -9 -19 -4 -20 3 -32 2 -29 -3 4 -5 -10 -9 -30 -10 -21 0 -88 -8 -150
-17 -62 -9 -136 -18 -165 -18 -51 -2 -51 -2 -12 -8 22 -3 -39 -6 -135 -6 -100
0 -158 3 -135 7 25 4 8 5 -45 3 -59 -3 -79 -1 -65 6 15 7 8 8 -29 5 -33 -3
-44 -1 -35 6 10 7 2 8 -23 4 -23 -3 -38 -1 -38 6 0 6 -14 8 -37 4 -29 -5 -35
-4 -23 4 12 9 9 10 -12 6 -17 -4 -28 -2 -28 4 0 7 -8 9 -20 5 -25 -8 -62 3
-54 16 3 6 -5 7 -23 4 -19 -5 -24 -4 -14 3 10 8 6 11 -17 17 -18 3 -37 3 -43
-1 -8 -5 -9 -3 -4 6 6 9 2 10 -15 5 -16 -5 -20 -4 -15 5 5 9 1 10 -15 5 -14
-5 -20 -3 -16 3 7 12 -52 34 -68 25 -6 -3 -8 -3 -4 2 4 4 -24 23 -63 41 -72
35 -191 104 -269 158 -25 17 -47 31 -49 31 -2 0 -55 49 -118 110 -126 120
-221 233 -284 337 -23 38 -46 68 -51 68 -5 0 -6 5 -3 10 3 5 1 10 -5 10 -6 0
-9 4 -6 9 3 5 -1 12 -10 15 -8 3 -12 10 -9 16 7 11 -25 70 -38 70 -4 0 -6 4
-3 9 9 14 -5 42 -17 34 -5 -3 -7 -1 -4 4 6 10 -50 181 -62 193 -3 3 -6 11 -7
18 -1 6 -2 21 -2 33 -1 12 -6 17 -14 13 -7 -4 -8 -3 -4 4 4 6 -2 46 -13 89
-50 195 -67 483 -41 692 30 236 108 539 181 701 68 149 123 260 131 260 4 0 8
7 8 15 0 19 163 262 235 350 99 121 249 271 337 337 84 63 113 91 110 102 -2
6 -1 8 3 4 4 -4 46 19 94 51 47 32 106 69 130 81 40 20 43 24 28 35 -9 6 -13
15 -9 20 4 4 -8 0 -25 -9 -18 -9 -33 -19 -33 -22 0 -2 8 0 18 5 11 6 24 6 33
0 12 -7 12 -9 -1 -10 -8 -1 -19 -1 -23 0 -4 1 -17 -4 -29 -10 -16 -8 -19 -8
-13 1 6 9 2 9 -14 1 -11 -7 -21 -14 -21 -17 0 -3 5 -2 10 1 6 3 10 2 10 -3 0
-5 -9 -12 -20 -15 -13 -3 -18 -1 -14 6 3 7 -4 1 -16 -13 -12 -14 -19 -19 -15
-12 13 24 -32 -5 -77 -50 -23 -23 -38 -35 -34 -27 4 8 -2 3 -14 -11 -12 -14
-18 -19 -14 -11 10 20 -6 9 -94 -62 -40 -32 -70 -63 -66 -68 3 -5 0 -8 -8 -7
-7 2 -12 -4 -10 -12 2 -8 0 -12 -4 -8 -12 12 -57 -27 -145 -124 -46 -51 -75
-86 -63 -78 11 8 -1 -4 -26 -28 -25 -24 -38 -40 -30 -37 8 4 2 -5 -15 -20 -16
-14 -24 -23 -16 -19 9 5 12 3 7 -4 -4 -7 -13 -12 -21 -12 -7 0 -16 -7 -19 -16
-5 -12 -3 -14 7 -8 7 5 3 0 -9 -11 -13 -11 -43 -50 -67 -86 -62 -93 -62 -93
-48 -84 10 6 11 3 2 -14 -7 -11 -14 -21 -17 -21 -3 0 -2 5 1 10 3 6 4 10 1 10
-3 0 -10 -10 -17 -21 -8 -16 -8 -20 1 -14 9 6 9 2 1 -14 -7 -11 -14 -21 -17
-21 -3 0 -2 4 1 10 3 6 4 10 1 10 -3 0 -15 -18 -26 -40 -11 -22 -18 -40 -15
-40 3 0 -4 -9 -16 -21 -11 -11 -18 -27 -15 -35 3 -8 1 -14 -5 -14 -6 0 -7 -4
-4 -10 3 -5 1 -10 -4 -10 -14 0 -43 -69 -34 -83 4 -6 1 -7 -7 -2 -10 6 -12 4
-7 -8 3 -10 2 -17 -4 -17 -6 0 -7 -4 -4 -10 3 -5 2 -10 -3 -10 -8 0 -33 -63
-34 -85 0 -5 -4 -13 -10 -16 -5 -4 -11 -18 -11 -33 -1 -14 -6 -26 -11 -26 -4
0 -6 -9 -3 -20 3 -12 1 -18 -5 -14 -6 4 -8 -2 -3 -16 5 -17 4 -20 -5 -15 -10
6 -11 1 -6 -19 5 -20 3 -26 -5 -21 -8 5 -9 1 -4 -15 5 -17 4 -20 -5 -15 -10 6
-11 -1 -6 -31 5 -30 4 -36 -4 -24 -10 12 -11 11 -7 -7 3 -13 0 -23 -5 -23 -7
0 -8 -14 -5 -35 3 -21 2 -33 -4 -30 -9 6 -12 -11 -14 -80 -1 -16 -6 -30 -13
-30 -6 0 -18 -9 -27 -20 -9 -11 -13 -13 -9 -5 9 19 -38 -20 -101 -85 -27 -28
-41 -39 -30 -26 11 14 -2 5 -30 -19 -27 -25 -48 -49 -47 -55 2 -5 0 -7 -4 -3
-9 10 -35 -12 -28 -23 3 -5 2 -8 -3 -7 -5 2 -22 -11 -38 -27 -18 -19 -22 -21
-10 -6 14 18 9 16 -20 -9 -23 -19 -38 -37 -35 -40 3 -3 -26 -34 -65 -70 l-70
-65 55 61 c38 42 32 37 -20 -15 -41 -42 -78 -75 -81 -74 -3 1 -32 -25 -65 -58
-32 -32 -55 -59 -50 -59 4 0 1 -7 -8 -15 -18 -18 -30 -20 -20 -2 4 6 -23 -17
-59 -52 -37 -36 -64 -67 -62 -70 7 -6 -66 -81 -79 -81 -5 0 3 15 20 33 16 17
5 10 -23 -17 -29 -27 -50 -52 -48 -56 5 -7 -29 -41 -55 -55 -8 -5 -4 5 10 21
l25 29 -32 -29 c-18 -16 -30 -34 -26 -39 3 -6 1 -7 -4 -4 -13 8 -46 -27 -36
-38 5 -4 0 -5 -9 -2 -9 3 -22 -1 -30 -11 -11 -13 -11 -15 2 -7 9 5 12 5 7 -1
-5 -5 -12 -9 -16 -9 -15 0 -130 -109 -124 -118 3 -6 2 -7 -4 -4 -12 7 -66 -46
-57 -56 4 -3 -3 -5 -14 -2 -15 3 -19 0 -15 -11 3 -8 1 -14 -4 -12 -15 5 -143
-114 -136 -126 3 -6 3 -8 -2 -4 -7 7 -96 -58 -123 -91 -6 -8 -18 -16 -26 -17
-8 -1 -31 -15 -52 -30 l-37 -28 8 24 c4 14 17 43 29 65 60 107 192 337 226
390 45 73 126 214 157 275 12 25 36 68 53 95 17 28 38 66 46 85 9 19 19 37 23
40 3 3 15 23 27 45 11 22 44 83 74 135 29 52 67 122 85 155 97 184 129 242
145 265 10 14 26 43 37 65 46 93 145 261 168 285 29 30 32 42 8 33 -11 -5 -14
-3 -8 6 6 10 3 11 -12 3 -18 -10 -47 -40 -115 -121 -23 -27 -32 -31 -66 -29
-22 2 -38 6 -37 9 2 3 -19 17 -48 31 -53 25 -70 26 -189 5 -10 -2 -29 -14 -43
-27 -36 -34 -127 -189 -119 -203 4 -7 4 -9 -1 -5 -11 10 -87 -121 -78 -135 4
-6 1 -7 -7 -2 -10 6 -12 4 -6 -11 4 -10 4 -15 0 -11 -8 7 -25 -21 -105 -169
-26 -50 -45 -95 -41 -99 4 -5 2 -5 -4 -2 -6 3 -27 -24 -48 -64 -21 -38 -34
-69 -30 -69 4 0 1 -6 -8 -12 -16 -14 -218 -364 -218 -379 0 -5 -3 -9 -8 -9 -4
0 -14 -15 -21 -32 -8 -18 -27 -55 -43 -81 -15 -26 -28 -54 -28 -61 0 -6 -7
-21 -16 -32 -8 -10 -12 -12 -8 -4 5 8 -34 -23 -86 -70 -52 -47 -128 -107 -167
-134 -40 -27 -73 -54 -73 -58 0 -5 -4 -7 -9 -3 -5 3 -15 -1 -23 -8 -7 -8 -19
-12 -27 -9 -8 3 -11 0 -7 -6 4 -6 -2 -8 -14 -5 -11 3 -20 1 -20 -4 0 -6 -12
-9 -27 -6 -24 3 -25 2 -8 -7 26 -12 -75 -3 -123 12 -124 38 -88 240 108 623
95 185 316 595 379 704 21 37 56 98 76 136 77 140 158 271 187 298 30 29 30
47 0 47 -20 0 -55 -30 -107 -94 -45 -56 -60 -57 -151 -14 -80 37 -162 48 -186
25 -9 -9 -18 -14 -20 -12 -3 3 -23 -11 -45 -30 -47 -40 -97 -120 -87 -137 4
-6 3 -8 -3 -5 -8 5 -92 -142 -176 -304 -7 -15 -68 -77 -135 -139 -67 -62 -119
-117 -115 -123 3 -6 2 -7 -4 -4 -12 8 -109 -82 -105 -97 2 -6 0 -8 -3 -4 -11
11 -146 -113 -138 -126 3 -6 2 -8 -2 -3 -5 4 -45 -28 -89 -71 -106 -101 -417
-396 -453 -429 -15 -14 -62 -58 -104 -97 -189 -177 -301 -266 -336 -266 -19 0
3 53 59 143 26 43 48 80 48 83 0 2 22 41 49 86 26 46 104 180 171 298 68 118
129 222 135 230 7 8 32 53 57 100 25 47 69 127 97 179 28 52 51 98 51 103 0 4
5 8 10 8 6 0 10 4 10 8 0 7 28 59 180 337 89 163 155 275 181 307 18 23 25 39
18 43 -23 15 -60 -8 -113 -68 -48 -56 -60 -63 -94 -65 -26 -2 -46 3 -56 13 -9
9 -25 17 -35 18 -11 0 -18 4 -15 8 6 11 -34 22 -47 13 -7 -4 -9 -3 -6 3 4 7
-8 14 -29 17 -48 9 -114 -23 -157 -77 -40 -49 -115 -173 -173 -282 -15 -27
-54 -97 -87 -155 -33 -58 -73 -130 -90 -160 -16 -30 -36 -62 -43 -71 -8 -8
-14 -19 -14 -22 0 -7 -17 -37 -179 -326 -47 -84 -99 -177 -115 -205 -49 -88
-117 -163 -222 -246 -21 -18 -39 -37 -39 -42 0 -6 -8 -12 -17 -14 -24 -3 -69
-40 -60 -49 4 -3 2 -5 -3 -4 -15 4 -85 -33 -79 -43 3 -4 -3 -5 -12 -1 -11 4
-15 2 -11 -4 4 -6 1 -11 -6 -10 -32 1 -48 -4 -42 -13 4 -7 -3 -9 -22 -5 -16 4
-23 3 -16 -2 7 -5 -14 -8 -52 -8 -35 0 -61 3 -59 7 4 7 -35 23 -49 20 -4 -1
-6 1 -5 5 2 13 -14 43 -21 39 -3 -2 -3 32 0 77 10 109 72 280 168 460 107 201
128 240 191 352 37 66 85 154 107 196 56 104 66 121 82 142 8 9 11 17 7 17 -4
0 2 13 13 29 12 16 21 32 21 35 0 4 18 36 40 72 22 36 40 67 40 69 0 13 136
225 156 243 28 24 24 42 -8 42 -19 0 -53 -31 -136 -123 -18 -20 -40 -37 -50
-37 -15 0 -15 2 -2 11 11 8 8 9 -15 4 -16 -4 -27 -3 -23 1 11 10 -30 37 -44
28 -6 -4 -8 -3 -5 3 4 6 0 14 -9 17 -8 3 -12 2 -9 -4 3 -6 -1 -7 -9 -4 -9 3
-13 10 -10 15 3 5 2 9 -3 9 -4 0 -25 4 -45 9 -25 6 -36 5 -32 -1 4 -6 -1 -8
-14 -4 -24 8 -68 -12 -105 -47 -14 -12 -71 -99 -127 -192 -56 -94 -116 -193
-134 -220 -36 -58 -40 -65 -100 -165 -25 -42 -54 -85 -66 -97 -11 -12 -20 -25
-20 -27 0 -7 -200 -266 -244 -317 -17 -19 -49 -57 -71 -84 -158 -194 -427
-468 -525 -533 -114 -77 -207 -88 -240 -29 -13 24 -13 30 8 69 12 24 49 81 82
128 32 47 59 88 59 92 1 4 14 36 31 71 43 93 61 171 61 260 0 65 -4 85 -27
127 -14 27 -33 51 -42 55 -13 5 -13 3 -1 -11 9 -11 1 -9 -23 7 -21 13 -38 27
-38 32 0 4 33 22 73 41 40 18 102 51 138 74 36 23 69 42 73 42 14 0 144 107
208 171 114 115 188 253 190 357 2 70 -10 125 -24 116 -7 -4 -8 -2 -4 5 9 14
-36 76 -67 92 -16 8 -14 4 9 -17 16 -16 23 -24 15 -17 -27 20 -125 63 -146 64
l-20 0 20 8 c50 20 -119 -1 -190 -23 -81 -26 -230 -105 -296 -157 -20 -16 -39
-26 -43 -22 -3 3 -6 2 -6 -4 0 -5 -27 -32 -61 -58 -34 -26 -72 -58 -85 -71
-12 -13 -25 -24 -28 -24 -3 0 -25 -21 -48 -46 -23 -25 -44 -41 -46 -36 -2 6
29 62 68 126 67 109 78 121 188 210 64 51 162 124 217 161 55 37 129 91 165
119 36 29 99 79 140 111 41 33 80 58 85 57 6 -2 7 -1 3 3 -3 4 39 48 94 98
137 124 307 298 408 418 25 29 61 71 81 94 20 22 79 96 131 165 234 308 327
499 336 689 3 73 2 92 -8 86 -9 -5 -10 -2 -5 15 5 16 4 20 -5 15 -9 -5 -10 -2
-6 13 4 12 2 23 -5 28 -8 5 -9 3 -4 -6 5 -8 4 -11 -3 -6 -6 4 -9 12 -6 19 2 7
-6 22 -18 33 -22 19 -22 19 -8 0 15 -19 14 -19 -12 -2 -16 10 -28 22 -28 27 0
5 -7 5 -17 2 -9 -4 -14 -2 -11 3 4 5 -27 9 -72 9 -43 0 -76 -4 -73 -8 3 -4 -6
-7 -19 -6 -45 4 -69 -1 -62 -13 4 -7 3 -8 -4 -4 -14 8 -95 -32 -177 -87 -164
-111 -337 -277 -570 -547 -186 -215 -418 -514 -407 -524 4 -4 2 -6 -4 -4 -6 2
-47 -44 -90 -102 -43 -58 -87 -114 -96 -124 -18 -20 -22 -32 -18 -51 1 -5 -1
-7 -5 -3 -4 4 -13 2 -19 -5 -25 -27 -129 -182 -129 -194 0 -6 -4 -10 -7 -8 -9
6 -63 -74 -63 -92 0 -7 -3 -11 -5 -8 -7 7 -38 -36 -149 -205 -53 -80 -109
-164 -124 -188 -16 -24 -29 -45 -29 -48 0 -3 -12 -21 -26 -39 -14 -19 -47 -74
-73 -122 -26 -48 -69 -123 -95 -165 -27 -44 -44 -83 -40 -89 4 -7 3 -9 -3 -6
-13 8 -55 -71 -46 -86 3 -7 3 -9 -2 -5 -11 10 -47 -50 -39 -64 5 -7 2 -8 -6
-3 -10 6 -12 4 -7 -9 5 -11 3 -15 -5 -10 -8 5 -9 2 -5 -10 4 -9 3 -14 -2 -11
-9 5 -24 -24 -18 -35 1 -3 -8 -15 -21 -28 -13 -13 -21 -30 -18 -38 3 -8 2 -13
-2 -10 -12 7 -45 -53 -38 -69 3 -8 0 -14 -7 -12 -7 1 -11 -6 -11 -15 1 -10 -2
-16 -6 -13 -11 7 -22 -24 -13 -37 3 -6 1 -8 -4 -5 -13 8 -26 -20 -16 -35 4 -7
1 -8 -7 -3 -10 6 -12 4 -7 -9 4 -9 3 -15 -2 -12 -11 7 -173 -313 -165 -326 4
-6 3 -8 -3 -5 -12 8 -46 -61 -37 -75 4 -6 3 -8 -3 -5 -10 6 -126 -213 -126
-238 0 -8 -5 -11 -10 -8 -6 4 -8 0 -4 -10 4 -10 2 -16 -5 -14 -6 1 -13 -4 -16
-12 -3 -9 0 -11 8 -6 15 9 0 -19 -25 -50 -16 -19 -16 -18 -1 8 26 43 9 31 -20
-14 -14 -23 -24 -50 -21 -60 6 -21 -8 -26 -16 -6 -4 9 -6 9 -6 0 -2 -25 21
-23 53 4 91 78 94 79 181 86 50 5 66 4 55 -4 -11 -8 -2 -9 34 -6 30 3 43 1 35
-4 -9 -6 8 -9 46 -9 74 0 115 23 151 83 13 23 83 148 154 277 71 129 133 240
139 246 5 7 7 15 4 18 -4 3 -1 6 6 6 7 0 10 3 8 8 -3 4 15 39 39 77 24 39 55
91 69 118 l25 47 154 0 c85 0 162 3 172 7 13 5 15 3 9 -7 -6 -10 -3 -12 13 -8
14 4 20 2 15 -5 -4 -6 0 -8 10 -4 10 3 17 2 17 -4 0 -6 4 -8 9 -5 11 7 22 -17
31 -71 4 -27 3 -40 -3 -36 -7 4 -8 -1 -3 -13 4 -10 4 -15 0 -11 -6 6 -104
-134 -104 -149 0 -3 -8 -18 -18 -32 -26 -38 -80 -169 -92 -222 -12 -58 -13
-190 0 -190 5 0 7 -6 4 -14 -8 -21 13 -55 65 -104 29 -28 52 -42 63 -39 11 3
15 1 11 -5 -4 -8 4 -9 26 -5 20 4 30 3 26 -3 -4 -6 16 -10 52 -9 40 0 52 3 38
8 -13 6 -1 8 36 7 92 -2 256 88 396 218 23 21 50 44 60 51 48 34 308 310 401
425 33 41 77 93 97 115 l36 39 -44 -94 c-25 -52 -57 -133 -73 -180 -25 -75
-28 -100 -28 -210 0 -108 3 -133 23 -185 27 -66 113 -160 138 -151 8 3 12 2 9
-3 -8 -12 51 -32 71 -24 11 4 14 3 9 -6 -12 -19 186 -8 249 14 102 35 295 157
404 255 18 17 36 29 38 26 4 -3 -51 -108 -190 -366 -22 -41 -50 -92 -61 -114
-17 -31 -32 -43 -86 -64 -36 -14 -67 -29 -68 -34 -2 -4 -8 -6 -13 -2 -5 3 -9
1 -9 -5 0 -6 -6 -8 -14 -5 -7 3 -20 -1 -27 -9 -8 -7 -19 -12 -25 -10 -7 2 -18
-3 -27 -11 -8 -8 -17 -13 -19 -10 -8 7 -148 -47 -148 -58 0 -5 -4 -7 -8 -4
-11 6 -77 -18 -232 -86 -197 -86 -343 -168 -474 -268 -32 -25 -68 -52 -80 -60
-39 -28 -96 -95 -91 -108 3 -7 1 -11 -4 -8 -11 7 -53 -48 -82 -108 -13 -25
-27 -46 -32 -46 -5 0 -3 -8 4 -17 7 -10 9 -15 4 -10 -35 30 -59 -240 -30 -342
21 -72 57 -135 109 -189 45 -48 110 -87 128 -76 7 4 8 3 4 -4 -7 -11 7 -16 41
-15 7 1 13 -3 13 -7 0 -4 27 -13 60 -20 72 -15 205 -8 295 15 76 20 213 88
290 145 55 39 190 169 242 233 55 66 223 302 223 313 0 3 13 24 29 47 42 61
131 209 186 310 27 48 53 87 57 87 5 0 6 5 3 10 -3 6 -1 10 4 10 6 0 11 5 11
10 0 9 30 64 186 341 30 52 65 105 79 117 14 12 25 20 25 17 0 -3 14 1 30 10
17 9 30 12 30 8 0 -5 4 -3 8 3 4 6 36 30 72 54 82 55 221 162 279 215 56 51
68 62 237 221 76 72 161 150 188 175 27 24 72 67 101 94 410 397 475 459 475
451 0 -4 -33 -66 -73 -139 -157 -285 -204 -408 -214 -568 -7 -109 2 -193 19
-183 8 5 9 1 5 -10 -11 -28 18 -82 78 -141 69 -69 131 -99 189 -92 28 4 35 3
21 -3 -15 -6 -8 -9 30 -9 36 -1 46 2 35 9 -11 7 -6 8 16 4 71 -14 284 83 440
201 37 28 76 57 87 65 18 13 18 11 -3 -30 -12 -25 -29 -53 -38 -62 -8 -10 -12
-18 -8 -18 3 0 -4 -17 -17 -37 -13 -21 -46 -83 -74 -138 -110 -214 -102 -203
-155 -222 -26 -9 -48 -21 -48 -27 0 -5 -3 -7 -6 -3 -8 7 -64 -13 -64 -24 0 -4
-7 -5 -17 -2 -11 4 -14 3 -9 -6 5 -8 3 -11 -5 -9 -8 1 -36 -4 -62 -11 -35 -10
-45 -17 -35 -23 9 -6 6 -7 -8 -3 -27 7 -56 -4 -47 -18 4 -6 0 -8 -10 -4 -22 8
-49 -2 -41 -15 4 -6 -1 -8 -14 -4 -11 4 -26 1 -33 -6 -8 -7 -18 -13 -24 -13
-32 -1 -74 -18 -69 -27 4 -7 2 -8 -4 -4 -12 7 -134 -42 -140 -56 -2 -5 -8 -6
-13 -2 -5 3 -9 0 -9 -6 0 -6 -4 -8 -10 -5 -5 3 -10 1 -10 -5 0 -6 -4 -9 -9 -5
-13 8 -62 -16 -55 -27 3 -5 0 -9 -7 -7 -27 3 -40 -1 -34 -11 3 -5 0 -11 -7
-12 -45 -5 -78 -17 -78 -29 0 -5 -3 -8 -7 -8 -21 3 -33 -2 -27 -13 4 -7 3 -8
-5 -4 -14 9 -107 -46 -140 -82 -13 -15 -20 -20 -16 -12 3 8 -1 6 -10 -5 -9
-11 -19 -19 -23 -17 -11 5 -120 -88 -160 -138 -55 -66 -93 -130 -86 -142 4 -7
2 -8 -4 -4 -7 4 -12 6 -12 4 0 -2 -11 -35 -25 -75 -13 -40 -26 -105 -28 -145
-3 -52 -3 -60 3 -28 5 33 7 18 6 -55 -1 -94 1 -104 32 -167 18 -37 55 -91 83
-120 28 -29 47 -47 43 -39 -5 10 -3 12 5 7 7 -5 10 -15 6 -23 -4 -13 -3 -14 9
-4 11 9 16 9 22 0 4 -8 3 -9 -4 -5 -7 4 -12 4 -12 1 0 -11 109 -57 120 -50 5
3 10 1 10 -5 0 -8 9 -10 26 -6 18 5 24 3 19 -5 -6 -8 4 -10 33 -7 22 2 38 0
36 -4 -7 -11 100 -10 174 2 219 36 407 162 603 405 144 178 393 586 646 1055
58 107 114 189 134 195 19 6 209 131 219 144 3 3 30 25 60 47 74 55 563 500
795 724 50 47 124 117 165 155 41 37 109 100 150 140 41 39 111 101 155 137
44 36 91 78 105 93 14 15 41 40 61 56 l37 29 4 -30 c3 -17 0 -27 -5 -23 -6 4
-8 -10 -3 -38 3 -26 3 -39 -2 -31 -6 8 -11 -22 -15 -79 -10 -128 -8 -259 3
-234 5 12 6 -13 3 -60 -3 -60 -2 -76 7 -65 8 11 9 3 5 -35 -5 -39 -4 -47 5
-35 9 12 10 10 6 -12 -9 -39 4 -114 16 -96 7 9 8 8 4 -6 -9 -26 25 -167 37
-159 6 3 7 1 4 -4 -4 -6 -4 -25 -1 -43 5 -23 9 -28 16 -18 7 9 8 5 4 -13 -4
-19 -1 -29 9 -33 8 -3 15 -11 15 -18 0 -9 -3 -8 -10 2 -16 25 -11 7 16 -61 46
-117 97 -218 105 -213 5 3 6 -1 4 -8 -3 -8 5 -25 17 -38 13 -14 22 -27 21 -30
-5 -11 72 -125 141 -207 39 -48 70 -91 68 -97 -2 -6 0 -8 4 -4 10 11 35 -12
27 -25 -3 -5 -1 -7 4 -4 13 8 46 -27 36 -38 -5 -4 -3 -5 3 -2 12 7 32 -10 33
-28 1 -5 6 -10 12 -10 6 0 17 -8 24 -19 8 -11 19 -15 27 -10 7 4 10 4 6 -1
-11 -12 164 -140 176 -128 3 3 6 2 6 -4 0 -12 97 -72 196 -121 89 -45 264
-103 287 -96 14 4 17 3 12 -7 -6 -9 -2 -11 13 -7 12 3 22 2 24 -2 5 -14 208
-52 284 -54 40 0 70 -4 67 -8 -2 -5 99 -8 226 -8 222 0 367 12 616 51 162 25
515 128 708 205 232 94 613 299 661 357 10 12 20 20 22 17 4 -5 114 75 179
130 40 33 243 237 278 277 85 102 232 347 289 483 45 107 59 141 82 205 33 90
95 283 131 405 15 52 35 120 44 150 l16 55 51 0 c44 -1 60 -7 124 -51 40 -27
74 -56 76 -64 5 -31 62 -122 67 -109 3 8 5 6 5 -6 -2 -38 2 -56 11 -51 5 4 7
-4 3 -16 -3 -13 -1 -19 5 -15 6 4 8 -3 5 -18 -2 -15 0 -25 7 -25 7 0 10 -4 7
-8 -3 -5 -1 -62 4 -128 15 -201 19 -311 10 -279 -4 17 -7 -79 -7 -218 0 -136
4 -242 9 -235 4 7 5 -9 1 -36 -5 -38 -3 -47 6 -41 10 5 11 2 6 -14 -8 -26 23
-163 35 -156 4 3 8 -1 7 -8 -1 -34 4 -48 15 -41 7 4 8 3 4 -4 -15 -24 129
-252 155 -245 5 2 8 0 7 -5 -3 -10 25 -52 36 -52 4 0 24 -14 43 -30 19 -17 39
-27 45 -24 6 4 8 3 5 -3 -6 -10 100 -74 183 -111 79 -35 193 -65 247 -66 28 0
50 -3 48 -7 -5 -8 98 -19 179 -19 209 0 392 55 532 160 29 22 53 37 55 35 7
-5 132 153 161 203 34 57 72 157 89 232 18 79 17 360 -1 360 -3 0 -11 20 -18
45 -12 45 -77 185 -90 195 -4 3 -22 25 -41 50 -45 58 -155 155 -178 155 -12 0
-18 -9 -20 -28 -1 -15 2 -25 6 -23 4 3 13 -5 21 -17 12 -20 12 -21 -4 -8 -14
12 -16 12 -10 -3 3 -9 10 -16 15 -16 5 0 22 -13 37 -28 23 -24 24 -24 7 -2
l-20 25 27 -24 c15 -13 25 -28 22 -32 -6 -11 62 -110 70 -101 4 3 4 -2 0 -12
-6 -15 -4 -17 6 -11 8 5 11 4 7 -3 -10 -15 3 -43 16 -35 5 3 7 1 3 -5 -3 -6 3
-32 13 -59 11 -26 20 -43 21 -38 0 6 5 3 10 -5 6 -8 8 -33 5 -55 -5 -30 -3
-36 4 -25 8 11 10 -3 6 -50 -3 -46 -2 -56 4 -35 6 21 9 -2 9 -80 0 -76 -2
-104 -9 -90 -7 14 -8 6 -4 -30 4 -37 2 -46 -6 -35 -8 11 -9 5 -5 -25 3 -23 2
-34 -3 -27 -6 10 -10 7 -15 -11 -3 -14 -3 -32 0 -40 3 -8 1 -18 -5 -22 -7 -4
-9 1 -5 12 5 15 4 16 -5 3 -6 -8 -8 -23 -5 -34 4 -11 2 -16 -4 -12 -6 3 -23
-15 -38 -41 -38 -66 -118 -148 -184 -191 -58 -37 -182 -92 -209 -92 -12 0 -13
-2 -3 -8 7 -5 -47 -8 -120 -7 -140 2 -184 12 -288 65 -76 39 -171 144 -217
240 -72 149 -83 216 -93 595 -6 245 -12 319 -29 403 -47 225 -121 366 -264
505 -83 81 -158 136 -218 161 -39 16 -65 41 -52 49 5 3 62 17 128 32 248 55
439 119 615 206 133 66 297 167 348 214 14 13 30 21 35 18 6 -3 7 -1 3 5 -4 7
-3 12 3 12 20 0 231 221 231 243 0 5 4 6 8 3 5 -3 9 0 9 7 0 7 13 32 30 57
168 252 208 554 111 845 -71 213 -219 425 -403 578 -33 27 -62 53 -65 56 -8
10 -171 116 -218 141 l-42 24 22 23 c57 60 409 210 577 244 33 7 58 16 56 19
-2 4 10 5 28 2 26 -3 29 -1 17 8 -12 9 -10 10 12 6 35 -8 109 4 102 15 -3 5 0
9 5 9 6 0 11 -4 11 -8 0 -4 17 -6 38 -3 l37 4 -35 8 c-79 16 -135 20 -120 9z
m-838 -424 c10 1 29 -11 42 -26 13 -16 27 -26 31 -22 5 4 5 2 2 -4 -7 -11 30
-52 48 -53 6 -1 10 -5 10 -10 0 -5 9 -17 20 -27 12 -11 14 -15 5 -9 -10 6 -9
2 4 -12 10 -13 22 -21 26 -18 3 2 15 -10 25 -27 10 -17 12 -28 5 -23 -14 9 -1
-18 25 -50 16 -20 16 -20 5 3 -16 34 -3 26 16 -9 8 -17 11 -28 5 -24 -6 3 -4
-9 5 -29 10 -19 21 -33 26 -30 9 6 9 3 13 -36 4 -47 28 -112 37 -98 4 7 5 -2
2 -22 -4 -27 -3 -31 5 -20 8 11 10 7 5 -20 -4 -27 -3 -31 5 -20 8 11 10 7 5
-20 -4 -27 -3 -32 6 -20 8 12 9 6 5 -25 -5 -30 -4 -36 4 -25 8 11 9 -2 6 -50
-3 -36 -2 -57 2 -48 5 10 8 -46 8 -123 0 -77 -3 -130 -7 -117 -4 13 -6 -6 -4
-41 3 -45 1 -60 -6 -50 -7 10 -8 1 -4 -31 3 -31 2 -39 -4 -25 l-9 20 0 -20
c-1 -11 -4 -31 -6 -45 -5 -22 -4 -22 4 -5 11 23 14 10 4 -23 -4 -18 -8 -21
-15 -10 -6 9 -7 3 -3 -17 4 -16 3 -26 -1 -22 -10 10 -46 -92 -37 -106 3 -5 2
-8 -3 -4 -5 3 -18 -16 -29 -41 -67 -163 -196 -334 -360 -475 -38 -34 -70 -64
-70 -68 0 -4 -4 -11 -9 -16 -5 -5 -6 -3 -2 5 4 6 5 12 3 12 -13 0 -142 -94
-139 -102 1 -5 -1 -7 -6 -4 -12 7 -88 -32 -85 -44 2 -5 -5 -6 -14 -3 -12 5
-14 3 -8 -7 5 -9 4 -11 -4 -6 -16 10 -53 -3 -45 -16 4 -7 2 -8 -5 -4 -11 7
-200 -50 -211 -63 -3 -3 -18 -6 -35 -7 -16 0 -99 -8 -184 -17 -85 -10 -156
-15 -159 -12 -3 3 9 74 27 158 45 206 65 297 101 467 87 407 175 669 324 968
71 143 97 189 118 212 10 10 18 23 18 27 0 13 123 168 188 238 33 36 100 99
148 141 72 63 89 74 98 62 6 -8 19 -14 28 -12z m-10774 -58 c11 -15 22 -118
13 -118 -10 0 -31 -101 -24 -113 3 -5 1 -7 -5 -3 -6 3 -13 -6 -17 -24 -16 -74
-117 -283 -220 -455 -125 -209 -206 -321 -415 -570 -38 -46 -183 -196 -295
-306 -103 -101 -394 -329 -420 -329 -11 0 -6 19 21 77 35 78 170 339 184 358
4 6 34 57 65 115 66 122 254 435 358 597 224 346 411 583 558 705 82 68 171
98 197 66z m7697 -468 c3 -6 -1 -7 -12 -4 -10 3 -6 -2 10 -11 15 -9 32 -13 37
-10 6 3 10 1 10 -5 0 -6 4 -9 9 -6 14 9 42 -5 34 -17 -4 -6 0 -8 11 -4 9 4 15
3 12 -1 -6 -10 64 -46 72 -38 5 6 62 -21 62 -30 0 -2 -9 0 -20 6 -11 6 -20 8
-20 6 0 -3 14 -13 31 -22 20 -10 28 -11 24 -3 -10 15 -1 10 91 -53 39 -27 85
-66 103 -88 20 -25 37 -37 46 -34 11 5 13 2 9 -10 -5 -14 4 -20 27 -18 4 1 15
-9 25 -21 l19 -22 -25 20 -25 20 24 -27 c13 -15 28 -25 33 -22 5 3 7 1 6 -5
-2 -5 24 -36 58 -68 33 -32 47 -47 30 -33 -17 14 -4 -2 30 -35 61 -61 101
-115 72 -100 -7 4 -2 -3 12 -15 14 -12 19 -19 13 -15 -8 3 -6 -6 4 -24 10 -16
22 -27 27 -24 5 4 6 1 1 -7 -5 -8 1 -20 16 -32 13 -11 18 -17 12 -13 -9 4 -11
1 -7 -9 3 -9 10 -13 15 -10 5 3 6 -3 2 -12 -5 -13 -3 -15 7 -9 8 5 11 4 7 -3
-10 -15 3 -43 16 -35 5 3 7 1 4 -5 -9 -13 2 -44 13 -37 14 9 62 -115 65 -171
1 -30 6 -58 10 -62 4 -4 5 7 1 23 -6 27 -5 28 6 10 6 -11 12 -48 12 -83 0 -38
3 -57 8 -50 6 8 7 -5 3 -32 -4 -28 -3 -40 3 -32 15 22 22 -49 20 -198 l-2
-135 -6 150 -6 150 -2 -157 c-2 -129 -5 -158 -16 -158 -8 0 -16 -3 -18 -7 -1
-5 -21 -20 -44 -35 -85 -55 -193 -102 -293 -128 -58 -15 -98 -29 -90 -32 8 -3
-29 -4 -81 -2 -76 2 -84 1 -40 -5 50 -7 52 -8 15 -9 -22 -1 -58 1 -80 5 -32 5
-36 8 -20 15 15 6 10 7 -17 5 -20 -2 -35 0 -33 3 2 4 -17 12 -43 19 -26 6 -69
25 -97 41 -27 16 -66 38 -86 49 -38 21 -144 122 -169 160 -8 13 -23 34 -32 46
-10 13 -18 28 -18 33 0 6 -4 12 -8 14 -18 7 -81 139 -111 233 -78 240 -79 532
-1 797 44 150 176 422 210 431 25 8 29 7 35 -3z m-8780 -1685 c17 -5 35 -9 40
-9 6 -1 9 -12 8 -24 -2 -13 0 -21 5 -19 4 3 7 -24 7 -59 0 -35 -3 -64 -7 -64
-5 0 -8 -6 -8 -13 0 -20 -65 -149 -89 -177 -58 -66 -111 -116 -166 -155 -87
-62 -229 -125 -284 -125 -17 0 -22 -3 -13 -8 7 -5 -16 -7 -50 -4 -46 2 -59 0
-48 -7 11 -8 -5 -10 -60 -10 -56 1 -67 3 -45 9 25 6 20 8 -27 9 -32 0 -58 5
-58 10 0 12 89 143 108 159 9 6 12 12 7 12 -5 0 0 8 11 19 10 10 28 31 39 47
35 49 132 158 182 203 26 24 62 56 78 71 55 49 171 118 226 134 65 18 102 23
109 15 3 -3 19 -10 35 -14z m1094 -2037 c-72 -143 -250 -440 -367 -614 -90
-134 -95 -141 -173 -233 -208 -243 -359 -346 -537 -367 -48 -5 -68 -2 -106 15
-105 46 -145 112 -153 248 -5 79 -2 103 17 163 30 94 82 172 174 263 42 41 76
72 76 70 0 -3 17 9 38 25 124 97 450 254 752 361 80 29 179 65 220 81 41 16
76 29 78 30 1 0 -7 -19 -19 -42z m2381 28 c0 -7 -7 -19 -15 -26 -8 -7 -15 -16
-15 -20 0 -13 -264 -451 -326 -542 -213 -309 -426 -535 -554 -588 -16 -7 -28
-15 -26 -19 3 -4 -3 -7 -12 -8 -9 -1 -44 -9 -77 -17 -79 -21 -114 -20 -182 4
-68 24 -99 51 -125 108 -53 117 -45 248 22 390 53 113 223 262 411 362 49 25
86 50 82 55 -5 4 -3 5 4 1 7 -4 39 7 72 24 57 28 240 103 451 183 52 20 133
52 180 71 97 39 110 41 110 22z"/>
<path d="M13310 6021 c23 -7 23 -8 -12 -15 -21 -4 -55 -4 -75 -1 -26 5 -34 3
-24 -3 11 -8 10 -11 -5 -15 -11 -3 -30 -9 -43 -12 -16 -5 -21 -4 -17 4 4 6 17
11 28 11 12 0 19 3 15 6 -9 10 -68 -7 -61 -17 3 -6 -6 -8 -23 -4 -23 4 -24 4
-8 -4 l20 -10 -20 0 c-17 -1 -17 -3 -5 -11 13 -8 12 -10 -4 -10 -11 0 -17 -2
-14 -5 9 -10 58 6 52 17 -4 6 9 7 33 4 29 -5 34 -4 18 4 -15 8 -10 9 25 5 34
-4 40 -3 25 5 -15 7 -9 8 24 4 30 -4 41 -3 37 5 -5 7 8 9 41 6 35 -3 41 -2 23
4 -18 6 -6 8 45 7 39 0 124 1 190 3 l120 5 -115 5 c-67 4 -121 2 -128 -3 -9
-6 -16 -6 -20 1 -4 5 -38 12 -77 15 -38 3 -59 3 -45 -1z"/>
<path d="M12995 5934 l30 -15 -28 6 c-18 4 -26 2 -23 -4 4 -6 -5 -7 -25 -1
-46 13 -139 -23 -134 -51 3 -16 0 -19 -12 -15 -9 4 -22 -1 -30 -11 -8 -10 -12
-13 -9 -7 7 14 -16 25 -31 16 -6 -4 -9 -14 -8 -23 2 -12 -3 -15 -17 -11 -15 4
-17 7 -6 14 10 8 10 9 -2 5 -8 -2 -16 -9 -16 -15 -1 -7 -2 -17 -3 -23 0 -5 -5
-8 -10 -5 -5 3 -14 -1 -21 -9 -13 -15 -35 -10 -25 6 3 5 -1 6 -8 3 -14 -5 -17
-27 -6 -39 3 -3 62 20 130 51 121 55 155 73 113 60 -15 -4 -21 -2 -21 9 0 9 6
14 14 11 8 -3 11 -1 8 4 -3 6 1 10 9 10 9 0 15 -6 14 -12 -2 -7 3 -13 10 -12
44 4 46 6 17 19 -34 16 -19 20 19 5 18 -7 39 -4 78 9 48 16 51 19 28 25 -52
15 -64 15 -35 0z"/>
<path d="M21880 4742 c-5 -2 -8 -8 -5 -13 4 -5 0 -6 -8 -3 -18 6 -79 -44 -70
-58 3 -6 1 -8 -5 -4 -14 9 -66 -60 -56 -75 4 -8 3 -9 -4 -5 -13 8 -46 -50 -37
-64 3 -6 2 -10 -4 -10 -13 0 -34 -67 -25 -81 4 -7 3 -9 -3 -6 -16 10 -33 -103
-32 -209 0 -63 3 -83 10 -69 6 14 7 8 3 -22 -7 -54 4 -125 18 -117 7 5 9 -2 4
-20 -4 -16 -3 -25 3 -22 5 3 12 -6 15 -22 4 -15 9 -36 12 -47 4 -16 3 -17 -5
-5 -13 19 -14 9 -1 -24 6 -17 6 -27 -2 -32 -7 -5 -8 -2 -3 7 5 8 -21 -17 -57
-56 -37 -38 -64 -74 -61 -79 4 -5 2 -6 -4 -3 -12 7 -139 -113 -135 -127 2 -6
0 -8 -3 -4 -9 9 -161 -122 -157 -135 1 -5 -2 -6 -7 -3 -4 3 -37 -16 -72 -43
-159 -119 -343 -235 -455 -285 -52 -23 -63 -33 -66 -56 -4 -23 -1 -27 16 -25
104 14 388 184 611 365 55 45 119 95 142 113 23 18 42 38 43 44 0 7 4 12 10
10 5 -1 59 43 121 97 86 77 113 96 120 85 5 -8 9 -20 9 -27 0 -7 4 -11 9 -8 5
4 7 -4 3 -16 -3 -15 -2 -19 7 -14 9 6 10 0 6 -21 -5 -22 -4 -25 4 -13 8 11 9
7 4 -19 -4 -22 -3 -32 4 -28 6 4 8 -4 6 -21 -4 -22 -2 -24 7 -12 8 12 9 6 5
-25 -5 -30 -4 -36 4 -25 8 11 10 0 6 -45 -3 -33 -2 -52 2 -43 5 10 9 -24 10
-80 1 -65 -2 -90 -8 -77 -6 15 -8 6 -6 -32 1 -28 0 -49 -2 -47 -3 2 -13 -28
-23 -67 -18 -74 -56 -159 -96 -219 -34 -52 -120 -140 -136 -140 -8 0 -26 24
-40 54 -15 30 -44 69 -65 88 -69 60 -101 86 -101 82 0 -2 -21 6 -47 20 -27 13
-72 31 -102 40 -60 18 -186 22 -176 6 3 -6 -1 -7 -10 -4 -43 17 -210 -113
-189 -147 4 -7 3 -9 -4 -5 -13 8 -26 -29 -16 -45 5 -8 3 -9 -6 -4 -10 6 -12 3
-8 -13 4 -12 3 -20 -1 -17 -4 2 -7 -49 -6 -115 1 -116 2 -120 38 -192 43 -85
120 -169 186 -202 105 -52 147 -61 296 -60 166 1 282 27 411 92 127 64 270
184 324 271 20 32 31 41 53 41 18 0 26 4 21 11 -4 8 0 9 15 4 51 -16 228 51
384 145 86 52 183 118 138 94 -9 -5 -12 -3 -7 5 4 6 11 9 16 6 7 -4 66 41 192
147 27 23 45 45 41 52 -3 6 -2 8 2 3 12 -10 46 23 38 37 -3 6 -3 8 2 4 4 -4
26 9 49 28 l41 35 8 -63 c4 -35 6 -103 3 -151 -5 -99 10 -218 26 -196 6 10 7
7 3 -8 -7 -26 26 -109 53 -130 9 -8 11 -12 5 -8 -24 12 -13 -7 25 -43 20 -20
28 -30 17 -22 -11 8 -5 -2 14 -23 19 -20 37 -35 40 -32 7 8 41 -27 41 -43 0
-9 6 -12 16 -8 8 3 13 2 10 -3 -7 -10 71 -54 83 -47 5 4 11 0 13 -6 3 -9 23
-13 59 -12 36 1 47 -1 34 -6 -36 -15 179 -11 271 5 197 35 421 161 713 401 35
29 68 51 73 48 5 -3 7 -1 6 4 -2 5 42 52 97 103 55 51 143 137 195 193 52 55
116 122 141 148 25 26 43 48 40 48 -3 0 9 15 25 33 17 17 55 64 85 102 30 39
80 102 111 140 31 39 95 129 144 200 48 72 112 163 142 203 30 41 52 75 50 76
-1 2 -22 6 -45 10 -39 6 -42 4 -62 -30 -12 -19 -19 -40 -15 -45 3 -5 -2 -12
-10 -15 -14 -5 -114 -144 -119 -165 -1 -6 -17 -26 -35 -46 -18 -19 -31 -42
-30 -51 2 -10 -3 -16 -9 -15 -7 2 -20 -9 -30 -25 -17 -26 -101 -134 -172 -220
-20 -24 -36 -48 -36 -55 -1 -7 -6 -11 -12 -10 -11 2 -60 -56 -56 -67 1 -3 -1
-7 -4 -10 -4 -3 -2 2 2 10 5 8 -18 -14 -51 -50 -32 -35 -90 -97 -129 -138 -38
-41 -70 -78 -70 -82 0 -11 -14 -25 -25 -25 -15 0 -170 -147 -164 -156 3 -5 2
-8 -3 -7 -14 4 -54 -23 -48 -33 4 -5 3 -8 -2 -7 -14 5 -73 -45 -66 -55 3 -6 2
-7 -3 -4 -6 3 -26 -9 -45 -26 -19 -18 -26 -25 -15 -17 21 15 21 15 2 -8 -11
-12 -25 -21 -32 -18 -7 3 -18 -3 -26 -12 -12 -16 -11 -16 6 -2 12 9 17 10 12
3 -4 -7 -16 -18 -28 -24 -16 -8 -19 -8 -13 1 4 7 -4 5 -18 -5 -14 -9 -28 -23
-31 -31 -3 -9 -10 -13 -16 -9 -13 8 -82 -39 -72 -50 4 -5 2 -5 -4 -2 -14 8
-117 -47 -107 -57 4 -4 -1 -4 -11 0 -13 5 -17 4 -13 -3 4 -6 1 -11 -6 -10 -32
1 -48 -4 -42 -13 4 -6 -1 -7 -11 -3 -11 4 -15 3 -11 -4 5 -7 -1 -9 -15 -5 -13
3 -19 1 -15 -5 5 -7 -1 -9 -15 -5 -14 3 -19 1 -14 -6 5 -8 -3 -10 -26 -7 -26
4 -29 3 -13 -4 14 -7 4 -8 -35 -5 -30 2 -47 1 -38 -3 10 -5 -9 -8 -46 -8 -35
0 -62 3 -59 8 2 4 -5 7 -17 7 -83 0 -160 117 -160 244 0 127 38 295 97 429 24
53 28 57 59 57 65 0 252 45 376 91 136 50 395 180 418 209 3 4 32 25 65 47 65
44 152 118 200 172 16 18 39 43 50 55 33 34 79 107 116 182 33 67 34 73 34
189 0 112 -2 124 -28 173 -15 29 -39 62 -52 74 -13 12 -21 26 -18 32 3 6 3 8
-2 4 -4 -4 -22 3 -39 16 -45 34 -95 58 -106 51 -6 -3 -10 -1 -10 5 0 8 -9 10
-26 6 -14 -4 -23 -3 -21 1 3 4 -55 8 -128 8 -73 0 -128 -4 -122 -8 7 -5 0 -6
-15 -3 -36 8 -125 -13 -106 -25 8 -6 9 -9 1 -9 -6 0 -20 -3 -30 -6 -15 -5 -15
-4 -3 5 9 6 10 11 3 11 -6 0 -18 -6 -25 -13 -7 -8 -19 -12 -27 -9 -9 3 -11 0
-6 -8 5 -8 4 -11 -2 -7 -16 10 -74 -13 -66 -26 3 -6 1 -7 -5 -3 -22 14 -220
-105 -344 -205 -101 -83 -260 -247 -252 -260 4 -7 3 -9 -3 -6 -19 12 -200
-239 -263 -363 -43 -84 -79 -182 -82 -219 -1 -16 -5 -28 -9 -26 -8 6 -264
-253 -264 -267 0 -6 -8 -12 -17 -14 -16 -2 -128 -92 -128 -102 0 -3 10 3 23
14 l22 19 -18 -22 c-11 -12 -25 -19 -32 -17 -7 3 -16 0 -21 -7 -5 -8 -3 -10 6
-4 8 5 11 4 6 -3 -4 -6 -13 -9 -20 -6 -7 3 -19 -3 -27 -12 -12 -16 -12 -17 1
-10 8 4 4 -1 -10 -12 -13 -11 -28 -18 -32 -15 -5 2 -31 -9 -59 -26 -27 -17
-55 -32 -61 -34 -14 -2 -32 -15 -57 -40 -11 -11 -25 -15 -36 -11 -12 5 -16 4
-12 -3 5 -7 -1 -9 -15 -5 -13 3 -19 1 -15 -5 5 -7 -1 -9 -15 -5 -14 3 -19 2
-14 -6 5 -8 0 -11 -11 -10 -38 3 -74 -2 -69 -11 3 -5 -5 -8 -19 -8 -14 0 -22
3 -19 8 3 5 -2 12 -10 15 -21 8 -20 33 4 113 66 223 66 477 -1 736 -28 112
-145 399 -158 391 -4 -3 -7 3 -8 12 -1 9 -5 29 -8 44 -6 21 2 43 34 98 67 117
113 251 119 351 3 52 0 100 -7 121 -14 42 -76 102 -97 94 -8 -3 -13 -2 -10 3
5 7 -102 10 -124 3z m120 -82 c0 -5 5 -10 11 -10 5 0 7 6 3 13 -4 6 -3 8 1 4
5 -4 10 -15 11 -25 2 -9 7 -18 12 -20 5 -1 7 -15 5 -30 -3 -23 -2 -24 6 -7 7
15 10 7 10 -35 1 -41 -2 -51 -10 -40 -8 12 -9 7 -6 -17 2 -18 1 -31 -2 -28 -8
9 -30 -87 -23 -104 3 -9 2 -13 -3 -9 -4 4 -25 -34 -45 -85 -20 -50 -41 -92
-46 -92 -30 0 -78 172 -78 280 -1 95 27 165 78 196 33 20 76 25 76 9z m2491
-209 c18 -19 29 -40 29 -58 0 -22 2 -25 10 -13 7 11 9 2 8 -30 -1 -35 -2 -39
-6 -15 -4 24 -8 15 -19 -45 -8 -41 -15 -83 -16 -92 -1 -9 -3 -15 -6 -13 -8 9
-41 -77 -34 -89 3 -6 3 -8 -2 -4 -11 11 -47 -50 -39 -65 4 -7 4 -9 -1 -5 -4 4
-28 -21 -54 -56 -25 -35 -73 -93 -106 -130 -33 -37 -60 -71 -60 -76 0 -6 -4
-10 -10 -10 -5 -1 -26 -16 -45 -34 -45 -43 -168 -139 -198 -155 -12 -7 -20
-17 -16 -23 4 -7 3 -8 -4 -4 -14 9 -115 -48 -104 -59 4 -4 2 -5 -5 -2 -15 9
-45 -2 -37 -14 3 -5 2 -8 -3 -7 -16 4 -83 -24 -78 -33 4 -5 -2 -6 -11 -2 -10
4 -15 2 -11 -3 3 -6 -8 -8 -29 -6 -41 5 -41 4 18 137 22 50 60 134 83 187 59
132 131 274 166 326 16 24 29 45 29 48 0 2 25 41 55 87 80 121 154 198 225
236 80 43 102 49 178 50 57 1 66 -2 93 -28z m-3295 -1487 c22 -9 51 -25 67
-36 15 -11 27 -16 27 -12 0 4 9 -1 20 -11 11 -10 20 -23 20 -29 0 -6 -10 0
-21 14 -11 14 -17 18 -13 10 12 -25 36 -50 44 -45 4 2 15 -4 25 -15 10 -11 15
-20 12 -20 -3 0 5 -11 19 -25 13 -13 27 -38 30 -55 4 -16 10 -27 15 -24 5 3 9
-2 9 -11 0 -10 -5 -13 -12 -9 -7 5 -9 0 -6 -14 3 -12 3 -21 -1 -20 -3 1 -25
-8 -48 -20 -23 -12 -49 -22 -58 -22 -9 0 -14 -4 -11 -9 7 -10 -54 -5 -126 10
-89 20 -158 95 -179 196 -22 106 15 163 107 163 23 0 59 -7 80 -16z"/>
<path d="M19340 4673 c-23 -10 -53 -13 -87 -10 -33 4 -55 1 -62 -6 -16 -20
-40 -100 -34 -111 3 -6 2 -8 -2 -3 -11 9 -66 -73 -58 -86 4 -6 1 -7 -7 -2 -10
6 -12 4 -7 -9 4 -10 3 -15 -3 -11 -9 6 -62 -89 -74 -135 l-7 -25 15 25 c18 30
21 21 5 -14 -7 -14 -16 -23 -22 -19 -5 3 -6 -3 -2 -17 4 -14 3 -20 -3 -16 -10
6 -53 -135 -51 -170 1 -12 4 -8 9 11 8 28 8 27 7 -10 -1 -22 2 -40 7 -40 5 0
10 12 10 26 2 35 69 130 137 193 30 28 98 74 150 102 157 86 277 114 405 94
79 -12 212 -71 246 -108 l23 -24 -22 6 c-13 4 -30 3 -39 -2 -14 -8 -12 -12 14
-27 17 -10 28 -23 25 -28 -3 -6 -1 -7 5 -3 11 6 152 -140 152 -158 0 -6 -4 -5
-9 3 -5 7 -13 11 -19 7 -6 -3 -20 6 -31 20 -23 29 -114 77 -168 88 -32 7 -153
-19 -153 -33 0 -4 -9 -8 -20 -9 -44 -4 -48 -6 -42 -20 3 -9 1 -13 -5 -9 -16
10 -87 -68 -113 -123 -13 -28 -27 -50 -32 -50 -5 0 -7 -4 -4 -9 3 -5 1 -23 -5
-40 -6 -17 -8 -39 -4 -48 4 -13 14 -3 40 44 35 60 57 79 77 66 6 -3 8 -1 5 4
-4 6 4 13 18 15 l24 5 -23 -28 c-13 -16 -31 -48 -40 -71 -16 -43 -38 -163 -28
-153 6 5 36 -55 34 -67 -1 -3 6 -5 16 -3 23 3 42 -13 35 -31 -3 -8 -2 -14 3
-13 5 1 26 -5 46 -14 68 -30 143 -21 301 36 44 16 77 46 77 72 0 12 6 28 14
34 47 39 75 194 41 231 -10 11 -14 20 -10 20 5 0 -2 11 -14 24 -14 15 -19 26
-12 31 15 9 33 -4 27 -20 -2 -7 1 -18 7 -24 6 -6 8 -11 4 -11 -4 0 7 -16 25
-36 18 -20 32 -40 31 -45 -2 -5 1 -9 7 -9 5 0 19 -19 31 -41 16 -31 23 -72 29
-163 l9 -121 -27 -28 c-88 -93 -122 -127 -129 -127 -4 0 3 10 17 21 22 18 22
19 3 9 -13 -6 -27 -20 -34 -31 -6 -12 -17 -18 -25 -15 -19 7 -45 -4 -38 -16 4
-6 -2 -7 -16 -3 -15 5 -20 4 -16 -4 5 -7 -3 -9 -24 -5 -16 4 -30 3 -30 -2 0
-5 -70 -9 -155 -9 -85 0 -155 4 -155 8 0 5 -15 5 -32 2 -18 -4 -30 -4 -25 1 7
7 -103 47 -111 40 -2 -2 10 -31 27 -63 18 -36 52 -81 88 -114 53 -48 71 -58
167 -88 134 -42 184 -39 276 15 56 34 150 124 150 145 0 5 -26 9 -57 9 l-57 0
63 44 c40 27 76 64 101 101 36 54 44 85 18 69 -7 -4 -8 -2 -4 4 11 18 22 14
33 -11 9 -19 7 -33 -7 -65 -10 -23 -16 -43 -12 -46 14 -8 48 12 88 52 44 43
58 82 70 187 3 33 14 93 25 133 20 80 15 141 -18 192 -16 25 -16 25 5 7 38
-34 55 -85 48 -145 -6 -51 -5 -57 27 -96 46 -56 67 -99 67 -138 0 -40 -38
-124 -85 -188 -19 -26 -31 -51 -27 -55 4 -5 2 -5 -4 -2 -7 4 -54 -33 -110 -87
-78 -75 -119 -105 -193 -143 l-93 -48 -168 0 c-92 0 -166 3 -164 6 3 5 -83 -7
-114 -17 -30 -9 44 -92 143 -159 39 -26 72 -49 75 -52 3 -3 -29 -4 -70 -2 -41
2 -77 6 -80 9 -3 3 -50 23 -104 45 -105 42 -207 100 -294 168 -118 93 -167
154 -178 225 -10 62 -21 60 -34 -5 -15 -68 -8 -144 19 -233 11 -36 14 -57 8
-47 -7 10 -20 28 -31 40 -35 41 -86 162 -101 241 -25 132 -29 288 -10 395 18
105 51 180 115 265 23 30 39 60 35 66 -12 19 -56 10 -82 -17 -14 -16 -31 -27
-38 -25 -17 3 -108 -96 -99 -110 4 -6 3 -8 -3 -5 -14 9 -56 -61 -47 -75 4 -6
2 -8 -3 -5 -14 9 -37 -48 -29 -68 4 -11 2 -14 -6 -9 -7 5 -9 0 -6 -14 4 -12 2
-20 -3 -16 -5 3 -9 -6 -9 -20 0 -14 -3 -26 -6 -26 -3 0 -25 17 -50 38 -25 20
-48 36 -52 36 -4 -1 -16 5 -27 12 -11 8 -26 14 -35 14 -8 0 -41 13 -72 28
l-57 28 1 -33 c1 -18 5 -33 9 -33 5 0 5 -7 2 -17 -4 -10 -2 -14 4 -10 6 4 8
-3 5 -20 -3 -15 -1 -24 5 -20 5 3 8 -7 6 -26 -3 -27 -2 -29 7 -12 8 16 9 13 5
-17 -7 -45 4 -120 17 -112 5 3 6 -6 3 -23 -5 -19 -4 -24 3 -15 7 11 11 8 15
-10 10 -33 7 -46 -4 -23 -7 16 -8 14 -3 -10 3 -16 10 -32 15 -33 5 -2 7 -8 3
-13 -3 -5 0 -9 6 -9 6 0 8 -4 5 -10 -3 -5 -1 -10 5 -10 6 0 8 -4 5 -10 -3 -5
-1 -10 5 -10 6 0 9 -4 6 -9 -9 -14 5 -42 17 -34 6 3 7 1 3 -6 -8 -12 42 -99
69 -121 8 -7 12 -17 8 -23 -3 -5 -2 -7 4 -4 5 3 27 -12 49 -35 42 -44 176
-114 197 -102 6 4 9 3 4 -1 -9 -11 43 -66 55 -59 5 3 7 0 6 -6 -4 -17 106 -76
214 -115 l92 -32 2 -43 c1 -26 -1 -38 -6 -30 -13 21 -23 -93 -17 -184 8 -101
17 -147 28 -140 5 3 6 -2 3 -10 -3 -9 4 -48 16 -88 16 -54 24 -68 32 -57 8 11
9 11 4 -3 -7 -24 3 -50 17 -41 6 3 7 1 3 -5 -9 -15 81 -156 95 -149 2 1 3 0 2
-2 -5 -9 39 -60 50 -58 6 1 11 -3 12 -9 0 -6 22 -35 49 -65 27 -30 46 -47 41
-39 -4 8 3 5 17 -8 13 -12 28 -19 33 -15 4 5 5 3 1 -4 -8 -14 27 -36 39 -25 5
4 5 1 1 -5 -4 -7 -2 -14 3 -14 6 -1 15 -2 20 -3 5 0 13 -5 18 -10 5 -5 2 -6
-7 -2 -38 19 43 -39 112 -80 84 -49 135 -62 130 -31 -3 19 -60 76 -76 77 -13
0 -85 58 -150 119 -83 80 -209 241 -189 241 5 0 0 5 -9 11 -23 13 -23 35 -1
43 10 4 14 4 10 0 -10 -10 31 -36 45 -28 6 4 8 3 4 -4 -21 -34 263 -86 350
-63 22 5 57 12 79 15 36 5 56 11 119 32 47 17 139 73 186 114 74 63 83 73 154
165 31 40 103 180 111 215 3 15 15 36 26 46 41 37 28 39 -236 38 -282 -1 -332
-9 -407 -66 -20 -16 -39 -24 -42 -19 -7 11 -34 8 -62 -7 -11 -6 -27 -13 -37
-16 -11 -4 -15 -11 -11 -17 4 -8 3 -9 -5 -5 -6 4 -18 2 -26 -4 -8 -6 -23 -9
-34 -5 -21 6 -70 -18 -128 -63 -19 -15 -66 -69 -105 -120 -38 -51 -75 -91 -80
-90 -18 6 -58 129 -75 228 -17 104 -12 214 11 245 11 16 14 16 28 2 9 -9 18
-14 21 -11 3 3 22 -2 43 -11 85 -36 270 -28 355 16 21 10 53 32 72 48 l33 29
59 -14 c109 -25 231 -13 296 31 21 13 50 27 66 31 55 12 62 15 68 33 3 9 13
26 23 37 38 42 81 122 98 184 25 94 31 507 8 552 -11 21 -21 29 -34 25 -16 -4
-17 0 -12 52 4 31 7 128 7 216 0 136 -4 172 -23 240 -25 85 -76 185 -95 185
-7 0 -25 7 -42 16 -74 39 -231 73 -360 77 -58 2 -60 1 -60 -23 0 -22 5 -26 41
-30 45 -6 136 -59 127 -74 -3 -5 -1 -6 5 -2 10 6 86 -73 77 -82 -3 -3 2 -10 9
-16 8 -6 37 -50 64 -98 l50 -87 -34 27 c-19 15 -34 30 -34 35 0 4 -6 7 -14 7
-8 0 -17 7 -20 16 -3 8 -10 13 -15 10 -5 -3 -14 1 -21 9 -6 8 -32 17 -57 21
-24 3 -47 13 -50 21 -3 8 -27 25 -53 38 -27 14 -59 39 -71 57 -13 18 -29 39
-35 45 -7 7 -14 16 -16 20 -11 26 -210 173 -233 173 -8 0 -15 4 -15 8 0 6 -22
18 -70 37 -3 1 -17 7 -33 13 -15 6 -57 18 -93 27 -36 8 -73 19 -82 24 -11 6
-29 4 -52 -6z m408 -719 c13 -9 31 -13 43 -9 57 18 137 -92 108 -147 l-12 -23
-10 28 c-5 15 -13 25 -18 21 -5 -3 -9 0 -9 7 0 7 -3 10 -6 6 -4 -3 -18 0 -33
7 -16 8 -54 12 -98 10 -40 -2 -73 -2 -73 0 0 2 10 11 22 22 15 12 19 14 13 4
-6 -9 -1 -6 10 7 12 13 24 23 29 23 9 0 36 26 36 34 0 11 -19 6 -34 -10 -9 -9
-16 -11 -16 -4 0 6 -5 8 -10 5 -6 -4 -8 -10 -5 -15 3 -4 -3 -7 -12 -6 -18 3
-53 -33 -53 -53 0 -6 -5 -20 -12 -30 -9 -14 -9 -31 -1 -65 8 -38 8 -44 -3 -35
-7 6 -10 18 -7 26 4 10 2 14 -4 10 -16 -10 -7 106 11 142 29 55 99 77 144 45z
m192 -45 c0 -13 4 -18 12 -13 8 5 9 0 6 -14 -4 -12 -2 -22 2 -22 5 0 7 -23 5
-51 -3 -52 -38 -114 -57 -102 -6 3 -14 -1 -19 -8 -5 -8 -9 -9 -9 -3 0 6 7 17
15 24 8 7 15 18 15 25 0 7 7 15 15 19 9 3 12 12 8 22 -4 10 -2 15 3 11 11 -6
1 103 -10 122 -4 6 -2 11 3 11 6 0 11 -9 11 -21z"/>
<path d="M19419 4320 c-71 -7 -177 -56 -233 -108 -42 -40 -77 -98 -69 -118 4
-11 2 -15 -4 -11 -10 7 -26 -40 -38 -113 -7 -44 -7 -66 -1 -110 2 -19 2 -27 0
-17 -3 9 -13 17 -22 17 -15 0 -15 -2 -2 -10 13 -8 13 -10 -1 -10 -9 0 -24 -10
-35 -22 -10 -12 -13 -18 -5 -13 9 5 12 3 9 -6 -3 -8 -11 -13 -17 -11 -6 1 -11
-2 -11 -8 0 -15 9 -12 41 11 l29 20 0 -54 c0 -30 -7 -68 -15 -83 -22 -43 -18
-111 10 -172 13 -29 31 -55 40 -58 8 -3 13 -10 10 -14 -3 -5 -1 -11 5 -15 6
-4 7 -11 4 -17 -5 -8 -1 -9 12 -4 10 4 15 4 11 0 -8 -9 26 -60 68 -99 17 -16
22 -23 11 -15 -17 12 -16 10 3 -12 13 -15 28 -25 34 -21 6 3 7 1 4 -4 -4 -6 3
-19 16 -29 18 -16 19 -16 8 -1 -7 9 -11 17 -8 17 3 0 19 -19 37 -42 17 -24 32
-42 33 -40 1 2 25 -6 52 -18 70 -31 115 -37 115 -17 0 9 -25 71 -55 139 -29
68 -56 137 -59 154 -3 16 -12 44 -21 61 -16 32 -50 162 -60 228 -4 22 -11 58
-16 80 -33 149 14 260 147 349 33 22 71 51 87 65 15 14 48 36 74 50 67 36 67
56 2 75 -55 17 -81 18 -190 6z"/>
<path d="M19380 3975 c-6 -8 -8 -20 -4 -26 4 -8 3 -9 -4 -5 -20 12 -35 -72
-24 -139 15 -93 67 -217 113 -268 35 -40 51 -50 125 -73 97 -30 136 -29 225 5
67 25 126 75 135 114 8 37 -3 34 -54 -13 -39 -35 -59 -45 -84 -41 -5 0 -30 2
-58 3 -27 1 -45 5 -40 8 6 3 -6 12 -25 19 -19 7 -35 17 -35 22 0 6 -4 7 -10 4
-5 -3 -20 1 -33 10 -13 8 -25 14 -28 13 -2 -2 -3 -1 -2 0 3 7 -32 39 -39 35
-5 -2 -8 4 -8 13 0 10 -3 15 -6 11 -4 -3 -13 1 -21 9 -8 8 -18 12 -22 9 -8 -4
-48 33 -43 41 1 2 -1 3 -4 2 -3 -2 -12 8 -19 22 -9 17 -10 30 -3 44 7 13 7 16
-1 12 -7 -5 -11 2 -11 16 0 17 -3 19 -9 9 -8 -13 -8 11 3 122 5 41 4 43 -14
22z"/>
<path d="M18795 2293 l40 -5 -34 -14 c-18 -8 -45 -14 -58 -14 -23 0 -24 2 -12
17 13 15 9 16 -43 10 -72 -9 -108 -22 -108 -42 0 -8 4 -15 10 -15 5 0 7 -7 4
-15 -3 -8 6 -25 22 -40 15 -14 24 -28 21 -31 -6 -7 20 -64 29 -64 3 0 2 5 -1
10 -15 24 4 7 21 -17 17 -27 17 -28 -2 -13 -12 9 -10 4 5 -13 14 -15 21 -27
17 -27 -8 0 62 -55 110 -86 21 -14 26 -15 20 -4 -4 8 1 5 11 -7 45 -53 276
-90 370 -59 71 24 88 46 88 115 0 47 -5 64 -33 106 -82 121 -247 200 -437 209
-44 2 -62 1 -40 -1z m140 -23 c3 -5 0 -10 -8 -10 -8 0 -17 -6 -20 -14 -7 -16
35 -30 63 -21 10 3 21 1 25 -4 4 -7 -1 -9 -12 -5 -10 3 -5 -2 10 -11 15 -9 36
-14 45 -11 9 3 24 1 32 -5 12 -8 9 -9 -10 -5 -21 5 -21 4 5 -8 16 -8 35 -12
41 -9 7 2 15 -1 20 -8 5 -8 3 -10 -6 -4 -9 5 -11 4 -6 -4 4 -6 15 -10 24 -9
12 2 16 -3 14 -17 -2 -11 0 -17 4 -12 4 4 16 -1 27 -10 10 -10 22 -17 26 -15
3 1 6 -1 6 -5 0 -16 32 -53 39 -46 4 4 4 -1 0 -11 -5 -12 -4 -17 3 -13 7 4 8
-6 3 -31 -8 -46 -13 -58 -23 -54 -4 1 -18 -3 -30 -9 -48 -26 -277 1 -277 32 0
6 -4 8 -9 4 -5 -3 -16 2 -24 10 -9 8 -18 15 -22 15 -6 0 -11 4 -67 50 -62 52
-136 181 -119 207 3 6 49 12 101 15 52 3 86 2 75 -3 -19 -7 -18 -8 4 -8 19 -1
22 3 18 19 -4 16 0 20 18 20 13 0 27 -4 30 -10z"/>
<path d="M17465 1011 c-27 -10 -45 -20 -40 -23 6 -2 4 -3 -3 -1 -19 4 -90 -34
-148 -81 -61 -48 -127 -134 -119 -153 2 -8 1 -11 -4 -8 -13 7 -23 -28 -15 -51
4 -14 3 -16 -4 -5 -13 19 -26 -37 -18 -81 5 -25 4 -28 -3 -13 -7 14 -9 -2 -9
-55 0 -58 2 -68 9 -45 6 22 7 11 5 -37 -2 -43 0 -66 6 -62 6 4 8 -2 3 -14 -8
-27 28 -110 58 -135 12 -10 15 -16 7 -12 -8 4 -1 -5 16 -21 16 -16 21 -22 10
-14 -12 8 -9 1 8 -17 16 -18 33 -30 37 -27 4 2 11 -1 15 -7 5 -8 2 -10 -7 -5
-8 4 4 -9 26 -29 21 -19 45 -33 53 -30 7 2 11 1 8 -4 -8 -13 90 -52 110 -44
11 4 15 2 11 -4 -9 -14 113 -33 213 -33 45 0 79 4 76 8 -3 5 9 6 26 4 22 -3
29 -1 24 7 -6 8 0 10 21 6 22 -5 25 -4 13 5 -12 9 -11 10 7 5 26 -7 88 22 119
57 50 54 83 138 55 138 -11 0 -57 -72 -53 -83 1 -5 -1 -6 -6 -3 -5 3 -19 -6
-32 -19 -56 -59 -225 -90 -335 -62 -79 20 -138 47 -155 69 -3 3 -8 5 -11 5
-13 -4 -109 92 -130 129 -50 87 -57 108 -69 205 -26 210 8 337 110 418 27 21
46 42 42 45 -3 4 0 5 8 1 9 -3 33 4 55 15 21 11 48 20 60 20 17 0 18 2 5 11
-12 8 -11 9 5 5 11 -3 63 -6 116 -8 54 -2 95 -6 94 -9 -2 -3 15 -10 38 -17 23
-6 63 -24 88 -40 37 -24 48 -38 61 -78 9 -31 22 -50 33 -52 11 -3 15 0 11 7
-4 6 -3 11 3 11 6 0 8 12 6 28 -5 26 -13 93 -14 119 -2 34 -211 83 -351 82
-64 0 -112 -6 -145 -18z"/>
<path d="M18520 880 c-103 -14 -215 -73 -284 -150 -48 -53 -90 -144 -81 -178
3 -14 2 -21 -4 -18 -5 4 -9 -29 -10 -81 0 -65 2 -84 10 -73 8 11 9 7 5 -18 -3
-18 -2 -31 3 -28 5 4 14 -8 20 -26 13 -38 14 -48 1 -28 -6 10 -10 11 -10 3 0
-7 10 -23 23 -35 12 -13 21 -27 19 -32 -4 -13 108 -124 155 -151 69 -41 154
-58 268 -53 100 5 134 16 219 71 50 32 130 128 164 196 34 68 37 84 40 170 3
79 0 106 -18 153 -19 52 -82 148 -103 157 -4 1 -18 13 -30 25 -35 35 -136 77
-217 92 -82 15 -90 15 -170 4z m220 -79 c71 -37 111 -76 137 -133 9 -20 20
-35 24 -33 4 3 5 -5 1 -17 -3 -13 -1 -19 5 -15 7 5 9 -1 5 -15 -3 -14 -1 -19
6 -14 8 5 10 -3 7 -26 -3 -20 -2 -26 2 -16 5 10 8 -34 8 -96 0 -63 -3 -110 -6
-104 -3 5 -9 -9 -13 -32 -15 -92 -82 -181 -164 -218 -82 -37 -253 -26 -301 19
-10 10 -21 16 -23 13 -6 -6 -63 59 -60 69 1 4 -2 7 -8 7 -5 0 -20 19 -32 42
-48 91 -53 118 -53 258 0 123 2 139 24 185 28 55 78 107 122 125 16 7 26 16
23 21 -3 5 3 6 12 2 11 -4 15 -2 11 4 -4 7 30 10 101 9 101 -1 110 -3 172 -35z"/>
<path d="M21660 883 c-46 -8 -120 -34 -120 -43 0 -5 -10 -14 -21 -21 -15 -7
-19 -8 -15 0 5 7 1 9 -8 5 -9 -3 -14 -10 -11 -14 3 -4 -3 -7 -13 -6 -9 0 -16
-5 -14 -12 1 -8 -2 -11 -7 -7 -11 6 -91 -61 -91 -77 0 -6 8 -4 18 3 15 13 16
12 4 -3 -8 -10 -18 -16 -24 -15 -6 1 -24 -25 -41 -58 -36 -69 -47 -176 -28
-264 14 -66 61 -162 74 -154 6 3 7 1 3 -5 -4 -6 15 -35 41 -64 91 -102 221
-146 396 -134 109 6 134 10 143 19 4 4 14 7 22 7 26 0 70 40 96 87 33 58 19
78 -19 27 -79 -104 -337 -125 -454 -37 -20 15 -37 31 -39 35 -2 4 -9 8 -15 8
-18 1 -72 78 -104 146 -25 53 -27 70 -28 174 0 100 3 122 24 167 27 60 110
144 167 168 60 26 179 31 248 11 101 -30 162 -70 188 -126 14 -31 30 -49 41
-50 20 0 20 3 6 101 l-12 76 -51 16 c-108 34 -278 53 -356 40z"/>
<path d="M23895 884 c-69 -15 -104 -28 -98 -37 3 -6 1 -7 -5 -3 -14 8 -92 -30
-92 -45 0 -6 -4 -8 -9 -4 -5 3 -22 -7 -38 -21 -15 -15 -19 -20 -8 -13 18 13
19 13 6 -3 -7 -10 -17 -16 -21 -13 -12 8 -43 -33 -34 -46 4 -8 3 -10 -4 -5
-19 11 -63 -87 -57 -126 3 -20 2 -26 -2 -16 -5 10 -8 -34 -8 -96 0 -63 4 -109
8 -103 5 7 6 0 2 -16 -4 -21 -3 -27 6 -21 9 5 10 2 6 -10 -9 -22 27 -92 67
-130 17 -16 25 -26 19 -22 -9 5 -11 2 -7 -8 3 -9 9 -14 14 -11 4 2 18 -7 31
-22 78 -85 299 -124 454 -81 76 22 188 110 245 194 64 91 93 266 62 370 -17
59 -77 144 -126 180 -47 35 -137 83 -170 90 -101 22 -189 28 -241 18z m182
-60 c26 -9 60 -25 75 -36 16 -11 32 -17 37 -14 9 6 37 -21 35 -33 -3 -12 34
-50 41 -43 5 4 5 2 2 -5 -4 -6 -1 -17 6 -25 7 -7 14 -17 15 -23 6 -39 15 -64
21 -61 4 3 5 -9 3 -26 -3 -19 -1 -28 5 -25 12 8 7 -122 -8 -208 -31 -170 -145
-265 -320 -265 -75 0 -172 30 -189 58 -5 9 -10 13 -10 9 0 -22 -79 77 -110
138 -33 64 -35 77 -38 179 -6 167 29 260 123 332 79 60 214 81 312 48z"/>
<path d="M22212 865 c-3 -5 -6 -35 -6 -65 1 -36 -1 -48 -7 -35 -6 16 -8 17 -8
3 -2 -40 29 -29 44 17 l10 30 128 3 127 3 0 -366 c0 -331 -2 -367 -17 -385
-10 -11 -25 -20 -35 -20 -10 0 -18 -7 -18 -15 0 -13 22 -15 141 -15 108 0 140
3 137 13 -3 6 -21 13 -41 15 -25 2 -41 10 -49 25 -10 16 -14 117 -16 385 l-3
363 128 -3 128 -3 10 -32 c18 -62 45 -26 45 61 l0 31 -346 0 c-220 0 -348 -4
-352 -10z m305 -492 c-1 -81 -3 -17 -3 142 0 160 2 226 3 148 2 -78 2 -208 0
-290z"/>
<path d="M19220 849 c0 -18 5 -21 29 -17 17 2 28 1 25 -3 -2 -4 5 -10 16 -14
11 -3 20 -11 20 -16 0 -6 3 -8 8 -6 11 7 3 -703 -8 -724 -7 -12 -6 -20 2 -25
9 -6 5 -10 -12 -15 -14 -4 82 -7 213 -8 157 -1 236 2 232 9 -3 6 -1 10 4 10 6
0 11 8 11 19 0 17 -7 18 -107 14 -99 -5 -205 9 -189 24 3 3 -1 11 -8 19 -20
19 -29 219 -22 472 3 117 8 217 11 222 3 6 23 13 44 16 27 4 37 11 38 25 2 18
-7 19 -153 19 -150 0 -154 -1 -154 -21z m117 -551 c-1 -90 -3 -19 -3 157 0
176 2 249 3 163 2 -86 2 -230 0 -320z"/>
<path d="M19937 850 c-4 -16 2 -21 28 -29 63 -17 60 -1 57 -389 -2 -237 -6
-360 -14 -369 -6 -7 -19 -13 -30 -13 -11 0 -18 -5 -16 -12 4 -10 64 -14 246
-16 207 -2 242 -1 242 12 0 8 2 20 5 28 4 11 -17 12 -110 10 -63 -2 -123 -1
-133 4 -9 4 -23 8 -31 10 -8 1 -24 12 -35 24 -20 20 -21 31 -24 360 l-3 340
23 10 c15 5 18 9 8 11 -8 1 3 5 25 8 22 3 40 11 40 16 0 6 -54 11 -136 13
-129 2 -137 2 -142 -18z m100 -387 c-1 -54 -3 -12 -3 92 0 105 2 149 3 98 2
-51 2 -136 0 -190z"/>
<path d="M20595 860 c-12 -20 7 -32 41 -27 21 4 32 2 29 -4 -4 -5 0 -9 8 -9 8
0 17 -10 21 -22 11 -42 7 -718 -5 -718 -5 0 -7 -4 -4 -10 3 -5 -2 -10 -12 -10
-14 -1 -13 -4 7 -15 l25 -13 -35 -4 c-19 -2 70 -4 198 -6 l232 -3 10 26 c6 15
10 27 10 28 0 1 -52 0 -115 -2 -128 -4 -166 6 -184 45 -7 15 -11 87 -11 184
l0 160 103 0 c98 0 105 -1 115 -22 7 -15 11 -17 11 -8 1 13 2 13 11 0 7 -11
10 0 10 39 0 51 -1 53 -22 45 -13 -4 -70 -8 -128 -8 l-105 -1 -3 158 -3 157
104 0 c132 0 167 -7 167 -31 0 -11 6 -19 13 -19 9 0 14 16 16 50 l2 50 -250 0
c-156 0 -252 -4 -256 -10z m122 -608 c-1 -75 -3 -13 -3 138 0 151 2 213 3 137
2 -75 2 -199 0 -275z"/>
<path d="M23073 856 c18 -14 18 -14 0 -20 -10 -3 1 -4 24 -3 23 1 41 0 41 -3
0 -3 0 -12 2 -20 1 -12 3 -11 8 2 4 10 7 -149 7 -352 0 -204 -3 -370 -6 -370
-4 0 -9 -9 -12 -19 -2 -11 -15 -21 -28 -24 -21 -4 -20 -5 6 -7 l30 -2 -30 -8
c-19 -5 20 -8 103 -9 111 -1 132 1 132 14 0 11 -11 15 -36 15 -62 0 -65 17
-62 422 l3 353 45 4 c35 2 41 5 25 11 -17 7 -17 9 -2 9 9 1 17 6 17 11 0 6
-54 10 -142 10 -124 -1 -141 -2 -125 -14z"/>
<path d="M24681 808 c0 -41 3 -56 8 -43 4 11 8 -129 8 -310 0 -182 -3 -310 -7
-285 -7 40 -8 36 -7 -29 l0 -75 -34 -13 c-19 -7 -24 -11 -11 -9 12 2 22 0 22
-4 0 -5 -10 -11 -22 -13 -13 -2 33 -5 100 -6 95 -1 123 2 120 12 -3 6 -24 14
-49 17 -40 5 -45 8 -55 40 -7 20 -15 162 -19 335 l-7 300 26 -24 c14 -14 24
-26 21 -29 -6 -6 40 -42 55 -42 7 0 10 -6 7 -14 -3 -8 3 -22 13 -31 11 -10 17
-22 14 -26 -3 -5 1 -6 9 -3 15 5 119 -96 123 -119 1 -7 42 -52 92 -101 50 -49
89 -94 85 -99 -3 -6 -2 -7 4 -4 10 6 90 -69 86 -81 -2 -4 1 -7 6 -7 4 0 21
-16 37 -35 49 -58 86 -90 105 -90 18 0 19 17 19 391 0 427 -1 419 59 419 16 0
32 4 35 9 4 5 -4 7 -16 4 -23 -5 -23 -5 -3 10 19 15 12 16 -91 17 -100 0 -112
-2 -110 -17 1 -12 12 -20 36 -23 27 -4 36 -10 38 -28 2 -13 8 -20 14 -16 8 5
9 -16 5 -71 -4 -43 -7 -173 -7 -289 0 -119 -5 -218 -10 -226 -8 -12 -32 8
-125 102 -63 65 -115 123 -115 129 0 6 -6 9 -14 6 -16 -6 -50 26 -39 37 4 4 0
12 -10 17 -9 6 -14 15 -11 21 4 6 3 8 -3 5 -6 -4 -22 2 -34 13 -20 17 -21 19
-5 13 11 -4 -1 13 -27 39 -25 25 -43 49 -39 53 4 4 1 5 -7 3 -8 -2 -20 9 -28
23 -7 14 -26 36 -43 49 -16 13 -30 27 -30 31 0 5 -27 36 -60 69 -42 41 -69 60
-85 60 -24 0 -25 -3 -24 -62z"/>
</g>
</svg>
