<!-- SkyyRose Spinning Logo -->
<svg xmlns="http://www.w3.org/2000/svg" viewBox="0 0 100 100" class="skyyrose-logo__spinner">
  <!-- Outer Ring -->
  <circle cx="50" cy="50" r="48" fill="none" stroke="currentColor" stroke-width="1" opacity="0.3"/>
  
  <!-- Rose Petals (Stylized) -->
  <g fill="currentColor">
    <!-- Center Petal -->
    <path d="M50 15 C55 25, 60 35, 50 50 C40 35, 45 25, 50 15" opacity="0.9"/>
    
    <!-- Right Petal -->
    <path d="M85 50 C75 55, 65 60, 50 50 C65 40, 75 45, 85 50" opacity="0.8"/>
    
    <!-- Bottom Petal -->
    <path d="M50 85 C45 75, 40 65, 50 50 C60 65, 55 75, 50 85" opacity="0.9"/>
    
    <!-- Left Petal -->
    <path d="M15 50 C25 45, 35 40, 50 50 C35 60, 25 55, 15 50" opacity="0.8"/>
    
    <!-- Diagonal Petals -->
    <path d="M75 25 C68 32, 58 42, 50 50 C58 42, 68 32, 75 25" opacity="0.6" transform="rotate(45 50 50)"/>
    <path d="M75 25 C68 32, 58 42, 50 50 C58 42, 68 32, 75 25" opacity="0.6" transform="rotate(135 50 50)"/>
    <path d="M75 25 C68 32, 58 42, 50 50 C58 42, 68 32, 75 25" opacity="0.6" transform="rotate(225 50 50)"/>
    <path d="M75 25 C68 32, 58 42, 50 50 C58 42, 68 32, 75 25" opacity="0.6" transform="rotate(315 50 50)"/>
  </g>
  
  <!-- Center Circle -->
  <circle cx="50" cy="50" r="8" fill="currentColor"/>
  
  <!-- Inner Accent Ring -->
  <circle cx="50" cy="50" r="42" fill="none" stroke="currentColor" stroke-width="0.5" opacity="0.2"/>
</svg>